<svg height="437pt" viewBox="-13 0 437 437.7998" width="437pt" xmlns="http://www.w3.org/2000/svg"><path d="m404.796875 154.082031-49.289063-122.523437c-.011718-.023438-.023437-.042969-.035156-.066406-.058594-.148438-.128906-.292969-.199218-.433594-.046876-.101563-.089844-.203125-.140626-.292969-.066406-.125-.144531-.246094-.21875-.367187-.0625-.101563-.121093-.210938-.1875-.3125-.066406-.097657-.152343-.207032-.230468-.308594-.074219-.105469-.152344-.214844-.234375-.316406-.082031-.101563-.175781-.195313-.261719-.292969-.089844-.09375-.167969-.191407-.257812-.28125-.089844-.089844-.214844-.199219-.328126-.300781-.082031-.070313-.160156-.148438-.246093-.21875-.109375-.09375-.230469-.175782-.347657-.261719-.09375-.070313-.183593-.140625-.277343-.199219-.09375-.0625-.21875-.132812-.324219-.203125-.109375-.066406-.234375-.144531-.355469-.207031-.101562-.050782-.199219-.097656-.300781-.144532-.140625-.070312-.28125-.136718-.429688-.199218l-.066406-.03125c-.078125-.03125-.15625-.050782-.234375-.082032-.148437-.054687-.296875-.109374-.449219-.152343-.109374-.035157-.21875-.0625-.324218-.089844-.144532-.035156-.289063-.070313-.4375-.097656-.117188-.023438-.230469-.042969-.34375-.058594-.144532-.023437-.289063-.042969-.433594-.058594-.113281-.007812-.230469-.015625-.34375-.019531-.144531-.007812-.292969-.015625-.4375-.015625-.113281 0-.230469.007813-.34375.011719-.144531.007812-.289062.015625-.4375.027344-.113281.011718-.230469.03125-.34375.046874-.140625.019532-.28125.039063-.421875.070313-.140625.027344-.25.054687-.375.085937-.125.035157-.25.0625-.375.101563-.144531.046875-.289063.101563-.429687.148437-.082032.03125-.160157.050782-.242188.082032-.023438.011718-.042969.023437-.066406.03125-.152344.066406-.300782.136718-.449219.207031-.089844.046875-.183594.085937-.273437.132813-.136719.074218-.265626.15625-.398438.238281-.042969.023437-.082031.046875-.121094.070312h-107.613281c-1.582031-15.78125-14.867187-27.800781-30.726563-27.800781-15.863281 0-29.144531 12.019531-30.726562 27.800781h-107.621094c-.035156-.023437-.078125-.046875-.113281-.066406-.136719-.082031-.269531-.167969-.40625-.242187-.085937-.042969-.175781-.082032-.261719-.125-.152344-.074219-.304687-.148438-.464844-.214844-.023437-.007813-.039062-.019532-.0625-.03125-.070312-.027344-.140624-.046875-.214843-.070313-.15625-.058593-.3125-.117187-.472657-.164062-.097656-.03125-.207031-.058594-.3125-.082031-.148437-.039063-.300781-.078126-.445312-.101563-.113281-.023437-.226562-.039063-.339844-.054687-.144531-.023438-.289062-.042969-.433594-.058594-.117187-.011719-.230468-.015625-.347656-.023438-.144531-.007812-.289062-.011718-.4375-.011718-.113281 0-.226562.003906-.339844.007812-.144531.007812-.292968.015625-.4375.03125-.117187.011719-.230468.027344-.34375.042969-.140624.023437-.285156.042969-.425781.070312-.121093.027344-.242187.058594-.359375.085938-.121094.03125-.265625.066406-.394531.101562-.128906.035157-.265625.089844-.398437.136719-.089844.03125-.179688.058594-.265626.09375-.027343.011719-.050781.023438-.078124.035156-.132813.054688-.265626.121094-.398438.183594-.105469.050781-.21875.101562-.320312.15625-.105469.054688-.222657.128906-.332032.199219-.113281.070312-.238281.136719-.347656.210937-.089844.0625-.179688.128906-.265625.199219-.121094.089844-.246094.171875-.359375.269531-.085938.070313-.167969.148438-.253906.226563-.105469.097656-.214844.1875-.316406.292969-.105469.101562-.179688.199218-.269532.296874-.089844.101563-.171875.183594-.25.277344-.078125.097656-.167968.222656-.25.332032-.082031.113281-.148437.195312-.214844.296874-.070312.097657-.128906.210938-.195312.316407-.0625.105469-.148438.238281-.210938.363281-.050781.097656-.097656.199219-.144531.292969-.070312.140625-.136719.285156-.199219.429687-.011718.023438-.023437.042969-.03125.070313l-49.289062 122.507812c-3.378906 1.015625-5.691406 4.128907-5.695312 7.65625 0 17.386719 6.546874 32.023438 18.929687 42.332031 11.125 9.253907 26.5625 14.351563 43.476563 14.351563 36.972656 0 62.800781-23.308594 62.800781-56.683594-.003907-3.695312-2.539063-6.90625-6.128907-7.769531l-44.324218-110.167969h102.253906c3.851562 8.320313 11.1875 14.507813 20.039062 16.902344v168.097656h-48.882812c-12.296875.066407-24.394531 3.09375-35.273438 8.832031l-12.84375 6.9375v-2.941406c0-4.417968-3.9375-7.828125-8.355468-7.828125h-64.46875c-4.417969-.09375-8.078125 3.40625-8.175782 7.828125v187.972656c.066407 4.488282 3.6875 8.117188 8.175782 8.199219h64.46875c4.527344-.066406 8.203125-3.675781 8.355468-8.199219v-7.460937l12.84375 6.882813c10.882813 5.71875 22.980469 8.726562 35.273438 8.777343h102.375c12.402344-.039062 23.679688-7.203125 28.976562-18.417969 5.300782-11.210937 3.675782-24.472656-4.171874-34.078124 8.425781-4.796876 14.226562-13.152344 15.777343-22.722657 1.554688-9.570312-1.3125-19.328125-7.789062-26.542969 7.519531-4.957031 12.601562-12.855468 14.003906-21.753906 1.398437-8.898437-1.015625-17.972656-6.652344-25 12.847657-7.09375 19.285157-21.96875 15.664063-36.191406-3.617188-14.21875-16.382813-24.207031-31.058594-24.292969h-62.242188v-168.097656c8.847657-2.394531 16.183594-8.582031 20.035157-16.902344h102.257812l-44.324219 110.167969c-3.589843.863281-6.125 4.074219-6.128906 7.769531 0 17.386719 6.546875 32.023438 18.929688 42.332031 11.125 9.253907 26.5625 14.351563 43.476562 14.351563 36.972656 0 62.800782-23.308594 62.800782-56.683594 0-3.527343-2.316407-6.640625-5.695313-7.65625zm-341.992187 48.398438c-29.457032.003906-42.566407-16.679688-45.660157-32.679688h91.769531c-4.03125 22-25.15625 32.683594-46.109374 32.683594zm39.328124-48.679688h-78.65625l39.328126-97.761719zm-17.6875 268h-49v-172h49zm191.242188-177c8.835938 0 16 7.164063 16 16 0 8.835938-7.164062 16-16 16h-33c-4.417969 0-8 3.582031-8 8s3.582031 8 8 8h23.375c8.855469 0 16.058594 7.644531 16.058594 16.5s-7.199219 16.5-16.058594 16.5h-30.25c-4.417969 0-8 3.582031-8 8s3.582031 8 8 8h24.0625c8.835938 0 16 7.164063 16 16 0 8.835938-7.164062 16-16 16h-30.929688c-4.417968 0-8 3.582031-8 8s3.582032 8 8 8h22c8.835938 0 16 7.164063 16 16 0 8.835938-7.164062 16-16 16h-102.382812c-9.71875-.046875-19.285156-2.4375-27.882812-6.972656l-20.234376-10.726563v-141.492187l20.234376-10.789063c8.59375-4.546874 18.160156-6.957031 27.882812-7.019531zm-70.242188-199.039062c-8.21875 0-14.882812-6.664063-14.882812-14.882813s6.664062-14.878906 14.882812-14.878906 14.878907 6.664062 14.878907 14.882812c-.011719 8.210938-6.667969 14.867188-14.878907 14.878907zm142.636719 10.277343 39.332031 97.761719h-78.660156zm-.390625 146.445313c-29.457031 0-42.566406-16.683594-45.664062-32.683594h91.773437c-4.03125 22-25.15625 32.683594-46.109375 32.683594zm0 0"/></svg>