<svg height="485pt" viewBox="0 -24 485 485" width="485pt" xmlns="http://www.w3.org/2000/svg"><path d="m199.933594 283.257812c44.007812 0 79.679687-35.675781 79.679687-79.679687s-35.675781-79.675781-79.679687-79.675781-79.675782 35.671875-79.675782 79.675781c.050782 43.984375 35.695313 79.628906 79.675782 79.679687zm0-143.355468c35.167968 0 63.679687 28.511718 63.679687 63.675781 0 35.167969-28.511719 63.679687-63.679687 63.679687-35.167969 0-63.675782-28.511718-63.675782-63.679687.039063-35.152344 28.523438-63.640625 63.675782-63.679687zm0 0"/><path d="m199.933594 240.429688c20.355468 0 36.851562-16.5 36.851562-36.851563s-16.5-36.851563-36.851562-36.851563c-20.351563 0-36.851563 16.5-36.847656 36.851563.019531 20.34375 16.507812 36.828125 36.847656 36.851563zm0-57.699219c11.515625 0 20.851562 9.335937 20.851562 20.851562s-9.335937 20.851563-20.851562 20.851563-20.847656-9.335938-20.847656-20.851563c.011718-11.511719 9.339843-20.839843 20.847656-20.851562zm0 0"/><path d="m368 263.546875c15.039062 0 27-12.65625 27-28.210937v-77.949219c0-15.554688-11.960938-28.207031-27-28.207031s-27 12.652343-27 28.207031v77.949219c0 15.554687 11.960938 28.210937 27 28.210937zm-11-106.160156c0-6.730469 4.78125-12.207031 11-12.207031s11 5.476562 11 12.207031v77.949219c0 6.730468-4.78125 12.210937-11 12.210937s-11-5.480469-11-12.210937zm0 0"/><path d="m8.5 303h4.5v61.101562c0 23.507813 18.910156 42.898438 41.542969 42.898438h25.457031v21c0 4.417969 3.582031 8 8 8s8-3.582031 8-8v-21h304v21c0 4.417969 3.582031 8 8 8s8-3.582031 8-8v-21h28.457031c22.632813 0 40.542969-19.390625 40.542969-42.898438v-321.039062c0-23.511719-17.910156-43.0625-40.542969-43.0625h-389.914062c-22.632813 0-41.542969 19.550781-41.542969 43.0625v61.9375h-4.5c-4.417969 0-8.5 3.160156-8.5 7.578125v42c.199219 4.597656 3.902344 8.265625 8.5 8.421875h4.5v82h-4.5c-4.417969 0-8.5 3.160156-8.5 7.578125v42c.199219 4.597656 3.902344 8.265625 8.5 8.421875zm20.5-259.9375c0-14.691406 11.734375-27.0625 25.542969-27.0625h389.914062c13.808594 0 24.542969 12.371094 24.542969 27.0625v321.039062c0 14.6875-10.734375 26.898438-24.542969 26.898438h-389.914062c-13.808594 0-25.542969-12.214844-25.542969-26.898438v-61.101562h29v32.226562c0 13.960938 10.558594 25.773438 24.078125 25.773438h334.84375c13.519531 0 24.078125-11.8125 24.078125-25.773438v-263.292968c0-13.960938-10.558594-24.933594-24.078125-24.933594h-334.84375c-13.519531 0-24.078125 10.972656-24.078125 24.933594v33.066406h-29zm49 201.9375h-4v-82h4c4.417969 0 8-4 8-8.421875v-42c0-4.417969-3.582031-7.578125-8-7.578125h-4v-33.066406c0-5.140625 3.382812-8.933594 8.078125-8.933594h334.84375c4.699219 0 8.078125 3.792969 8.078125 8.933594v263.292968c0 5.140626-3.382812 9.773438-8.078125 9.773438h-334.84375c-4.699219 0-8.078125-4.632812-8.078125-9.773438v-32.226562h4c4.417969 0 8-4 8-8.421875v-42c0-4.417969-3.582031-7.578125-8-7.578125zm-62-124h54v26h-54zm42 42v82h-29v-82zm-42 98h54v26h-54zm0 0"/></svg>