<?xml version="1.0" encoding="iso-8859-1"?>
<!-- Generator: Adobe Illustrator 19.0.0, SVG Export Plug-In . SVG Version: 6.00 Build 0)  -->
<svg version="1.1" id="Capa_1" xmlns="http://www.w3.org/2000/svg" xmlns:xlink="http://www.w3.org/1999/xlink" x="0px" y="0px"
	 viewBox="0 0 463 463" style="enable-background:new 0 0 463 463;" xml:space="preserve">
<path d="M439.5,376H439V87h0.5c12.958,0,23.5-10.542,23.5-23.5S452.458,40,439.5,40h-416C10.542,40,0,50.542,0,63.5
	S10.542,87,23.5,87H24v289h-0.5C10.542,376,0,386.542,0,399.5S10.542,423,23.5,423h416c12.958,0,23.5-10.542,23.5-23.5
	S452.458,376,439.5,376z M424,376h-25V87h25V376z M319,376v-61.422l4.57,1.828c12.411,4.964,20.43,16.809,20.43,30.175V359.5
	c0,0.01,0.001,0.019,0.001,0.029V376H319z M279,376v-77.422l25,10V376H279z M239,376v-89.474c9.091-1.111,17.573-4.207,25-8.849
	v9.951c0,0.008,0,0.016,0,0.024V376H239z M199,376v-88.349c0-0.008,0-0.016,0-0.024v-9.951c7.427,4.643,15.909,7.738,25,8.849V376
	H199z M159,376v-67.422l25-10V376H159z M119,376v-16.5v-12.919c0-13.366,8.019-25.211,20.43-30.175l4.57-1.828V376H119z M81.58,376
	l16.061-53.537c1.92,1.407,4.06,2.527,6.359,3.303v20.815V359.5V376H81.58z M104,87v178.234c-9.29,3.138-16,11.93-16,22.266v14.899
	l-9,30V87H104z M144,87v211.422l-9,3.6V287.5c0-10.336-6.71-19.128-16-22.266V87H144z M184,87v58.368
	c-8.555,7.251-14,18.065-14,30.132v50c0,14.801,5.257,28.396,14,39.019v17.903l-25,10V87H184z M224,87v49h-14.5
	c-3.636,0-7.154,0.504-10.5,1.428V87H224z M264,87v50.428c-3.346-0.924-6.864-1.428-10.5-1.428H239V87H264z M304,87v205.422l-25-10
	v-17.903c8.743-10.624,14-24.219,14-39.019v-50c0-12.067-5.445-22.881-14-30.132V87H304z M344,87v178.234
	c-9.29,3.138-16,11.93-16,22.266v14.522l-9-3.6V87H344z M384,87v245.399l-9-30V287.5c0-10.336-6.71-19.128-16-22.266V87H384z
	 M351.5,312c-4.687,0-8.5-3.813-8.5-8.5v-16c0-4.687,3.813-8.5,8.5-8.5s8.5,3.813,8.5,8.5v15.895c0,0.022,0,0.044,0,0.067v0.038
	C360,308.187,356.187,312,351.5,312z M199,153.369c3.184-1.517,6.744-2.369,10.5-2.369H224v120.387
	c-9.648-1.572-18.305-6.121-25-12.673V153.369z M239,151h14.5c3.756,0,7.316,0.852,10.5,2.369v105.345
	c-6.695,6.552-15.352,11.102-25,12.673V151z M103,303.462c0-0.022,0-0.044,0-0.067V287.5c0-4.687,3.813-8.5,8.5-8.5
	s8.5,3.813,8.5,8.5v16c0,4.687-3.813,8.5-8.5,8.5s-8.5-3.813-8.5-8.5V303.462z M359.001,325.765
	c2.298-0.776,4.438-1.896,6.357-3.302L381.42,376h-22.418V325.765z M15,63.5c0-4.687,3.813-8.5,8.5-8.5h416
	c4.687,0,8.5,3.813,8.5,8.5s-3.813,8.5-8.5,8.5h-416C18.813,72,15,68.187,15,63.5z M39,87h25v289H39V87z M439.5,408h-416
	c-4.687,0-8.5-3.813-8.5-8.5s3.813-8.5,8.5-8.5h47.976c0.009,0,0.018,0.002,0.027,0.002c0.008,0,0.016-0.002,0.024-0.002h319.946
	c0.008,0,0.016,0.002,0.024,0.002c0.009,0,0.018-0.002,0.027-0.002H439.5c4.687,0,8.5,3.813,8.5,8.5S444.187,408,439.5,408z"/>
<g>
</g>
<g>
</g>
<g>
</g>
<g>
</g>
<g>
</g>
<g>
</g>
<g>
</g>
<g>
</g>
<g>
</g>
<g>
</g>
<g>
</g>
<g>
</g>
<g>
</g>
<g>
</g>
<g>
</g>
</svg>
