<svg height="496pt" viewBox="0 0 496 496" width="496pt" xmlns="http://www.w3.org/2000/svg"><path d="m145.769531 134.335938c8.628907-7.34375 14.230469-18.144532 14.230469-30.335938 0-22.054688-17.945312-40-40-40s-40 17.945312-40 40c0 12.191406 5.601562 22.992188 14.230469 30.335938-17.933594 9.34375-30.230469 28.078124-30.230469 49.664062v16c0 4.425781 3.585938 8 8 8h96c4.414062 0 8-3.574219 8-8v-16c0-21.585938-12.296875-40.320312-30.230469-49.664062zm-49.769531-30.335938c0-13.230469 10.769531-24 24-24s24 10.769531 24 24-10.769531 24-24 24-24-10.769531-24-24zm64 88h-80v-8c0-22.054688 17.945312-40 40-40s40 17.945312 40 40zm0 0"/><path d="m200 240c4.414062 0 8-3.574219 8-8v-192c0-4.425781-3.585938-8-8-8h-160c-4.414062 0-8 3.574219-8 8v192c0 4.425781 3.585938 8 8 8zm-152-192h144v176h-144zm0 0"/><path d="m32 256h176v16h-176zm0 0"/><path d="m32 288h176v16h-176zm0 0"/><path d="m32 320h320v16h-320zm0 0"/><path d="m32 352h320v16h-320zm0 0"/><path d="m32 384h320v16h-320zm0 0"/><path d="m475.695312 149.71875 15.335938 4.5625c1.664062-5.578125 2.921875-11.34375 3.753906-17.144531l-15.832031-2.28125c-.730469 5.03125-1.816406 10.03125-3.257813 14.863281zm0 0"/><path d="m376 224c-7.511719 0-15.015625-.808594-22.296875-2.390625l-3.414063 15.621094c5.808594 1.273437 11.742188 1.945312 17.703126 2.335937v192.433594h-40c-4.417969 0-8 3.574219-8 8v40h-303.992188v-464h300.335938c-12.078126 6.9375-23.046876 15.902344-32.246094 26.847656l12.246094 10.296875c19.832031-23.609375 48.871093-37.144531 79.664062-37.144531 57.34375 0 104 46.65625 104 104h16c0-66.167969-53.832031-120-120-120h-368c-4.414062 0-8 3.574219-8 8v480c0 4.425781 3.585938 8 8 8h320c2.214844 0 4.214844-.894531 5.664062-2.351562l47.984376-47.984376c1.457031-1.449218 2.351562-3.449218 2.351562-5.664062v-200.289062c42.96875-2.910157 81.816406-29.046876 100.449219-68.277344l-14.457031-6.859375c-17.144532 36.097656-54.039063 59.425781-93.992188 59.425781zm-19.3125 224-20.6875 20.6875v-20.6875zm0 0"/><path d="m316 223.9375c5.457031 3.160156 11.222656 5.910156 17.136719 8.175781l5.734375-14.9375c-5.136719-1.96875-10.136719-4.351562-14.863282-7.085937zm0 0"/><path d="m256 120c0 36.992188 16.679688 71.359375 45.761719 94.28125l9.902343-12.5625c-25.207031-19.878906-39.664062-49.65625-39.664062-81.71875 0-2.496094.089844-4.976562.265625-7.433594l-15.960937-1.140625c-.199219 2.832031-.304688 5.703125-.304688 8.574219zm0 0"/><path d="m286.847656 66.414062-13.703125-8.261718c-6.761719 11.222656-11.601562 23.382812-14.382812 36.152344l15.628906 3.40625c2.417969-11.054688 6.609375-21.574219 12.457031-31.296876zm0 0"/><path d="m393.59375 206.238281-3.179688-15.6875c-4.726562.960938-9.574218 1.449219-14.414062 1.449219-39.695312 0-72-32.296875-72-72 0-10.015625 2.015625-19.703125 5.992188-28.800781l-14.664063-6.398438c-4.863281 11.121094-7.328125 22.96875-7.328125 35.199219 0 48.519531 39.480469 88 88 88 5.902344 0 11.824219-.59375 17.59375-1.761719zm0 0"/><path d="m332.808594 62.390625-9.617188-12.796875c-6.664062 5.015625-12.582031 10.925781-17.582031 17.589844l12.789063 9.609375c4.097656-5.449219 8.945312-10.296875 14.410156-14.402344zm0 0"/><path d="m464 120c0-48.519531-39.480469-88-88-88-13.464844 0-26.375 2.960938-38.398438 8.808594l6.992188 14.390625c9.820312-4.773438 20.390625-7.199219 31.40625-7.199219 39.695312 0 72 32.296875 72 72 0 10.015625-2.015625 19.703125-5.992188 28.800781l14.664063 6.40625c4.863281-11.128906 7.328125-22.976562 7.328125-35.207031zm0 0"/><path d="m446.390625 172.816406-12.78125-9.617187c-4.105469 5.457031-8.953125 10.304687-14.410156 14.417969l9.617187 12.78125c6.664063-5.007813 12.574219-10.925782 17.574219-17.582032zm0 0"/><path d="m432 120c0-30.871094-25.121094-56-56-56s-56 25.128906-56 56 25.121094 56 56 56 56-25.128906 56-56zm-56 40c-22.054688 0-40-17.945312-40-40s17.945312-40 40-40 40 17.945312 40 40-17.945312 40-40 40zm0 0"/><path d="m376 96c-13.230469 0-24 10.769531-24 24s10.769531 24 24 24 24-10.769531 24-24-10.769531-24-24-24zm0 32c-4.40625 0-8-3.585938-8-8s3.59375-8 8-8 8 3.585938 8 8-3.59375 8-8 8zm0 0"/></svg>