<svg height="464pt" viewBox="0 -50 464 464" width="464pt" xmlns="http://www.w3.org/2000/svg"><path d="m436.148438 158.894531-35.945313-87.054687c-5.6875-15.042969-19.863281-25.1875-35.9375-25.722656l-3.027344-15.464844c-3.503906-17.824219-19.136719-30.667969-37.300781-30.652344h-183.875c-18.164062-.015625-33.796875 12.828125-37.300781 30.652344l-3.167969 16.25c-13.464844 2.6875-24.597656 12.121094-29.460938 24.960937l-35.441406 85.828125-15.160156 14.019532c-12.375 10.527343-19.515625 25.953124-19.53125 42.199218v110.605469c.113281 21.894531 17.9375 39.5625 39.832031 39.484375h16.398438c10.515625.046875 20.613281-4.089844 28.074219-11.496094 7.460937-7.40625 11.667968-17.476562 11.695312-27.988281v-22.515625h272v22.515625c.085938 21.882813 17.886719 39.558594 39.769531 39.484375h16.398438c21.894531.078125 39.71875-17.589844 39.832031-39.484375v-114.230469c-.054688-15.191406-6.296875-29.699218-17.289062-40.183594zm-130.148438-142.894531h17.9375c10.5-.050781 19.5625 7.359375 21.601562 17.660156l2.421876 12.339844h-41.960938zm-66 0h50v30h-50zm-66 0h50v30h-50zm-55.535156 17.65625c2.039062-10.296875 11.097656-17.703125 21.597656-17.65625h17.9375v30h-41.960938zm-33.492188 43.984375c.039063-.089844.074219-.140625.105469-.230469 3.46875-9.257812 12.3125-15.398437 22.199219-15.410156h255.78125c9.902344.046875 18.742187 6.21875 22.199218 15.5.035157.09375.070313.03125.105469.121094l31.597657 76.378906h-363.582032zm-4.972656 246.875c-.027344 6.269531-2.550781 12.269531-7.011719 16.675781-4.457031 4.40625-10.488281 6.855469-16.757812 6.808594h-16.398438c-13.0625.085938-23.726562-10.421875-23.832031-23.484375v-29.949219c6.960938 4.929688 15.304688 7.53125 23.835938 7.433594h40.164062zm368 0c-.105469 13.0625-10.769531 23.570313-23.832031 23.484375h-16.398438c-13.050781.082031-23.695312-10.433594-23.769531-23.484375v-22.515625h40.167969c8.53125.097656 16.871093-2.503906 23.832031-7.433594zm0-69.6875v7.921875c0 13.054688-10.777344 23.25-23.832031 23.25h-384.332031c-13.054688 0-23.835938-10.195312-23.835938-23.25v-48.839844c.019531-11.617187 5.152344-22.636718 14.027344-30.128906.09375-.078125.226562-.332031.316406-.417969l14.222656-13.363281h380.386719l10.15625 11.03125c.113281.121094.308594.328125.429687.441406 7.910157 7.5 12.414063 17.910156 12.460938 28.8125zm0 0"/><path d="m137.742188 210.363281c-1.078126-3.28125-4.179688-5.460937-7.632813-5.363281h-75.492187c-2.03125-.089844-4.011719.671875-5.457032 2.101562-1.445312 1.429688-2.230468 3.398438-2.160156 5.429688v31.738281c-.078125 2.054688.699219 4.046875 2.140625 5.511719 1.441406 1.460938 3.421875 2.265625 5.476563 2.21875h85.492187c2.53125.050781 4.929687-1.113281 6.453125-3.132812 1.503906-1.984376 1.945312-4.582032 1.179688-6.953126zm-74.742188 25.636719v-15h61.242188l4.960937 15zm0 0"/><path d="m409.386719 205h-75.496094c-3.449219-.097656-6.554687 2.082031-7.628906 5.363281l-10 31.617188c-.765625 2.367187-.328125 4.960937 1.179687 6.945312 1.527344 2.003907 3.929688 3.148438 6.449219 3.074219h85.496094c2.054687.046875 4.035156-.757812 5.476562-2.222656 1.441407-1.460938 2.214844-3.453125 2.136719-5.507813v-31.738281c.070312-2.03125-.714844-4-2.160156-5.429688-1.445313-1.429687-3.421875-2.191406-5.453125-2.101562zm-8.386719 31h-66.199219l4.957031-15h61.242188zm0 0"/><path d="m300.308594 205h-136.609375c-2.566407.023438-4.972657 1.265625-6.472657 3.351562-1.5 2.085938-1.917968 4.757813-1.125 7.203126l10 30.773437c1.054688 3.324219 4.113282 5.605469 7.597657 5.671875h116.609375c3.484375-.0625 6.539062-2.339844 7.597656-5.660156l10-30.691406c.796875-2.464844.378906-5.15625-1.128906-7.261719-1.492188-2.097657-3.898438-3.351563-6.46875-3.386719zm-15.800782 31h-105.007812l-4.773438-15h114.550782zm0 0"/></svg>