<svg height="496pt" viewBox="0 0 496 496" width="496pt" xmlns="http://www.w3.org/2000/svg"><path d="m488 0h-480c-4.414062 0-8 3.585938-8 8v480c0 4.414062 3.585938 8 8 8h480c4.414062 0 8-3.585938 8-8v-480c0-4.414062-3.585938-8-8-8zm-8 480h-464v-464h464zm0 0"/><path d="m40 464h416c4.414062 0 8-3.585938 8-8v-416c0-4.414062-3.585938-8-8-8h-416c-4.414062 0-8 3.585938-8 8v416c0 4.414062 3.585938 8 8 8zm264-16h-112v-32h112zm16 0v-40c0-4.414062-3.585938-8-8-8h-128c-4.414062 0-8 3.585938-8 8v40h-46.777344l8.808594-61.65625c2.800781-19.574219 19.824219-34.34375 39.601562-34.34375h35.703126l29.863281 22.398438c2.839843 2.136718 6.761719 2.136718 9.601562 0l29.863281-22.398438h35.703126c19.777343 0 36.800781 14.769531 39.601562 34.34375l8.808594 61.65625zm-32-240h-32v-16c0-2.777344-1.441406-5.34375-3.792969-6.808594-2.359375-1.457031-5.304687-1.582031-7.78125-.351562l-36.425781 18.214844v-31.957032l13.472656 4.496094c.816406.269531 1.671875.40625 2.527344.40625h64zm-80 12.945312 32-16v11.054688c0 4.414062 3.585938 8 8 8h40v40c0 22.054688-17.945312 40-40 40s-40-17.945312-40-40zm40 99.054688c6.457031 0 12.632812-1.152344 18.40625-3.175781l4.761719 23.800781-23.167969 17.375-23.167969-17.375 4.761719-23.800781c5.773438 2.023437 11.949219 3.175781 18.40625 3.175781zm-200-272h400v400h-65.0625l-9.136719-63.921875c-3.914062-27.414063-27.746093-48.078125-55.433593-48.078125h-31.808594l-5.390625-26.976562c13.816406-10.207032 22.832031-26.558594 22.832031-45.023438v-96c0-4.414062-3.585938-8-8-8h-70.703125l-22.769531-7.59375c-2.4375-.8125-5.128906-.414062-7.207032 1.105469-2.089843 1.503906-3.320312 3.921875-3.320312 6.488281v104c0 18.464844 9.015625 34.816406 22.839844 45.023438l-5.398438 26.976562h-31.816406c-27.6875 0-51.519531 20.664062-55.433594 48.078125l-9.128906 63.921875h-65.0625zm0 0"/><path d="m128 128c4.414062 0 8-3.585938 8-8v-56h-16v48h-8v-32h-16v32h-8v-48h-16v56c0 4.414062 3.585938 8 8 8zm0 0"/><path d="m160 112h16v16h16v-56c0-4.414062-3.585938-8-8-8h-32c-4.414062 0-8 3.585938-8 8v56h16zm16-32v16h-16v-16zm0 0"/><path d="m216 89.886719 16.839844 33.6875c1.359375 2.714843 4.128906 4.425781 7.160156 4.425781h8c4.414062 0 8-3.585938 8-8v-56h-16v38.113281l-16.839844-33.6875c-1.359375-2.714843-4.128906-4.425781-7.160156-4.425781h-8c-4.414062 0-8 3.585938-8 8v56h16zm0 0"/><path d="m280 128h16v-48h16v-16h-48v16h16zm0 0"/><path d="m328 128h40v-16h-32v-8h16v-16h-16v-8h32v-16h-40c-4.414062 0-8 3.585938-8 8v48c0 4.414062 3.585938 8 8 8zm0 0"/><path d="m384 128h16c13.230469 0 24-10.769531 24-24v-16c0-13.230469-10.769531-24-24-24h-16c-4.414062 0-8 3.585938-8 8v48c0 4.414062 3.585938 8 8 8zm8-48h8c4.40625 0 8 3.59375 8 8v16c0 4.40625-3.59375 8-8 8h-8zm0 0"/><path d="m248 280c4.40625 0 8 3.59375 8 8h16c0-13.230469-10.769531-24-24-24s-24 10.769531-24 24h16c0-4.40625 3.59375-8 8-8zm0 0"/></svg>