<svg height="462pt" viewBox="-67 0 462 462.09776" width="462pt" xmlns="http://www.w3.org/2000/svg"><path d="m139.773438 206.757812c-4.417969 0-8 3.582032-8 8-.046876 3.953126-3.265626 7.132813-7.21875 7.132813-3.953126 0-7.171876-3.179687-7.21875-7.132813 0-4.417968-3.582032-8-8-8-4.417969 0-8 3.582032-8 8 .082031 12.765626 10.453124 23.066407 23.21875 23.066407 12.761718 0 23.132812-10.300781 23.21875-23.066407 0-4.417968-3.582032-8-8-8zm0 0"/><path d="m200.644531 237.976562c12.816407-.015624 23.203125-10.402343 23.21875-23.21875 0-4.417968-3.582031-8-8-8s-8 3.582032-8 8c-.046875 3.953126-3.265625 7.132813-7.21875 7.132813s-7.171875-3.179687-7.21875-7.132813c0-4.417968-3.582031-8-8-8s-8 3.582032-8 8c.015625 12.816407 10.402344 23.203126 23.21875 23.21875zm0 0"/><path d="m322.203125 75.34375-36.863281-42.039062c-3.742188-4.285157-8.738282-7.28125-14.28125-8.5625l-105.269532-24.53125c-1.199218-.2812505-2.445312-.2812505-3.644531 0l-104.222656 24.527343c-5.527344 1.289063-10.511719 4.289063-14.246094 8.566407l-36.890625 42.160156c-9.546875 10.902344-8.871094 27.371094 1.539063 37.453125l48.832031 47.347656-2.882812 16.882813c-.628907 3.917968 1.6875 7.714843 5.460937 8.941406 2.554687.84375 4.765625 1.644531 7.765625 2.425781v5.660156c-11 3.375-19.753906 13.699219-19.753906 25.519531 0 12.136719 8.84375 22.6875 20.527344 25.769532 2.84375 21.1875 12.453124 40.886718 27.398437 56.167968 4.074219 3.957032 8.359375 7.695313 12.828125 11.195313v18.269531h-35.582031c-37.996094 0-68.417969 31.257813-68.417969 69.253906v53.847657c0 4.417969 3.09375 7.898437 7.511719 7.898437h304.980469c4.417968 0 7.507812-3.484375 7.507812-7.898437v-53.847657c0-38-30.421875-69.253906-68.414062-69.253906h-35.585938v-18.101562c4.515625-3.566406 8.84375-7.359375 12.972656-11.363282 14.953125-15.289062 24.5625-34.996093 27.402344-56.191406 11.441406-3.164062 19.414062-13.511718 19.5625-25.386718.144531-11.871094-7.574219-22.410157-18.9375-25.855469v-5.703125c2-.679688 4.558594-1.378906 6.785156-2.109375l.910156-.28125c3.808594-1.242188 6.113282-5.105469 5.402344-9.042969l-3.027344-16.59375 49.113282-47.652344c10.410156-10.089844 11.078125-26.574218 1.519531-37.472656zm-254.703125 152c-2.316406-1.859375-3.667969-4.671875-3.667969-7.644531 0-2.972657 1.351563-5.785157 3.667969-7.644531zm88 218.753906h-135v-45.746094c0-29.171874 23.246094-53.253906 52.417969-53.253906h41.339843l41.242188 27.113282zm-31-110.984375v-12.871093c25.378906 11.691406 54.59375 11.730468 80 .113281v12.640625l-41.042969 25.402344zm131.585938 11.984375c29.171874 0 52.414062 24.082032 52.414062 53.253906v45.746094h-137v-71.773437l42.914062-27.226563zm-10.585938-114.96875c.035156 21.808594-8.496094 42.761719-23.761719 58.34375-15.425781 15.84375-35.742187 24.566406-57.28125 24.566406-21.535156 0-41.785156-8.722656-57.214843-24.566406-15.257813-15.582031-23.78125-36.535156-23.742188-58.34375v-39.1875c26.308594 6.699219 53.34375 10.109375 80.488281 10.15625h.46875c27.332031-.015625 54.558594-3.4375 81.042969-10.183594zm-81.042969-45.03125h-.445312c-31.457031-.039062-62.734375-4.769531-92.796875-14.039062l2.0625-12.105469 16.386718-2.910156c.066407-.011719.128907-.035157.195313-.046875 15.351563-3.097656 30.882813-5.234375 46.5-6.398438l-3.476563 20.257813c-.511718 3 .722657 6.03125 3.183594 7.820312 2.464844 1.792969 5.730469 2.027344 8.425782.609375l19.625-10.316406 19.625 10.316406c2.695312 1.417969 5.960937 1.183594 8.425781-.605468 2.464843-1.792969 3.695312-4.824219 3.183593-7.828126l-3.484374-20.296874c15.539062 1.136718 30.988281 3.238281 46.269531 6.285156l.183593.035156 17.074219 3 2.21875 12.199219c-30.183593 9.277343-61.582031 14.003906-93.15625 14.023437zm76.816407-64.527344c-20.226563-4.035156-40.742188-6.46875-61.355469-7.285156l-8.625-17.480468c-.773438-1.5625-2.035157-2.824219-3.59375-3.601563 23.5625.308594 46.996093 3.589844 69.742187 9.765625l7.941406 2.15625 3.277344 17.917969zm10.484374 18.414063.566407 3.109375-11.140625-1.960938c-11.84375-2.363281-23.871094-4.175781-35.929688-5.441406l2.226563-2.171875c.304687-.300781.585937-.625.835937-.972656 10.007813 1.179687 19.972656 2.742187 29.820313 4.710937zm-83.140624-12.445313c1.167968 2.359376 3.417968 4 6.027343 4.375l10.058594 1.464844-7.28125 7.097656c-1.886719 1.839844-2.746094 4.488282-2.300781 7.082032l1.71875 10.023437-9-4.730469c-2.332032-1.226562-5.113282-1.226562-7.445313 0l-9 4.730469 1.71875-10.023437c.445313-2.59375-.414062-5.242188-2.300781-7.082032l-7.28125-7.097656 10.0625-1.464844c2.605469-.378906 4.859375-2.015624 6.023438-4.375l4.5-9.117187zm-11.671876-30.734374-8.636718 17.5c-20.703125.84375-41.304688 3.324218-61.617188 7.414062l-7.140625 1.441406 3.082031-18.046875 7.878907-2.140625c22.835937-6.199218 46.371093-9.480468 70.03125-9.765625-1.558594.773438-2.824219 2.035157-3.597657 3.597657zm-67.085937 40.597656c9.9375-2.007813 19.992187-3.597656 30.097656-4.796875.246094.324219.511719.632812.800781.917969l2.273438 2.214843c-12.164062 1.292969-24.300781 3.136719-36.242188 5.546875l-10.648437 1.882813.527344-3.097657zm174.441406 81.296875c.125 2.679687-.890625 5.289062-2.800781 7.179687v-14.367187c1.910156 1.890625 2.925781 4.503906 2.800781 7.1875zm45.246094-118.371094-41.425781 40.199219-7.910156-43.230469c-.550782-3.03125-2.796876-5.472656-5.769532-6.28125l-12.800781-3.476563c-50.855469-13.808593-104.46875-13.808593-155.324219 0l-12.796875 3.476563c-3.007812.816406-5.265625 3.304687-5.789062 6.375l-7.300781 42.761719-40.960938-39.714844c-4.289062-4.152344-4.566406-10.941406-.632812-15.433594l36.890624-42.15625c1.539063-1.761718 3.589844-3 5.871094-3.53125l102.398438-24.09375 103.429687 24.105469c2.285157.527344 4.34375 1.757813 5.886719 3.523437l36.855469 42.039063c3.941406 4.488281 3.667969 11.28125-.621094 15.4375zm0 0"/></svg>