<svg height="502pt" viewBox="0 -7 502 502" width="502pt" xmlns="http://www.w3.org/2000/svg"><path d="m493.714844 399h-68.171875l-2.242188-345.773438c0-29.34375-24.132812-53.226562-53.789062-53.226562h-313.226563c-30.835937 0-56.285156 24.710938-56.285156 55.570312v14.660157c0 4.414062 3.867188 7.769531 8.285156 7.769531h87.714844v337.816406c0 40.011719 33.046875 72.183594 73.042969 72.183594h.21875c1.117187 0 2.226562-.035156 3.332031-.085938.367188.054688.734375.082032 1.101562.085938h258.777344c.582032.054688 1.167969.046875 1.746094-.023438 38.027344-2.550781 67.617188-34.054687 67.78125-72.167968v-9.179688c0-4.417968-3.867188-7.628906-8.285156-7.628906zm-397.714844-337h-80v-6.417969c0-22.054687 18.300781-39.582031 40.363281-39.582031h.148438c10.527343-.042969 20.632812 4.136719 28.054687 11.601562 7.421875 7.46875 11.542969 17.597657 11.433594 28.125zm73.253906 410h-.199218c-31.191407 0-57.054688-25.007812-57.054688-56.191406v-360.066406c.132812-14.777344-5.671875-28.992188-16.113281-39.449219-.160157-.160157-.105469-.292969-.269531-.292969h273.894531c20.835937 0 37.789062 16.707031 37.789062 37.277344l2.238281 345.722656h-175.746093c-2.058594-.078125-4.0625.695312-5.535157 2.136719-1.472656 1.445312-2.289062 3.429687-2.257812 5.492187v9.054688c-.042969 14.996094-6.050781 29.359375-16.695312 39.925781-10.644532 10.5625-25.054688 16.460937-40.050782 16.390625zm316.746094-56.199219c-.046875 15.015625-6.0625 29.394531-16.722656 39.96875s-25.085938 16.476563-40.101563 16.40625c-.019531 0-.117187-.175781-.140625-.175781h-214.386718c2.054687-1 4.144531-3.25 6.035156-5.148438 13.660156-13.523437 21.339844-31.953124 21.316406-51.175781v-.675781h244zm0 0"/><path d="m153.449219 316h213.101562c3.863281 0 7.449219-2.691406 7.449219-6.558594v-31.535156c0-27.324219-22.683594-49.90625-50.007812-49.90625h-23.992188v-10.433594c3.109375-2.332031 6.046875-4.890625 8.78125-7.652344 12.972656-13.230468 20.234375-31.023437 20.21875-49.550781v-35.488281c3.511719-.324219 6.152344-3.351562 6-6.875v-20c0-2.621094-1.46875-5.023438-3.800781-6.222656-.046875-.472656-.09375-.722656-.152344-1.191406-4.261719-34.664063-34.136719-60.585938-69.496094-60.585938h-3.042969c-18.167968-.117188-35.667968 6.84375-48.800781 19.398438-11.621093 10.984374-18.996093 25.714843-20.832031 41.601562h-.875c-3.867188 0-7 3.132812-7 7v20c0 3.867188 3.132812 7 7 7h3v35.363281c.015625 18.539063 7.304688 36.328125 20.300781 49.550781 2.703125 2.730469 5.609375 5.25 8.699219 7.53125v10.554688h-23.992188c-27.324218 0-50.007812 22.582031-50.007812 49.90625v31.535156c0 3.867188 3.585938 6.558594 7.449219 6.558594zm105.058593-272h3.042969c27.929688 0 51.5625 19.882812 55.441407 47h-113.984376c3.933594-26.6875 27.550782-47 55.5-47zm-63.507812 61h126v6h-126zm10 20h110v30.96875l-34.699219 4.675781-15.808593-13.6875c-2.609376-2.265625-6.488282-2.265625-9.097657 0l-15.710937 13.6875-34.683594-4.675781zm.566406 45.210938 35.238282 4.726562c1.980468.265625 3.984374-.328125 5.5-1.632812l13.695312-11.804688 13.699219 11.800781c1.269531 1.09375 2.894531 1.699219 4.570312 1.699219.3125 0 .621094-.019531.929688-.0625l35.238281-4.726562c-1.996094 11.300781-7.359375 21.738281-15.390625 29.933593-10.171875 10.691407-24.285156 16.742188-39.042969 16.742188-14.757812 0-28.867187-6.050781-39.039062-16.742188-8.035156-8.195312-13.402344-18.632812-15.398438-29.933593zm80.433594 55.359374v5.890626l-6.988281 4.4375c-12.070313 7.542968-27.421875 7.375-39.324219-.429688l-5.6875-3.90625v-6.058594c16.589844 7.15625 35.390625 7.179688 52 .066406zm-89.992188 16.429688h28.464844l7.40625 5.015625c16.585938 10.742187 37.886719 10.941406 54.667969.507813l8.730469-5.523438h28.714844c17.59375 0 32.234374 13.199219 35.058593 30h-198.101562c2.824219-16.800781 17.464843-30 35.058593-30zm-36.007812 44h200v16h-200zm0 0"/><path d="m250.800781 141.125c0-8.699219-8.230469-15.519531-18.734375-15.519531s-18.734375 6.816406-18.734375 15.519531 8.226563 15.523438 18.734375 15.523438c10.503906 0 18.734375-6.820313 18.734375-15.523438zm-18.734375 1.523438c-1.675781.097656-3.328125-.445313-4.617187-1.523438 2.742187-2.027344 6.488281-2.027344 9.230469 0-1.289063 1.078125-2.941407 1.621094-4.617188 1.523438zm0 0"/><path d="m287.9375 156.648438c10.507812 0 18.738281-6.820313 18.738281-15.523438s-8.230469-15.523438-18.738281-15.523438c-10.503906 0-18.734375 6.816407-18.734375 15.519532s8.230469 15.527344 18.734375 15.527344zm0-17.042969c1.675781-.101563 3.328125.445312 4.617188 1.519531-2.742188 2.027344-6.488282 2.027344-9.230469 0 1.289062-1.078125 2.9375-1.621094 4.613281-1.523438zm0 0"/><path d="m153.449219 354h143.101562c4.417969 0 8-3.582031 8-8s-3.582031-8-8-8h-143.101562c-4.417969 0-8 3.582031-8 8s3.582031 8 8 8zm0 0"/><path d="m374.550781 376c0-4.417969-3.582031-8-8-8h-213.101562c-4.417969 0-8 3.582031-8 8s3.582031 8 8 8h213.101562c4.417969 0 8-3.582031 8-8zm0 0"/></svg>