<svg height="441pt" viewBox="0 -10 441.56 441" width="441pt" xmlns="http://www.w3.org/2000/svg"><path d="m378.78125 412.507812v-54.460937c0-2.082031-.84375-4.070313-2.339844-5.511719-1.492187-1.445312-3.511718-2.21875-5.589844-2.140625h-30.070312v-191.566406c-.046875-16.265625-13.242188-29.429687-29.507812-29.433594h-181c-16.261719.015625-29.449219 13.175781-29.492188 29.4375v191.5625h-30.074219c-2.074219-.078125-4.09375.695313-5.589843 2.140625-1.496094 1.441406-2.339844 3.429688-2.335938 5.511719v54.460937c-.011719 2.101563.820312 4.121094 2.308594 5.605469 1.492187 1.480469 3.515625 2.304688 5.617187 2.28125h300.144531c2.101563.023438 4.125-.800781 5.617188-2.28125 1.492188-1.484375 2.324219-3.503906 2.3125-5.605469zm-262-253.675781c.027344-7.425781 6.054688-13.433593 13.480469-13.4375h180.96875c7.441406-.011719 13.492187 5.992188 13.550781 13.433594v191.566406h-208zm246 245.5625h-284v-38h284zm0 0"/><path d="m228.78125 76.359375v-68.078125c0-4.417969-3.582031-8-8-8s-8 3.582031-8 8v68.078125c0 4.417969 3.582031 8 8 8s8-3.582031 8-8zm0 0"/><path d="m359.363281 206.394531c0 4.417969 3.582031 8 8 8h66.195313c4.417968 0 8-3.582031 8-8s-3.582032-8-8-8h-66.195313c-4.417969 0-8 3.582031-8 8zm0 0"/><path d="m0 206.394531c0 4.417969 3.582031 8 8 8h66.199219c4.417969 0 8-3.582031 8-8s-3.582031-8-8-8h-66.199219c-4.417969 0-8 3.582031-8 8zm0 0"/><path d="m105.109375 116.765625c3.214844 0 6.117187-1.925781 7.371094-4.890625 1.25-2.960938.605469-6.382812-1.636719-8.6875l-46.808594-48.140625c-3.082031-3.144531-8.128906-3.203125-11.289062-.132813-3.15625 3.070313-3.238282 8.117188-.179688 11.289063l46.808594 48.136719c1.503906 1.550781 3.574219 2.425781 5.734375 2.425781zm0 0"/><path d="m377.523438 55.046875-46.808594 48.140625c-2.007813 2.042969-2.765625 5.007812-1.988282 7.769531.773438 2.757813 2.96875 4.890625 5.75 5.589844 2.777344.699219 5.71875-.140625 7.710938-2.207031l46.804688-48.136719c3.058593-3.171875 2.976562-8.21875-.179688-11.289063-3.160156-3.070312-8.207031-3.011718-11.289062.132813zm0 0"/></svg>