<svg height="497pt" viewBox="0 -1 497.024 497" width="497pt" xmlns="http://www.w3.org/2000/svg"><path d="m489.023438 239.917969h-42.078126c-4.121093-103-87.433593-185.523438-189.433593-189.628907v-42.277343c0-4.417969-3.582031-8.0000002-8-8.0000002-4.421875 0-8 3.5820312-8 8.0000002v42.277343c-103 4.105469-186.089844 86.628907-190.210938 189.628907h-43.300781c-4.417969 0-8 3.582031-8 8s3.582031 8 8 8h43.300781c4.089844 103 87.210938 185.910156 190.210938 190.019531v41.886719c0 4.417969 3.578125 8 8 8 4.417969 0 8-3.582031 8-8v-41.886719c102-4.109375 185.34375-87.019531 189.4375-190.019531h42.074219c4.417968 0 8-3.582031 8-8s-3.582032-8-8-8zm-239.898438 190.199219c-100.355469 0-182-81.644532-182-182 0-100.355469 81.644531-182 182-182s182 81.644531 182 182c0 100.355468-81.644531 182-182.003906 182zm0 0"/><path d="m278.03125 38.066406c94.136719 12.992188 168.148438 87.003906 181.136719 181.144532.605469 4.375 4.640625 7.433593 9.019531 6.832031 4.375-.605469 7.433594-4.640625 6.832031-9.019531-13.96875-101.238282-93.5625-180.835938-194.800781-194.804688-2.847656-.421875-5.703125.714844-7.476562 2.980469-1.773438 2.265625-2.191407 5.3125-1.097657 7.972656s3.53125 4.53125 6.386719 4.894531zm0 0"/><path d="m220.21875 458.15625c-94.136719-12.984375-168.152344-86.996094-181.140625-181.132812-.367187-2.851563-2.238281-5.289063-4.898437-6.378907-2.660157-1.09375-5.703126-.671875-7.964844 1.097657-2.265625 1.773437-3.40625 4.625-2.988282 7.46875 13.96875 101.238281 93.5625 180.832031 194.800782 194.800781 4.378906.605469 8.414062-2.453125 9.019531-6.832031.605469-4.375-2.453125-8.414063-6.832031-9.019532zm0 0"/><path d="m30.058594 226.042969c2.101562.292969 4.234375-.265625 5.925781-1.546875s2.804687-3.179688 3.09375-5.285156c12.988281-94.136719 87-168.148438 181.140625-181.136719 4.335938-.644531 7.347656-4.664063 6.75-9.007813-.601562-4.347656-4.585938-7.398437-8.9375-6.84375-101.238281 13.96875-180.832031 93.5625-194.800781 194.800782-.605469 4.375 2.453125 8.414062 6.828125 9.019531zm0 0"/><path d="m468.1875 270.191406c-4.378906-.601562-8.414062 2.457032-9.019531 6.832032-12.988281 94.136718-87 168.148437-181.136719 181.140624-4.167969.570313-7.183594 4.269532-6.898438 8.46875.285157 4.195313 3.773438 7.457032 7.980469 7.457032.367188 0 .734375-.027344 1.101563-.078125 101.234375-13.96875 180.828125-93.5625 194.800781-194.796875.601563-4.378906-2.453125-8.414063-6.828125-9.023438zm0 0"/><path d="m348.257812 165.667969c-.058593-.140625-.113281-.28125-.179687-.417969-.054687-.113281-.113281-.222656-.171875-.335938-.058594-.109374-.125-.230468-.195312-.347656-.070313-.113281-.144532-.226562-.21875-.339844-.078126-.113281-.140626-.199218-.210938-.300781-.074219-.097656-.167969-.214843-.253906-.320312-.085938-.101563-.160156-.191407-.246094-.285157s-.175781-.1875-.265625-.277343c-.089844-.09375-.191406-.191407-.292969-.28125-.097656-.089844-.179687-.15625-.273437-.234375-.105469-.089844-.21875-.175782-.332031-.261719-.09375-.070313-.191407-.136719-.289063-.199219-.117187-.082031-.234375-.160156-.359375-.230468-.105469-.066407-.214844-.125-.324219-.183594s-.234375-.125-.359375-.183594c-.121094-.058594-.253906-.113281-.382812-.167969-.085938-.035156-.164063-.074219-.246094-.105469-.03125-.011718-.0625-.019531-.09375-.03125-.140625-.046874-.28125-.089843-.421875-.132812-.113281-.03125-.226563-.070312-.34375-.097656-.113281-.027344-.261719-.054688-.390625-.082032-.132812-.027343-.257812-.054687-.386719-.074218-.128906-.019532-.230469-.023438-.34375-.035156-.144531-.015626-.292969-.035157-.4375-.042969-.097656 0-.199219 0-.304687 0-.160156 0-.320313-.003907-.476563 0-.09375 0-.191406.019531-.285156.027343-.164063.015626-.332031.027344-.5.054688-.09375.011719-.183594.035156-.269531.050781-.15625.027344-.308594.054688-.457032.089844h-67c-2.4375-10.988281-12.183593-18.808594-23.441406-18.808594-11.257812 0-21.003906 7.820313-23.441406 18.808594h-67c-.113281-.027344-.226562-.046875-.34375-.070313-.132812-.023437-.265625-.054687-.398438-.074218-.109374-.015625-.222656-.023438-.332031-.035156-.148437-.015626-.300781-.035157-.449219-.042969-.101562 0-.199218 0-.304687 0-.160156 0-.320313-.003907-.476563 0-.101562 0-.199218.019531-.300781.027343-.160156.015626-.320312.027344-.480469.050782-.097656.015625-.199218.039062-.292968.058594-.160156.027343-.320313.058593-.480469.097656-.09375.023437-.1875.054687-.28125.082031-.160156.046875-.320313.09375-.480469.152344-.027344.007812-.050781.015625-.082031.023437-.074219.03125-.140625.066406-.214844.09375-.144531.058594-.285156.117188-.425781.1875-.113281.050782-.21875.109375-.328125.167969-.105469.054687-.238281.128906-.355469.199219-.117187.070312-.222656.140625-.332031.214844-.109375.070312-.210937.140624-.3125.214843-.101563.078125-.210937.164063-.3125.246094-.105469.085937-.199219.167969-.292969.253906-.09375.085938-.183594.171875-.273437.261719-.089844.085938-.191407.191406-.285157.296875-.089843.109375-.15625.179687-.230468.273437-.089844.109376-.179688.21875-.265625.335938-.070313.09375-.132813.191406-.199219.285156-.078125.117188-.152344.234375-.226562.355469-.074219.125-.125.222656-.1875.335937-.0625.113282-.121094.226563-.175782.34375-.066406.136719-.125.277344-.179687.417969-.03125.074219-.070313.144531-.101563.222657l-34.207031 91.699218c-2.683594 1.363282-4.375 4.117188-4.378906 7.128906 0 24.773438 18.949219 42.074219 46.082031 42.074219 27.292969 0 46.355469-17.296875 46.355469-42.074219 0-3.144531-1.84375-5.996093-4.710938-7.289062l-30.03125-80.519531h59.300781c2.792969 5.527343 7.605469 9.765625 13.441407 11.84375v111.15625h-6.167969c-10.941406 0-20.6875 8.589843-24 19.542969-3.976562.617187-6.894531 4.074218-6.835938 8.097656v20.175781c-.054687 2.117187.734376 4.167969 2.195313 5.703125s3.46875 2.429688 5.585937 2.480469h74.441407c2.117187-.050781 4.128906-.945313 5.585937-2.480469 1.460938-1.535156 2.25-3.589844 2.195313-5.707031v-20.175781c.058593-4.023438-2.859375-7.480469-6.835938-8.097657-3.3125-10.953125-13.058593-19.542969-24-19.542969h-6.164062v-111.152343c5.832031-2.074219 10.644531-6.316407 13.441406-11.84375h59.300781l-30.035156 80.511719c-2.867188 1.292968-4.710938 4.144531-4.714844 7.289062 0 24.773438 18.949219 42.078125 46.082032 42.078125 27.292968 0 46.355468-17.300781 46.355468-42.078125 0-3.011719-1.695312-5.765625-4.378906-7.125l-34.207031-91.703125c-.03125-.074219-.066407-.148437-.097657-.222656zm-192.101562 125.328125c-11.746094 0-25.164062-5.078125-29-18.078125h58.222656c-3.8125 12-16.5625 18.078125-29.21875 18.078125zm24.304688-34.078125h-48.597657l24.296875-65.144531zm97.050781 83h-58v-4h58zm-14.835938-24c2.199219 0 4.421875 2 6.140625 4h-40.613281c1.71875-2 3.9375-4 6.140625-4zm-14.164062-141.777344c-4.429688 0-8.019531-3.589844-8.019531-8.019531 0-4.425782 3.589843-8.015625 8.019531-8.015625 4.425781 0 8.015625 3.589843 8.015625 8.015625-.007813 4.425781-3.59375 8.011718-8.015625 8.019531zm92.074219 116.855469c-11.75 0-25.167969-5.078125-29-18.078125h58.21875c-3.816407 12-16.566407 18.078125-29.21875 18.078125zm-24.027344-34.078125 24.300781-65.144531 24.300781 65.144531zm0 0"/></svg>