<svg height="474pt" viewBox="-42 0 474 474" width="474pt" xmlns="http://www.w3.org/2000/svg"><path d="m373.902344 465.9375v-42.800781c-.050782-42.085938-34.195313-76.167969-76.28125-76.136719h-40.71875v-13h100.066406c4.132812 0 7.582031-3.148438 7.964844-7.261719.382812-4.113281-2.433594-7.839843-6.492188-8.601562-42.472656-7.949219-59.507812-51.734375-62.859375-61.6875 3.164063-8.226563 5.328125-16.804688 6.4375-25.550781 12.503907-3.339844 21.269531-14.570313 21.472657-27.511719.207031-12.9375-8.199219-24.441407-20.589844-28.175781v-6.765626c15-3.699218 30.742187-8.199218 45.800781-13.519531l25.609375-9.046875c6.195312-2.191406 11.175781-6.90625 13.710938-12.972656 2.519531-6.027344 2.359374-12.839844-.449219-18.742188-3.875-8.070312-12.046875-13.191406-21-13.164062h-76.027344l-13.398437-70.085938c-3.683594-17.90625-19.390626-30.796874-37.671876-30.914062h-88.320312c-18.3125.132812-34.03125 13.066406-37.6875 31.007812l-13.386719 69.992188h-76.851562c-11.292969-.0625-20.976563 8.046875-22.894531 19.175781-1.917969 11.132813 4.492187 22.015625 15.15625 25.734375l25.613281 9.03125c15.054687 5.320313 30.800781 9.800782 45.800781 13.5v6.730469c-12 3.601563-21.585938 14.847656-21.585938 27.75 0 13.21875 9.71875 24.699219 22.476563 28 1.074219 8.453125 3.132813 16.75 6.128906 24.722656-2.46875 7.917969-18.699219 54.246094-62.71875 62.484375-4.082031.738282-6.921875 4.476563-6.539062 8.609375.382812 4.128907 3.859375 7.285157 8.007812 7.261719h100.226563v13h-40.71875c-42.085938-.03125-76.234375 34.050781-76.28125 76.140625v42.796875c-.015625 4.425781 3.546875 8.03125 7.972656 8.0625h342.054688c4.425781-.03125 7.992187-3.636719 7.972656-8.0625zm-287-252.816406c-3-2.414063-5.578125-6.152344-5.578125-10.191406 0-4.042969 2.578125-7.78125 5.578125-10.195313zm108 97.71875c-24.417969 0-47.492188-9.894532-64.980469-27.851563-17.320313-17.644531-27.023437-41.386719-27.019531-66.117187v-44.898438c30.28125 6.152344 61.101562 9.246094 92 9.234375 30.898437.011719 61.71875-3.082031 92-9.234375v44.898438c.007812 24.730468-9.695313 48.46875-27.019532 66.117187-17.484374 17.957031-40.5625 27.851563-64.980468 27.851563zm124.582031 7.160156h-62.582031v-11.023438c5.207031-3.898437 10.113281-8.1875 14.675781-12.828124 5.5-5.683594 10.382813-11.929688 14.566406-18.640626 5.957031 12.601563 16.359375 29.753907 33.339844 42.492188zm-11.992187-115.070312c.085937 3.824218-1.609376 7.472656-4.589844 9.871093v-19.746093c2.980468 2.398437 4.675781 6.046874 4.589844 9.875zm-178.328126-168.941407c2.15625-10.441406 11.332032-17.945312 21.992188-17.988281h88.320312c10.628907.035156 19.785157 7.492188 21.972657 17.894531l16.328125 85.207031-26.25 4.527344c-37.464844 6.46875-75.765625 6.441406-113.222656-.082031l-25.453126-4.433594zm-82.734374 105.855469-25.605469-9.050781c-1.9375-.671875-3.492188-2.140625-4.269531-4.035157-.796876-1.84375-.746094-3.945312.140624-5.746093 1.214844-2.492188 3.761719-4.054688 6.535157-4.011719h73.785156l-1.410156 7.242188c-.402344 2.085937.058593 4.25 1.277343 5.988281 1.222657 1.757812 3.097657 2.945312 5.210938 3.300781l33.472656 5.800781c19.679688 3.421875 39.621094 5.140625 59.597656 5.144531 19.804688-.007812 39.566407-1.699218 59.082032-5.066406l34.28125-5.898437c2.117187-.367188 4-1.566407 5.222656-3.332031 1.222656-1.71875 1.683594-3.863282 1.28125-5.933594l-1.417969-7.246094h72.960938c2.773437-.042969 5.320312 1.519531 6.535156 4.011719.886719 1.824219.9375 3.941406.140625 5.808593-.78125 1.886719-2.335938 3.34375-4.265625 4.003907l-25.609375 9.03125c-47.695312 16.8125-97.902344 25.386719-148.472656 25.359375-50.570313.019531-100.777344-8.558594-148.472656-25.371094zm23.671874 178.15625c17.101563-12.878906 27.550782-30.273438 33.402344-42.921875 4.203125 6.871094 9.140625 13.265625 14.722656 19.070313 4.5625 4.640624 9.46875 8.929687 14.675782 12.828124v11.023438zm115.800782 140h-154v-34.859375c.039062-33.257813 27.027344-60.183594 60.28125-60.140625h46.65625l47.0625 30.292969zm-37-107.414062v-34.113282c15 6.785156 30.03125 10.367188 46 10.367188s31-3.582032 46-10.367188v33.828125l-47.320313 29.175781zm209 107.414062h-156v-64.59375l48.699218-30.40625h47.015626c33.253906-.042969 60.246093 26.882812 60.285156 60.140625zm0 0"/><path d="m167.167969 198.1875c-4.417969 0-8 3.582031-8 8 0 5.007812-4.0625 9.066406-9.070313 9.066406-5.007812 0-9.070312-4.058594-9.070312-9.066406 0-4.417969-3.582032-8-8-8-4.417969 0-8 3.582031-8 8 0 13.84375 11.226562 25.066406 25.070312 25.066406s25.070313-11.222656 25.070313-25.066406c0-4.417969-3.582031-8-8-8zm0 0"/><path d="m252.507812 198.1875c-4.417968 0-8 3.582031-8 8 0 5.007812-4.058593 9.066406-9.066406 9.066406-5.007812 0-9.070312-4.058594-9.070312-9.066406 0-4.417969-3.582032-8-8-8-4.417969 0-8 3.582031-8 8 0 13.84375 11.226562 25.066406 25.070312 25.066406s25.066406-11.222656 25.066406-25.066406c0-4.417969-3.582031-8-8-8zm0 0"/><path d="m168.566406 89.492188-3.375 19.683593c-.515625 3.003907.71875 6.039063 3.183594 7.828125 2.464844 1.789063 5.730469 2.023438 8.425781.605469l17.679688-9.292969 17.679687 9.292969c2.695313 1.417969 5.960938 1.179687 8.421875-.609375 2.464844-1.789062 3.699219-4.820312 3.183594-7.824219l-3.375-19.683593 14.300781-13.941407c2.179688-2.125 2.964844-5.304687 2.023438-8.199219-.941406-2.898437-3.445313-5.007812-6.457032-5.445312l-19.765624-2.871094-8.839844-17.910156c-1.347656-2.730469-4.128906-4.460938-7.175782-4.460938-3.042968 0-5.824218 1.730469-7.171874 4.460938l-8.839844 17.910156-19.761719 2.871094c-3.015625.4375-5.519531 2.546875-6.460937 5.445312-.941407 2.894532-.15625 6.074219 2.027343 8.199219zm16.359375-15.226563c2.605469-.378906 4.859375-2.015625 6.023438-4.378906l3.527343-7.144531 3.527344 7.144531c1.164063 2.363281 3.417969 4 6.023438 4.378906l7.886718 1.144531-5.710937 5.5625c-1.886719 1.835938-2.746094 4.484375-2.300781 7.078125l1.347656 7.855469-7.046875-3.707031c-2.332031-1.222657-5.113281-1.222657-7.445313 0l-7.054687 3.707031 1.347656-7.851562c.445313-2.59375-.414062-5.242188-2.300781-7.082032l-5.703125-5.5625zm0 0"/></svg>