<svg height="472pt" viewBox="-1 0 472 472.67812" width="472pt" xmlns="http://www.w3.org/2000/svg"><path d="m284.257812 221.800781v-22.046875c-.097656-4.203125-3.464843-7.601562-7.667968-7.730468-3.609375-11.210938-14.078125-18.777344-25.851563-18.683594h-7.480469v-123.617188c7.003907-2.332031 12.664063-7.574218 15.527344-14.382812h66.238282l-33.765626 90.515625c-3.019531 1.222656-4.996093 4.152343-4.996093 7.410156 0 26.636719 20.398437 45.242187 49.621093 45.242187 29.390626 0 49.917969-18.605468 49.917969-45.242187 0-3.113281-1.808593-5.941406-4.636719-7.25l-37.488281-100.5c-.027343-.082031-.066406-.15625-.097656-.234375-.058594-.136719-.113281-.269531-.175781-.398438-.0625-.128906-.117188-.234374-.179688-.347656-.0625-.117187-.121094-.226562-.183594-.335937-.066406-.105469-.152343-.238281-.230468-.351563-.066406-.101562-.132813-.203125-.199219-.292968-.085937-.113282-.171875-.222657-.261719-.332032-.078125-.09375-.15625-.183594-.234375-.273437-.082031-.089844-.183593-.199219-.28125-.289063-.09375-.089844-.183593-.183594-.277343-.269531-.027344-.027344-.054688-.054687-.085938-.082031-1.515625-1.875-3.800781-2.96875-6.210938-2.96875h-75.257812c-2.828125-11.363282-13.03125-19.339844-24.742188-19.339844-11.710937 0-21.917968 7.976562-24.746093 19.339844h-75.253907c-2.414062 0-4.699218 1.089844-6.214843 2.964844-.03125.027343-.058594.058593-.089844.085937-.09375.085937-.183594.171875-.273437.261719-.089844.089844-.191407.195312-.28125.292968-.089844.101563-.15625.179688-.230469.273438-.09375.109375-.179688.21875-.265625.335938-.070313.09375-.136719.1875-.199219.285156-.082031.117187-.15625.234375-.230469.359375-.074218.121093-.125.21875-.1875.332031-.058594.109375-.121094.230469-.179687.347656-.054688.121094-.117188.265625-.171875.402344-.03125.078125-.070313.152344-.101563.234375l-37.488281 100.5c-2.824219 1.308594-4.632812 4.136719-4.632812 7.25 0 26.636719 20.398437 45.242187 49.617187 45.242187 29.394531 0 49.921875-18.605468 49.921875-45.242187-.003906-3.257813-1.976562-6.1875-4.992188-7.410156l-33.769531-90.515625h66.238281c2.863282 6.808594 8.523438 12.050781 15.53125 14.382812v123.617188h-7.484374c-11.773438-.09375-22.242188 7.472656-25.851563 18.683594-4.203125.128906-7.570313 3.527343-7.664063 7.730468v22.046875c0 4.417969 3.898438 7.539063 8.320313 7.539063h81.355469c4.421875 0 8.324218-3.121094 8.324218-7.539063zm51.628907-59.21875c-13.417969 0-28.777344-6.242187-32.683594-21.242187h65.601563c-3.878907 15-18.453126 21.242187-32.917969 21.242187zm.296875-111.304687 27.628906 74.0625h-55.257812zm-201.855469 111.304687c-13.414063 0-28.773437-6.242187-32.679687-21.242187h65.597656c-3.875 15-18.453125 21.242187-32.917969 21.242187zm27.628906-37.242187h-55.257812l27.628906-74.0625zm63.800781-99.828125c-.015624-5.097657 3.992188-9.296875 9.085938-9.515625 5.089844-.222656 9.449219 3.609375 9.878906 8.6875-.304687.851562-.464844 1.75-.464844 2.65625 0 .335937.023438.675781.066407 1.007812-1.394531 4.484375-5.859375 7.273438-10.503907 6.566406-4.644531-.710937-8.070312-4.707031-8.0625-9.402343zm-5.984374 163.828125h30.964843c2.578125.078125 5.105469.761718 7.371094 2h-45.707031c2.265625-1.238282 4.792968-1.921875 7.371094-2zm48.484374 24h-66v-6h66zm0 0"/><path d="m450.371094 154.902344c-.660156-4.183594-4.464844-7.125-8.679688-6.707032-16.992187 1.636719-29.703125 16.332032-28.878906 33.382813l1.203125 49.351563c-13.457031 1.699218-25.128906 10.132812-30.96875 22.375l-18.417969 38.679687c-2.792968 5.839844-6.859375 10.976563-11.902344 15.03125l-3.828124 3.070313c-19.234376 15.347656-30.210938 38.789062-29.683594 63.390624l-5.800782-2.765624c-3.988281-1.898438-8.761718-.207032-10.660156 3.785156l-20.199218 42.410156c-1.902344 3.992188-.207032 8.765625 3.78125 10.664062l93.074218 44.328126c3.988282 1.898437 8.761719.207031 10.664063-3.785157l20.199219-42.414062c1.898437-3.988281.207031-8.761719-3.785157-10.660157l-3.363281-1.601562-.941406-12.597656c-.375-4.886719 1.164062-9.730469 4.292968-13.5l48.199219-58.328125c.113281-.136719.222657-.277344.328125-.421875 10.078125-14.074219 15.394532-31.003906 15.167969-48.3125-.007813-.378906-.042969-.757813-.101563-1.128906zm-71.308594 299.109375-78.628906-37.445313 13.320312-27.96875 78.628906 37.441406zm63.09375-134.972657-48.019531 58.113282c-5.769531 6.953125-8.605469 15.875-7.914063 24.878906l.257813 3.480469-50.546875-24.070313c-3.449219-22.324218 5.316406-44.78125 22.96875-58.871094l3.828125-3.070312c6.925781-5.566406 12.511719-12.617188 16.339843-20.636719l18.421876-38.675781c4.347656-9.101562 13.941406-14.492188 23.976562-13.472656l-26.246094 55.109375c-1.261718 2.585937-1.039062 5.648437.585938 8.023437 1.621094 2.371094 4.394531 3.691406 7.261718 3.457032 2.863282-.238282 5.382813-1.992188 6.59375-4.601563l30.28125-63.578125c1.902344-3.988281.207032-8.761719-3.78125-10.660156-1.972656-.9375-4.015624-1.710938-6.113281-2.3125l-1.246093-51.058594c0-.070312 0-.140625-.007813-.210938-.296875-5.695312 2.460937-11.117187 7.234375-14.234374l18.140625 114.429687c.058594 13.601563-4.140625 26.875-12.015625 37.960937zm0 0"/><path d="m167.765625 374.496094c-1.898437-3.992188-6.675781-5.683594-10.664063-3.785156l-5.800781 2.765624c.53125-24.601562-10.445312-48.042968-29.683593-63.390624l-3.828126-3.066407c-5.039062-4.058593-9.109374-9.195312-11.898437-15.035156l-18.421875-38.679687c-5.839844-12.246094-17.507812-20.675782-30.96875-22.375l1.207031-49.351563c.824219-17.050781-11.886719-31.746094-28.878906-33.382813-4.214844-.417968-8.019531 2.527344-8.679687 6.707032l-19.703126 124.25c-.058593.375-.09375.75-.097656 1.128906-.226562 17.308594 5.089844 34.238281 15.167969 48.3125.105469.144531.214844.289062.328125.425781l48.199219 58.320313c3.128906 3.773437 4.667969 8.613281 4.292969 13.5l-.941407 12.601562-3.367187 1.597656c-3.988282 1.902344-5.683594 6.675782-3.78125 10.664063l20.199218 42.414063c1.898438 3.988281 6.671876 5.683593 10.664063 3.785156l93.074219-44.332032c3.988281-1.898437 5.679687-6.671874 3.78125-10.660156zm-139.410156-55.457032c-7.871094-11.085937-12.074219-24.359374-12.011719-37.957031l18.136719-114.433593c4.773437 3.113281 7.53125 8.539062 7.234375 14.234374 0 .070313-.007813.140626-.007813.207032l-1.25 51.0625c-2.097656.601562-4.140625 1.375-6.113281 2.308594-3.988281 1.902343-5.683594 6.675781-3.78125 10.664062l30.285156 63.578125c1.210938 2.605469 3.730469 4.363281 6.59375 4.597656 2.867188.238281 5.640625-1.082031 7.261719-3.457031 1.625-2.371094 1.847656-5.433594.585937-8.019531l-26.246093-55.109375c10.035156-1.023438 19.628906 4.367187 23.976562 13.46875l18.421875 38.679687c3.828125 8.015625 9.414063 15.070313 16.339844 20.636719l3.828125 3.070312c17.652344 14.085938 26.417969 36.546876 22.96875 58.871094l-50.546875 24.074219.257812-3.480469c.691407-9.007812-2.144531-17.929687-7.914062-24.878906zm63.101562 134.976563-13.328125-27.976563 78.628906-37.441406 13.316407 27.96875zm0 0"/></svg>