<svg height="488pt" viewBox="0 -29 488.68907 488" width="488pt" xmlns="http://www.w3.org/2000/svg"><path d="m442.710938 164.933594c-1.453126-2.390625-4.042969-3.847656-6.839844-3.847656s-5.386719 1.457031-6.839844 3.847656l-44.828125 73.84375c-1.496094 2.539062-1.546875 5.683594-.128906 8.269531 1.394531 2.566406 4.050781 4.195313 6.96875 4.273437h34.578125c-7.039063 45.707032-30.164063 87.398438-65.210938 117.570313-33.800781 28.980469-76.234375 45.5-116.421875 45.5-26.203125 0-53.609375-7.117187-79.261719-20.492187-26.660156-13.933594-49.78125-33.773438-67.597656-58.011719-2.605468-3.5625-7.609375-4.339844-11.171875-1.734375-3.566406 2.605468-4.34375 7.605468-1.738281 11.171875 19.269531 26.203125 44.28125 47.65625 73.113281 62.714843 27.925781 14.558594 57.890625 22.253907 86.65625 22.253907 43.953125 0 90.183594-17.828125 126.839844-49.257813 38.644531-33.167968 63.878906-79.285156 70.972656-129.714844h38.898438c2.914062-.089843 5.566406-1.714843 6.972656-4.273437 1.402344-2.554687 1.351563-5.664063-.132813-8.171875zm-37.453126 70.386718 30.613282-50.425781 30.613281 50.425781zm0 0"/><path d="m104.617188 183.589844c-1.394532-2.5625-4.054688-4.191406-6.972657-4.269532h-34.578125c7.042969-45.707031 30.167969-87.398437 65.214844-117.570312 33.796875-28.984375 76.230469-45.5 116.421875-45.5 26.199219 0 53.609375 7.117188 79.257813 20.492188 26.664062 13.929687 49.785156 33.773437 67.601562 58.007812 2.605469 3.566406 7.605469 4.34375 11.171875 1.738281 3.5625-2.605469 4.339844-7.605469 1.734375-11.171875-19.269531-26.207031-44.277344-47.660156-73.109375-62.714844-27.929687-14.5625-57.894531-22.257812-86.660156-22.257812-43.953125 0-90.183594 17.832031-126.835938 49.261719-38.648437 33.167969-63.878906 79.285156-70.972656 129.714843h-38.902344c-2.914062.089844-5.566406 1.714844-6.96875 4.269532-1.40625 2.558594-1.355469 5.664062.132813 8.175781l44.824218 73.890625c1.441407 2.398438 4.03125 3.867188 6.828126 3.871094 2.796874.007812 5.394531-1.445313 6.851562-3.832032l44.828125-73.9375c1.496094-2.503906 1.546875-5.617187.132813-8.167968zm-51.800782 62.15625-30.609375-50.425782h61.222657zm0 0"/><path d="m283.914062 230.160156c0 23.554688 18 40.007813 43.769532 40.007813 25.921875 0 44.023437-16.453125 44.023437-40.007813 0-2.945312-1.617187-5.652344-4.210937-7.046875l-31.195313-83.617187c-.214843-2.089844-1.242187-4.011719-2.867187-5.347656-.039063-.039063-.085938-.074219-.128906-.109376-.089844-.082031-.183594-.160156-.277344-.238281-.105469-.089843-.214844-.175781-.328125-.261719-.101563-.070312-.199219-.136718-.300781-.203124-.113282-.078126-.230469-.15625-.347657-.226563-.121093-.070313-.226562-.128906-.339843-.1875-.117188-.0625-.226563-.121094-.34375-.175781-.132813-.066406-.273438-.121094-.410157-.179688-.078125-.03125-.148437-.070312-.226562-.101562-.027344-.007813-.058594-.015625-.085938-.023438-.148437-.054687-.300781-.101562-.445312-.144531-.109375-.03125-.214844-.066406-.320313-.09375-.136718-.03125-.273437-.058594-.410156-.082031-.136719-.027344-.246094-.054688-.371094-.074219s-.234375-.023437-.355468-.035156c-.140626-.015625-.285157-.035157-.425782-.039063-.101562-.007812-.207031 0-.3125 0-.15625 0-.3125-.007812-.472656 0-.09375 0-.1875.015625-.28125.023438-.167969.015625-.335938.03125-.5.054687-.085938.011719-.171875.035157-.261719.050781-.171875.03125-.34375.0625-.515625.105469-.082031.023438-.164062.050781-.242187.074219l-.128907.035156h-61.964843c-2.429688-10.425781-11.726563-17.804687-22.433594-17.804687s-20.003906 7.378906-22.433594 17.804687h-61.972656l-.058594-.015625c-.109375-.035156-.21875-.070312-.332031-.101562-.128906-.03125-.265625-.054688-.398438-.082031-.136718-.027344-.253906-.054688-.378906-.074219-.128906-.015625-.234375-.023438-.347656-.035157-.148438-.015624-.292969-.035156-.4375-.039062-.097656-.007812-.207031 0-.308594 0-.160156 0-.316406-.003906-.472656 0-.101562 0-.191406.019531-.285156.027344-.167969.011718-.332032.027344-.5.050781-.089844.015625-.179688.035156-.269532.050781-.167968.03125-.339843.066406-.507812.109375-.085938.019531-.167969.046875-.25.070313-.171875.050781-.347656.101562-.515625.164062-.023437.007813-.046875.015625-.070313.023438-.066406.023437-.125.054687-.1875.078125-.15625.066406-.3125.128906-.46875.203125-.097656.046875-.199218.097656-.296874.152344-.132813.066406-.261719.136718-.386719.214843-.105469.0625-.207031.128907-.308594.199219-.101563.066406-.226563.152344-.335937.230469-.105469.082031-.199219.15625-.296876.234375-.101562.078125-.210937.171875-.308593.265625-.101563.089843-.175781.164062-.265625.25-.085938.085937-.199219.199219-.289063.300781-.078125.085938-.152343.171875-.226562.261719-.089844.113281-.183594.226562-.269531.34375-.066407.089843-.132813.1875-.199219.285156-.078125.117187-.15625.234375-.230469.355469-.070312.125-.125.222656-.1875.335937-.058594.113281-.121094.226563-.175781.34375-.066407.136719-.121094.273438-.179688.414063-.03125.078125-.066406.148437-.097656.226562l-32.0625 85.945313c-2.59375 1.394531-4.210937 4.101562-4.210937 7.046875 0 23.554687 18 40.003906 43.765624 40.003906 25.921876 0 44.027344-16.449219 44.027344-40.003906 0-3.070313-1.761718-5.871094-4.527344-7.203125l-27.824218-74.628907h54.71875c2.796875 4.945313 7.210937 8.773438 12.503906 10.84375v104.15625h-5.445312c-10.390626 0-19.699219 7.773438-22.960938 18.113282-3.808594.601562-6.605469 3.890625-6.59375 7.746094v18.945312c-.058594 4.4375 3.464844 8.09375 7.902344 8.195312h69.914062c4.492188-.078124 8.113282-3.703124 8.183594-8.195312v-18.945312c-.050781-3.882813-2.898438-7.15625-6.730469-7.746094-3.265625-10.339844-12.714843-18.113282-23.105469-18.113282h-5.164062v-104.15625c5.214844-2.082031 9.539062-5.917968 12.226562-10.84375h54.714844l-27.839844 74.640626c-2.769531 1.332031-4.527343 4.128906-4.53125 7.199218zm-129.449218 24.164063c-10.652344 0-22.792969-5.003907-26.578125-16.003907h53.285156c-2.914063 8-10.925781 16.003907-26.707031 16.003907zm22.125-32.003907h-44.246094l22.125-59.308593zm64.613281-91.808593c3.886719 0 7.042969 3.15625 7.042969 7.042969 0 3.890624-3.15625 7.042968-7.042969 7.042968-3.890625 0-7.042969-3.152344-7.042969-7.042968.003906-3.886719 3.15625-7.035157 7.042969-7.042969zm27.140625 169.808593h-54v-3h54zm-13.835938-21c1.714844.183594 3.335938.882813 4.652344 2h-35.914062c1.3125-1.121093 2.933594-1.816406 4.652344-2zm73.4375-116.308593 22.117188 59.308593h-44.246094zm26.441407 75.308593c-2.914063 8-10.929688 16.003907-26.699219 16.003907-10.652344 0-22.792969-5.003907-26.578125-16.003907zm0 0"/></svg>