<?xml version="1.0" encoding="iso-8859-1"?>
<!-- Generator: Adobe Illustrator 19.0.0, SVG Export Plug-In . SVG Version: 6.00 Build 0)  -->
<svg version="1.1" id="Capa_1" xmlns="http://www.w3.org/2000/svg" xmlns:xlink="http://www.w3.org/1999/xlink" x="0px" y="0px"
	 viewBox="0 0 463 463" style="enable-background:new 0 0 463 463;" xml:space="preserve">
<g>
	<path d="M404.211,335.492l-86.658-20.39c-3.858-0.908-6.553-4.31-6.553-8.274v-28.424c19.779-24.464,32-57.98,32-94.904
		c0-17.469-2.696-34.459-8-50.519V23.573c0-2.962-1.744-5.647-4.451-6.852C306.673,6.094,270.571,0,231.5,0
		s-75.173,6.094-99.049,16.721c-2.707,1.205-4.451,3.89-4.451,6.852v109.414c-5.304,16.056-8,33.041-8,50.513
		c0,36.924,12.221,70.439,32,94.904v28.424c0,3.964-2.695,7.366-6.553,8.274l-86.658,20.39C33.595,341.42,16,363.636,16,389.517
		V439.5c0,12.958,10.542,23.5,23.5,23.5h384c12.958,0,23.5-10.542,23.5-23.5v-49.983C447,363.636,429.405,341.42,404.211,335.492z
		 M31,399h401v17H31V399z M37.787,367h102.502c7.345,6.556,15.878,12.278,25.319,17H31.375
		C32.213,377.801,34.442,372.013,37.787,367z M322.713,367h102.5c3.344,5.013,5.574,10.801,6.412,17h-134.23
		C306.836,379.278,315.368,373.556,322.713,367z M406.758,352h-70.421c3.435-4.75,6.32-9.78,8.611-15.043l55.829,13.136
		C402.845,350.58,404.839,351.225,406.758,352z M320,96H143V79h177V96z M320,64H143V47h177V64z M143,111h177v17H143V111z M231.5,15
		c34.099,0,66.668,5.032,88.5,13.569V32H143v-3.431C164.832,20.032,197.401,15,231.5,15z M140.604,143h181.794
		c3.717,12.96,5.602,26.553,5.602,40.5c0,66.444-43.29,120.5-96.5,120.5S135,249.944,135,183.5
		C135,169.548,136.887,155.958,140.604,143z M148.882,329.703C159.55,327.193,167,317.786,167,306.828V293.97
		c18.219,15.756,40.485,25.03,64.5,25.03s46.281-9.274,64.5-25.03v12.857c0,10.958,7.45,20.365,18.118,22.875l15.952,3.753
		C315.46,363.539,276.222,384,231.5,384c-44.718,0-83.959-20.462-98.57-50.543L148.882,329.703z M62.224,350.093l55.829-13.136
		c2.291,5.263,5.177,10.293,8.612,15.043H56.242C58.161,351.225,60.155,350.58,62.224,350.093z M423.5,448h-384
		c-4.687,0-8.5-3.813-8.5-8.5V431h401v8.5C432,444.187,428.187,448,423.5,448z"/>
	<path d="M184.025,183c-0.011,0.166-0.025,0.331-0.025,0.5v8c0,4.142,3.358,7.5,7.5,7.5s7.5-3.358,7.5-7.5v-8
		c0-0.169-0.014-0.334-0.025-0.5h0.525c4.142,0,7.5-3.358,7.5-7.5s-3.358-7.5-7.5-7.5h-24c-4.142,0-7.5,3.358-7.5,7.5
		s3.358,7.5,7.5,7.5H184.025z"/>
	<path d="M263.5,183h0.525c-0.011,0.166-0.025,0.331-0.025,0.5v8c0,4.142,3.358,7.5,7.5,7.5s7.5-3.358,7.5-7.5v-8
		c0-0.169-0.014-0.334-0.025-0.5h8.525c4.142,0,7.5-3.358,7.5-7.5s-3.358-7.5-7.5-7.5h-24c-4.142,0-7.5,3.358-7.5,7.5
		S259.358,183,263.5,183z"/>
	<path d="M215.5,263h32c4.142,0,7.5-3.358,7.5-7.5s-3.358-7.5-7.5-7.5h-32c-4.142,0-7.5,3.358-7.5,7.5S211.358,263,215.5,263z"/>
</g>
<g>
</g>
<g>
</g>
<g>
</g>
<g>
</g>
<g>
</g>
<g>
</g>
<g>
</g>
<g>
</g>
<g>
</g>
<g>
</g>
<g>
</g>
<g>
</g>
<g>
</g>
<g>
</g>
<g>
</g>
</svg>
