<svg height="496pt" viewBox="-80 0 496 496" width="496pt" xmlns="http://www.w3.org/2000/svg"><path d="m328 432c4.414062 0 8-3.585938 8-8v-416c0-4.414062-3.585938-8-8-8h-320c-4.414062 0-8 3.585938-8 8v448c0 22.054688 17.945312 40 40 40h296v-16h-16v-48zm-8-416v400h-64v-152c0-13.230469-10.769531-24-24-24-2.816406 0-5.488281.574219-8 1.472656v-9.472656c0-13.230469-10.769531-24-24-24-3.160156 0-6.160156.648438-8.929688 1.761719-2.757812-10.203125-12.007812-17.761719-23.070312-17.761719-13.230469 0-24 10.769531-24 24v9.472656c-2.511719-.898437-5.183594-1.472656-8-1.472656-13.230469 0-24 10.769531-24 24v65.472656c-2.511719-.898437-5.183594-1.472656-8-1.472656-13.230469 0-24 10.769531-24 24v80h-40c-9.039062 0-17.296875 3.128906-24 8.207031v-408.207031zm-107.3125 432h-89.375l-27.3125-27.3125v-84.6875c0-4.40625 3.59375-8 8-8s8 3.59375 8 8v24h16v-112c0-4.40625 3.59375-8 8-8s8 3.59375 8 8v80h16v-112c0-4.40625 3.59375-8 8-8s8 3.59375 8 8v112h16v-96c0-4.40625 3.59375-8 8-8s8 3.59375 8 8v96h16v-64c0-4.40625 3.59375-8 8-8s8 3.59375 8 8v156.6875zm-196.6875 8c0-13.230469 10.769531-24 24-24h44.6875l27.3125 27.3125v20.6875h-72c-13.230469 0-24-10.769531-24-24zm112 24v-16h80v16zm176 0h-80v-20.6875l27.3125-27.3125h52.6875zm0 0"/><path d="m112 112h32v72h16v-80c0-4.414062-3.585938-8-8-8h-32v-16h32c4.414062 0 8-3.585938 8-8v-24h16v24c0 4.414062 3.585938 8 8 8h32v16h-32c-4.414062 0-8 3.585938-8 8v80h16v-72h32c4.414062 0 8-3.585938 8-8v-32c0-4.414062-3.585938-8-8-8h-32v-24c0-4.414062-3.585938-8-8-8h-32c-4.414062 0-8 3.585938-8 8v24h-32c-4.414062 0-8 3.585938-8 8v32c0 4.414062 3.585938 8 8 8zm0 0"/></svg>