<?xml version="1.0" encoding="iso-8859-1"?>
<!-- Generator: Adobe Illustrator 19.0.0, SVG Export Plug-In . SVG Version: 6.00 Build 0)  -->
<svg version="1.1" id="Capa_1" xmlns="http://www.w3.org/2000/svg" xmlns:xlink="http://www.w3.org/1999/xlink" x="0px" y="0px"
	 viewBox="0 0 462.957 462.957" style="enable-background:new 0 0 462.957 462.957;" xml:space="preserve">
<g>
	<path d="M459.232,169.02c3.832-5.573,4.758-12.434,2.542-18.824c-2.215-6.39-7.191-11.204-13.65-13.209L257.414,77.801
		c-16.966-5.266-34.902-5.266-51.87,0L14.832,136.987c-6.459,2.005-11.434,6.819-13.65,13.209s-1.29,13.25,2.542,18.824
		l76.254,110.915v27.17c-21.245,8.387-32,18.617-32,30.501c0,15.979,19.255,28.895,57.23,38.389
		c33.82,8.455,78.664,13.111,126.27,13.111s92.45-4.656,126.27-13.111c37.975-9.494,57.23-22.41,57.23-38.389
		c0-11.884-10.755-22.114-32-30.501v-27.17L459.232,169.02z M367.978,302.105h-0.757c-0.019,0-0.039,0-0.058,0H95.793
		c-0.019,0-0.039,0-0.058,0h-0.756v-17h273V302.105z M204.276,181.69l-11.16-18.233l21.371,0.548c2.81,0.053,5.436-1.44,6.782-3.916
		l10.21-18.781l10.211,18.782c1.346,2.475,3.959,3.975,6.782,3.915l21.371-0.548l-11.16,18.233c-1.471,2.403-1.471,5.428,0,7.831
		l11.16,18.233l-21.371-0.548c-2.809-0.064-5.436,1.439-6.782,3.915l-10.211,18.782l-10.21-18.781
		c-1.315-2.419-3.846-3.918-6.588-3.918c-0.064,0-0.129,0.001-0.193,0.002l-21.371,0.548l11.16-18.233
		C205.747,187.118,205.747,184.093,204.276,181.69z M443.679,151.313c1.857,0.576,3.287,1.96,3.924,3.797
		c0.637,1.837,0.371,3.809-0.731,5.411l-75.339,109.584H238.978v-22.593l13.697-25.194l30.573,0.784
		c2.762,0.065,5.313-1.367,6.688-3.748s1.336-5.321-0.098-7.666l-15.965-26.084l15.965-26.084c1.435-2.344,1.472-5.285,0.098-7.666
		c-1.374-2.38-3.942-3.799-6.688-3.748l-30.573,0.784l-13.697-25.194V89.256c4.711,0.494,9.393,1.445,13.989,2.871L443.679,151.313z
		 M15.354,155.111c0.637-1.837,2.067-3.221,3.924-3.797l190.71-59.186c4.596-1.426,9.278-2.377,13.989-2.871v34.442l-13.696,25.193
		l-30.573-0.784c-2.753-0.056-5.313,1.368-6.688,3.748c-1.374,2.38-1.336,5.321,0.098,7.666l15.965,26.084L173.12,211.69
		c-1.435,2.344-1.472,5.285-0.098,7.666c1.375,2.38,3.958,3.817,6.688,3.748l30.573-0.784l13.696,25.193v22.593H91.424
		L16.085,160.522C14.984,158.92,14.718,156.948,15.354,155.111z M399.978,337.605c0,2.926-3.793,6.915-10.147,10.67
		c-8.125,4.802-20.478,9.355-35.721,13.166c-32.665,8.167-76.216,12.664-122.632,12.664s-89.967-4.497-122.632-12.664
		c-36.282-9.07-45.868-19.558-45.868-23.836c0-5.03,10.489-13.277,33.864-20.5h269.273
		C389.49,324.329,399.978,332.575,399.978,337.605z"/>
	<path d="M231.478,201.105c7.995,0,14.5-6.505,14.5-14.5s-6.505-14.5-14.5-14.5s-14.5,6.505-14.5,14.5
		S223.483,201.105,231.478,201.105z"/>
</g>
<g>
</g>
<g>
</g>
<g>
</g>
<g>
</g>
<g>
</g>
<g>
</g>
<g>
</g>
<g>
</g>
<g>
</g>
<g>
</g>
<g>
</g>
<g>
</g>
<g>
</g>
<g>
</g>
<g>
</g>
</svg>
