<svg height="467pt" viewBox="0 0 467.00239 467" width="467pt" xmlns="http://www.w3.org/2000/svg"><path d="m92.75 466.878906c39.207031.015625 74.1875-24.636718 87.355469-61.566406 13.171875-36.929688 1.6875-78.152344-28.679688-102.949219l-3.691406-39.777343c-.382813-4.101563-3.84375-7.230469-7.964844-7.207032h-41.265625v-18.5c0-16.542968 13.957032-29.5 30.5-29.5h54c25.40625 0 46-20.59375 46-46s-20.59375-46-46-46h-1c-16.753906-.214844-30.285156-13.746094-30.5-30.5v-2c0-16.542968 13.957032-29.5 30.5-29.5h90.800782l-15.839844 15.589844c-2.925782 2.871094-3.140625 7.511719-.5 10.644531l25.507812 30.652344c-.304687 3.078125-.460937 6.152344-.460937 9.285156.015625 51.21875 41.542969 92.726563 92.761719 92.71875 51.21875-.011719 92.734374-41.535156 92.730468-92.753906-.007812-51.21875-41.527344-92.738281-92.746094-92.738281-3.132812 0-6.238281.15625-9.316406.460937l-30.714844-25.507812c-3.246093-2.566407-7.910156-2.242188-10.769531.746093l-34.652343 34.902344h-106.800782c-25.363281 0-46.5 20.136719-46.5 45.5v2c0 25.363282 21.136719 46.5 46.5 46.5h1c16.566406 0 30 13.429688 30 30 0 16.570313-13.433594 30-30 30h-54c-25.363281 0-46.5 20.136719-46.5 45.5v18.5h-36.777344c-4.121093-.023437-7.578124 3.105469-7.964843 7.207032l-3.6875 39.800781c-30.371094 24.792969-41.859375 66.015625-28.6875 102.945312 13.171875 36.925781 48.15625 61.570313 87.363281 61.546875zm281.507812-424.105468c36.613282 0 68.128907 25.863281 75.269532 61.773437 7.144531 35.910156-12.074219 71.863281-45.902344 85.875-33.824219 14.011719-72.839844 2.175781-93.179688-28.265625-20.339843-30.445312-16.34375-71.015625 9.546876-96.90625 14.359374-14.4375 33.898437-22.53125 54.265624-22.476562zm-44.644531-24.082032 15.402344 12.792969c-27.761719 9.246094-49.546875 31.03125-58.792969 58.792969l-12.789062-15.398438zm-276.59375 252.6875h36.734375c.40625 0 .824219.105469 1.25.105469.425782 0 .84375-.105469 1.25-.105469h40.222656l1.851563 19.921875c-26.152344-13.1875-57.007813-13.179687-83.15625.011719zm39.730469 26.007813c42.386719 0 76.746094 34.359375 76.746094 76.746093 0 42.386719-34.359375 76.746094-76.746094 76.746094s-76.746094-34.359375-76.746094-76.746094c.046875-42.367187 34.378906-76.699218 76.746094-76.746093zm0 0"/><path d="m92.75 436.726562c34.570312 0 62.59375-28.023437 62.59375-62.59375 0-34.570312-28.023438-62.59375-62.59375-62.59375s-62.59375 28.023438-62.59375 62.59375c.039062 34.554688 28.039062 62.554688 62.59375 62.59375zm0-109.1875c25.734375 0 46.59375 20.863282 46.59375 46.59375 0 25.734376-20.863281 46.59375-46.59375 46.59375-25.734375 0-46.59375-20.859374-46.59375-46.59375.027344-25.722656 20.871094-46.5625 46.59375-46.59375zm0 0"/><path d="m329.996094 163.777344c24.445312 24.445312 64.078125 24.445312 88.523437 0 24.441407-24.441406 24.441407-64.074219 0-88.519532-24.445312-24.445312-64.078125-24.445312-88.523437 0-11.839844 11.683594-18.503906 27.625-18.503906 44.261719 0 16.632813 6.664062 32.574219 18.503906 44.257813zm11.316406-77.207032c18.195312-18.195312 47.695312-18.191406 65.890625.003907 18.195313 18.195312 18.195313 47.695312 0 65.890625-18.195313 18.195312-47.695313 18.195312-65.890625 0-8.816406-8.695313-13.777344-20.5625-13.777344-32.945313 0-12.382812 4.960938-24.25 13.777344-32.949219zm0 0"/></svg>