<svg height="464pt" viewBox="-18 0 464 464.3317" width="464pt" xmlns="http://www.w3.org/2000/svg"><path d="m229.539062 143.226562c-4.417968 0-8 3.582032-8 8 0 4.632813-3.753906 8.382813-8.382812 8.382813s-8.382812-3.75-8.382812-8.382813c0-4.417968-3.582032-8-8-8-4.417969 0-8 3.582032-8 8 0 13.46875 10.917968 24.382813 24.382812 24.382813 13.46875 0 24.382812-10.914063 24.382812-24.382813 0-4.417968-3.582031-8-8-8zm0 0"/><path d="m295.078125 175.609375c13.460937-.011719 24.371094-10.921875 24.386719-24.382813 0-4.417968-3.582032-8-8-8-4.417969 0-8 3.582032-8 8-.050782 4.59375-3.789063 8.292969-8.386719 8.292969-4.59375 0-8.332031-3.699219-8.382813-8.292969 0-4.417968-3.582031-8-8-8-4.417968 0-8 3.582032-8 8 .015626 13.460938 10.921876 24.371094 24.382813 24.382813zm0 0"/><path d="m45.402344 402.066406c6 6.003906 15.734375 6.003906 21.734375 0l16.066406-16.066406h.128906c.28125 0-.078125-.574219.921875-.867188v23.878907c-.058594 2.09375.726563 4.121093 2.183594 5.625 1.457031 1.503906 3.460938 2.355469 5.554688 2.363281h66.207031l38.503906 38.511719c11.03125 11.03125 28.664063 11.8125 40.621094 1.792969 11.960937-10.015626 14.292969-27.507813 5.371093-40.304688h177.644532c2.113281 0 4.136718-.84375 5.621094-2.34375 1.488281-1.5 2.3125-3.53125 2.292968-5.644531v-57.96875c0-40.570313-32.917968-74.042969-73.488281-74.042969h-39.511719v-21.828125c5-3.253906 8.519532-6.871094 12.386719-10.839844 16.164063-16.472656 26.53125-37.753906 29.539063-60.636719 12.296874-3.300781 20.863281-14.421874 20.917968-27.152343 0-12.65625-8.84375-23.386719-19.84375-26.898438v-48.644531h15.457032c2.089843.066406 4.117187-.714844 5.625-2.164062 1.507812-1.453126 2.363281-3.449219 2.375-5.539063-.070313-40.566406-33.023438-73.3867188-73.589844-73.296875h-67.515625c-8.460938-.0625-16.730469 2.542969-23.625 7.449219-40.09375 15.472656-66.589844 53.964843-66.726563 96.941406v25.078125c-12.1875 3.347656-20.632812 14.433594-20.613281 27.074219 0 12.699219 9.199219 23.746093 21.394531 27.082031 2.902344 22.882812 13.1875 44.195312 29.292969 60.707031 5 5.132813 10.925781 9.675781 15.925781 13.609375v19.058594h-6.75c.601563-1.503906.886719-3.113281.835938-4.734375.011718-4.042969-1.613282-7.921875-4.5-10.75l-40.734375-40.675781c-6.019531-5.980469-15.742188-5.960938-21.738281.042968l-16.0625 16.070313c-5.835938 5.855469-6 15.277344-.371094 21.332031l-22.554688 29.714844c-3.609375 4.753906-7.847656 8.996094-12.601562 12.605469l-29.714844 22.558593c-6.046875-5.652343-15.484375-5.488281-21.332031.367188l-16.0625 16.070312c-6.003907 6.003907-6.003907 15.734376 0 21.738282zm104.851562-236.515625c-2.871094-2.101562-4.5625-5.449219-4.542968-9.007812-.105469-3.695313 1.589843-7.214844 4.542968-9.441407zm-50 235.449219v-52.617188l28.667969 28.796876c-2.730469 3.152343-2.578125 7.875.355469 10.84375l12.921875 12.976562zm7.769532-67.210938c2.84375-3.496093 6.039062-6.691406 9.535156-9.535156l32.054687 32.054688-9.53125 9.535156zm78.703124 89.121094-40.542968-40.539062 19.957031-19.957032 40.539063 40.539063zm41.25 21.296875c-5.515624 5.5-14.441406 5.5-19.957031 0l-9.980469-9.980469 19.957032-19.957031 9.980468 9.980469c5.5 5.511719 5.5 14.4375 0 19.953125zm126.789063-151.207031c31.746094 0 57.488281 26.300781 57.488281 58.042969v49.957031h-149v-78.320312l46.472656-29.679688zm-100.144531 15.75-42.367188-27.609375v-14.210937c27.8125 12.445312 59.734375 11.777343 87-1.824219v15.921875zm107.566406-152.207031c0 3.523437-1.933594 6.691406-3.933594 8.910156v-17.820313c2 2.214844 3.933594 5.382813 3.933594 8.910157zm-121.582031-140.542969h67.515625c29.042968 0 53.132812 21 57.03125 49h-124.546875c-13.53125 0-24.5-10.96875-24.5-24.5s10.96875-24.5 24.5-24.5zm-74.351563 88.390625c.070313-27.152344 12.609375-52.761719 34.011719-69.46875-2.640625 18.140625 7.285156 35.78125 24.164063 42.9375-21.976563 23.140625-46.175782 26.601563-58.175782 26.734375zm25.800782 128.78125c-16.558594-16.886719-25.824219-39.597656-25.800782-63.242187v-49.363282c16-.164062 49.011719-5.566406 76.335938-39.566406h99.664062v88.929688c-.019531 23.660156-9.328125 46.367187-25.917968 63.242187-16.242188 16.964844-38.695313 26.582031-62.183594 26.636719-23.355469 0-45.375-9.460938-62.097656-26.636719zm10.199218 59.828125 45 29.566406v78.433594h-19.886718l-55.570313-55.5625c-2.953125-2.949219-7.675781-3.132812-10.847656-.421875l-30.554688-30.554687 18.628907-14.140626c2.765624 2.332032 6.265624 3.609376 9.882812 3.605469 4.105469-.082031 8.011719-1.78125 10.867188-4.730469l5.964843-6.199218zm-68.015625-60.34375 39.839844 39.84375-15.171875 15.175781-39.84375-39.84375zm-52.785156 80.695312c5.910156-4.488281 11.183594-9.761718 15.671875-15.671874l21.21875-27.949219 19.210938 19.210937-27.949219 21.21875c-5.910157 4.488282-11.183594 9.761719-15.671875 15.671875l-21.21875 27.945313-19.214844-19.210938zm-49.855469 21.941407 39.847656 39.84375-15.175781 15.171875-39.84375-39.84375zm0 0"/></svg>