<?xml version="1.0" encoding="iso-8859-1"?>
<!-- Generator: Adobe Illustrator 19.0.0, SVG Export Plug-In . SVG Version: 6.00 Build 0)  -->
<svg version="1.1" id="Capa_1" xmlns="http://www.w3.org/2000/svg" xmlns:xlink="http://www.w3.org/1999/xlink" x="0px" y="0px"
	 viewBox="0 0 463 463" style="enable-background:new 0 0 463 463;" xml:space="preserve">
<g>
	<path d="M398.901,333.619l-76.69-19.173c-0.738-6.717-4.331-13.04-10.299-17.019l-11.385-7.59
		C326.38,265.001,343,226.566,343,183.5c0-6.315-0.739-13.369-2.187-20.993c1.409-2.358,2.187-5.085,2.187-7.951V127.5
		c0-0.818-0.135-1.603-0.378-2.34c1.4-1.08,2.629-2.391,3.604-3.917c2.434-3.807,3.085-8.473,1.778-12.83L329.318,47H376v130.234
		c-9.29,3.138-16,11.93-16,22.266v48c0,4.142,3.358,7.5,7.5,7.5h32c4.142,0,7.5-3.358,7.5-7.5v-48c0-10.336-6.71-19.128-16-22.266
		V47h16.5c4.142,0,7.5-3.358,7.5-7.5s-3.358-7.5-7.5-7.5H253.403c1.027-2.638,1.597-5.503,1.597-8.5C255,10.542,244.458,0,231.5,0
		S208,10.542,208,23.5c0,2.997,0.57,5.862,1.597,8.5H55.5c-4.142,0-7.5,3.358-7.5,7.5s3.358,7.5,7.5,7.5h78.182l-18.694,61.441
		c-1.298,4.328-0.647,8.994,1.787,12.801c0.975,1.526,2.204,2.837,3.604,3.917c-0.242,0.737-0.378,1.522-0.378,2.34v27.056
		c0,2.367,0.526,4.643,1.503,6.692c-0.997,7.32-1.503,14.791-1.503,22.253c0,43.066,16.62,81.501,42.473,106.338l-11.385,7.59
		c-5.969,3.979-9.562,10.302-10.299,17.02l-76.69,19.173C35.779,340.699,16,366.031,16,395.223V439.5
		c0,12.958,10.542,23.5,23.5,23.5h384c12.958,0,23.5-10.542,23.5-23.5v-44.277C447,366.032,427.221,340.699,398.901,333.619z
		 M392,240h-17v-40.5c0-4.687,3.813-8.5,8.5-8.5s8.5,3.813,8.5,8.5V240z M143.922,329.125c5.607,11.221,13.557,27.13,20.237,40.492
		l11.644,23.273c1.503,2.998,2.691,5.366,6.439,6.003c0.419,0.071,0.84,0.106,1.258,0.106c1.955,0,3.853-0.765,5.268-2.162
		c6.749-6.66,13.305-11.971,19.232-16.169v2.831c0,5.534,2.925,10.387,7.301,13.13l-3.177,25.416
		c-42.744-8.747-75.278-45.844-77.041-90.71L143.922,329.125z M231.499,367.488c1.853,0.738,4.781,2.007,8.501,3.951V383.5
		c0,0.276-0.224,0.5-0.5,0.5h-16c-0.276,0-0.5-0.224-0.5-0.5v-12.062C226.722,369.493,229.651,368.224,231.499,367.488z
		 M230.121,399h2.759l3.112,24.892c-1.489,0.069-2.985,0.108-4.491,0.108s-3.002-0.039-4.491-0.108L230.121,399z M250.876,422.045
		l-3.177-25.415c4.376-2.743,7.301-7.595,7.301-13.13v-2.83c5.927,4.198,12.483,9.508,19.232,16.169
		c1.415,1.396,3.313,2.162,5.268,2.162c0.418,0,0.838-0.035,1.258-0.106c3.749-0.638,4.936-3.005,6.439-6.003l11.644-23.273
		c6.681-13.363,14.63-29.271,20.237-40.493l8.839,2.21C326.154,376.201,293.62,413.298,250.876,422.045z M306.483,320.773
		c-13.946,27.911-23.889,47.803-29.199,58.414c-12.864-11.311-24.587-18.251-32.629-22.236l51.8-51.8l7.136,4.757
		C307.149,312.28,308.393,316.951,306.483,320.773z M327.5,184H303v-8.5c0-4.142-3.358-7.5-7.5-7.5h-48c-4.142,0-7.5,3.358-7.5,7.5
		v2.097c-2.638-1.027-5.503-1.597-8.5-1.597s-5.862,0.57-8.5,1.597V175.5c0-4.142-3.358-7.5-7.5-7.5h-48c-4.142,0-7.5,3.358-7.5,7.5
		v8.5h-24.5c-0.167,0-0.33,0.014-0.495,0.025c-0.001-0.175-0.005-0.349-0.005-0.525c0-4.493,0.225-8.983,0.624-13.438
		c2.319-0.02,4.644-0.561,6.808-1.643l20.422-10.211c1.167-0.583,2.163-1.462,2.886-2.548l13.378-20.067l51.321,7.332
		c0.352,0.05,0.706,0.075,1.061,0.075s0.709-0.025,1.061-0.075l51.321-7.332l13.378,20.067c0.724,1.086,1.719,1.964,2.886,2.548
		l20.422,10.211c2.011,1.005,4.16,1.526,6.315,1.615c0.736,4.865,1.117,9.38,1.117,13.467c0,0.175-0.005,0.35-0.005,0.525
		C327.83,184.014,327.667,184,327.5,184z M162.658,133.242l-8.294,12.441l-18.641,9.32c-0.076,0.038-0.196,0.09-0.364,0.032
		c-0.113-0.152-0.234-0.299-0.358-0.443c0-0.012-0.002-0.026-0.002-0.036v-25.265L162.658,133.242z M328,154.556
		c0,0.104,0,0.279-0.237,0.425c-0.237,0.147-0.394,0.069-0.486,0.022l-18.641-9.32l-8.294-12.441L328,129.291V154.556z M223,23.5
		c0-4.687,3.813-8.5,8.5-8.5s8.5,3.813,8.5,8.5s-3.813,8.5-8.5,8.5S223,28.187,223,23.5z M129.346,112.779L149.361,47h164.279
		l20.006,65.751c0.018,0.06,0.066,0.22-0.058,0.413c-0.124,0.193-0.288,0.217-0.35,0.226L231.5,127.924L129.763,113.39
		c-0.062-0.009-0.227-0.032-0.35-0.226C129.289,112.971,129.336,112.811,129.346,112.779z M135.796,199H160v0.5
		c0,4.142,3.358,7.5,7.5,7.5s7.5-3.358,7.5-7.5V183h9v8.5c0,4.142,3.358,7.5,7.5,7.5s7.5-3.358,7.5-7.5V183h9v16.5
		c0,4.142,3.358,7.5,7.5,7.5s7.5-3.358,7.5-7.5c0-4.687,3.813-8.5,8.5-8.5s8.5,3.813,8.5,8.5c0,4.142,3.358,7.5,7.5,7.5
		s7.5-3.358,7.5-7.5V183h9v8.5c0,4.142,3.358,7.5,7.5,7.5s7.5-3.358,7.5-7.5V183h9v16.5c0,4.142,3.358,7.5,7.5,7.5
		s7.5-3.358,7.5-7.5V199h24.204c-6.11,59.15-46.699,105-95.704,105S141.906,258.15,135.796,199z M231.5,319
		c13.339,0,26.136-2.865,38.002-8.109L231.5,348.894l-38.002-38.002C205.364,316.135,218.161,319,231.5,319z M159.409,309.908
		l7.136-4.757l51.8,51.8c-8.042,3.985-19.765,10.925-32.629,22.236c-5.31-10.611-15.253-30.503-29.199-58.414
		C154.607,316.951,155.851,312.28,159.409,309.908z M432,439.5c0,4.687-3.813,8.5-8.5,8.5H375v-24.5c0-4.142-3.358-7.5-7.5-7.5
		s-7.5,3.358-7.5,7.5V448H103v-24.5c0-4.142-3.358-7.5-7.5-7.5s-7.5,3.358-7.5,7.5V448H39.5c-4.687,0-8.5-3.813-8.5-8.5v-44.277
		c0-22.296,15.107-41.645,36.737-47.052l52.524-13.131C124.152,393.018,172.553,439,231.5,439
		c58.947,0,107.349-45.982,111.24-103.96l52.524,13.131c21.63,5.408,36.737,24.756,36.737,47.052V439.5z"/>
	<path d="M215.5,263h32c4.142,0,7.5-3.358,7.5-7.5s-3.358-7.5-7.5-7.5h-32c-4.142,0-7.5,3.358-7.5,7.5S211.358,263,215.5,263z"/>
</g>
<g>
</g>
<g>
</g>
<g>
</g>
<g>
</g>
<g>
</g>
<g>
</g>
<g>
</g>
<g>
</g>
<g>
</g>
<g>
</g>
<g>
</g>
<g>
</g>
<g>
</g>
<g>
</g>
<g>
</g>
</svg>
