<?xml version="1.0" encoding="iso-8859-1"?>
<!-- Generator: Adobe Illustrator 19.0.0, SVG Export Plug-In . SVG Version: 6.00 Build 0)  -->
<svg version="1.1" id="Capa_1" xmlns="http://www.w3.org/2000/svg" xmlns:xlink="http://www.w3.org/1999/xlink" x="0px" y="0px"
	 viewBox="0 0 463.001 463.001" style="enable-background:new 0 0 463.001 463.001;" xml:space="preserve">
<g>
	<path d="M184.001,183.001v8.5c0,4.142,3.358,7.5,7.5,7.5s7.5-3.358,7.5-7.5v-8.5h0.499c4.142,0,7.5-3.358,7.5-7.5
		s-3.358-7.5-7.5-7.5h-24c-4.142,0-7.5,3.358-7.5,7.5s3.358,7.5,7.5,7.5H184.001z"/>
	<path d="M263.501,183.001h0.5v8.5c0,4.142,3.358,7.5,7.5,7.5s7.5-3.358,7.5-7.5v-8.5h8.5c4.142,0,7.5-3.358,7.5-7.5
		s-3.358-7.5-7.5-7.5h-24c-4.142,0-7.5,3.358-7.5,7.5S259.358,183.001,263.501,183.001z"/>
	<path d="M215.501,263.001h32c4.142,0,7.5-3.358,7.5-7.5s-3.358-7.5-7.5-7.5h-32c-4.142,0-7.5,3.358-7.5,7.5
		S211.359,263.001,215.501,263.001z"/>
	<path d="M398.901,333.621l-29.255-7.314c-0.208-2.937-2.143-5.599-5.108-6.588l-45.816-15.272
		c-1.714-2.722-3.989-5.138-6.811-7.019l-11.384-7.59c25.853-24.837,42.473-63.272,42.473-106.338c0-6.314-0.74-13.369-2.188-20.992
		c1.41-2.358,2.188-5.086,2.188-7.952v-34.339c16.424-2.264,30.843-5.047,42.502-8.276c3.992-1.105,6.332-5.238,5.226-9.23
		c-1.106-3.992-5.238-6.331-9.23-5.226c-11.095,3.073-24.856,5.725-40.564,7.893L294.31,4.358c-1.389-3.009-4.591-4.75-7.87-4.282
		l-54.939,7.849l-54.939-7.849c-3.287-0.471-6.482,1.272-7.87,4.282l-46.625,101.02c-15.708-2.167-29.469-4.82-40.564-7.893
		c-3.989-1.105-8.124,1.234-9.23,5.226c-1.105,3.992,1.234,8.124,5.226,9.23c11.659,3.229,26.078,6.012,42.502,8.276v34.339
		c0,2.367,0.526,4.643,1.503,6.691c-0.997,7.317-1.503,14.788-1.503,22.253c0,43.066,16.62,81.501,42.473,106.338l-11.385,7.59
		c-2.822,1.881-5.097,4.297-6.81,7.019l-45.817,15.272c-2.965,0.988-4.899,3.65-5.108,6.588L64.1,333.621
		c-28.32,7.08-48.099,32.412-48.099,61.604v44.276c0,12.958,10.542,23.5,23.5,23.5h384c12.958,0,23.5-10.542,23.5-23.5v-44.277
		C447.001,366.033,427.222,340.701,398.901,333.621z M313.26,371.661l13.575,20.362l-28.265,55.978h-19.549
		c-0.116-11.148,0.604-34.795,7.731-53.876c0.107-0.285,0.189-0.573,0.259-0.862c0.062-0.123,0.124-0.246,0.187-0.371l11.644-23.273
		c7.012-14.026,15.429-30.869,21.06-42.14c0.991-1.983,1.675-4.048,2.068-6.138l30.755,10.251l-7.065,21.639l-27.977,6.994
		c-2.366,0.591-4.297,2.296-5.177,4.571C311.626,367.072,311.907,369.632,313.26,371.661z M254.192,448.001l-6.485-51.375
		c4.372-2.744,7.294-7.594,7.294-13.125v-2.83c4.982,3.528,10.409,7.853,16.022,13.096c-6.434,20.271-7.148,42.857-7.019,54.235
		H254.192z M199.223,448.001c0.129-11.408-0.59-34.084-7.072-54.396c5.551-5.17,10.918-9.443,15.849-12.935v2.831
		c0,5.531,2.922,10.382,7.294,13.125l-6.485,51.375H199.223z M231.499,367.489c1.853,0.738,4.781,2.007,8.501,3.951v12.061
		c0,0.276-0.224,0.5-0.5,0.5h-16c-0.276,0-0.5-0.224-0.5-0.5v-12.062C226.723,369.494,229.652,368.225,231.499,367.489z
		 M230.113,399.001h2.775l6.185,49h-15.145L230.113,399.001z M306.483,320.775c-13.8,27.618-23.838,47.7-29.199,58.414
		c-12.863-11.311-24.587-18.251-32.629-22.236l51.8-51.8l7.135,4.757C307.15,312.281,308.393,316.952,306.483,320.775z
		 M328.001,154.557c0,0.104,0,0.279-0.237,0.425c-0.237,0.146-0.393,0.069-0.487,0.022l-18.186-9.093l-10.589-21.177
		c10.268-0.723,20.135-1.613,29.499-2.655V154.557z M179.969,15.716l50.471,7.21c0.703,0.101,1.418,0.101,2.121,0l50.471-7.21
		l42.271,91.588c-27.662,3.03-59.956,4.697-93.803,4.697c-33.847,0-66.141-1.667-93.803-4.697L179.969,15.716z M164.499,124.734
		l-10.589,21.177l-18.186,9.093c-0.076,0.038-0.196,0.09-0.365,0.032c-0.113-0.152-0.233-0.299-0.357-0.442
		c0-0.012-0.002-0.026-0.002-0.037v-32.479C144.364,123.121,154.232,124.01,164.499,124.734z M135.001,183.501
		c0-4.494,0.225-8.984,0.624-13.438c2.32-0.02,4.644-0.561,6.808-1.643l20.422-10.211c1.452-0.726,2.628-1.902,3.354-3.354
		l14.566-29.132c16.262,0.838,33.306,1.278,50.726,1.278c17.42,0,34.464-0.44,50.726-1.278l14.566,29.132
		c0.726,1.452,1.902,2.628,3.354,3.354l20.422,10.211c2.011,1.006,4.16,1.526,6.315,1.615c0.736,4.865,1.117,9.38,1.117,13.466
		c0,66.444-43.29,120.5-96.5,120.5S135.001,249.945,135.001,183.501z M231.501,319.001c13.339,0,26.136-2.865,38.002-8.109
		l-38.002,38.002l-38.002-38.002C205.364,316.136,218.162,319.001,231.501,319.001z M159.409,309.909l7.136-4.757l51.8,51.8
		c-8.042,3.985-19.766,10.925-32.629,22.236c-6.229-12.449-18.042-36.085-29.198-58.414
		C154.608,316.952,155.851,312.281,159.409,309.909z M141.032,321.341c0.393,2.09,1.077,4.155,2.068,6.138
		c5.631,11.271,14.047,28.114,21.06,42.14l11.644,23.274c0.257,0.512,0.505,1.004,0.758,1.474c7.044,19.04,7.76,42.535,7.645,53.635
		h-19.775l-28.265-55.978l13.575-20.362c1.353-2.029,1.635-4.59,0.755-6.865c-0.88-2.275-2.811-3.98-5.177-4.571l-27.977-6.995
		l-7.066-21.638L141.032,321.341z M31.001,439.501v-44.276c0-22.296,15.107-41.645,36.737-47.052l29.746-7.437l6.888,21.093
		c0.801,2.453,2.807,4.322,5.311,4.948l21.675,5.419l-10.096,15.145c-1.499,2.248-1.672,5.129-0.455,7.541l26.822,53.12h-44.627
		v-24.5c0-4.142-3.358-7.5-7.5-7.5s-7.5,3.358-7.5,7.5v24.5h-48.5C34.814,448.001,31.001,444.188,31.001,439.501z M432.001,439.501
		c0,4.687-3.813,8.5-8.5,8.5h-48.5v-24.5c0-4.142-3.358-7.5-7.5-7.5s-7.5,3.358-7.5,7.5v24.5h-44.627l26.822-53.12
		c1.218-2.412,1.044-5.292-0.455-7.541l-10.096-15.145l21.675-5.419c2.504-0.625,4.51-2.495,5.311-4.948l6.888-21.093l29.746,7.437
		c21.63,5.408,36.737,24.756,36.737,47.052V439.501z"/>
</g>
<g>
</g>
<g>
</g>
<g>
</g>
<g>
</g>
<g>
</g>
<g>
</g>
<g>
</g>
<g>
</g>
<g>
</g>
<g>
</g>
<g>
</g>
<g>
</g>
<g>
</g>
<g>
</g>
<g>
</g>
</svg>
