<svg height="391pt" viewBox="0 0 391 391.92724" width="391pt" xmlns="http://www.w3.org/2000/svg"><path d="m30.773438 391.921875h.355468c8.117188-.097656 15.871094-3.390625 21.582032-9.160156l65.050781-65.050781 57.085937 57.089843c5.796875 5.808594 13.691406 9.042969 21.898438 8.972657 17.046875-.066407 30.847656-13.867188 30.914062-30.914063.078125-8.207031-3.15625-16.101563-8.972656-21.898437l-57.089844-57.089844 221.628906-221.625c5.769532-5.710938 9.0625-13.464844 9.160157-21.585938.070312-8.152344-3.136719-15.992187-8.902344-21.761718-5.765625-5.765626-13.605469-8.9726568-21.757813-8.898438-8.121093.0976562-15.875 3.390625-21.585937 9.160156l-330.515625 330.515625c-5.773438 5.710938-9.0625 13.464844-9.160156 21.585938-.074219 8.09375 3.085937 15.882812 8.773437 21.640625 5.691407 5.753906 13.441407 9.003906 21.535157 9.023437zm165.898437-23.960937h-.078125c-3.921875-.011719-7.675781-1.589844-10.433594-4.382813l-8.804687-8.816406 25.199219 11.941406c-1.851563.824219-3.855469 1.253906-5.882813 1.257813zm154.78125-347.5c2.746094-2.832032 6.507813-4.449219 10.449219-4.5h.167968c7.960938.058593 14.371094 6.558593 14.316407 14.523437-.0625 3.933594-1.671875 7.6875-4.480469 10.449219l-217.960938 217.964844-27.671874-13.253907zm-237.175781 237.179687 28.453125 13.625c-1.007813 2.890625-.269531 6.105469 1.898437 8.269531l16.480469 16.476563-57.539063-27.660157zm-22.699219 22.703125 103.738281 49.855469 12.109375 12.085937v.011719c2.863281 2.738281 4.414063 6.574219 4.261719 10.53125 0 .15625-.03125.3125-.039062.46875l-67.847657-32.148437-20.375-20.410157c-3.125-3.125-8.191406-3.125-11.316406 0l-3.542969 3.542969-27.671875-13.25zm-22.6875 22.683594 27.671875 13.25-10.699219 10.699218-27.671875-13.25zm-22.691406 22.691406 27.671875 13.25-10.699219 10.699219-27.671875-13.246094zm-25.257813 25.261719 2.566406-2.570313 27.671876 13.25-9.785157 9.785156c-.273437.273438-.5625.527344-.855469.777344l-24.039062-11.375c.199219-3.726562 1.785156-7.246094 4.441406-9.867187zm0 0"/></svg>