<?xml version="1.0" encoding="iso-8859-1"?>
<!-- Generator: Adobe Illustrator 19.0.0, SVG Export Plug-In . SVG Version: 6.00 Build 0)  -->
<svg version="1.1" id="Capa_1" xmlns="http://www.w3.org/2000/svg" xmlns:xlink="http://www.w3.org/1999/xlink" x="0px" y="0px"
	 viewBox="0 0 463 463" style="enable-background:new 0 0 463 463;" xml:space="preserve">
<g>
	<path d="M431.5,88h-72c-4.687,0-8.5-3.813-8.5-8.5c0-21.78-17.72-39.5-39.5-39.5h-280C14.131,40,0,54.131,0,71.5v320
		C0,408.869,14.131,423,31.5,423h400c17.369,0,31.5-14.131,31.5-31.5v-272C463,102.131,448.869,88,431.5,88z M336,79.5
		c0,2.997,0.57,5.862,1.597,8.5H295.5c-4.687,0-8.5-3.813-8.5-8.5c0-9.25-3.205-17.761-8.551-24.5H311.5
		C325.009,55,336,65.991,336,79.5z M231.5,88c-4.687,0-8.5-3.813-8.5-8.5c0-9.25-3.205-17.761-8.551-24.5H247.5
		c13.509,0,24.5,10.991,24.5,24.5c0,2.997,0.57,5.862,1.597,8.5H231.5z M154.319,55H183.5c13.509,0,24.5,10.991,24.5,24.5
		c0,2.997,0.57,5.862,1.597,8.5H167.5c-4.687,0-8.5-3.813-8.5-8.5v-8C159,65.454,157.284,59.802,154.319,55z M448,391.5
		c0,9.098-7.402,16.5-16.5,16.5h-400c-9.098,0-16.5-7.402-16.5-16.5v-320C15,62.402,22.402,55,31.5,55h88h8
		c9.098,0,16.5,7.402,16.5,16.5v8c0,12.958,10.542,23.5,23.5,23.5h264c9.098,0,16.5,7.402,16.5,16.5V391.5z"/>
	<path d="M63.5,167h104c4.142,0,7.5-3.358,7.5-7.5s-3.358-7.5-7.5-7.5h-104c-4.142,0-7.5,3.358-7.5,7.5S59.358,167,63.5,167z"/>
	<path d="M223.5,232h-160c-4.142,0-7.5,3.358-7.5,7.5s3.358,7.5,7.5,7.5h160c4.142,0,7.5-3.358,7.5-7.5S227.642,232,223.5,232z"/>
	<path d="M223.5,192h-160c-4.142,0-7.5,3.358-7.5,7.5s3.358,7.5,7.5,7.5h160c4.142,0,7.5-3.358,7.5-7.5S227.642,192,223.5,192z"/>
	<path d="M299.5,208c-6.341,0-11.5,5.159-11.5,11.5s5.159,11.5,11.5,11.5s11.5-5.159,11.5-11.5S305.841,208,299.5,208z"/>
	<path d="M299.5,176c-23.986,0-43.5,19.514-43.5,43.5s19.514,43.5,43.5,43.5s43.5-19.514,43.5-43.5S323.486,176,299.5,176z
		 M299.5,248c-15.715,0-28.5-12.785-28.5-28.5s12.785-28.5,28.5-28.5s28.5,12.785,28.5,28.5S315.215,248,299.5,248z"/>
</g>
<g>
</g>
<g>
</g>
<g>
</g>
<g>
</g>
<g>
</g>
<g>
</g>
<g>
</g>
<g>
</g>
<g>
</g>
<g>
</g>
<g>
</g>
<g>
</g>
<g>
</g>
<g>
</g>
<g>
</g>
</svg>
