<svg height="496pt" viewBox="0 0 496 496" width="496pt" xmlns="http://www.w3.org/2000/svg"><path d="m248 400c-8.824219 0-16-7.175781-16-16h-16c0 14.871094 10.238281 27.289062 24 30.863281v17.136719h16v-17.136719c13.761719-3.574219 24-15.992187 24-30.863281 0-17.648438-14.351562-32-32-32-8.824219 0-16-7.175781-16-16s7.175781-16 16-16 16 7.175781 16 16h16c0-14.871094-10.238281-27.289062-24-30.863281v-17.136719h-16v17.136719c-13.761719 3.574219-24 15.992187-24 30.863281 0 17.648438 14.351562 32 32 32 8.824219 0 16 7.175781 16 16s-7.175781 16-16 16zm0 0"/><path d="m144 360c0 57.34375 46.65625 104 104 104s104-46.65625 104-104-46.65625-104-104-104-104 46.65625-104 104zm104-88c48.519531 0 88 39.480469 88 88s-39.480469 88-88 88-88-39.480469-88-88 39.480469-88 88-88zm0 0"/><path d="m176 144c-8.824219 0-16-7.175781-16-16h-16c0 14.863281 10.238281 27.289062 24 30.863281v17.136719h16v-17.136719c13.761719-3.574219 24-16 24-30.863281 0-17.648438-14.351562-32-32-32-8.824219 0-16-7.175781-16-16s7.175781-16 16-16 16 7.175781 16 16h16c0-14.863281-10.238281-27.289062-24-30.863281v-17.136719h-16v17.136719c-13.761719 3.574219-24 16-24 30.863281 0 17.648438 14.351562 32 32 32 8.824219 0 16 7.175781 16 16s-7.175781 16-16 16zm0 0"/><path d="m176 208c26.929688 0 52.703125-10.59375 72-29.128906v21.128906c0 4.414062 3.585938 8 8 8h160c4.414062 0 8-3.585938 8-8v-32c0-4.414062-3.585938-8-8-8h-24v-16h24c4.414062 0 8-3.585938 8-8v-32c0-4.414062-3.585938-8-8-8h-136.40625c-4.105469-53.609375-48.945312-96-103.59375-96-57.34375 0-104 46.65625-104 104s46.65625 104 104 104zm88-96h16v16h-16zm112 16h-16v-16h16zm0 64h-48v-16h48zm-112-48h48v16h-48zm48 32v16h-16v-16zm16-16v-16h16v16zm16-32h-48v-16h48zm-96 32h-16v-16h16zm16 16h16v16h-16zm144 16h-16v-16h16zm-32-32h-16v-16h16zm32-32h-16v-16h16zm-232-112c45.824219 0 83.535156 35.214844 87.59375 80h-7.59375c-4.414062 0-8 3.585938-8 8v24h-24c-4.414062 0-8 3.585938-8 8v32c0 4.414062 3.585938 8 8 8h2.457031c-14.679687 10.273438-32.265625 16-50.457031 16-48.519531 0-88-39.480469-88-88s39.480469-88 88-88zm0 0"/><path d="m488 224h-480c-4.414062 0-8 3.585938-8 8v256c0 4.425781 3.585938 8 8 8h480c4.414062 0 8-3.574219 8-8v-256c0-4.414062-3.585938-8-8-8zm-8 256h-464v-240h464zm0 0"/><path d="m40 432c13.230469 0 24 10.769531 24 24 0 4.425781 3.585938 8 8 8h104v-16h-96.808594c-3.183594-15.648438-15.542968-28.007812-31.191406-31.191406v-113.617188c15.648438-3.183594 28.007812-15.542968 31.191406-31.191406h96.808594v-16h-104c-4.414062 0-8 3.574219-8 8 0 13.230469-10.769531 24-24 24-4.414062 0-8 3.574219-8 8v128c0 4.425781 3.585938 8 8 8zm0 0"/><path d="m448 303.191406v113.609375c-15.648438 3.183594-28.007812 15.542969-31.191406 31.191407h-96.808594v16h104c4.414062 0 8-3.578126 8-8 0-13.230469 10.769531-24 24-24 4.414062 0 8-3.578126 8-8v-127.992188c0-4.425781-3.585938-8-8-8-13.230469 0-24-10.769531-24-24 0-4.425781-3.585938-8-8-8h-104v16h96.808594c3.183594 15.648438 15.542968 28.007812 31.191406 31.191406zm0 0"/><path d="m64 352c0 17.648438 14.351562 32 32 32s32-14.351562 32-32-14.351562-32-32-32-32 14.351562-32 32zm48 0c0 8.824219-7.175781 16-16 16s-16-7.175781-16-16 7.175781-16 16-16 16 7.175781 16 16zm0 0"/><path d="m432 352c0-17.648438-14.351562-32-32-32s-32 14.351562-32 32 14.351562 32 32 32 32-14.351562 32-32zm-48 0c0-8.824219 7.175781-16 16-16s16 7.175781 16 16-7.175781 16-16 16-16-7.175781-16-16zm0 0"/></svg>