<svg height="488pt" viewBox="-99 0 488 488.27353" width="488pt" xmlns="http://www.w3.org/2000/svg"><path d="m8.367188 488.269531h273.539062c4.421875.117188 8.101562-3.363281 8.230469-7.785156v-90.882813c-.015625-69.996093-50.121094-129.949218-119-142.398437v-49.769531c.011719-13.898438-11.242188-25.175782-25.136719-25.195313-16.429688.097657-32.226562-6.347656-43.898438-17.90625-11.511718-11.339843-17.972656-26.835937-17.921874-42.992187-.101563-16.148438 6.199218-31.683594 17.523437-43.199219 11.207031-11.390625 26.539063-17.777344 42.515625-17.699219 33.941406 0 61.558594 27.277344 61.558594 60.9375.003906 2.109375.851562 4.128906 2.355468 5.613282 1.503907 1.480468 3.535157 2.300781 5.644532 2.277343h34.386718c2.109376.023438 4.140626-.796875 5.644532-2.277343 1.503906-1.484376 2.351562-3.503907 2.355468-5.613282 0-61.445312-50.21875-111.378906-111.941406-111.378906-29.476562-.105469-57.742187 11.699219-78.386718 32.738281-43.074219 43.769531-42.644532 114.132813.964843 157.371094 14.882813 14.921875 33.746094 25.242187 54.335938 29.730469v27.039062c-69 11.582032-121 71.167969-121 142.722656v90.882813c.128906 4.421875 3.808593 7.902344 8.230469 7.785156zm69.625-309.519531c-37.238282-37.078125-37.574219-97.261719-.75-134.75 17.636718-18 41.796874-28.117188 66.996093-28.050781 50.1875 0 91.5 38.320312 95.597657 87.320312h-18.46875c-4.042969-39-37.101563-68.9375-77.140626-68.9375-20.269531-.066406-39.707031 8.054688-53.902343 22.523438-14.28125 14.511719-22.238281 34.089843-22.125 54.453125-.054688 20.433594 8.117187 40.03125 22.671875 54.371094 14.65625 14.539062 34.492187 22.652343 55.132812 22.546874 2.433594.007813 4.761719.980469 6.476563 2.707032 1.714843 1.726562 2.671875 4.0625 2.660156 6.492187v47.765625c-3-.230468-6.519531-.359375-9.917969-.359375-2.777344 0-6.082031.085938-8.082031.242188v-31.832031c-.058594-3.953126-2.949219-7.285157-6.851563-7.902344-19.785156-3.171875-38.078124-12.472656-52.296874-26.589844zm-61.855469 210.851562c0-71 58-128.769531 129-128.769531s129 57.765625 129 128.769531v4.667969h-258zm0 20.667969h258v62h-258zm0 0"/></svg>