<svg height="494pt" viewBox="0 -4 494.73761 494" width="494pt" xmlns="http://www.w3.org/2000/svg"><path d="m253.238281 377.183594c28.378907 0 48.199219-17.976563 48.199219-43.714844 0-3.207031-1.914062-6.101562-4.863281-7.359375l-32.351563-86.734375h62.820313c2.765625 6.738281 8.347656 11.929688 15.269531 14.199219v177.800781h-17.128906c-11.296875-.035156-21.308594 7.261719-24.730469 18.027344-4.074219.316406-7.199219 3.746094-7.140625 7.828125v21.144531c-.066406 2.089844.714844 4.121094 2.164062 5.625 1.453126 1.507812 3.449219 2.363281 5.542969 2.375h98.023438c4.46875.023438 8.140625-3.53125 8.269531-8v-21.144531c-.074219-4.136719-3.292969-7.535157-7.421875-7.828125-3.550781-10.792969-13.648437-18.074219-25.011719-18.027344h-16.566406v-177.800781c6.773438-2.300781 12.167969-7.507813 14.707031-14.199219h62.816407l-32.351563 86.730469c-2.949219 1.257812-4.863281 4.15625-4.863281 7.363281 0 25.738281 19.703125 43.714844 47.917968 43.714844 28.378907 0 48.199219-17.976563 48.199219-43.714844-.003906-3.066406-1.753906-5.859375-4.511719-7.191406l-35.910156-96.261719c-.027344-.082031-.070312-.160156-.097656-.242187-.054688-.125-.101562-.253907-.164062-.378907-.902344-3.539062-4.089844-6.015625-7.742188-6.019531h-72.4375c-3.015625-10.671875-12.753906-18.039062-23.84375-18.039062s-20.828125 7.367187-23.84375 18.039062h-71.875c-2.828125 0-5.441406 1.492188-6.878906 3.925781-.039063.046875-.078125.09375-.121094.140625-.082031.09375-.164062.1875-.242188.285156-.082031.097657-.171874.210938-.253906.320313-.082031.113281-.144531.203125-.210937.300781-.066407.101563-.152344.230469-.222657.347656-.074218.121094-.128906.222657-.1875.335938-.0625.113281-.125.230469-.179687.347656-.054687.121094-.117187.265625-.171875.402344-.03125.082031-.070312.15625-.101562.238281l-35.910157 96.257813c-2.757812 1.332031-4.507812 4.125-4.511719 7.191406 0 25.738281 19.703126 43.714844 47.917969 43.714844zm193.296875-16.089844c-12.613281 0-27.039062-5.71875-30.914062-19.71875h62.054687c-3.847656 14-17.546875 19.71875-31.136719 19.71875zm.289063-105.484375 26.027343 69.765625h-52.050781zm-55.511719 214.765625h-82v-5h82zm-16.433594-23c2.199219.113281 4.332032.800781 6.179688 2h-62.054688c1.847656-1.199219 3.980469-1.886719 6.179688-2zm-24.847656-226.039062c4.363281.007812 8.058594 3.214843 8.683594 7.535156-.414063 1.230468-.511719 2.550781-.285156 3.832031-1.222657 3.988281-5.085938 6.566406-9.238282 6.167969-4.15625-.398438-7.457031-3.667969-7.898437-7.816406-.003907-.179688-.011719-.355469-.03125-.53125-.003907-.132813-.019531-.265626-.019531-.402344.007812-4.847656 3.9375-8.777344 8.789062-8.785156zm-96.792969 34.273437 26.023438 69.765625h-52.050781zm31.136719 85.765625c-3.847656 14-17.542969 19.71875-31.136719 19.71875-12.613281 0-27.039062-5.71875-30.914062-19.71875zm0 0"/><path d="m96.8125 103.960938c24.5625-.027344 44.46875-19.929688 44.5-44.492188v-14.601562c0-24.574219-19.925781-44.5-44.5-44.5-24.578125 0-44.5 19.925781-44.5 44.5v14.601562c.027344 24.5625 19.933594 44.464844 44.5 44.492188zm-28.5-59.089844c0-15.742188 12.757812-28.5 28.5-28.5 15.738281 0 28.5 12.757812 28.5 28.5v14.597656c0 15.742188-12.761719 28.5-28.5 28.5-15.742188 0-28.5-12.757812-28.5-28.5zm0 0"/><path d="m.3125 265.863281c-.066406 7.511719 2.855469 14.734375 8.125 20.085938 5.199219 5.339843 12.316406 8.375 19.765625 8.425781h.011719l.3125-.199219c4.753906-.089843 9.40625-1.40625 13.5-3.828125l4.96875 167.328125c.441406 12.050781 8.097656 22.648438 19.402344 26.847657 11.304687 4.199218 24.023437 1.175781 32.226562-7.664063 8.214844 8.84375 20.957031 11.859375 32.265625 7.636719s18.953125-14.851563 19.363281-26.917969l4.964844-167.097656c4.222656 2.308593 8.960938 3.519531 13.773438 3.515625 15.574218-.003906 28.21875-12.578125 28.320312-28.148438v-111.78125c2.066406-25.03125-16.277344-47.113281-41.261719-49.671875-1.53125-.15625-3.25-.019531-4.792969-.019531h-19.21875c-2.007812-.078125-3.96875.621094-5.472656 1.949219l-27.941406 26.113281-26.851562-25.960938c-1.511719-1.40625-3.515626-2.160156-5.578126-2.101562h-20.394531c-12.144531-.117188-23.832031 4.640625-32.441406 13.207031-8.609375 8.570313-13.421875 20.234375-13.359375 32.378907 0 1.402343.3125 2.707031.3125 4.105468zm133.871094 191.113281c-.292969 7.566407-6.574219 13.511719-14.144532 13.398438-7.570312-.113281-13.664062-6.25-13.726562-13.820312v-164.871094c0-4.417969-3.582031-8-8-8-4.421875 0-8 3.582031-8 8v164.867187c.128906 7.566407-5.898438 13.808594-13.464844 13.9375-7.566406.132813-13.804687-5.894531-13.9375-13.460937l-5.644531-192.652344h82.71875zm-109.535156-328.054687c5.621093-5.570313 13.242187-8.648437 21.152343-8.546875h17.144531l30 28.96875c.050782.050781.105469-.015625.160157.03125.109375.097656.21875.144531.332031.238281.09375.078125.1875.125.285156.195313.117188.089844.238282.164062.359375.246094.101563.066406.199219.121093.300781.183593.121094.074219.246094.144531.375.210938.105469.054687.210938.109375.320313.160156.125.058594.253906.117187.382813.171875.113281.042969.226562.085938.339843.128906.113281.039063.257813.089844.386719.128906.128906.039063.234375.070313.351562.101563.121094.03125.261719.0625.394532.089844.132812.023437.238281.042969.359375.0625.121093.019531.269531.039062.402343.054687.117188.011719.234376.019532.355469.027344.136719.007812.273438.011719.410157.015625.117187 0 .234374 0 .351562-.007813.140625 0 .28125-.011718.417969-.027343.117187-.007813.230469-.023438.34375-.035157.140625-.019531.28125-.042968.421875-.070312.113281-.019531.222656-.042969.335937-.070312.136719-.03125.273438-.066407.410157-.105469.113281-.03125.222656-.066407.335937-.097657.132813-.046874.265625-.09375.398437-.148437.113282-.042969.222657-.089844.335938-.140625.109375-.050781.25-.117188.371094-.179688s.222656-.117187.332031-.183593c.109375-.0625.234375-.136719.347656-.210938s.21875-.144531.328125-.222656c.105469-.078125.214844-.160156.320313-.246094.109375-.082031.207031-.167969.308593-.257812.058594-.054688.121094.117187.175782.0625l31.214844-29.074219h16.046874c1.003907-.070312 2.011719-.089844 3.015626-.0625 16.410156 1.628906 28.429687 16.195312 26.914062 32.617188-.027344.269531.128906.484374.128906.753906v112.164062c-.191406 6.765625-5.734375 12.152344-12.5 12.152344-6.769531 0-12.308594-5.386719-12.5-12.152344v-24.414062l.113282-3.894532c.015624-.550781-.113282-1.097656-.113282-1.621093v-45.140625c0-4.417969-3.582031-8-8-8-4.421875 0-8 3.582031-8 8v50.414062l.144532 7.1875h-83.671876l-.351562-11.386718c-.011719-.371094-.125-.65625-.125-1.015626v-45.199218c0-4.417969-3.582031-8-8-8-4.421875 0-8 3.582031-8 8v74.519531c0 6.921875-5.355469 13.078125-11.984375 13.078125h-.117187c-3.207032-.0625-6.253907-1.414062-8.457032-3.742188-2.257812-2.355468-3.496094-5.507812-3.441406-8.769531v-112.179687c0-.269532-.132812-.539063-.160156-.808594-.121094-.964844-.191406-1.933594-.210938-2.90625-.042968-7.902344 3.09375-15.484375 8.707032-21.046875zm0 0"/></svg>