<svg height="496pt" viewBox="0 0 496 496" width="496pt" xmlns="http://www.w3.org/2000/svg"><path d="m472 176h-8v-88c0-4.425781-3.585938-8-8-8h-32c-4.414062 0-8 3.574219-8 8v8h-48v-40c0-2.214844-.894531-4.214844-2.351562-5.664062l-47.984376-47.984376c-1.449218-1.457031-3.449218-2.351562-5.664062-2.351562h-176c-4.414062 0-8 3.574219-8 8v88h-48v-8c0-4.425781-3.585938-8-8-8h-32c-4.414062 0-8 3.574219-8 8v88h-8c-13.230469 0-24 10.769531-24 24v272c0 13.230469 10.769531 24 24 24h448c13.230469 0 24-10.769531 24-24v-272c0-13.230469-10.769531-24-24-24zm-40-80h16v80h-16zm-352 80v-32h336v32zm240-148.6875 20.6875 20.6875h-20.6875zm-176-11.3125h160v40c0 4.425781 3.585938 8 8 8h40v32h-208zm272 96v16h-336v-16zm-368-16h16v80h-16zm432 376c0 4.414062-3.59375 8-8 8h-448c-4.40625 0-8-3.585938-8-8v-272c0-4.414062 3.59375-8 8-8h448c4.40625 0 8 3.585938 8 8zm0 0"/><path d="m456 208h-416c-4.414062 0-8 3.574219-8 8v240c0 4.425781 3.585938 8 8 8h416c4.414062 0 8-3.574219 8-8v-240c0-4.425781-3.585938-8-8-8zm-376 16h336v64h-336zm368 224h-400v-224h16v72c0 4.425781 3.585938 8 8 8h352c4.414062 0 8-3.574219 8-8v-72h16zm0 0"/><path d="m104 320h-32c-4.414062 0-8 3.574219-8 8v32c0 4.425781 3.585938 8 8 8h32c4.414062 0 8-3.574219 8-8v-32c0-4.425781-3.585938-8-8-8zm-8 32h-16v-16h16zm0 0"/><path d="m184 320h-32c-4.414062 0-8 3.574219-8 8v32c0 4.425781 3.585938 8 8 8h32c4.414062 0 8-3.574219 8-8v-32c0-4.425781-3.585938-8-8-8zm-8 32h-16v-16h16zm0 0"/><path d="m264 320h-32c-4.414062 0-8 3.574219-8 8v32c0 4.425781 3.585938 8 8 8h32c4.414062 0 8-3.574219 8-8v-32c0-4.425781-3.585938-8-8-8zm-8 32h-16v-16h16zm0 0"/><path d="m344 320h-32c-4.414062 0-8 3.574219-8 8v32c0 4.425781 3.585938 8 8 8h32c4.414062 0 8-3.574219 8-8v-32c0-4.425781-3.585938-8-8-8zm-8 32h-16v-16h16zm0 0"/><path d="m424 320h-32c-4.414062 0-8 3.574219-8 8v32c0 4.425781 3.585938 8 8 8h32c4.414062 0 8-3.574219 8-8v-32c0-4.425781-3.585938-8-8-8zm-8 32h-16v-16h16zm0 0"/><path d="m104 384h-32c-4.414062 0-8 3.574219-8 8v32c0 4.425781 3.585938 8 8 8h32c4.414062 0 8-3.574219 8-8v-32c0-4.425781-3.585938-8-8-8zm-8 32h-16v-16h16zm0 0"/><path d="m184 384h-32c-4.414062 0-8 3.574219-8 8v32c0 4.425781 3.585938 8 8 8h32c4.414062 0 8-3.574219 8-8v-32c0-4.425781-3.585938-8-8-8zm-8 32h-16v-16h16zm0 0"/><path d="m264 384h-32c-4.414062 0-8 3.574219-8 8v32c0 4.425781 3.585938 8 8 8h32c4.414062 0 8-3.574219 8-8v-32c0-4.425781-3.585938-8-8-8zm-8 32h-16v-16h16zm0 0"/><path d="m344 384h-32c-4.414062 0-8 3.574219-8 8v32c0 4.425781 3.585938 8 8 8h32c4.414062 0 8-3.574219 8-8v-32c0-4.425781-3.585938-8-8-8zm-8 32h-16v-16h16zm0 0"/><path d="m424 384h-32c-4.414062 0-8 3.574219-8 8v32c0 4.425781 3.585938 8 8 8h32c4.414062 0 8-3.574219 8-8v-32c0-4.425781-3.585938-8-8-8zm-8 32h-16v-16h16zm0 0"/></svg>