<?xml version="1.0" encoding="iso-8859-1"?>
<!-- Generator: Adobe Illustrator 19.0.0, SVG Export Plug-In . SVG Version: 6.00 Build 0)  -->
<svg version="1.1" id="Capa_1" xmlns="http://www.w3.org/2000/svg" xmlns:xlink="http://www.w3.org/1999/xlink" x="0px" y="0px"
	 viewBox="0 0 463 463" style="enable-background:new 0 0 463 463;" xml:space="preserve">
<path d="M439.5,123c12.958,0,23.5-10.542,23.5-23.5S452.458,76,439.5,76H261.403c1.027-2.638,1.597-5.503,1.597-8.5
	c0-12.958-10.542-23.5-23.5-23.5h-16C210.542,44,200,54.542,200,67.5c0,2.997,0.57,5.862,1.597,8.5H23.5C10.542,76,0,86.542,0,99.5
	S10.542,123,23.5,123H120v23.056l-28.367,70.918c-1.56,3.899-1.46,8.33,0.273,12.155c1.733,3.825,4.999,6.821,8.959,8.218
	l112.163,39.587c5.956,2.102,12.214,3.153,18.472,3.153s12.516-1.051,18.472-3.153l112.163-39.587
	c3.96-1.397,7.226-4.393,8.959-8.218c1.734-3.825,1.833-8.255,0.273-12.155L343,146.056V123h73v186.234
	c-9.29,3.138-16,11.93-16,22.266c0,6.177,2.399,11.801,6.31,16c-3.911,4.199-6.31,9.823-6.31,16v48c0,4.142,3.358,7.5,7.5,7.5h32
	c4.142,0,7.5-3.358,7.5-7.5v-48c0-6.177-2.399-11.801-6.31-16c3.911-4.199,6.31-9.823,6.31-16c0-10.336-6.71-19.128-16-22.266V123
	H439.5z M432,404h-17v-40.5c0-4.687,3.813-8.5,8.5-8.5s8.5,3.813,8.5,8.5V404z M423.5,340c-4.687,0-8.5-3.813-8.5-8.5
	s3.813-8.5,8.5-8.5s8.5,3.813,8.5,8.5S428.187,340,423.5,340z M215,67.5c0-4.687,3.813-8.5,8.5-8.5h16c4.687,0,8.5,3.813,8.5,8.5
	s-3.813,8.5-8.5,8.5h-16C218.813,76,215,72.187,215,67.5z M15,99.5c0-4.687,3.813-8.5,8.5-8.5h416c4.687,0,8.5,3.813,8.5,8.5
	s-3.813,8.5-8.5,8.5h-416C18.813,108,15,104.187,15,99.5z M357.432,222.937c-0.088,0.194-0.234,0.246-0.289,0.265L244.979,262.79
	c-8.691,3.067-18.266,3.068-26.959,0l-112.164-39.588c-0.055-0.019-0.201-0.071-0.289-0.265s-0.03-0.337-0.009-0.392L132.578,155
	h197.845l27.018,67.545C357.462,222.6,357.52,222.743,357.432,222.937z M328,140H135v-17h193V140z"/>
<g>
</g>
<g>
</g>
<g>
</g>
<g>
</g>
<g>
</g>
<g>
</g>
<g>
</g>
<g>
</g>
<g>
</g>
<g>
</g>
<g>
</g>
<g>
</g>
<g>
</g>
<g>
</g>
<g>
</g>
</svg>
