<svg height="496pt" viewBox="0 0 496 496" width="496pt" xmlns="http://www.w3.org/2000/svg"><path d="m472 160h-8v-8c0-4.425781-3.585938-8-8-8h-40v-24c0-4.425781-3.585938-8-8-8h-8v-48c0-35.289062-28.710938-64-64-64h-176c-35.289062 0-64 28.710938-64 64v48h-8c-4.414062 0-8 3.574219-8 8v24h-40c-4.414062 0-8 3.574219-8 8v8h-8c-13.230469 0-24 10.769531-24 24v288c0 13.230469 10.769531 24 24 24h448c13.230469 0 24-10.769531 24-24v-288c0-13.230469-10.769531-24-24-24zm-184 136h-88v-16h96v16zm-56 96h32v16h-32zm-16-16v-64h64v64zm80-64h8c4.414062 0 8-3.574219 8-8v-32c0-4.425781-3.585938-8-8-8h-112c-4.414062 0-8 3.574219-8 8v32c0 4.425781 3.585938 8 8 8h8v20.28125l-152-11.6875v-128.59375h400v128.59375l-152 11.6875zm-120-168v-24c0-4.425781-3.585938-8-8-8h-8v-40c0-4.414062 3.59375-8 8-8h160c4.40625 0 8 3.585938 8 8v40h-8c-4.414062 0-8 3.574219-8 8v24zm160-16h64v16h-64zm-224-64c0-26.472656 21.527344-48 48-48h176c26.472656 0 48 21.527344 48 48v48h-32v-40c0-13.230469-10.769531-24-24-24h-160c-13.230469 0-24 10.769531-24 24v40h-32zm-16 64h64v16h-64zm-8 32h360v16h-400v-16zm392 312c0 4.414062-3.59375 8-8 8h-448c-4.40625 0-8-3.585938-8-8v-288c0-4.414062 3.59375-8 8-8h8v152c0 4.175781 3.214844 7.65625 7.382812 7.976562l160.617188 12.351563v35.671875c0 4.425781 3.585938 8 8 8h8v24c0 4.425781 3.585938 8 8 8h48c4.414062 0 8-3.574219 8-8v-24h8c4.414062 0 8-3.574219 8-8v-35.671875l160.617188-12.351563c4.167968-.320312 7.382812-3.800781 7.382812-7.976562v-152h8c4.40625 0 8 3.585938 8 8zm0 0"/></svg>