<svg height="496pt" viewBox="-64 0 496 496" width="496pt" xmlns="http://www.w3.org/2000/svg"><path d="m184 136c-39.695312 0-72 32.304688-72 72h16c0-30.878906 25.121094-56 56-56zm0 0"/><path d="m240 208c0 30.878906-25.121094 56-56 56v16c39.695312 0 72-32.304688 72-72zm0 0"/><path d="m209.214844 171.761719-34.664063 55.46875-16.886719-16.886719-11.3125 11.3125 24 24c1.496094 1.511719 3.535157 2.34375 5.648438 2.34375.304688 0 .601562-.015625.902344-.046875 2.425781-.28125 4.585937-1.640625 5.882812-3.714844l40-64zm0 0"/><path d="m360 0h-320c-4.414062 0-8 3.585938-8 8v24h-24c-4.414062 0-8 3.585938-8 8v400c0 4.414062 3.585938 8 8 8h144v16c0 17.648438 14.351562 32 32 32s32-14.351562 32-32v-16h112c4.414062 0 8-3.585938 8-8v-24h24c4.414062 0 8-3.585938 8-8v-400c0-4.414062-3.585938-8-8-8zm-176 480c-8.824219 0-16-7.175781-16-16v-88h32v88c0 8.824219-7.175781 16-16 16zm0-184c-48.519531 0-88-39.480469-88-88s39.480469-88 88-88 88 39.480469 88 88-39.480469 88-88 88zm0 16c5.457031 0 10.769531-.550781 16-1.359375v17.359375h-32v-17.359375c5.230469.808594 10.542969 1.359375 16 1.359375zm-16 32h32v16h-32zm152 88h-104v-56h16v-16h-16v-53.089844c41.726562-13.535156 72-52.726562 72-98.910156 0-57.34375-46.65625-104-104-104s-104 46.65625-104 104c0 46.175781 30.273438 85.375 72 98.910156v53.089844h-16v16h16v56h-136v-384h256v40c0 4.414062 3.585938 8 8 8h40zm-11.3125-352h-20.6875v-20.6875zm43.3125 320h-16v-312c0-2.207031-.894531-4.207031-2.34375-5.65625l-47.992188-47.992188c-1.457031-1.457031-3.457031-2.351562-5.664062-2.351562h-232v-16h304zm0 0"/></svg>