<svg height="462pt" viewBox="-103 0 462 462.63301" width="462pt" xmlns="http://www.w3.org/2000/svg"><path d="m252.660156 1.28125c-2.277344-1.472656-5.152344-1.691406-7.625-.574219l-116.71875 52.519531-116.71875-52.519531c-2.472656-1.113281-5.34375-.898437-7.625.574219-2.28125 1.476562-3.65625 4.003906-3.65625 6.71875v66.265625c0 1.269531.300782 2.523437.882813 3.652344l40.050781 78c1.082031 1.972656 2.902344 3.4375 5.066406 4.0625v161.6875c0 35.5625 16.410156 105.054687 78.113282 139.929687 2.429687 1.378906 5.40625 1.378906 7.835937 0 61.699219-34.875 78.160156-104.367187 78.160156-139.929687 0-.179688-.007812-.316407-.019531-.496094-.074219-1.449219-.136719-11.269531-.183594-25.855469h.09375v-16h-.136718c-.027344-13.140625-.046876-28.320312-.066407-44h.203125v-16h-.21875c-.015625-21.042968-.023437-42.011718-.027344-59.261718 2.3125-.515626 4.277344-2.03125 5.363282-4.136719l40-78c.578125-1.128907.882812-2.382813.882812-3.652344v-66.265625c0-2.714844-1.375-5.242188-3.65625-6.71875zm-124.292968 444.070312c-52.050782-31.941406-66.050782-92.363281-66.050782-123.683593v-26.351563h131.910156c.046876 14.101563.109376 24.117188.191407 26.488282-.042969 31.363281-14.074219 91.652343-66.050781 123.546874zm65.730468-226.035156h-131.78125v-59h132v1h-.121094c0 13-.117187 34.570313-.097656 58zm.015625 16c.015625 15.300782.039063 30.59375.070313 44h-131.867188v-44zm46.203125-162.980468-36.886718 71.980468h-68.113282v-52c0-4.417968-3.582031-8-8-8-4.417968 0-8 3.582032-8 8v52h-66.113281l-36.886719-71.980468v-51.960938l108.71875 48.921875c2.085938.9375 4.476563.9375 6.5625 0l108.71875-48.921875zm0 0"/></svg>