<svg height="492pt" viewBox="-10 0 492 492.067" width="492pt" xmlns="http://www.w3.org/2000/svg"><path d="m151.832031 170.074219c46.964844 0 85.039063-38.070313 85.039063-85.035157.003906-46.964843-38.070313-85.039062-85.035156-85.039062-46.964844 0-85.039063 38.074219-85.039063 85.039062.054687 46.941407 38.09375 84.980469 85.035156 85.035157zm0-154.074219c38.128907 0 69.039063 30.910156 69.039063 69.039062 0 38.128907-30.910156 69.035157-69.039063 69.035157-38.125 0-69.035156-30.90625-69.035156-69.035157.042969-38.109374 30.925781-68.996093 69.035156-69.039062zm0 0"/><path d="m341.617188 231.167969c-16.113282-.035157-32.089844 2.929687-47.117188 8.742187-13.390625-25.207031-39.617188-40.949218-68.160156-40.910156-2.554688.027344-4.949219 1.261719-6.449219 3.328125-15.890625 21.6875-41.167969 34.5-68.054687 34.496094-26.886719 0-52.160157-12.816407-68.050782-34.503907-1.5-2.066406-3.894531-3.296874-6.453125-3.320312-42.625 0-77.2968748 34.84375-77.2968748 77.46875v105.398438c-.0117187 4.445312 3.5546878 8.070312 7.9999998 8.132812h206.261719c12.957031 58 65.117187 102.066406 127.320313 102.066406 71.917968 0 130.417968-58.539062 130.417968-130.449218 0-71.914063-58.5-130.449219-130.417968-130.449219zm-129.832032 142.832031h-195.75v-97.53125c.039063-32.351562 25.167969-59.125 57.449219-61.210938 19.066406 23.761719 47.886719 37.585938 78.351563 37.585938 30.464843 0 59.285156-13.824219 78.347656-37.585938 20.878906 1.265626 39.65625 13.132813 49.761718 31.441407-42.308593 22.761719-68.710937 66.910156-68.746093 114.953125 0 4.140625.203125 8.347656.585937 12.347656zm129.832032 102c-63.191407 0-114.417969-51.226562-114.417969-114.414062 0-63.191407 51.226562-114.417969 114.417969-114.417969 63.191406 0 114.417968 51.226562 114.417968 114.417969-.074218 63.160156-51.257812 114.34375-114.417968 114.414062zm0 0"/><path d="m404.445312 358.792969-24.683593-32.097657 10.871093-50.339843c.644532-2.988281-.464843-6.078125-2.863281-7.96875-2.398437-1.894531-5.664062-2.253907-8.417969-.933594l-34.066406 16.347656c-2.316406 1.121094-5.019531 1.121094-7.335937 0l-34.066407-16.351562c-2.742187-1.316407-5.992187-.964844-8.390624.910156-2.398438 1.871094-3.523438 4.945313-2.90625 7.921875l10.421874 50.40625-24.472656 32.265625c-.125.164063-.078125.328125-.1875.5-6.796875 10.621094-10.378906 22.980469-10.3125 35.589844v13.8125c-.054687 8.164062 1.996094 16.207031 5.949219 23.351562.007813.011719-.066406.273438-.0625.285157 8.390625 15.03125 24.214844 24.394531 41.429687 24.507812h52.527344c17.238282-.113281 33.085938-9.46875 41.511719-24.507812.007813-.011719-.230469-.144532-.226563-.15625 3.929688-7.199219 5.953126-15.28125 5.871094-23.480469v-13.59375c.09375-12.757813-3.550781-25.265625-10.484375-35.972657-.109375-.167968.019531-.335937-.105469-.496093zm-73.421874-60.566407c6.691406 3.230469 14.492187 3.230469 21.1875 0l19.332031-9.277343-6.878907 31.863281-46.558593-.160156-6.570313-31.78125zm68.011718 110.628907c.082032 5.421875-1.238281 10.773437-3.828125 15.535156-.007812.007813.113281.265625.105469.273437-5.539062 9.988282-16.015625 16.226563-27.433594 16.335938h-52.527344c-11.445312-.109375-21.960937-6.339844-27.550781-16.328125-.007812-.011719.148438-.148437.144531-.15625-2.621093-4.800781-3.964843-10.191406-3.910156-15.660156v-13.8125c-.066406-9.433594 2.574219-18.6875 7.601563-26.671875l23.992187-31.726563 51.78125.175781 23.933594 31.480469c5.121094 8.054688 7.789062 17.421875 7.691406 26.960938zm0 0"/></svg>