<svg height="473pt" viewBox="-10 0 473 473.88615" width="473pt" xmlns="http://www.w3.org/2000/svg"><path d="m149.6875 277.140625c7.535156 7.53125 19.75 7.53125 27.285156 0l24.597656-24.601563c7.53125-7.535156 7.53125-19.746093 0-27.28125l-1.199218-1.199218 26.792968-35.289063 53.222657 53.222657-2.328125 2.328124c-3.125 3.125-3.125 8.1875 0 11.3125l103.390625 103.378907c16.351562 16.351562 42.863281 16.351562 59.214843 0 16.351563-16.347657 16.351563-42.859375 0-59.210938l-103.386718-103.382812c-3.125-3.125-8.191406-3.125-11.316406 0l-2.324219 2.328125-53.222657-53.226563 35.289063-26.789062 1.199219 1.199219c7.539062 7.523437 19.742187 7.523437 27.28125 0l24.597656-24.597657c7.523438-7.539062 7.523438-19.742187 0-27.28125l-62.390625-62.398437c-7.53125-7.535156-19.746094-7.535156-27.28125 0l-24.597656 24.597656c-7.535157 7.535156-7.535157 19.75 0 27.28125l2.03125 2.035156-36.769531 48.433594c-5.761719 7.589844-12.53125 14.363281-20.121094 20.125l-48.4375 36.769531-2.03125-2.03125c-7.539063-7.523437-19.746094-7.523437-27.28125 0l-24.601563 24.597657c-7.53125 7.535156-7.53125 19.746093 0 27.28125zm279.65625 33.972656c6.578125 6.527344 9.164062 16.074219 6.777344 25.027344-2.386719 8.953125-9.378906 15.949219-18.332032 18.335937-8.957031 2.386719-18.5-.199218-25.027343-6.777343l-18.300781-18.296875 36.589843-36.582032zm-97.722656-97.726562 68.113281 68.117187-36.582031 36.582032-68.117188-68.117188zm-19.300782-3.332031-20.617187 20.617187-54.773437-54.773437.214843-.28125c5.761719-7.589844 12.53125-14.359376 20.121094-20.121094l.28125-.214844zm-56.5-168.492188 24.597657-24.597656c1.289062-1.285156 3.367187-1.285156 4.652343 0l62.394532 62.390625c1.28125 1.289062 1.28125 3.367187 0 4.65625l-24.605469 24.597656c-1.285156 1.285156-3.363281 1.285156-4.652344 0l-62.386719-62.386719c-1.285156-1.285156-1.285156-3.371094 0-4.65625zm-56.5 99.300781c8.746094-6.640625 16.546876-14.441406 23.1875-23.1875l35.453126-46.691406 36.324218 36.324219-46.691406 35.445312c-8.746094 6.640625-16.550781 14.445313-23.191406 23.191406l-35.445313 46.691407-36.324219-36.324219zm-100.710937 57.914063 24.601563-24.597656c1.285156-1.28125 3.367187-1.28125 4.652343 0l62.394531 62.390624c1.28125 1.285157 1.28125 3.367188 0 4.652344l-24.601562 24.601563c-1.285156 1.285156-3.367188 1.285156-4.652344 0l-62.394531-62.390625c-1.28125-1.289063-1.28125-3.367188 0-4.65625zm0 0"/><path d="m7.980469 473.886719h263.0625c4.523437-.023438 8.226562-3.597657 8.40625-8.117188v-43.179687c0-4.417969-3.988281-7.699219-8.40625-7.699219h-14.59375v-35.203125c-.003907-2.101562-.851563-4.109375-2.355469-5.578125-1.5-1.464844-3.53125-2.265625-5.628906-2.222656h-217.902344c-2.113281-.050781-4.15625.746093-5.679688 2.210937-1.523437 1.464844-2.398437 3.476563-2.433593 5.589844v35.199219h-14.46875c-2.042969-.046875-4.011719.753906-5.4375 2.210937-1.429688 1.460938-2.1875 3.449219-2.09375 5.488282v43.179687c0 4.421875 3.113281 8.121094 7.53125 8.121094zm30.46875-86h202v27h-202zm-22 43h247v27h-247zm0 0"/></svg>