<svg id="Capa_1" enable-background="new 0 0 509.383 509.383" height="512" viewBox="0 0 509.383 509.383" width="512" xmlns="http://www.w3.org/2000/svg"><g><path d="m162.347 247.916c-3.05-2.804-7.794-2.604-10.598.445l-7.064 7.684-7.064-7.684c-2.804-3.049-7.548-3.248-10.598-.445-3.049 2.804-3.249 7.548-.445 10.598l7.919 8.614-7.919 8.614c-2.803 3.049-2.604 7.794.445 10.598 1.441 1.325 3.26 1.979 5.074 1.979 2.025 0 4.044-.815 5.523-2.424l7.064-7.684 7.064 7.684c1.479 1.608 3.498 2.424 5.523 2.424 1.814 0 3.633-.654 5.074-1.979 3.049-2.804 3.249-7.548.445-10.598l-7.919-8.614 7.919-8.614c2.805-3.049 2.606-7.794-.443-10.598z"/><path d="m463.484 443.815c-4.142 0-7.5 3.358-7.5 7.5v1.879c0 6.903-5.617 12.52-12.52 12.52h-52.349c-6.904 0-12.521-5.617-12.521-12.52v-15.231c0-3.289-1.291-6.372-3.634-8.681-2.31-2.275-5.372-3.528-8.668-3.528-.002 0-.004 0-.007 0h-147.25c-6.732 0-12.21 5.478-12.21 12.21v12.651c0 6.904-5.617 12.521-12.521 12.521h-52.349c-6.904 0-12.521-5.617-12.521-12.521v-35.143c0-2.692-1.443-5.177-3.78-6.513-3.838-2.192-7.536-4.563-11.094-7.104l31.897-7.771c1.599-.39 3.025-1.294 4.059-2.575l3.893-4.82 25.343 8.293c.774.253 1.561.374 2.334.374 3.156 0 6.092-2.007 7.126-5.169 1.289-3.937-.859-8.172-4.795-9.46l-19.925-6.52 9.563-11.84 20.933-5.709c3.997-1.09 6.353-5.213 5.263-9.209s-5.212-6.351-9.209-5.262l-23.271 6.347c-1.52.415-2.871 1.297-3.861 2.523l-23.468 29.054-40.233 9.801c-5.08-4.897-9.772-10.219-14.037-15.962-1.415-1.905-3.648-3.028-6.021-3.028h-58.742c-3.534 0-6.409-2.875-6.409-6.409v-58.142c0-3.534 2.875-6.409 6.409-6.409h24.609c.09 5.622.488 11.258 1.226 16.789.503 3.77 3.723 6.509 7.425 6.509.33 0 .665-.022 1.001-.067 4.106-.548 6.99-4.32 6.442-8.426-.748-5.607-1.129-11.338-1.132-17.035l.106-5.025c.494-13.026 2.954-25.832 7.312-38.062 1.39-3.902-.646-8.192-4.547-9.583-3.901-1.388-8.191.646-9.583 4.547-4.067 11.415-6.656 23.275-7.72 35.351h-25.139c-11.805.003-21.409 9.607-21.409 21.412v58.142c0 11.805 9.604 21.409 21.409 21.409h55.034c10.593 13.514 23.347 24.868 37.994 33.827v30.865c0 15.175 12.346 27.521 27.521 27.521h98.542c15.175 0 27.521-12.346 27.521-27.521v-9.861h25.149v7.44c0 15.175 12.345 27.52 27.52 27.52h54.636c4.473 3.146 9.917 5 15.789 5h52.349c15.175 0 27.52-12.345 27.52-27.52v-1.879c0-4.142-3.358-7.5-7.5-7.5zm-210.463 6.8c0 6.904-5.617 12.521-12.521 12.521h-21.7c1.929-3.759 3.026-8.013 3.026-12.521v-9.861h31.195zm55.149-2.42v-7.44h55.425v12.44c0 2.607.372 5.128 1.053 7.52h-43.958c-6.903 0-12.52-5.617-12.52-12.52z"/><path d="m71.823 229.13c1.275.844 2.712 1.248 4.135 1.248 2.431 0 4.817-1.181 6.26-3.359 8.363-12.626 18.718-23.454 30.489-32.206l7.968 16.554c1.051 2.185 3.094 3.726 5.483 4.138l22.486 3.876 4.6 4.83c1.474 1.548 3.451 2.328 5.432 2.328 1.858 0 3.72-.687 5.171-2.069 3-2.857 3.115-7.604.259-10.604l-6.312-6.627c-1.111-1.167-2.569-1.945-4.157-2.219l-21.124-3.642-7.153-14.861c14.746-8.458 31.153-13.949 48.342-16.014l-7.288 9.922c-2.452 3.338-1.734 8.032 1.604 10.484 1.337.982 2.893 1.456 4.434 1.456 2.306 0 4.581-1.06 6.05-3.061l27.234-37.076c.465-.633 1.08-.77 1.514-.773.394-.014 1.05.124 1.526.75l25.008 32.972c2.503 3.301 7.208 3.947 10.508 1.443 3.3-2.503 3.946-7.208 1.443-10.508l-4.973-6.557h8.8c4.142 0 7.5-3.358 7.5-7.5s-3.358-7.5-7.5-7.5h-20.177l-8.658-11.415c-3.253-4.29-8.242-6.739-13.592-6.686-5.384.041-10.3 2.554-13.488 6.893l-8.275 11.265c-14.863.381-29.351 3.05-43.036 7.773l-42.264-21.331c-3.979-2.009-8.597-1.772-12.351.634-3.753 2.407-5.896 6.504-5.731 10.96l1.78 48.121c-5.105 5.556-9.814 11.551-14.061 17.962-2.284 3.458-1.339 8.112 2.114 10.399zm52.43-59.068c-9.228 4.69-17.938 10.385-25.977 16.994l-1.135-30.678z"/><path d="m498.216 242.152c-1.608-3.816-6.004-5.609-9.823-4.001-3.817 1.608-5.608 6.006-4.001 9.823 6.63 15.741 9.991 32.457 9.991 49.682 0 6.883-.552 13.687-1.616 20.366l-37.437-14.336c-1.739-.666-3.663-.661-5.398.013l-11.944 4.641-24.332-10.864c-3.781-1.688-8.216.01-9.906 3.791-1.688 3.782.009 8.217 3.791 9.906l10.775 4.811-22.397 8.703-37.274-10.284c-3.991-1.1-8.123 1.242-9.225 5.235s1.242 8.123 5.235 9.225l39.669 10.944c.654.18 1.325.27 1.995.27.923 0 1.845-.17 2.716-.509l53.633-20.841 36.827 14.103c-5.735 20.165-16.399 38.722-31.386 54.129-1.362 1.4-2.124 3.276-2.124 5.229v27.163c0 4.142 3.358 7.5 7.5 7.5s7.5-3.358 7.5-7.5v-24.161c24.788-26.58 38.399-61.091 38.399-97.534-.001-19.236-3.758-37.91-11.168-55.504z"/><path d="m389.827 265.755c65.365 0 118.543-53.178 118.543-118.543s-53.178-118.543-118.543-118.543-118.543 53.178-118.543 118.543 53.178 118.543 118.543 118.543zm0-222.086c57.094 0 103.543 46.449 103.543 103.543s-46.449 103.543-103.543 103.543-103.543-46.449-103.543-103.543 46.449-103.543 103.543-103.543z"/><path d="m389.827 235.755c48.823 0 88.544-39.72 88.544-88.543s-39.721-88.543-88.544-88.543c-20.395 0-40.319 7.136-56.102 20.092-3.202 2.628-3.667 7.354-1.038 10.556 2.628 3.201 7.354 3.667 10.556 1.038 13.107-10.76 29.651-16.686 46.584-16.686 40.552 0 73.544 32.992 73.544 73.543s-32.992 73.543-73.544 73.543-73.543-32.991-73.543-73.543c0-11.909 2.94-23.759 8.504-34.269 1.938-3.661.541-8.2-3.12-10.138-3.663-1.938-8.2-.541-10.138 3.12-6.703 12.665-10.246 26.941-10.246 41.287 0 48.823 39.72 88.543 88.543 88.543z"/><path d="m363.784 170.6c-4.142 0-7.5 3.358-7.5 7.5s3.358 7.5 7.5 7.5h18.542v10.02c0 4.142 3.358 7.5 7.5 7.5s7.5-3.358 7.5-7.5v-10.02h13.31c6.638 0 12.038-5.4 12.038-12.038v-19.539c0-6.638-5.4-12.038-12.038-12.038h-39.353v-13.615h43.891c4.142 0 7.5-3.358 7.5-7.5s-3.358-7.5-7.5-7.5h-17.848v-10.02c0-4.142-3.358-7.5-7.5-7.5s-7.5 3.358-7.5 7.5v10.02h-14.004c-6.638 0-12.039 5.4-12.039 12.038v19.539c0 6.638 5.4 12.039 12.039 12.039h39.352v13.614z"/></g></svg>