<svg height="448pt" viewBox="-44 0 448 448.0434" width="448pt" xmlns="http://www.w3.org/2000/svg"><path d="m8.027344 153.839844c1.582031 0 3.128906-.46875 4.441406-1.351563 19.1875-12.832031 35.246094-29.8125 46.992188-49.6875 34.285156-58.40625 76.292968-86.800781 128.421874-86.800781 17.726563 0 28.828126 8.464844 44.191407 20.183594 16.921875 12.898437 37.984375 28.964844 75.308593 38.097656 2.789063.71875 5.75-.117188 7.75-2.191406 2-2.074219 2.730469-5.0625 1.914063-7.824219-.816406-2.765625-3.058594-4.875-5.863281-5.523437-34.082032-8.339844-52.847656-22.652344-69.410156-35.28125-16.507813-12.585938-30.761719-23.45703175-53.902344-23.45703175-29.46875-.19921825-58.253906 8.89453175-82.261719 25.98828175-22.199219 15.644531-42.371094 38.757812-59.953125 68.710937-10.519531 17.792969-24.902344 32.996094-42.082031 44.488281-2.929688 1.960938-4.230469 5.605469-3.207031 8.980469 1.027343 3.371094 4.140624 5.671875 7.664062 5.667969zm0 0"/><path d="m85.109375 311c1.722656 0 3.402344-.558594 4.78125-1.589844l117.820313-88c9.425781-6.773437 15.769531-17.019531 17.632812-28.476562 1.863281-11.457032-.910156-23.183594-7.703125-32.59375l-.03125-.042969c-14.113281-19.410156-41.214844-23.851563-60.785156-9.960937l-97.839844 69.800781c-3.597656 2.566406-4.433594 7.5625-1.867187 11.15625 2.566406 3.597656 7.5625 4.433593 11.160156 1.867187l97.839844-69.800781c12.390624-8.792969 29.550781-5.996094 38.503906 6.285156.011718.011719.023437.027344.03125.039063 4.320312 5.972656 6.082031 13.421875 4.894531 20.695312-1.183594 7.277344-5.222656 13.777344-11.21875 18.066406l-.128906.101563-117.882813 88.042969c-2.761718 2.0625-3.894531 5.664062-2.804687 8.933594 1.089843 3.273437 4.148437 5.480468 7.597656 5.476562zm0 0"/><path d="m191.917969 178.332031c-2.578125-3.589843-7.578125-4.410156-11.164063-1.832031l-117.980468 84.769531c-2.34375 1.660157-3.621094 4.449219-3.34375 7.304688.277343 2.859375 2.066406 5.351562 4.6875 6.527343 2.621093 1.175782 5.671874.855469 7.992187-.835937l117.984375-84.769531c3.585938-2.582032 4.402344-7.578125 1.824219-11.164063zm0 0"/><path d="m195.941406 46.058594c-1.710937-.417969-42.148437-10.050782-64.15625 11.953125l-65.199218 65.203125 11.3125 11.308594 65.199218-65.199219c7.859375-7.859375 20.382813-9.628907 29.5-9.726563 6.5625-.070312 13.109375.601563 19.519532 1.996094 2.785156.703125 5.730468-.140625 7.71875-2.207031 1.992187-2.066407 2.722656-5.042969 1.917968-7.796875-.804687-2.753906-3.023437-4.863282-5.816406-5.535156zm0 0"/><path d="m307.773438 236.789062c-.570313-4.347656-4.527344-7.425781-8.878907-6.910156-4.351562.519532-7.476562 4.441406-7.007812 8.796875 1.542969 10.332031 4.871093 20.3125 9.839843 29.5 11.015626 20.195313 28.433594 31.785157 50.375 33.515625.210938.019532.425782.027344.636719.027344 4.296875 0 7.828125-3.394531 7.996094-7.691406.167969-4.292969-3.089844-7.953125-7.375-8.285156-39.511719-3.117188-45.359375-47.085938-45.585937-48.953126zm0 0"/><path d="m342.890625 344.773438c3.992187-.003907 7.371094-2.953126 7.914063-6.90625.546874-3.957032-1.910157-7.710938-5.753907-8.792969-31.007812-8.71875-52.4375-25.257813-63.695312-49.144531-5.378907-11.292969-8.109375-23.664063-7.984375-36.171876.015625-.398437.011718-.648437.007812-.730468-.054687-4.417969-3.679687-7.957032-8.101562-7.902344-4.417969.054688-7.953125 3.683594-7.898438 8.101562-.179687 15.039063 3.066406 29.925782 9.5 43.523438 9.160156 19.4375 29.398438 45.230469 73.835938 57.726562.707031.199219 1.4375.296876 2.175781.296876zm0 0"/><path d="m294.285156 387.832031c3.445313 0 6.503906-2.199219 7.597656-5.46875 1.089844-3.265625-.035156-6.867187-2.789062-8.933593l-84.4375-63.34375c-13.640625-10.441407-32.511719-10.71875-46.453125-.679688l-71.136719 51.648438c-2.335937 1.667968-3.601562 4.464843-3.308594 7.324218.292969 2.855469 2.09375 5.339844 4.722657 6.5 2.625 1.164063 5.675781.828125 7.988281-.878906l71.136719-51.648438c8.195312-5.898437 19.289062-5.726562 27.296875.425782.035156.023437.066406.050781.101562.074218l84.484375 63.378907c1.382813 1.039062 3.066407 1.601562 4.796875 1.601562zm0 0"/><path d="m273.152344 419.230469c3.421875 0 6.464844-2.175781 7.574218-5.410157 1.105469-3.238281.03125-6.820312-2.671874-8.917968l-61.253907-47.441406c-13.640625-10.484376-32.539062-10.777344-46.5-.722657l-48.414062 35.152344c-2.339844 1.667969-3.601563 4.464844-3.308594 7.324219.289063 2.855468 2.09375 5.339844 4.71875 6.5 2.628906 1.164062 5.675781.828125 7.988281-.878906l48.417969-35.152344c8.195313-5.898438 19.289063-5.726563 27.300781.425781l61.25 47.445313c1.402344 1.085937 3.125 1.675781 4.898438 1.675781zm0 0"/><path d="m224.765625 409.78125c-13.640625-10.425781-32.5-10.695312-46.429687-.664062l-28.101563 20.398437c-3.535156 2.609375-4.304687 7.582031-1.722656 11.140625 2.582031 3.554688 7.546875 4.363281 11.125 1.808594l28.097656-20.402344c8.195313-5.898438 19.292969-5.726562 27.300781.425781.046875.035157.09375.070313.140625.105469l32.257813 23.878906c3.550781 2.628906 8.5625 1.882813 11.191406-1.667968 2.628906-3.550782 1.882812-8.5625-1.671875-11.191407zm0 0"/><path d="m99.359375 334.476562c1.6875 0 3.332031-.535156 4.695313-1.527343l124.671874-90.488281c30.378907-21.738282 39.285157-62.996094 20.578126-95.332032l-.050782-.089844c-10.261718-17.675781-27.503906-30.203124-47.484375-34.503906-19.980469-4.300781-40.84375.027344-57.46875 11.917969l-120.847656 88.289063c-3.566406 2.605468-4.34375 7.609374-1.738281 11.175781 2.605468 3.570312 7.613281 4.347656 11.179687 1.742187l120.773438-88.238281c12.945312-9.234375 29.183593-12.59375 44.730469-9.25 15.546874 3.34375 28.96875 13.078125 36.972656 26.820313l.046875.082031c14.75 25.210937 7.785156 57.515625-16.046875 74.40625l-124.71875 90.519531c-2.804688 2.039062-3.980469 5.652344-2.910156 8.949219 1.074218 3.296875 4.148437 5.53125 7.617187 5.527343zm0 0"/><path d="m268.152344 225.339844c3.921875 2.035156 8.75.503906 10.785156-3.417969 16.085938-31.011719 16.742188-64.191406 1.792969-91.027344-12.117188-21.757812-33.460938-37.234375-60.105469-43.582031-30.839844-7.347656-66.117188-1.761719-96.800781 15.324219-2.515625 1.378906-4.097657 4.003906-4.148438 6.871093-.050781 2.871094 1.441407 5.546876 3.90625 7.015626 2.464844 1.46875 5.53125 1.503906 8.027344.089843 27.226563-15.160156 58.316406-20.167969 85.300781-13.738281 22.226563 5.296875 39.929688 18.011719 49.835938 35.800781 12.285156 22.0625 11.550781 49.71875-2.019532 75.878907-2.035156 3.921874-.5 8.753906 3.425782 10.785156zm0 0"/><path d="m225.589844 262.867188c-3.789063 2.273437-5.015625 7.1875-2.742188 10.976562l20.300782 33.828125c2.273437 3.789063 7.1875 5.019531 10.976562 2.746094 3.789062-2.273438 5.015625-7.1875 2.742188-10.976563l-20.300782-33.832031c-2.273437-3.789063-7.1875-5.015625-10.976562-2.742187zm0 0"/><path d="m281.445312 80.347656c-3.695312-2.417968-8.65625-1.378906-11.074218 2.316406-2.414063 3.699219-1.378906 8.65625 2.320312 11.074219.144532.101563 14.691406 9.734375 26.773438 28.671875 16.171875 25.34375 19.90625 54.113282 11.113281 85.492188-.777344 2.753906-.027344 5.714844 1.972656 7.765625 2 2.046875 4.941407 2.875 7.710938 2.160156 2.773437-.710937 4.957031-2.847656 5.722656-5.605469 12.554687-44.789062-.15625-78.242187-13.03125-98.421875-13.914063-21.804687-30.792969-32.988281-31.507813-33.453125zm0 0"/></svg>