<?xml version="1.0" encoding="iso-8859-1"?>
<!-- Generator: Adobe Illustrator 19.0.0, SVG Export Plug-In . SVG Version: 6.00 Build 0)  -->
<svg version="1.1" id="Capa_1" xmlns="http://www.w3.org/2000/svg" xmlns:xlink="http://www.w3.org/1999/xlink" x="0px" y="0px"
	 viewBox="0 0 462.896 462.896" style="enable-background:new 0 0 462.896 462.896;" xml:space="preserve">
<g>
	<path d="M425.118,42.508L385.6,2.99c-2.157-2.157-5.13-3.231-8.16-2.944c-3.053,0.289-5.798,1.918-7.531,4.469
		c-15.055,22.154-39.899,35.381-66.461,35.381c-26.145,0-50.766-12.827-65.863-34.312c-1.404-1.999-3.694-3.188-6.137-3.188
		s-4.731,1.189-6.137,3.188c-15.098,21.485-39.72,34.312-65.863,34.312c-26.562,0-51.407-13.227-66.459-35.377
		c-1.733-2.553-4.478-4.183-7.53-4.473c-3.028-0.289-6.005,0.786-8.163,2.944L37.78,42.506c-3.758,3.756-3.857,9.773-0.229,13.699
		c24.258,26.246,18.486,66.747,11.18,118.023c-4.117,28.891-8.783,61.637-8.783,97.167c0,72.426,67.778,110.435,122.238,140.975
		c28.36,15.904,55.147,30.925,62.498,46.266c1.247,2.603,3.877,4.259,6.764,4.259s5.517-1.656,6.764-4.259
		c7.351-15.34,34.138-30.362,62.498-46.266c54.46-30.541,122.238-68.549,122.238-140.975c0-35.531-4.666-68.276-8.783-97.167
		c-7.307-51.276-13.078-91.778,11.179-118.022C428.973,52.28,428.874,46.262,425.118,42.508z M399.315,176.345
		c4.046,28.397,8.633,60.584,8.633,95.051c0,28.079-12.044,52.948-36.821,76.029c-22.277,20.753-51.751,37.281-77.754,51.863
		c-26.079,14.625-49.243,27.615-61.925,42.631c-12.682-15.016-35.846-28.006-61.925-42.631
		c-26.003-14.582-55.477-31.11-77.754-51.863c-24.777-23.081-36.821-47.95-36.821-76.029c0-34.467,4.587-66.654,8.633-95.051
		c7.565-53.091,13.604-95.456-11.803-126.624l32.148-32.148c18.059,23.472,45.884,37.324,75.521,37.324
		c27.697,0,53.948-12.123,72-32.854c18.051,20.729,44.304,32.854,72,32.854c29.637,0,57.462-13.852,75.521-37.324l32.149,32.149
		C385.713,80.888,391.75,123.254,399.315,176.345z"/>
	<path d="M371.963,73.541c0.73-2.893-0.323-5.943-2.683-7.769c-2.359-1.825-5.577-2.078-8.194-0.644
		c-17.625,9.661-37.557,14.768-57.638,14.768c-24.23,0-47.667-7.242-67.777-20.944c-2.547-1.735-5.898-1.735-8.445,0
		c-20.11,13.702-43.547,20.944-67.777,20.944c-20.081,0-40.012-5.106-57.639-14.768c-2.614-1.434-5.833-1.181-8.193,0.644
		c-2.359,1.826-3.413,4.876-2.683,7.769c8.022,31.77,2.861,67.987-2.604,106.341c-4.12,28.919-8.381,58.822-8.381,91.513
		c0,45.482,42.194,72.658,101.804,106.086c16.562,9.288,32.206,18.061,45.345,27.42c1.302,0.928,2.827,1.392,4.352,1.392
		s3.05-0.464,4.352-1.392c13.139-9.36,28.783-18.132,45.345-27.42c59.609-33.428,101.804-60.604,101.804-106.086
		c0-32.698-4.262-62.604-8.384-91.524C369.1,141.529,363.939,105.312,371.963,73.541z M231.448,303.896
		c-44.388,0-80.5-36.112-80.5-80.5s36.112-80.5,80.5-80.5s80.5,36.112,80.5,80.5S275.836,303.896,231.448,303.896z M94.948,271.396
		c0-31.628,4.185-60.996,8.232-89.408c4.869-34.171,9.508-66.717,5.215-97.137c16.165,6.6,33.559,10.045,51.053,10.045
		c22.669,0,44.713-5.644,64.5-16.404v49.698c-49.167,3.838-88,45.072-88,95.206s38.833,91.369,88,95.206v66.158
		c-10.814-6.863-22.581-13.476-34.86-20.362C133.967,333.488,94.948,308.722,94.948,271.396z M273.808,364.399
		c-12.279,6.886-24.046,13.499-34.86,20.362v-66.158c49.167-3.838,88-45.072,88-95.206s-38.833-91.369-88-95.206V78.492
		c19.787,10.76,41.831,16.404,64.5,16.404c17.495,0,34.888-3.444,51.053-10.045c-4.294,30.42,0.345,62.966,5.214,97.137
		c4.048,28.403,8.233,57.773,8.233,89.408C367.948,308.722,328.93,333.488,273.808,364.399z"/>
	<path d="M278.384,200.638l-25.291-3.675l-11.311-22.917c-1.871-3.793-5.662-6.15-9.892-6.15s-8.021,2.356-9.892,6.149
		l-11.311,22.918l-25.293,3.675c-4.186,0.608-7.597,3.485-8.903,7.508c-1.307,4.023-0.237,8.355,2.791,11.307l18.301,17.839
		l-4.319,25.188c-0.716,4.169,0.965,8.303,4.387,10.79c3.422,2.488,7.874,2.807,11.618,0.84l22.621-11.893l22.622,11.893
		c1.628,0.856,3.39,1.279,5.143,1.279c2.278,0,4.541-0.714,6.475-2.119c3.422-2.487,5.103-6.621,4.387-10.789l-4.32-25.189
		l18.301-17.838c3.029-2.952,4.099-7.285,2.792-11.308S282.57,201.246,278.384,200.638z M252.902,229.303
		c-1.768,1.723-2.574,4.206-2.156,6.639l3.627,21.149l-18.992-9.985c-2.186-1.148-4.795-1.148-6.98,0l-18.993,9.985l3.627-21.149
		c0.418-2.433-0.389-4.915-2.156-6.638l-15.365-14.978l21.234-3.086c2.443-0.355,4.555-1.889,5.647-4.103l9.496-19.241l9.496,19.241
		c1.093,2.213,3.204,3.748,5.647,4.103l21.234,3.086L252.902,229.303z"/>
</g>
<g>
</g>
<g>
</g>
<g>
</g>
<g>
</g>
<g>
</g>
<g>
</g>
<g>
</g>
<g>
</g>
<g>
</g>
<g>
</g>
<g>
</g>
<g>
</g>
<g>
</g>
<g>
</g>
<g>
</g>
</svg>
