<svg height="489pt" viewBox="-77 0 489 489.856" width="489pt" xmlns="http://www.w3.org/2000/svg"><path d="m57.429688 153h220c4.417968 0 8-3.582031 8-8s-3.582032-8-8-8h-220c-4.421876 0-8 3.582031-8 8s3.578124 8 8 8zm0 0"/><path d="m57.429688 189h220c4.417968 0 8-3.582031 8-8s-3.582032-8-8-8h-220c-4.421876 0-8 3.582031-8 8s3.578124 8 8 8zm0 0"/><path d="m57.429688 226h146c4.417968 0 8-3.582031 8-8s-3.582032-8-8-8h-146c-4.421876 0-8 3.582031-8 8s3.578124 8 8 8zm0 0"/><path d="m129.429688 296.792969c-24.058594 0-43.558594 19.5-43.558594 43.554687 0 24.058594 19.5 43.558594 43.558594 43.558594 24.054687 0 43.554687-19.503906 43.554687-43.558594-.027344-24.042968-19.511719-43.527344-43.554687-43.554687zm0 71.113281c-15.222657 0-27.558594-12.339844-27.558594-27.558594s12.335937-27.558594 27.558594-27.558594c15.21875 0 27.554687 12.339844 27.554687 27.558594-.015625 15.210938-12.34375 27.539063-27.554687 27.558594zm0 0"/><path d="m89.265625 488.832031c2.480469 1.414063 5.535156 1.359375 7.960937-.144531l32.261719-19.710938 32.292969 19.710938c1.25.765625 2.6875 1.167969 4.152344 1.167969 1.292968 0 2.558594-.355469 3.664062-1.023438 2.460938-1.445312 3.929688-4.125 3.832032-6.976562v-49.855469h116.910156c24.058594 0 44.089844-19.132812 44.089844-42.113281v-290.617188c-.085938-2.019531-.910157-3.941406-2.320313-5.390625-.578125-.714844-1.269531-1.328125-2.042969-1.820312l-94.050781-86.90625c-1.207031-2.839844-3.921875-4.746094-7-4.921875-.527344-.128907-1.0625-.2070315-1.605469-.230469h-182.898437c-24.054688 0-44.082031 18.84375-44.082031 41.828125v348.058594c0 22.980469 20.027343 42.113281 44.085937 42.113281h40.914063v49.855469c-.097657 2.855469 1.375 5.53125 3.835937 6.976562zm68.164063-21.222656-24.082032-14.832031c-2.425781-1.5625-5.535156-1.5625-7.960937 0l-23.957031 14.832031v-58.957031l10.09375-.566406 13.625 9.0625c1.28125.859374 2.792968 1.320312 4.339843 1.320312 1.558594 0 3.078125-.460938 4.375-1.320312l13.484375-9.0625 10.082032.566406zm12.042968-90.753906c-1.527344.773437-2.765625 2.011719-3.535156 3.535156l-6.230469 12.335937-13.886719-.761718c-1.714843-.09375-3.410156.363281-4.84375 1.308594l-11.546874 7.613281-11.550782-7.613281c-1.304687-.863282-2.835937-1.320313-4.398437-1.324219-.148438 0-.292969 0-.441407.015625l-13.886718.761718-6.230469-12.335937c-.769531-1.523437-2.007813-2.761719-3.535156-3.535156l-12.335938-6.230469.765625-13.886719c.09375-1.710937-.363281-3.410156-1.308594-4.839843l-7.613281-11.550782 7.613281-11.546875c.945313-1.433593 1.402344-3.132812 1.308594-4.84375l-.765625-13.886719 12.335938-6.230468c1.527343-.773438 2.765625-2.011719 3.535156-3.535156l6.230469-12.335938 13.886718.765625c1.714844.09375 3.410157-.363281 4.84375-1.308594l11.546876-7.617187 11.546874 7.617187c1.429688.945313 3.128907 1.40625 4.84375 1.308594l13.886719-.765625 6.230469 12.335938c.769531 1.523437 2.007812 2.761718 3.535156 3.535156l12.335938 6.230468-.765625 13.886719c-.09375 1.710938.363281 3.410157 1.308593 4.84375l7.613282 11.546875-7.613282 11.550782c-.945312 1.433593-1.402343 3.132812-1.308593 4.84375l.765625 13.886718zm66.957032-349.320313 68.492187 63.464844h-58.507813c-5.414062 0-9.984374-4.261719-9.984374-9.136719zm-191.914063 388.464844c-15.234375 0-28.085937-11.953125-28.085937-26.113281v-348.058594c0-14.164063 12.851562-25.828125 28.085937-25.828125h175.914063v65.863281c0 13.695313 11.75 25.136719 25.984374 25.136719h72.015626v282.886719c0 14.160156-12.855469 26.113281-28.089844 26.113281h-116.910156v-15.921875l5.359374-10.125 14.777344-7.398437c2.851563-1.425782 4.59375-4.398438 4.441406-7.582032l-.875-16.46875 9.078126-13.746094c1.765624-2.671874 1.769531-6.136718.007812-8.808593l-9.058594-13.75.90625-16.46875c.175782-3.171875-1.542968-6.148438-4.378906-7.578125l-14.65625-7.402344-7.398438-14.65625c-1.433593-2.835938-4.410156-4.554688-7.582031-4.378906l-16.46875.902344-13.753906-9.066407c-2.671875-1.761719-6.136719-1.761719-8.808594 0l-13.746093 9.0625-16.46875-.90625c-3.175782-.175781-6.148438 1.542969-7.582032 4.378907l-7.398437 14.65625-14.65625 7.402343c-2.835938 1.433594-4.558594 4.40625-4.382813 7.582031l.90625 16.46875-9.0625 13.75c-1.761718 2.671876-1.761718 6.136719 0 8.808594l9.0625 13.746094-.90625 16.46875c-.171875 3.171875 1.546875 6.148438 4.382813 7.582031l14.898437 7.398438 5.363282 10.128906v15.921875zm0 0"/></svg>