<svg height="496pt" viewBox="0 0 496 496" width="496pt" xmlns="http://www.w3.org/2000/svg"><path d="m488 64c4.414062 0 8-3.585938 8-8v-48c0-4.414062-3.585938-8-8-8h-480c-4.414062 0-8 3.585938-8 8v48c0 4.414062 3.585938 8 8 8h72v368h-72c-4.414062 0-8 3.574219-8 8v48c0 4.425781 3.585938 8 8 8h480c4.414062 0 8-3.574219 8-8v-48c0-4.425781-3.585938-8-8-8h-72v-368zm-472-48h464v32h-464zm320 368v-43.6875c11.480469 5.726562 20.0625 16.695312 21.96875 30.03125l8.808594 61.65625h-30.777344v-32h16v-16zm-16 0h-16v16h16v32h-64v-52.320312l50.953125-43.679688h11.414063c.554687 0 1.082031.128906 1.632812.152344zm-190.777344 48 8.808594-61.65625c1.90625-13.335938 10.488281-24.304688 21.96875-30.03125v91.6875zm46.777344-95.847656c.550781-.023438 1.070312-.152344 1.632812-.152344h11.414063l50.953125 43.679688v52.320312h-64zm64-272.152344v80h-14.703125l-22.769531-7.59375c-2.4375-.8125-5.128906-.40625-7.207032 1.105469-2.089843 1.503906-3.320312 3.921875-3.320312 6.488281v104c0 18.976562 9.511719 35.761719 24 45.886719v26.113281h-38.367188c-.554687 0-1.082031.054688-1.632812.070312v-256.070312zm48 128h-32v-32h32zm-16 144h10.375l-26.375 22.609375v-55.25c2.726562-.390625 5.40625-.945313 8-1.71875v26.359375c0 4.425781 3.585938 8 8 8zm-64-131.054688 32-16v98.246094c-18.230469-3.71875-32-19.871094-32-39.191406zm24 123.054688v-26.359375c2.59375.773437 5.273438 1.328125 8 1.71875v55.242187l-26.375-22.601562h10.375c4.414062 0 8-3.574219 8-8zm24-40.808594v-79.191406h32v40c0 19.3125-13.769531 35.472656-32 39.191406zm-16-116.136718-32 16v-31.957032l13.472656 4.496094c.816406.269531 1.671875.40625 2.527344.40625h16zm78.367188 148.945312h-38.367188v-26.113281c14.488281-10.132813 24-26.910157 24-45.886719v-96c0-4.414062-3.585938-8-8-8h-40v-80h64v256.070312c-.542969-.015624-1.078125-.070312-1.632812-.070312zm-222.367188-256h64v258.945312c-19.617188 6.589844-34.761719 23.796876-37.808594 45.132813l-9.128906 63.921875h-17.0625zm384 416h-464v-32h464zm-80-48h-17.0625l-9.136719-63.921875c-3.046875-21.335937-18.191406-38.542969-37.808593-45.132813v-258.945312h64v368zm0 0"/></svg>