<?xml version="1.0" encoding="iso-8859-1"?>
<!-- Generator: Adobe Illustrator 19.0.0, SVG Export Plug-In . SVG Version: 6.00 Build 0)  -->
<svg version="1.1" id="Capa_1" xmlns="http://www.w3.org/2000/svg" xmlns:xlink="http://www.w3.org/1999/xlink" x="0px" y="0px"
	 viewBox="0 0 463 463" style="enable-background:new 0 0 463 463;" xml:space="preserve">
<path d="M427.355,72.182c-11.117-1.061-22.206,2.615-30.42,10.083C388.715,89.738,384,100.393,384,111.498
	c0,4.142,3.358,7.5,7.5,7.5s7.5-3.358,7.5-7.5c0-6.888,2.925-13.498,8.025-18.134c5.169-4.7,11.884-6.922,18.906-6.249
	C438.306,88.294,448,99.609,448,112.873v166.625c0,1.868-0.613,3.591-1.638,4.995c-5.475-47.494-45.925-84.495-94.862-84.495
	c-43.168,0-79.732,28.793-91.512,68.181c-7.194-7.498-17.301-12.181-28.488-12.181s-21.295,4.682-28.488,12.181
	c-11.78-39.388-48.344-68.181-91.512-68.181c-48.937,0-89.388,37.001-94.862,84.495c-1.025-1.404-1.638-3.128-1.638-4.995V112.873
	c0-13.264,9.693-24.579,22.068-25.759c7.026-0.672,13.737,1.55,18.906,6.249C61.075,98,64,104.61,64,111.498
	c0,4.142,3.358,7.5,7.5,7.5s7.5-3.358,7.5-7.5c0-11.104-4.714-21.759-12.935-29.233c-8.214-7.468-19.301-11.141-30.42-10.083
	C15.657,74.088,0,91.962,0,112.873v166.625c0,10.416,6.813,19.265,16.216,22.339c3.274,49.714,44.756,89.161,95.284,89.161
	c52.659,0,95.5-42.841,95.5-95.5c0-13.509,10.991-24.5,24.5-24.5s24.5,10.991,24.5,24.5c0,52.659,42.841,95.5,95.5,95.5
	c50.528,0,92.01-39.447,95.284-89.161c9.402-3.074,16.216-11.923,16.216-22.339V112.873C463,91.962,447.343,74.088,427.355,72.182z
	 M111.5,375.998c-44.388,0-80.5-36.112-80.5-80.5s36.112-80.5,80.5-80.5s80.5,36.112,80.5,80.5S155.888,375.998,111.5,375.998z
	 M351.5,375.998c-44.388,0-80.5-36.112-80.5-80.5s36.112-80.5,80.5-80.5s80.5,36.112,80.5,80.5S395.888,375.998,351.5,375.998z"/>
<g>
</g>
<g>
</g>
<g>
</g>
<g>
</g>
<g>
</g>
<g>
</g>
<g>
</g>
<g>
</g>
<g>
</g>
<g>
</g>
<g>
</g>
<g>
</g>
<g>
</g>
<g>
</g>
<g>
</g>
</svg>
