<svg height="434pt" viewBox="0 -9 434 434" width="434pt" xmlns="http://www.w3.org/2000/svg"><path d="m425.828125.00390625h-318.910156c-2.085938-.05078125-4.105469.74609375-5.597657 2.20703175-1.492187 1.460937-2.328124 3.464843-2.320312 5.554687v170.238281h-90.828125c-2.105469-.078125-4.15625.691406-5.691406 2.132813-1.535157 1.441406-2.4296878 3.441406-2.480469 5.546875v173.183594c-.0078125 15.226562 6.066406 29.824218 16.871094 40.554687 10.808594 10.726563 25.449218 16.695313 40.675781 16.582031h324.394531c28.609375 0 52.058594-23.039062 52.058594-51.648437v-356.589844c-.050781-2.113281-.9375-4.125-2.472656-5.578125-1.535156-1.457031-3.585938-2.2421875-5.699219-2.18359375zm-368.28125 400.23828175c-11.007813.058593-21.585937-4.273438-29.386719-12.039063-7.796875-7.769531-12.175781-18.328125-12.160156-29.335937v-164.863282h83v164.863282c.035156 11-4.320312 21.554687-12.105469 29.324218-7.785156 7.769532-18.351562 12.109375-29.347656 12.050782zm360.453125-35.886719c-.125 19.796875-16.261719 35.75-36.058594 35.648437h-284.523437c.253906 0 .546875-.375.800781-.625 10.789062-10.714844 16.835938-25.304687 16.78125-40.511718v-342.863282h303zm0 0"/><path d="m151.667969 308.003906h126.433593c4.417969 0 8-3.582031 8-8 0-4.417968-3.582031-8-8-8h-126.433593c-4.417969 0-8 3.582032-8 8 0 4.417969 3.582031 8 8 8zm0 0"/><path d="m151.667969 335.003906h226.433593c4.417969 0 8-3.582031 8-8 0-4.417968-3.582031-8-8-8h-226.433593c-4.417969 0-8 3.582032-8 8 0 4.417969 3.582031 8 8 8zm0 0"/><path d="m151.667969 362.003906h226.433593c4.417969 0 8-3.582031 8-8 0-4.417968-3.582031-8-8-8h-226.433593c-4.417969 0-8 3.582032-8 8 0 4.417969 3.582031 8 8 8zm0 0"/><path d="m172.957031 270.003906h180.085938c1.8125.078125 3.582031-.585937 4.894531-1.839844 1.3125-1.253906 2.058594-2.988281 2.0625-4.804687v-16.710937c-.015625-11.355469-4.550781-22.234376-12.605469-30.238282-8.054687-8-18.964843-12.464844-30.316406-12.40625h-19.078125v-7.792968c2.707031-1.773438 5.179688-3.878907 7.359375-6.265626 11.230469-11.355468 17.5625-26.660156 17.640625-42.628906v-19.835937c2.386719-1.296875 3.910156-3.761719 4-6.476563v-18c0-2.128906-.96875-4.140625-2.632812-5.464844-.066407-.855468-.148438-1.53125-.253907-2.375-3.664062-29.839843-29.375-52.160156-59.800781-52.160156h-2.574219c-15.632812-.097656-30.695312 5.890625-41.992187 16.699219-10.121094 9.574219-16.492188 22.445313-17.972656 36.300781h-.773438c-3.867188 0-7 3.132813-7 7v18c0 3.867188 3.132812 7 7 7h2v19.3125c.105469 15.976563 6.460938 31.28125 17.710938 42.628906 2.152343 2.359376 4.601562 4.429688 7.289062 6.15625v7.902344h-19.078125c-11.351563-.058594-22.261719 4.40625-30.316406 12.410156-8.054688 8-12.589844 18.878907-12.605469 30.234376v16.710937c.003906 1.816406.75 3.550781 2.0625 4.804687 1.3125 1.253907 3.082031 1.917969 4.894531 1.839844zm88.78125-213h2.574219c23.128906 0 42.691406 16.515625 45.804688 39h-94.238282c3.164063-22.125 22.714844-39 45.859375-39zm-53.738281 53h105v4h-105zm9 18h92v14.652344l-28.300781 3.074219-13.269531-10.445313c-2.5625-2.019531-6.175782-2.019531-8.738282 0l-13.378906 10.445313-28.3125-3.074219zm1.332031 28.84375 28.472657 3.113282c1.828124.203124 3.664062-.328126 5.105468-1.472657l11.089844-8.785156 11.089844 8.785156c1.441406 1.144531 3.277344 1.675781 5.105468 1.472657l28.476563-3.113282c-1.839844 8.808594-6.160156 16.902344-12.457031 23.332032-8.390625 8.824218-20.035156 13.820312-32.214844 13.820312s-23.824219-4.996094-32.214844-13.820312c-6.296875-6.429688-10.617187-14.527344-12.453125-23.332032zm65.667969 47.171875v2.777344l-5.453125 3.429687c-9.871094 6.152344-22.414063 6.011719-32.148437-.351562l-4.398438-2.980469v-2.929687c6.683594 2.730468 13.847656 4.101562 21.070312 4.03125 7.160157-.027344 14.257813-1.375 20.929688-3.976563zm-104 42.628907c.011719-7.640626 3.070312-14.964844 8.5-20.339844 5.429688-5.378906 12.78125-8.367188 20.421875-8.304688h23.730469l5.992187 3.75c14.339844 9.359375 32.792969 9.589844 47.363281.601563l7.113282-4.351563h23.957031c7.640625-.058594 14.992187 2.929688 20.421875 8.304688 5.425781 5.378906 8.488281 12.699218 8.5 20.339844v9.355468h-166zm0 0"/></svg>