<svg height="509pt" viewBox="-42 0 509 509.52803" width="509pt" xmlns="http://www.w3.org/2000/svg"><path d="m415.472656 76.78125h-15c-36.660156 0-68.144531-4.957031-96.253906-15.613281-27.804688-10.539063-52.625-26.46875-75.875-48.925781l-10.421875-10.011719c-3.109375-2.984375-8.023437-2.972657-11.117187.03125l-10.421876 9.855469c-45.820312 44.261718-100.519531 64.664062-172.128906 64.664062h-15c-4.417968 0-7.890625 4.027344-7.890625 8.445312v15c0 12.082032-.300781 24.558594-.546875 37.769532-1.21875 63.859375-2.628906 136.242187 22.070313 203.253906 29.332031 79.589844 88.847656 133.933594 181.976562 166.140625l4.898438 1.699219c1.695312.585937 3.53125.585937 5.226562 0l4.898438-1.699219c93.125-32.207031 152.652343-86.550781 181.984375-166.140625 24.703125-67.011719 23.261718-139.394531 22.042968-203.257812-.25-13.210938-.550781-25.683594-.550781-37.765626v-15c0-4.417968-3.472656-8.445312-7.890625-8.445312zm-28.617187 258.9375c-27.570313 74.796875-83.902344 126.007812-172.199219 156.550781l-2.289062.789063-2.289063-.789063c-88.304687-30.542969-144.632813-81.75-172.199219-156.550781-23.65625-64.1875-22.25-134.96875-21.058594-197.417969.253907-13.289062.550782-25.839843.550782-38.074219v-7.445312h6.890625c76.023437 0 134.25-21.816406 183.246093-69.144531l4.855469-4.582031 4.863281 4.75c24.84375 24 51.445313 40.972656 81.320313 52.300781 29.953125 11.351562 63.296875 16.675781 101.925781 16.675781h6.890625v7.445312c0 12.234376.300781 24.785157.550781 38.074219 1.191407 62.449219 2.597657 133.230469-21.058593 197.417969zm0 0"/><path d="m393.964844 137.976562c-.15625-8.027343-.300782-15.613281-.390625-23.117187-.050781-4.265625-3.4375-7.742187-7.699219-7.898437-68.199219-2.53125-121.652344-22.769532-168.226562-63.683594-3.019532-2.652344-7.539063-2.652344-10.558594 0-46.578125 40.917968-100.03125 61.152344-168.226563 63.683594-4.261719.160156-7.648437 3.636718-7.699219 7.902343-.09375 7.503907-.234374 15.085938-.390624 23.117188l-.007813.589843c-1.179687 61.210938-2.503906 130.589844 20.242187 192.304688 25.519532 69.238281 77.414063 117.128906 158.644532 146.398438 1.753906.632812 3.671875.632812 5.421875 0 81.230469-29.269532 133.125-77.15625 158.644531-146.398438 22.746094-61.714844 21.421875-131.09375 20.25-192.304688zm-35.257813 187.367188c-23.503906 63.769531-71.386719 108.238281-146.34375 135.886719-74.957031-27.648438-122.839843-72.117188-146.34375-135.886719-21.699219-58.890625-20.410156-126.667969-19.265625-186.472656l.011719-.589844c.097656-5.390625.199219-10.578125.28125-15.6875 32.988281-1.867188 62.429687-7.847656 89.792969-18.21875 27.523437-10.449219 53.0625-25.511719 75.523437-44.542969 22.460938 19.03125 48 34.09375 75.523438 44.542969 27.363281 10.371094 56.800781 16.351562 89.792969 18.21875.082031 5.109375.179687 10.300781.28125 15.6875l.011718.59375c1.144532 59.800781 2.4375 127.578125-19.265625 186.46875zm0 0"/><path d="m277.363281 235.464844v-32.324219c-.007812-17.011719-7.101562-33.25-19.578125-44.8125-12.261718-11.628906-28.597656-17.980469-45.492187-17.691406-35.785157.03125-64.929688 28.058593-64.929688 62.503906v32.324219c-12.851562 2.550781-22.085937 13.867187-22 26.96875v78.886718c0 15.230469 12.398438 27.460938 28.199219 27.460938h117.601562c15.800782 0 28.199219-12.230469 28.199219-27.460938v-78.886718c.085938-13.101563-9.148437-24.421875-22-26.96875zm-114-32.324219c0-25.644531 22.011719-46.359375 49-46.359375h.117188c12.722656-.148438 25.011719 4.597656 34.328125 13.261719 9.253906 8.523437 14.53125 20.519531 14.554687 33.097656v31.640625h-98zm120 138.179687c0 6.402344-5.226562 11.460938-12.199219 11.460938h-117.601562c-6.972656 0-12.199219-5.054688-12.199219-11.460938v-78.886718c0-6.398438 5.226563-11.652344 12.199219-11.652344h117.601562c6.972657 0 12.199219 5.25 12.199219 11.652344zm0 0"/><path d="m212.363281 283.5625c-11.527343 0-20.898437 9.089844-20.898437 20.261719.078125 8.285156 5.183594 15.691406 12.898437 18.710937v10.742188c0 4.417968 3.582031 8 8 8s8-3.582032 8-8v-10.742188c7.714844-3.019531 12.820313-10.425781 12.898438-18.710937 0-11.171875-9.375-20.261719-20.898438-20.261719zm0 24.519531c-2.699219 0-4.898437-1.910156-4.898437-4.257812 0-2.351563 2.199218-4.261719 4.898437-4.261719s4.898438 1.910156 4.898438 4.261719c0 2.347656-2.199219 4.257812-4.898438 4.257812zm0 0"/></svg>