<svg height="400pt" viewBox="0 -9 400 400" width="400pt" xmlns="http://www.w3.org/2000/svg"><path d="m148 381h104c4.417969 0 8-3.582031 8-8v-365c0-4.417969-3.582031-8-8-8h-104c-4.417969 0-8 3.582031-8 8v365c0 4.417969 3.582031 8 8 8zm8-365h88v349h-88zm0 0"/><path d="m200 53c-19.882812 0-36 16.117188-36 36s16.117188 36 36 36 36-16.117188 36-36c-.023438-19.875-16.125-35.976562-36-36zm0 56c-11.046875 0-20-8.953125-20-20s8.953125-20 20-20 20 8.953125 20 20c-.011719 11.039062-8.960938 19.988281-20 20zm0 0"/><path d="m215 221h-30c-4.417969 0-8 3.582031-8 8s3.582031 8 8 8h30c4.417969 0 8-3.582031 8-8s-3.582031-8-8-8zm0 0"/><path d="m215 191h-30c-4.417969 0-8 3.582031-8 8s3.582031 8 8 8h30c4.417969 0 8-3.582031 8-8s-3.582031-8-8-8zm0 0"/><path d="m215 251h-30c-4.417969 0-8 3.582031-8 8s3.582031 8 8 8h30c4.417969 0 8-3.582031 8-8s-3.582031-8-8-8zm0 0"/><path d="m215 161h-30c-4.417969 0-8 3.582031-8 8s3.582031 8 8 8h30c4.417969 0 8-3.582031 8-8s-3.582031-8-8-8zm0 0"/><path d="m215 281h-30c-4.417969 0-8 3.582031-8 8s3.582031 8 8 8h30c4.417969 0 8-3.582031 8-8s-3.582031-8-8-8zm0 0"/><path d="m215 311h-30c-4.417969 0-8 3.582031-8 8s3.582031 8 8 8h30c4.417969 0 8-3.582031 8-8s-3.582031-8-8-8zm0 0"/><path d="m288 381h104c4.417969 0 8-3.582031 8-8v-365c0-4.417969-3.582031-8-8-8h-104c-4.417969 0-8 3.582031-8 8v365c0 4.417969 3.582031 8 8 8zm8-365h88v349h-88zm0 0"/><path d="m340 53c-19.882812 0-36 16.117188-36 36s16.117188 36 36 36 36-16.117188 36-36c-.023438-19.875-16.125-35.976562-36-36zm0 56c-11.046875 0-20-8.953125-20-20s8.953125-20 20-20 20 8.953125 20 20c-.011719 11.039062-8.960938 19.988281-20 20zm0 0"/><path d="m355 221h-30c-4.417969 0-8 3.582031-8 8s3.582031 8 8 8h30c4.417969 0 8-3.582031 8-8s-3.582031-8-8-8zm0 0"/><path d="m355 191h-30c-4.417969 0-8 3.582031-8 8s3.582031 8 8 8h30c4.417969 0 8-3.582031 8-8s-3.582031-8-8-8zm0 0"/><path d="m355 251h-30c-4.417969 0-8 3.582031-8 8s3.582031 8 8 8h30c4.417969 0 8-3.582031 8-8s-3.582031-8-8-8zm0 0"/><path d="m355 161h-30c-4.417969 0-8 3.582031-8 8s3.582031 8 8 8h30c4.417969 0 8-3.582031 8-8s-3.582031-8-8-8zm0 0"/><path d="m355 281h-30c-4.417969 0-8 3.582031-8 8s3.582031 8 8 8h30c4.417969 0 8-3.582031 8-8s-3.582031-8-8-8zm0 0"/><path d="m355 311h-30c-4.417969 0-8 3.582031-8 8s3.582031 8 8 8h30c4.417969 0 8-3.582031 8-8s-3.582031-8-8-8zm0 0"/><path d="m8 381h104c4.417969 0 8-3.582031 8-8v-365c0-4.417969-3.582031-8-8-8h-104c-4.417969 0-8 3.582031-8 8v365c0 4.417969 3.582031 8 8 8zm8-365h88v349h-88zm0 0"/><path d="m60 53c-19.882812 0-36 16.117188-36 36s16.117188 36 36 36 36-16.117188 36-36c-.023438-19.875-16.125-35.976562-36-36zm0 56c-11.046875 0-20-8.953125-20-20s8.953125-20 20-20 20 8.953125 20 20c-.011719 11.039062-8.960938 19.988281-20 20zm0 0"/><path d="m75 221h-30c-4.417969 0-8 3.582031-8 8s3.582031 8 8 8h30c4.417969 0 8-3.582031 8-8s-3.582031-8-8-8zm0 0"/><path d="m75 191h-30c-4.417969 0-8 3.582031-8 8s3.582031 8 8 8h30c4.417969 0 8-3.582031 8-8s-3.582031-8-8-8zm0 0"/><path d="m75 251h-30c-4.417969 0-8 3.582031-8 8s3.582031 8 8 8h30c4.417969 0 8-3.582031 8-8s-3.582031-8-8-8zm0 0"/><path d="m75 161h-30c-4.417969 0-8 3.582031-8 8s3.582031 8 8 8h30c4.417969 0 8-3.582031 8-8s-3.582031-8-8-8zm0 0"/><path d="m75 281h-30c-4.417969 0-8 3.582031-8 8s3.582031 8 8 8h30c4.417969 0 8-3.582031 8-8s-3.582031-8-8-8zm0 0"/><path d="m75 311h-30c-4.417969 0-8 3.582031-8 8s3.582031 8 8 8h30c4.417969 0 8-3.582031 8-8s-3.582031-8-8-8zm0 0"/></svg>