<svg height="472pt" viewBox="-52 0 471 472" width="472pt" xmlns="http://www.w3.org/2000/svg"><path d="m78.394531 324c-43.003906.054688-77.847656 34.90625-77.894531 77.90625v61.792969c-.027344 4.476562 3.519531 8.160156 7.992188 8.300781h350.015624c4.472657-.140625 8.019532-3.824219 7.992188-8.300781v-61.792969c-.046875-43-34.890625-77.851562-77.894531-77.90625h-42.105469v-22.953125c5.382812-4.070313 10.484375-8.5 15.265625-13.257813 17.179687-17.554687 28.148437-40.242187 31.246094-64.609374 13-3.257813 22.160156-14.890626 22.273437-28.296876.117188-13.402343-8.839844-25.191406-21.785156-28.675781v-19.929687c17.019531-7.835938 31.320312-20.558594 41.082031-36.550782l7.917969-12.828124c6.496094-10.613282 3.15625-24.484376-7.457031-30.976563-10.613281-6.496094-24.484375-3.160156-30.980469 7.457031l-7.816406 12.808594c-4.570313 7.453125-10.992188 13.59375-18.644532 17.820312l-15.101562-74.152343c-3.558594-17.292969-18.726562-29.742188-36.378906-29.855469h-84.511719c-17.652344.113281-32.824219 12.5625-36.378906 29.855469l-15.175781 74.417969c-7.929688-4.203126-14.589844-10.457032-19.289063-18.105469l-7.835937-12.816407c-6.5-10.636718-20.394532-13.988281-31.027344-7.488281-10.636719 6.5-13.992188 20.390625-7.488282 31.027344l8 12.832031c9.761719 15.996094 24.0625 28.71875 41.085938 36.550782v19.90625c-13 3.453124-22.742188 15.054687-22.742188 28.394531 0 13.65625 10.121094 25.488281 23.40625 28.625 3.101563 24.359375 14.074219 47.039062 31.25 64.589843 4.714844 4.703126 9.753907 9.070313 15.085938 13.0625v23.148438zm-4.894531-118.300781c-4.054688-2.230469-6.574219-6.496094-6.574219-11.125 0-4.628907 2.519531-8.890625 6.574219-11.125zm215.105469 134.300781c34.171875.042969 61.859375 27.738281 61.894531 61.90625v54.09375h-160v-84.617188l49.945312-31.382812zm-106.320313 17.449219-45.785156-29.769531v-17.28125c29.683594 14.328124 64.277344 14.378906 94 .128906v17.035156zm116.789063-162.875c0 4.472656-1.574219 8.429687-5.574219 10.875v-21.75c4 2.445312 5.574219 6.402343 5.574219 10.875zm-178.167969-161.519531c2.019531-9.855469 10.644531-16.960938 20.703125-17.054688h84.511719c10.054687.09375 18.679687 7.203125 20.699218 17.054688l15.554688 76.15625c-2.984375.535156-6.007812.800781-9.035156.789062h-139.652344c-2.800781.007812-5.597656-.21875-8.359375-.675781zm-75 68.128906-7.835938-12.730469c-.914062-1.464844-1.191406-3.238281-.777343-4.914063.71875-2.933593 3.347656-4.992187 6.367187-4.988281.523438.003907 1.046875.066407 1.554688.191407 1.695312.40625 3.15625 1.472656 4.058594 2.960937l7.851562 12.730469c12.023438 19.6875 33.464844 31.660156 56.53125 31.566406h139.714844c6.707031.039062 13.382812-.945312 19.796875-2.914062.0625-.011719.125.054687.183593.039062.679688-.128906 1.339844-.347656 1.960938-.648438 14.402344-5.054687 26.617188-14.925781 34.578125-27.949218l7.835937-12.824219c1.902344-3.066406 5.925782-4.019531 9.007813-2.136719 3.078125 1.882813 4.0625 5.898438 2.199219 8.992188l-7.835938 12.628906c-14.507812 23.492188-40.144531 37.796875-67.753906 37.8125h-139.683594c-27.613281-.015625-53.25-14.320312-67.761718-37.816406zm71.132812 175.441406c-17.714843-18.105469-27.605468-42.449219-27.539062-67.78125v-56.699219c7.890625 2.015625 16.015625 2.976563 24.15625 2.855469h139.6875c8.140625.125 16.265625-.835938 24.15625-2.851562v56.699218c.066406 25.332032-9.820312 49.675782-27.535156 67.78125-17.933594 18.414063-41.425782 28.554688-66.464844 28.554688s-48.53125-10.144532-66.460938-28.558594zm9.148438 63.375 48.3125 31.269531v84.730469h-158v-54.09375c.035156-34.167969 27.722656-61.863281 61.894531-61.90625zm0 0"/><path d="m191.839844 198.492188 2.898437 21.582031c.535157 3.96875 3.921875 6.929687 7.929688 6.925781h59.664062c4.449219.019531 8.089844-3.539062 8.167969-7.984375v-44.667969c-.050781-4.519531-3.648438-8.199218-8.167969-8.347656h-65.664062c-2.328125.078125-4.515625 1.136719-6.027344 2.910156-1.507813 1.777344-2.199219 4.105469-1.902344 6.414063l.625 4.710937c-3.867187-.808594-7.863281-.800781-11.726562.023438l.625-4.65625c.308593-2.335938-.382813-4.699219-1.90625-6.5-1.503907-1.78125-3.691407-2.835938-6.023438-2.898438h-65.664062c-4.515625.148438-8.117188 3.828125-8.167969 8.34375v44.667969c.078125 4.445313 3.71875 8.003906 8.167969 7.984375h59.664062c4.007813.003906 7.394531-2.957031 7.929688-6.925781l2.902343-21.585938 1.976563-1.234375c3.894531-2.414062 8.824219-2.414062 12.71875 0zm62.660156-16.492188v29h-44.835938l-3.851562-29zm-97.164062 29h-44.835938v-29h48.6875zm0 0"/></svg>