<svg height="496pt" viewBox="0 0 496 496" width="496pt" xmlns="http://www.w3.org/2000/svg"><path d="m248 0c-136.753906 0-248 111.246094-248 248s111.246094 248 248 248 248-111.246094 248-248-111.246094-248-248-248zm0 480c-127.921875 0-232-104.078125-232-232s104.078125-232 232-232 232 104.078125 232 232-104.078125 232-232 232zm0 0"/><path d="m248 32c-119.105469 0-216 96.894531-216 216s96.894531 216 216 216 216-96.894531 216-216-96.894531-216-216-216zm135.566406 69.121094-53.222656 53.222656 11.3125 11.3125 53.222656-53.222656c31.257813 33.839844 50.976563 78.445312 52.921875 127.566406h-63.800781v16h63.800781c-1.945312 49.121094-21.664062 93.726562-52.921875 127.566406l-61.222656-61.222656-11.3125 11.3125 61.222656 61.222656c-33.839844 31.257813-78.445312 50.976563-127.566406 52.921875v-63.800781h-16v63.800781c-49.121094-1.945312-93.726562-21.664062-127.566406-52.921875l61.222656-61.222656-11.3125-11.3125-61.222656 61.222656c-31.25-33.839844-50.976563-78.445312-52.921875-127.566406h63.800781v-16h-63.800781c1.945312-49.121094 21.664062-93.726562 52.921875-127.566406l53.222656 53.222656 11.3125-11.3125-53.222656-53.222656c35.671875-32.945313 83.292968-53.121094 135.566406-53.121094s99.894531 20.175781 135.566406 53.121094zm0 0"/><path d="m248 288c13.71875 0 25.839844-6.960938 33.046875-17.519531l80.386719-14.617188c3.796875-.6875 6.566406-4 6.566406-7.863281s-2.769531-7.175781-6.566406-7.863281l-80.386719-14.617188c-2.671875-3.910156-6.054687-7.273437-9.902344-10.015625l-15.191406-144.335937c-.425781-4.070313-3.855469-7.167969-7.953125-7.167969s-7.527344 3.097656-7.953125 7.167969l-15.191406 144.335937c-10.167969 7.257813-16.855469 19.082032-16.855469 32.496094 0 22.054688 17.945312 40 40 40zm67.28125-40-27.792969 5.054688c.214844-1.671876.511719-3.328126.511719-5.054688s-.296875-3.382812-.511719-5.054688zm-67.28125-99.574219 6.34375 60.214844c-2.078125-.335937-4.175781-.640625-6.34375-.640625s-4.265625.304688-6.34375.640625zm0 75.574219c13.230469 0 24 10.769531 24 24s-10.769531 24-24 24-24-10.769531-24-24 10.769531-24 24-24zm0 0"/></svg>