<svg height="497pt" viewBox="0 -44 497 496" width="497pt" xmlns="http://www.w3.org/2000/svg"><path d="m444.472656.5h-391.945312c-29.011719 0-52.527344 23.515625-52.527344 52.527344v302.945312c0 29.011719 23.515625 52.527344 52.527344 52.527344h391.945312c29.011719 0 52.527344-23.515625 52.527344-52.527344v-302.945312c0-29.011719-23.515625-52.527344-52.527344-52.527344zm-333.472656 392h-58.914062c-9.617188.023438-18.839844-3.800781-25.617188-10.621094-6.78125-6.816406-10.550781-16.066406-10.46875-25.679687v-22.699219h95zm0-75h-95v-59h95zm0-75h-95v-60h95zm0-76h-95v-70h95zm0-86h-95v-27.699219c-.082031-9.613281 3.6875-18.863281 10.46875-25.679687 6.777344-6.820313 16-10.644532 25.617188-10.621094h58.914062zm264 312h-248v-376h248zm105-36.300781c.082031 9.613281-3.6875 18.863281-10.46875 25.679687-6.777344 6.820313-16 10.644532-25.617188 10.621094h-52.914062v-59h89zm0-38.699219h-89v-59h89zm0-75h-89v-60h89zm0-76h-89v-70h89zm0-86h-89v-64h52.914062c9.617188-.023438 18.839844 3.800781 25.617188 10.621094 6.78125 6.816406 10.550781 16.066406 10.46875 25.679687zm0 0"/><path d="m201.757812 225.808594c2.566407 2.570312 6.054688 4.011718 9.691407 4.003906 3.695312.007812 7.25-1.429688 9.898437-4.007812l12.652344-12.445313c4-4.707031 5.058594-12.015625 1.46875-17.34375l8.777344-11.703125 21.109375 21.160156c-1.6875 3.105469-1.136719 6.949219 1.355469 9.457032l52.273437 52.285156c9.8125 9.8125 25.722656 9.808594 35.535156-.003906 9.808594-9.8125 9.808594-25.722657-.003906-35.535157l-52.289063-52.285156c-2.503906-2.5-6.347656-3.0625-9.457031-1.382813l-21.160156-21.160156 11.699219-8.882812c2.261718 1.523437 4.929687 2.335937 7.65625 2.335937 3.617187.003907 7.089844-1.4375 9.640625-4.011719l12.394531-12.441406c5-5.34375 5.394531-14.042968.050781-19.390625l-31.53125-31.558593c-2.566406-2.570313-6.050781-4.015626-9.683593-4.015626-3.632813 0-7.121094 1.445313-9.6875 4.015626l-12.4375 12.445312c-4.808594 4.796875-5.367188 12.398438-1.3125 17.847656l-16.609376 21.882813c-2.699218 3.550781-5.867187 6.71875-9.417968 9.417969l-21.882813 16.609374c-5.449219-4.058593-13.046875-3.5-17.84375 1.308594l-12.445312 12.445313c-5.34375 5.359375-5.34375 14.035156 0 19.390625zm141.441407 17.179687c3.566406 3.566407 3.566406 9.347657 0 12.914063-3.566407 3.5625-9.347657 3.5625-12.914063-.003906l-6.457031-6.457032 12.914063-12.910156zm-46.632813-46.632812 28.863282 28.863281-12.914063 12.910156-28.859375-28.859375zm-15.351562-7.273438-4.835938 4.835938-22.390625-22.390625c1.5-1.722656 3.117188-3.335938 4.835938-4.835938zm-9.363282-93.25 28.320313 28.320313-9.207031 9.207031-28.316406-28.320313zm-39.804687 61.402344c4.710937-3.578125 8.910156-7.777344 12.484375-12.488281l15.191406-20.003906 11.960938 11.957031-20 15.1875c-4.710938 3.578125-8.914063 7.777343-12.488282 12.488281l-15.1875 20-11.96875-11.953125zm-39.710937 18.113281 28.320312 28.316406-9.207031 9.207032-28.316407-28.320313zm0 0"/><path d="m142.128906 330.5h114.550782c4.554687-.15625 8.199218-3.828125 8.320312-8.382812v-25.542969c-.144531-4.492188-3.824219-8.0625-8.320312-8.074219h-3.679688v-17.324219c.046875-2.058593-.757812-4.050781-2.222656-5.5-1.460938-1.453125-3.457032-2.238281-5.519532-2.175781h-91.710937c-2.039063-.054688-4.011719.738281-5.445313 2.195312-1.429687 1.457032-2.191406 3.441407-2.101562 5.480469v17.324219h-3.871094c-4.460937.027344-8.074218 3.617188-8.128906 8.074219v25.542969c.03125 4.515624 3.613281 8.210937 8.128906 8.382812zm19.871094-51h75v9h-75zm-12 25h99v10h-99zm0 0"/></svg>