<svg height="462pt" viewBox="0 -9 462.0026 462" width="462pt" xmlns="http://www.w3.org/2000/svg"><path d="m98.234375 143c-4.417969 0-8 3.582031-8 8 0 4.421875 3.582031 8 8 8h265.566406c4.417969 0 8-3.578125 8-8 0-4.417969-3.582031-8-8-8h-29.613281l-1.335938-106.832031c-.15625-20.089844-16.539062-36.2656252-36.625-36.167969h-195.824218c-20.933594 0-38.398438 16.992188-38.398438 37.925781v31.265625c0 4.417969 3.96875 7.808594 8.386719 7.808594h52.613281v66zm197.992187-127c11.375 0 20.777344 9.074219 20.777344 20.25v.101562l1.183594 106.648438h-179.183594v-104.945312c-.121094-7.964844-2.765625-15.6875-7.554687-22.054688zm-218.222656 45v-23.046875c0-12.121094 10.273438-21.953125 22.5-21.953125h.035156c12.132813 0 22.464844 9.890625 22.464844 22.039062v22.960938zm0 0"/><path d="m442.191406 115h-13.199218c-4.417969 0-8 3.582031-8 8 0 4.421875 3.582031 8 8 8h13.199218c2.199219 0 3.8125 2.277344 3.8125 4.480469v74.390625c.042969 1.054687-.332031 2.082031-1.046875 2.859375-.714843.773437-1.710937 1.230469-2.765625 1.269531h-34.1875v-26.925781c-.09375-4.46875-3.730468-8.050781-8.203125-8.074219h-337.5625c-4.480469.015625-8.128906 3.597656-8.234375 8.074219v28.925781h-15v-15.875c.050782-2.113281-.738281-4.15625-2.199218-5.683594-1.460938-1.523437-3.46875-2.402344-5.582032-2.441406h-23.410156c-2.113281.039062-4.128906.914062-5.59375 2.4375-1.464844 1.527344-2.265625 3.574219-2.21484375 5.6875v53.582031c0 4.417969 3.39062475 8.292969 7.80859375 8.292969h23.410156c4.417969 0 7.78125-3.875 7.78125-8.292969v-21.707031h15v36.664062c.082032 4.53125 3.707032 8.199219 8.234375 8.335938h18.765625v123.027344c-.070312 11.621094 4.492188 22.796875 12.679688 31.046875 8.1875 8.253906 19.320312 12.90625 30.945312 12.925781h212.773438c11.621094-.023438 22.753906-4.675781 30.9375-12.925781 8.179687-8.253907 12.738281-19.425781 12.664062-31.046875v-123.027344h18.796875c4.523438-.140625 8.132813-3.8125 8.203125-8.335938v-38.664062h34.1875c11.027344-.089844 19.898438-9.101562 19.8125-20.128906v-74.390625c0-11.027344-8.785156-20.480469-19.8125-20.480469zm-419.1875 131h-7v-38h7zm107-51h202v66h-202zm-41.367187 66h-18.632813v-66h44v66zm276.367187 139.027344c.078125 7.378906-2.789062 14.484375-7.972656 19.738281-5.183594 5.25-12.25 8.21875-19.628906 8.234375h-212.773438c-7.382812-.015625-14.449218-2.980469-19.636718-8.234375s-8.0625-12.359375-7.988282-19.738281v-123.027344h268zm27-139.027344h-44v-66h44zm0 0"/><path d="m239.003906 302h-18c-4.421875 0-8 3.582031-8 8 0 4.421875 3.578125 8 8 8h18c4.417969 0 8-3.578125 8-8 0-4.417969-3.582031-8-8-8zm0 0"/><path d="m190.003906 302h-17c-4.421875 0-8 3.582031-8 8 0 4.421875 3.578125 8 8 8h17c4.417969 0 8-3.578125 8-8 0-4.417969-3.582031-8-8-8zm0 0"/><path d="m143.003906 302h-18c-4.421875 0-8 3.582031-8 8 0 4.421875 3.578125 8 8 8h18c4.417969 0 8-3.578125 8-8 0-4.417969-3.582031-8-8-8zm0 0"/><path d="m287.003906 302h-19c-4.421875 0-8 3.582031-8 8 0 4.421875 3.578125 8 8 8h19c4.417969 0 8-3.578125 8-8 0-4.417969-3.582031-8-8-8zm0 0"/><path d="m335.003906 302h-18c-4.421875 0-8 3.582031-8 8 0 4.421875 3.578125 8 8 8h18c4.417969 0 8-3.578125 8-8 0-4.417969-3.582031-8-8-8zm0 0"/><path d="m239.003906 331h-18c-4.421875 0-8 3.582031-8 8 0 4.421875 3.578125 8 8 8h18c4.417969 0 8-3.578125 8-8 0-4.417969-3.582031-8-8-8zm0 0"/><path d="m190.003906 331h-17c-4.421875 0-8 3.582031-8 8 0 4.421875 3.578125 8 8 8h17c4.417969 0 8-3.578125 8-8 0-4.417969-3.582031-8-8-8zm0 0"/><path d="m143.003906 331h-18c-4.421875 0-8 3.582031-8 8 0 4.421875 3.578125 8 8 8h18c4.417969 0 8-3.578125 8-8 0-4.417969-3.582031-8-8-8zm0 0"/><path d="m287.003906 331h-19c-4.421875 0-8 3.582031-8 8 0 4.421875 3.578125 8 8 8h19c4.417969 0 8-3.578125 8-8 0-4.417969-3.582031-8-8-8zm0 0"/><path d="m335.003906 331h-18c-4.421875 0-8 3.582031-8 8 0 4.421875 3.578125 8 8 8h18c4.417969 0 8-3.578125 8-8 0-4.417969-3.582031-8-8-8zm0 0"/><path d="m239.003906 359h-18c-4.421875 0-8 3.582031-8 8 0 4.421875 3.578125 8 8 8h18c4.417969 0 8-3.578125 8-8 0-4.417969-3.582031-8-8-8zm0 0"/><path d="m190.003906 359h-17c-4.421875 0-8 3.582031-8 8 0 4.421875 3.578125 8 8 8h17c4.417969 0 8-3.578125 8-8 0-4.417969-3.582031-8-8-8zm0 0"/><path d="m143.003906 359h-18c-4.421875 0-8 3.582031-8 8 0 4.421875 3.578125 8 8 8h18c4.417969 0 8-3.578125 8-8 0-4.417969-3.582031-8-8-8zm0 0"/><path d="m287.003906 359h-19c-4.421875 0-8 3.582031-8 8 0 4.421875 3.578125 8 8 8h19c4.417969 0 8-3.578125 8-8 0-4.417969-3.582031-8-8-8zm0 0"/><path d="m335.003906 359h-18c-4.421875 0-8 3.582031-8 8 0 4.421875 3.578125 8 8 8h18c4.417969 0 8-3.578125 8-8 0-4.417969-3.582031-8-8-8zm0 0"/><path d="m239.003906 387h-18c-4.421875 0-8 3.582031-8 8 0 4.421875 3.578125 8 8 8h18c4.417969 0 8-3.578125 8-8 0-4.417969-3.582031-8-8-8zm0 0"/><path d="m190.003906 387h-17c-4.421875 0-8 3.582031-8 8 0 4.421875 3.578125 8 8 8h17c4.417969 0 8-3.578125 8-8 0-4.417969-3.582031-8-8-8zm0 0"/><path d="m143.003906 387h-18c-4.421875 0-8 3.582031-8 8 0 4.421875 3.578125 8 8 8h18c4.417969 0 8-3.578125 8-8 0-4.417969-3.582031-8-8-8zm0 0"/><path d="m287.003906 387h-19c-4.421875 0-8 3.582031-8 8 0 4.421875 3.578125 8 8 8h19c4.417969 0 8-3.578125 8-8 0-4.417969-3.582031-8-8-8zm0 0"/><path d="m335.003906 387h-18c-4.421875 0-8 3.582031-8 8 0 4.421875 3.578125 8 8 8h18c4.417969 0 8-3.578125 8-8 0-4.417969-3.582031-8-8-8zm0 0"/><path d="m170.003906 62h60c4.417969 0 8-3.578125 8-8 0-4.417969-3.582031-8-8-8h-60c-4.421875 0-8 3.582031-8 8 0 4.421875 3.578125 8 8 8zm0 0"/><path d="m170.003906 92h120c4.417969 0 8-3.578125 8-8 0-4.417969-3.582031-8-8-8h-120c-4.421875 0-8 3.582031-8 8 0 4.421875 3.578125 8 8 8zm0 0"/><path d="m170.003906 122h120c4.417969 0 8-3.578125 8-8 0-4.417969-3.582031-8-8-8h-120c-4.421875 0-8 3.582031-8 8 0 4.421875 3.578125 8 8 8zm0 0"/></svg>