<svg height="494pt" viewBox="-27 0 494 494.32362" width="494pt" xmlns="http://www.w3.org/2000/svg"><path d="m104.160156 123.003906h-60c-4.417968 0-8 3.582032-8 8v63c0 4.417969 3.582032 8 8 8h60c4.421875 0 8-3.582031 8-8v-63c0-4.417968-3.578125-8-8-8zm-8 63h-44v-47h44zm0 0"/><path d="m224.160156 202.003906h60c4.421875 0 8-3.582031 8-8v-63c0-4.417968-3.578125-8-8-8h-60c-4.417968 0-8 3.582032-8 8v63c0 4.417969 3.582032 8 8 8zm8-63h44v47h-44zm0 0"/><path d="m134.160156 202.003906h60c4.421875 0 8-3.582031 8-8v-63c0-4.417968-3.578125-8-8-8h-60c-4.417968 0-8 3.582032-8 8v63c0 4.417969 3.582032 8 8 8zm8-63h44v47h-44zm0 0"/><path d="m104.160156 218.003906h-60c-4.417968 0-8 3.582032-8 8v63c0 4.417969 3.582032 8 8 8h60c4.421875 0 8-3.582031 8-8v-63c0-4.417968-3.578125-8-8-8zm-8 63h-44v-47h44zm0 0"/><path d="m328.160156 235.046875v-164.34375c.015625-2.078125-.820312-4.074219-2.308594-5.527344-1.488281-1.453125-3.503906-2.238281-5.582031-2.171875h-34.109375v-55.359375c0-4.421875-4.039062-7.64062475-8.457031-7.64062475h-227.011719c-2.035156-.06250005-4.003906.72265575-5.433594 2.17578175-1.429687 1.449218-2.1875 3.429687-2.097656 5.464843v55.359375h-35.035156c-2.085938-.066406-4.109375.714844-5.609375 2.164063-1.5 1.453125-2.351563 3.449219-2.355469 5.535156v358.382813c-.003906 2.109374.835938 4.132812 2.332032 5.621093 1.496093 1.488281 3.523437 2.3125 5.632812 2.296875h193.894531c24.082031 35.972656 64.578125 57.492188 107.867188 57.320313 71.855469 0 130.257812-58.4375 130.257812-130.289063 0-65.617187-48.984375-120.03125-111.984375-128.988281zm-269-219.042969h211v47h-211zm32 315.867188v89.132812h-75v-342h296v154.773438c-1-.015625-1.4375-.03125-2.230468-.03125-5.945313.007812-11.878907.417968-17.769532 1.238281v-9.171875c-.101562-4.417969-3.769531-7.914062-8.1875-7.808594h-59.902344c-2.09375-.039062-4.113281.765625-5.601562 2.238282-1.488281 1.46875-2.320312 3.476562-2.308594 5.570312v47.898438c-5.226562 5.570312-10.039062 11.511718-14.40625 17.78125.28125-.847657.417969-1.734376.40625-2.625v-63.054688c-.007812-2.101562-.863281-4.113281-2.367187-5.582031-1.507813-1.46875-3.539063-2.269531-5.644531-2.226563h-59.898438c-2.109375-.046875-4.152344.75-5.671875 2.21875-1.519531 1.464844-2.390625 3.476563-2.417969 5.589844v63.058594c.03125 4.460937 3.625 8.078125 8.085938 8.132812h59.902344c2.035156 0 3.992187-.777344 5.46875-2.171875-5.691407 9.152344-10.289063 18.945313-13.691407 29.171875h-86.738281c-2.109375-.03125-4.144531.78125-5.652344 2.261719-1.507812 1.476563-2.363281 3.496094-2.375 5.605469zm185-97.867188v4.226563c-15.875 4.300781-30.800781 11.546875-44 21.367187v-25.59375zm-90 0v47h-44v-47zm-79 187v-81h74.675782c-1.496094 7.9375-2.25 15.996094-2.257813 24.074219-.046875 19.734375 4.457031 39.214844 13.164063 56.925781zm202.726563 57.359375c-63-.183593-113.972657-51.308593-113.972657-114.308593s50.972657-114.121094 113.972657-114.308594c3.214843 0 6.402343.140625 9.546875.398437h.042968c61.046876 5.140625 107.1875 57.496094 104.617188 118.703125-2.570312 61.210938-52.941406 109.511719-114.207031 109.511719zm0 0"/><path d="m371.472656 315.105469-60.867187-14.1875c-1.199219-.28125-2.449219-.28125-3.648438 0l-60.257812 14.179687c-3.882813.90625-7.382813 3.011719-10 6.015625l-21.335938 24.378907c-6.703125 7.652343-6.230469 19.21875 1.078125 26.296874l26.960938 26.136719-1.367188 8.011719c-.667968 3.898438 1.617188 7.703125 5.375 8.941406 39.847656 13.257813 82.902344 13.316406 122.785156.171875l.5-.164062c3.804688-1.242188 6.105469-5.105469 5.386719-9.042969l-1.429687-7.820312 27.097656-26.300782c7.308594-7.085937 7.773438-18.65625 1.0625-26.308594l-21.3125-24.308593c-2.628906-3.003907-6.140625-5.105469-10.027344-6zm-112.484375 86.613281 5.734375-33.59375 2.476563-.671875c27.234375-7.394531 55.949219-7.394531 83.183593 0l2.539063.6875 6.148437 33.601563c-32.6875 9.5-67.402343 9.492187-100.082031-.023438zm131.621094-41.472656-19.417969 18.84375-3.4375-18.785156c-.554687-3.03125-2.796875-5.472657-5.769531-6.28125l-7.402344-2.011719c-29.980469-8.140625-61.59375-8.140625-91.578125 0l-7.398437 2.011719c-3.003907.816406-5.265625 3.304687-5.789063 6.375l-3.144531 18.410156-19.085937-18.5c-1.1875-1.152344-1.265626-3.03125-.175782-4.277344l21.332032-24.375c.425781-.488281.996093-.832031 1.628906-.980469l58.433594-13.75 59.042968 13.761719c.632813.144531 1.203125.488281 1.628906.976562l21.3125 24.304688c1.085938 1.246094 1.007813 3.125-.179687 4.277344zm0 0"/><path d="m308.410156 365.566406c-10.414062 0-18.859375 8.441406-18.859375 18.859375s8.445313 18.859375 18.863281 18.859375c10.414063 0 18.859376-8.445312 18.859376-18.859375-.011719-10.414062-8.449219-18.851562-18.863282-18.859375zm0 21.71875c-1.578125 0-2.859375-1.28125-2.859375-2.859375 0-1.582031 1.28125-2.863281 2.859375-2.863281 1.582032 0 2.863282 1.28125 2.863282 2.863281-.003907 1.578125-1.28125 2.859375-2.863282 2.859375zm0 0"/></svg>