<svg height="463pt" viewBox="0 -62 463.64811 463" width="463pt" xmlns="http://www.w3.org/2000/svg"><path d="m6.503906 314.066406 135.535156 23.992188c9.105469 1.839844 18.53125-.949219 25.167969-7.449219s9.625-15.863281 7.980469-25.003906l-11.226562-64.28125h25.601562c10.046875.074219 19.707031-3.851563 26.855469-10.914063 7.144531-7.058594 11.183593-16.675781 11.230469-26.722656v-40.363281h121.738281c3.5 0 6.589843-2.269531 7.636719-5.609375l10.144531-32.390625h88.230469c4.492187-.042969 8.144531-3.644531 8.25-8.136719v-68c-.128907-4.4375-3.808594-7.945312-8.25-7.863281h-8.75v-21c0-4.417969-3.582032-8-8-8-4.417969 0-8 3.582031-8 8v21h-285.609376l-14.019531-35.980469c-1.203125-3.058594-4.167969-5.054688-7.453125-5.019531h-17.667968c-3.285157-.035157-6.253907 1.960937-7.457032 5.019531l-14.015625 35.980469h-17.027343c-2.082032-.019531-4.082032.804687-5.542969 2.289062-1.460938 1.480469-2.257813 3.492188-2.207031 5.574219v66.769531l-59.257813 187.828125c-.710937 2.1875-.4453125 4.574219.730469 6.550782 1.167968 1.964843 3.132812 3.328124 5.382812 3.730468zm205.144532-110.378906c-.039063 5.804688-2.394532 11.351562-6.539063 15.414062s-9.742187 6.300782-15.542969 6.222657h-28.402344l-1.359374-7.582031c-.027344-.152344-.054688-.214844-.09375-.363282-1.78125-7.523437-.75-15.433594 2.894531-22.25l16.964843-31.804687h32.078126zm131.863281-56.363281h-155.308594l11.941406-22h150.253907zm-232.140625-131h6.71875l9.78125 25h-26.28125zm-35.722656 41h361.5625c.464843 0 .945312.136719 1.4375.136719.492187 0 .972656-.136719 1.441406-.136719h7.558594v52h-372zm-2.382813 68h108.675781l-14.027344 25.773437-19.441406 36.535156c-5.429687 10.203126-6.988281 22.023438-4.394531 33.285157l15.347656 87.636719c.683594 3.914062-.617187 7.917968-3.472656 10.683593s-6.894531 3.9375-10.785156 3.128907c-.078125-.015626-.15625-.03125-.234375-.042969l-126.667969-22.355469zm0 0"/><path d="m198.648438 76.324219h-109c-4.417969 0-8 3.582031-8 8s3.582031 8 8 8h109c4.417968 0 8-3.582031 8-8s-3.582032-8-8-8zm0 0"/></svg>