<svg height="502.57861pt" viewBox="0 0 502.57861 502.57861" width="502.57861pt" xmlns="http://www.w3.org/2000/svg"><path d="m500.222656 245.621094-29.117187-29.019532c-3.132813-3.085937-8.175781-3.0625-11.28125.054688-3.105469 3.113281-3.113281 8.15625-.015625 11.277344l15.40625 15.355468h-28.449219c-4.417969 0-8 3.578126-8 8 0 4.417969 3.582031 8 8 8h28.449219l-15.402344 15.351563c-2.042969 2.011719-2.851562 4.964844-2.117188 7.742187.730469 2.773438 2.894532 4.941407 5.664063 5.683594 2.773437.742188 5.730469-.058594 7.75-2.09375l29.117187-29.019531c1.503907-1.5 2.351563-3.539063 2.351563-5.664063 0-2.128906-.847656-4.167968-2.351563-5.667968zm0 0"/><path d="m55.808594 243.289062h-28.449219l15.402344-15.355468c3.097656-3.121094 3.089843-8.164063-.015625-11.277344-3.105469-3.117188-8.144532-3.140625-11.28125-.054688l-29.113282 29.019532c-1.503906 1.5-2.351562 3.539062-2.351562 5.667968 0 2.125.847656 4.164063 2.351562 5.664063l29.117188 29.019531c3.136719 3.085938 8.175781 3.0625 11.28125-.054687 3.105469-3.113281 3.113281-8.15625.015625-11.277344l-15.40625-15.351563h28.449219c4.417968 0 8-3.582031 8-8 0-4.421874-3.582032-8-8-8zm0 0"/><path d="m274.640625 459.808594-15.351563 15.40625v-48.449219c0-4.417969-3.582031-8-8-8-4.421874 0-8 3.582031-8 8v48.449219l-15.355468-15.402344c-3.121094-3.097656-8.164063-3.089844-11.277344.015625-3.117188 3.105469-3.140625 8.148437-.054688 11.28125l29.019532 29.117187c1.5 1.503907 3.539062 2.351563 5.667968 2.351563 2.125 0 4.164063-.847656 5.664063-2.351563l29.019531-29.117187c3.085938-3.132813 3.0625-8.175781-.054687-11.28125-3.113281-3.105469-8.15625-3.113281-11.277344-.015625zm0 0"/><path d="m251.289062 83.808594c4.417969 0 8-3.582032 8-8v-48.449219l15.351563 15.402344c3.121094 3.097656 8.164063 3.089843 11.277344-.015625 3.117187-3.105469 3.140625-8.144532.054687-11.28125l-29.019531-29.113282c-1.5-1.503906-3.539063-2.351562-5.664063-2.351562-2.128906 0-4.167968.847656-5.667968 2.351562l-29.019532 29.117188c-3.085937 3.136719-3.0625 8.175781.054688 11.28125 3.113281 3.105469 8.15625 3.113281 11.277344.015625l15.355468-15.40625v48.449219c0 4.417968 3.578126 8 8 8zm0 0"/><path d="m423.246094 374.289062h-.011719c-2.117187-.007812-4.152344.828126-5.652344 2.328126-1.496093 1.496093-2.339843 3.527343-2.335937 5.644531l.042968 21.726562-34.257812-34.265625c-2.003906-2.097656-4.984375-2.941406-7.792969-2.214844-2.804687.730469-5 2.921876-5.730469 5.726563-.730468 2.808594.113282 5.789063 2.210938 7.796875l34.253906 34.273438-21.75-.015626h-.011718c-2.871094-.035156-5.539063 1.476563-6.988282 3.953126-1.445312 2.480468-1.449218 5.546874-.007812 8.03125 1.445312 2.484374 4.109375 4 6.980468 3.96875l41.109376.046874h.011718c2.125.003907 4.160156-.832031 5.664063-2.332031 1.5-1.5 2.34375-3.539062 2.335937-5.660156l-.070312-41.066406c-.003906-2.113281-.851563-4.140625-2.351563-5.628907-1.5-1.492187-3.53125-2.324218-5.648437-2.3125zm0 0"/><path d="m127.203125 135.203125c3.234375 0 6.152344-1.949219 7.390625-4.9375 1.238281-2.992187.554688-6.429687-1.734375-8.71875l-34.253906-34.277344 21.746093.019531h.011719c2.871094.03125 5.539063-1.476562 6.988281-3.957031 1.445313-2.480469 1.449219-5.546875.007813-8.03125-1.445313-2.480469-4.109375-3.996093-6.980469-3.96875l-41.109375-.042969h-.011719c-2.121093-.007812-4.160156.828126-5.664062 2.328126-1.5 1.5-2.339844 3.539062-2.335938 5.660156l.070313 41.066406c.003906 2.113281.851563 4.140625 2.351563 5.628906 1.5 1.492188 3.53125 2.324219 5.648437 2.316406h.011719c2.121094.003907 4.152344-.832031 5.652344-2.328124 1.496093-1.5 2.339843-3.53125 2.335937-5.648438l-.039063-21.726562 34.253907 34.265624c1.5 1.507813 3.535156 2.351563 5.660156 2.351563zm0 0"/><path d="m121.546875 369.714844-34.257813 34.253906.035157-21.707031c.003906-2.117188-.835938-4.148438-2.335938-5.644531-1.496093-1.496094-3.53125-2.335938-5.648437-2.328126h-.011719c-2.117187-.011718-4.148437.824219-5.648437 2.3125-1.5 1.492188-2.347657 3.519532-2.351563 5.632813l-.070313 41.089844c-.003906 2.117187.839844 4.152343 2.34375 5.644531 1.5 1.496094 3.535157 2.332031 5.65625 2.320312h.011719l41.109375-.058593c2.867188.03125 5.53125-1.484375 6.976563-3.964844 1.441406-2.480469 1.4375-5.546875-.007813-8.023437-1.445312-2.480469-4.113281-3.988282-6.984375-3.953126h-.011719l-21.746093.015626 34.253906-34.265626c3.128906-3.125 3.128906-8.191406.007813-11.320312-3.125-3.125-8.195313-3.128906-11.320313-.003906zm0 0"/><path d="m423.316406 71.289062h-.011718l-41.109376.054688c-2.867187-.03125-5.53125 1.484375-6.972656 3.964844-1.445312 2.480468-1.441406 5.546875.003906 8.023437 1.449219 2.480469 4.113282 3.988281 6.984376 3.957031h.011718l21.746094-.019531-34.253906 34.265625c-3.128906 3.125-3.128906 8.191406-.003906 11.320313 3.125 3.125 8.191406 3.128906 11.316406.003906l34.261718-34.253906-.039062 21.707031c-.003906 2.117188.835938 4.148438 2.335938 5.644531 1.496093 1.496094 3.53125 2.335938 5.648437 2.332031h.011719c2.117187.007813 4.148437-.828124 5.648437-2.316406 1.5-1.492187 2.347657-3.519531 2.351563-5.632812l.070312-41.089844c.003906-2.117188-.839844-4.152344-2.339844-5.644531-1.503906-1.496094-3.539062-2.332031-5.660156-2.316407zm0 0"/><path d="m370.335938 333.59375-3.367188-18.40625 53.660156-52.074219c11.050782-10.714843 11.753906-28.210937 1.601563-39.777343l-40.078125-45.710938c-3.972656-4.546875-9.28125-7.726562-15.164063-9.085938l-114.460937-26.679687c-1.199219-.277344-2.449219-.277344-3.648438 0l-113.320312 26.667969c-5.871094 1.371094-11.160156 4.554687-15.125 9.101562l-40.109375 45.835938c-10.136719 11.574218-9.421875 29.0625 1.628906 39.765625l53.363281 51.738281-3.199218 18.71875c-.671876 3.945312 1.601562 7.800781 5.378906 9.125 36.515625 12.160156 74.746094 18.394531 113.234375 18.476562h.507812c38.3125-.054687 76.378907-6.183593 112.773438-18.160156l.941406-.402344c3.816406-1.28125 6.105469-5.171874 5.382813-9.132812zm-119.097657 11.695312h-.484375c-34.488281-.078124-68.765625-5.328124-101.691406-15.578124l2.425781-14.300782 18.304688-3.277344c.066406-.007812.128906-.046874.195312-.058593 17.011719-3.429688 34.226563-5.78125 51.539063-7.039063l-3.929688 22.898438c-.511718 3 .722656 6.03125 3.183594 7.820312 2.464844 1.789063 5.730469 2.027344 8.425781.609375l21.664063-11.390625 21.664062 11.390625c2.695313 1.414063 5.960938 1.179688 8.425782-.609375 2.460937-1.792968 3.695312-4.824218 3.179687-7.824218l-3.933594-22.941407c17.222657 1.222657 34.351563 3.53125 51.285157 6.90625l.183593.035157 19.042969 3.351562 2.613281 14.457031c-33.0625 10.257813-67.476562 15.496094-102.09375 15.550781zm83.390625-70.378906c-22.09375-4.40625-44.503906-7.054687-67.019531-7.925781l-9.566406-19.378906c-1.347657-2.730469-4.128907-4.460938-7.171875-4.460938-3.046875 0-5.828125 1.730469-7.175782 4.460938l-9.574218 19.398437c-22.613282.902344-45.117188 3.597656-67.300782 8.066406l-8.761718 1.769532 3.601562-21.070313 8.996094-2.441406c52.425781-14.234375 107.699219-14.234375 160.128906 0l9.058594 2.460937 3.828125 20.925782zm12.136719 18.746094.882813 4.835938-13.109376-2.304688c-13.347656-2.664062-26.902343-4.683594-40.5-6.0625l3.488282-3.402344c.398437-.394531.753906-.828125 1.058594-1.296875 11.042968 1.285157 22.035156 3.007813 32.898437 5.179688zm-83.242187 8.707031 2.109374 12.292969-11.039062-5.800781c-2.332031-1.226563-5.117188-1.226563-7.445312 0l-11.042969 5.800781 2.109375-12.292969c.445312-2.59375-.414063-5.242187-2.296875-7.082031l-8.933594-8.703125 12.34375-1.789063c2.605469-.378906 4.855469-2.015624 6.023437-4.378906l5.519532-11.183594 5.515625 11.179688c1.164062 2.363281 3.417969 4 6.023437 4.378906l12.34375 1.792969-8.929687 8.710937c-1.882813 1.835938-2.742188 4.480469-2.300781 7.074219zm-93.535157-11.605469c10.964844-2.214843 22.054688-3.972656 33.199219-5.285156.296875.449219.640625.867188 1.019531 1.246094l3.539063 3.449219c-13.699219 1.40625-27.378906 3.464843-40.832032 6.179687l-12.566406 2.21875.820313-4.816406zm193.515625 5.492188-8.832031-48.296875c-.554687-3.03125-2.800781-5.472656-5.773437-6.28125l-13.921876-3.785156c-55.175781-14.980469-113.347656-14.980469-168.523437 0l-13.921875 3.785156c-3.003906.816406-5.261719 3.300781-5.789062 6.371094l-8.160157 47.800781-45.496093-44.097656c-4.929688-4.777344-5.25-12.578125-.726563-17.742188l40.113281-45.84375c1.769532-2.027344 4.128906-3.445312 6.746094-4.058594l111.5-26.234374 112.636719 26.25c2.625.609374 4.992187 2.027343 6.765625 4.054687l40.082031 45.714844c4.53125 5.160156 4.214844 12.96875-.714844 17.746093zm0 0"/></svg>