<svg height="454pt" viewBox="-28 0 454 454" width="454pt" xmlns="http://www.w3.org/2000/svg"><path d="m181.125 93.007812c2.835938-3.132812 2.746094-7.929687-.207031-10.949218-2.949219-3.023438-7.742188-3.226563-10.9375-.464844-.226563-4.324219-3.859375-7.683594-8.1875-7.574219-4.332031.109375-7.785157 3.648438-7.792969 7.980469v.339844l-.351562-.347656c-3.066407-3.0625-8.011719-3.125-11.15625-.140626-3.140626 2.984376-3.332032 7.929688-.429688 11.148438h-.0625c-4.417969 0-8 3.582031-8 8s3.582031 8 8 8h.53125l-.195312.199219c-2.042969 2.019531-2.847657 4.972656-2.109376 7.746093.738282 2.773438 2.902344 4.941407 5.675782 5.675782 2.773437.738281 5.730468-.066406 7.746094-2.109375l.359374-.355469c.113282 4.191406 3.445313 7.582031 7.632813 7.773438 4.1875.191406 7.8125-2.886719 8.308594-7.046876 3.257812 2.757813 8.105469 2.476563 11.019531-.644531 2.914062-3.121093 2.863281-7.980469-.113281-11.039062l-.195313-.199219h.339844c4.335938-.078125 7.820312-3.601562 7.851562-7.9375.035157-4.335938-3.394531-7.910156-7.726562-8.054688zm0 0"/><path d="m106.308594 93.015625c2.871094-3.160156 2.75-8.023437-.28125-11.039063-3.03125-3.011718-7.894532-3.109374-11.039063-.21875-.21875-4.300781-3.804687-7.65625-8.109375-7.59375-4.308594.066407-7.789062 3.53125-7.878906 7.835938v.148438l-.160156-.15625c-3.070313-3.078126-8.035156-3.132813-11.179688-.132813-3.140625 3.003906-3.308594 7.96875-.375 11.175781-4.214844.371094-7.40625 3.960938-7.289062 8.1875.121094 4.226563 3.511718 7.628906 7.738281 7.765625l-.207031.207031c-3.125 3.125-3.125 8.191407 0 11.316407 3.125 3.121093 8.191406 3.121093 11.3125-.003907l.175781-.175781c.175781 4.207031 3.585937 7.558594 7.792969 7.660157 4.210937.101562 7.777344-3.078126 8.15625-7.273438 3.210937 2.828125 8.082031 2.625 11.050781-.457031 2.96875-3.085938 2.980469-7.960938.03125-11.0625l-.199219-.199219h.152344c4.355469 0 7.90625-3.488281 7.992188-7.839844.082031-4.355468-3.332032-7.976562-7.683594-8.144531zm0 0"/><path d="m256 93h-.0625c2.902344-3.21875 2.710938-8.164062-.429688-11.148438-3.144531-2.984374-8.089843-2.921874-11.15625.140626l-.351562.347656v-.339844c-.007812-4.332031-3.460938-7.871094-7.792969-7.980469-4.328125-.109375-7.960937 3.25-8.1875 7.574219-3.195312-2.761719-7.988281-2.558594-10.9375.464844-2.953125 3.019531-3.042969 7.816406-.207031 10.949218-4.332031.144532-7.761719 3.71875-7.726562 8.054688.03125 4.335938 3.515624 7.859375 7.851562 7.9375h.339844l-.195313.199219c-2.976562 3.058593-3.027343 7.917969-.113281 11.039062 2.914062 3.121094 7.761719 3.402344 11.019531.644531.496094 4.160157 4.121094 7.238282 8.308594 7.046876 4.1875-.191407 7.519531-3.582032 7.632813-7.773438l.359374.355469c3.128907 3.09375 8.167969 3.078125 11.277344-.03125 3.109375-3.113281 3.125-8.152344.035156-11.28125l-.195312-.199219h.53125c4.417969 0 8-3.582031 8-8s-3.582031-8-8-8zm0 0"/><path d="m330.714844 93.035156c2.933594-3.207031 2.765625-8.171875-.375-11.175781-3.144532-3-8.109375-2.945313-11.179688.132813l-.160156.15625v-.148438c-.089844-4.304688-3.570312-7.769531-7.878906-7.835938-4.304688-.0625-7.890625 3.292969-8.109375 7.59375-3.144531-2.890624-8.007813-2.792968-11.039063.21875-3.03125 3.015626-3.152344 7.878907-.28125 11.039063-4.351562.167969-7.765625 3.789063-7.683594 8.144531.085938 4.351563 3.636719 7.839844 7.992188 7.839844h.148438l-.199219.199219c-3.082031 3.078125-3.132813 8.058593-.113281 11.199219 3.019531 3.140624 8 3.285156 11.195312.324218.378906 4.195313 3.945312 7.375 8.15625 7.273438 4.207031-.101563 7.617188-3.453125 7.792969-7.660156l.175781.175781c3.121094 3.125 8.1875 3.128906 11.316406.003906 3.125-3.125 3.125-8.191406 0-11.316406l-.207031-.207031c4.226563-.132813 7.617187-3.539063 7.738281-7.765626.117188-4.226562-3.074218-7.8125-7.289062-8.1875zm0 0"/><path d="m44 157h310c4.417969 0 8-3.582031 8-8v-95c0-4.417969-3.582031-8-8-8h-310c-4.417969 0-8 3.582031-8 8v95c0 4.417969 3.582031 8 8 8zm8-95h294v79h-294zm0 0"/><path d="m224 182h-50c-4.417969 0-8 3.582031-8 8v50c0 4.417969 3.582031 8 8 8h50c4.417969 0 8-3.582031 8-8v-50c0-4.417969-3.582031-8-8-8zm-8 50h-34v-34h34zm0 0"/><path d="m134 182h-50c-4.417969 0-8 3.582031-8 8v50c0 4.417969 3.582031 8 8 8h50c4.417969 0 8-3.582031 8-8v-50c0-4.417969-3.582031-8-8-8zm-8 50h-34v-34h34zm0 0"/><path d="m314 182h-50c-4.417969 0-8 3.582031-8 8v50c0 4.417969 3.582031 8 8 8h50c4.417969 0 8-3.582031 8-8v-50c0-4.417969-3.582031-8-8-8zm-8 50h-34v-34h34zm0 0"/><path d="m224 262h-50c-4.417969 0-8 3.582031-8 8v50c0 4.417969 3.582031 8 8 8h50c4.417969 0 8-3.582031 8-8v-50c0-4.417969-3.582031-8-8-8zm-8 50h-34v-34h34zm0 0"/><path d="m134 262h-50c-4.417969 0-8 3.582031-8 8v50c0 4.417969 3.582031 8 8 8h50c4.417969 0 8-3.582031 8-8v-50c0-4.417969-3.582031-8-8-8zm-8 50h-34v-34h34zm0 0"/><path d="m314 262h-50c-4.417969 0-8 3.582031-8 8v50c0 4.417969 3.582031 8 8 8h50c4.417969 0 8-3.582031 8-8v-50c0-4.417969-3.582031-8-8-8zm-8 50h-34v-34h34zm0 0"/><path d="m224 342h-50c-4.417969 0-8 3.582031-8 8v50c0 4.417969 3.582031 8 8 8h50c4.417969 0 8-3.582031 8-8v-50c0-4.417969-3.582031-8-8-8zm-8 50h-34v-34h34zm0 0"/><path d="m134 342h-50c-4.417969 0-8 3.582031-8 8v50c0 4.417969 3.582031 8 8 8h50c4.417969 0 8-3.582031 8-8v-50c0-4.417969-3.582031-8-8-8zm-8 50h-34v-34h34zm0 0"/><path d="m314 342h-50c-4.417969 0-8 3.582031-8 8v50c0 4.417969 3.582031 8 8 8h50c4.417969 0 8-3.582031 8-8v-50c0-4.417969-3.582031-8-8-8zm-8 50h-34v-34h34zm0 0"/><path d="m398 446v-438c0-4.417969-3.582031-8-8-8h-382c-4.417969 0-8 3.582031-8 8v438c0 4.417969 3.582031 8 8 8h382c4.417969 0 8-3.582031 8-8zm-16-8h-366v-422h366zm0 0"/></svg>