<svg id="photograph-location" enable-background="new 0 0 300 300" height="512" viewBox="0 0 300 300" width="512" xmlns="http://www.w3.org/2000/svg"><g><path d="m67.674 76c-7.719 0-14 6.281-14 14s6.281 14 14 14 14-6.281 14-14-6.281-14-14-14zm0 20c-3.309 0-6-2.691-6-6s2.691-6 6-6 6 2.691 6 6-2.692 6-6 6z"/><path d="m239.674 177.47c-2.501 0-4.53 2.028-4.53 4.53 0 2.501 2.028 4.529 4.53 4.529s4.53-2.028 4.53-4.529c-.001-2.502-2.029-4.53-4.53-4.53z"/><path d="m247.674 149.47c-2.501 0-4.53 2.028-4.53 4.53 0 2.501 2.028 4.529 4.53 4.529s4.53-2.028 4.53-4.529c-.001-2.502-2.029-4.53-4.53-4.53z"/><path d="m153.674 144c3.387 0 6.631-1.441 8.902-3.953 1.48-1.639 1.352-4.168-.287-5.65-1.641-1.48-4.166-1.35-5.65.287-1.414 1.574-4.016 1.721-5.607.32-1.66-1.457-4.184-1.295-5.645.367-1.457 1.66-1.293 4.188.367 5.645 2.191 1.923 5.004 2.984 7.92 2.984z"/><path d="m51.85 159.824c-1.562-1.562-4.094-1.562-5.656 0l-4.52 4.52-4.52-4.52c-1.562-1.562-4.094-1.562-5.656 0s-1.562 4.094 0 5.656l4.52 4.52-4.52 4.52c-1.562 1.562-1.562 4.094 0 5.656.781.781 1.805 1.172 2.828 1.172s2.047-.391 2.828-1.172l4.52-4.52 4.52 4.52c.781.781 1.805 1.172 2.828 1.172s2.047-.391 2.828-1.172c1.562-1.562 1.562-4.094 0-5.656l-4.52-4.52 4.52-4.52c1.562-1.562 1.562-4.093 0-5.656z"/><circle cx="169.674" cy="116" r="4"/><circle cx="137.674" cy="116" r="4"/><path d="m157.674 264.678c9.195 0 16.678-7.482 16.678-16.678s-7.482-16.678-16.678-16.678-16.678 7.482-16.678 16.678 7.483 16.678 16.678 16.678zm0-25.356c4.785 0 8.678 3.893 8.678 8.678s-3.893 8.678-8.678 8.678-8.678-3.893-8.678-8.678 3.893-8.678 8.678-8.678z"/><path d="m230.926 114.906c.771.729 1.76 1.094 2.748 1.094s1.977-.365 2.748-1.094c3.404-3.219 33.252-32.027 33.252-52.285 0-21.295-16.15-38.621-36-38.621-14.919 0-27.744 9.79-33.197 23.694-10.998-11.851-25.963-18.921-41.984-19.631-20.227-.891-39.621 8.123-51.951 24.121-4.771 6.191-8.262 13.719-10.375 22.373-1.655 6.763-2.493 11.959-2.493 15.443v14.803c-1.36 2.268-2.09 4.918-1.992 7.707.08 2.221.797 4.391 1.992 6.345v71.411c0 .055.029.101.031.155-9.955 7.754-16.031 19.739-16.031 32.677v32.902c0 2.209 1.791 4 4 4h32v12c0 2.209 1.791 4 4 4h80c2.209 0 4-1.791 4-4v-12h28c2.209 0 4-1.791 4-4v-32.902c0-12.924-6.064-24.897-16-32.652v-71.515c.98-1.607 1.668-3.356 1.893-5.173.394-3.206-.33-6.316-1.893-8.931v-3.992c6.247 7.33 11.885 12.779 13.252 14.071zm-22.016 70.264-32.893-14.547c.009-1.65.024-4.341.043-8.571 14.095-7.559 24.799-20.521 29.265-36.06 1.471.059 2.921-.19 4.348-.668v60.217c-.256-.119-.502-.256-.763-.371zm-35.285 26.83 2.051 8h-36.005l2.052-8zm-73.947-99.775c-.084-2.344 1.172-4.479 3.229-5.547 3.605-.707 19.02-4.775 23.344-22.996 4.465 4.887 11.068 9.711 19.432 14.084 19.281 10.076 46.945 17.098 63.896 9.68 1.506 1.291 2.301 3.271 2.047 5.336-.199 1.625-1.324 3.221-3.008 4.27-1.682 1.047-3.109 1.213-4.924.572-1.08-.381-2.275-.283-3.277.277-1.002.559-1.717 1.521-1.961 2.643-3.898 17.883-17.117 32.492-34.496 38.125l-1.779.576c-4.967 1.607-10.045 1.674-14.68.182-17.689-5.695-30.998-20.561-34.736-38.791-.23-1.123-.93-2.094-1.924-2.664-.613-.354-1.301-.533-1.994-.533-.43 0-.859.068-1.275.209-1.541.523-2.971.602-4.918-.715-1.775-1.201-2.916-3.005-2.976-4.708zm43.674 60.841c-.01-.389-.027-3.154-.044-6.71.59.211 1.143.492 1.741.685 3.027.975 6.182 1.461 9.377 1.461 3.393 0 6.834-.549 10.219-1.646l1.779-.576c.557-.18 1.072-.444 1.621-.64-.018 3.876-.034 6.957-.039 7.259-.137 1.693.814 3.289 2.369 3.977l9.15 4.046-21.818 21.438-22.701-22.846 5.967-2.639c1.484-.656 2.423-2.187 2.379-3.809zm90.322-141.066c15.439 0 28 13.736 28 30.621 0 12.91-18.213 33.924-28 43.781-9.787-9.857-28-30.871-28-43.781 0-16.885 12.56-30.621 28-30.621zm-129.738 44.455c1.85-7.562 4.857-14.086 8.941-19.389 10.742-13.936 27.682-21.756 45.26-21.012 15.662.696 30.163 8.433 39.924 21.217-.228 1.753-.387 3.53-.387 5.35 0 8.663 5.469 18.881 11.983 28.001l.009 8.274c-.615.02-1.225.178-1.779.481-13.332 7.238-40.09.922-58.498-8.701-12.746-6.664-21.064-14.455-21.711-20.334-.238-2.158-2.482-3.717-4.705-3.514-2.141.186-3.75 2.029-3.648 4.176 1.112 23.168-14.688 27.224-17.65 27.778v-8.782c-.001-2.805.782-7.488 2.261-13.545zm-2.262 48.883c1.36.477 2.74.72 4.152.664 4.344 15.878 15.128 29.099 29.465 36.775.017 3.831.029 6.282.039 7.846l-32.893 14.547c-.26.115-.507.252-.764.372v-60.204zm-16 126.662v-28.902c0-13.223 7.85-25.238 19.998-30.611l21.497-9.507 20.889 21.02h-9.439c-1.826 0-3.42 1.236-3.875 3.006l-3.333 12.994h-13.737c-2.209 0-4 1.791-4 4v28zm108 16h-72v-40h72zm32-44.902v28.902h-24v-28c0-2.209-1.791-4-4-4h-13.738l-3.332-12.994c-.453-1.77-2.049-3.006-3.875-3.006h-9.277l19.945-19.598 18.28 8.084c12.147 5.373 19.997 17.389 19.997 30.612z"/><path d="m253.674 60c0-11.027-8.973-20-20-20s-20 8.973-20 20 8.973 20 20 20 20-8.973 20-20zm-32 0c0-6.617 5.383-12 12-12s12 5.383 12 12-5.383 12-12 12-12-5.383-12-12z"/></g></svg>