<svg height="474pt" viewBox="-42 0 474 474.00222" width="474pt" xmlns="http://www.w3.org/2000/svg"><path d="m348.699219 154.652344 25.628906-9.046875c6.195313-2.191407 11.179687-6.902344 13.710937-12.972657 2.523438-6.148437 2.363282-13.070312-.441406-19.097656-3.832031-8.15625-11.980468-13.410156-20.992187-13.535156h-76.027344l-13.402344-69.585938c-3.734375-17.800781-19.480469-30.515624-37.671875-30.414062h-88.320312c-18.21875-.0898438-33.980469 12.667969-37.6875 30.507812l-13.382813 69.492188h-76.851562c-11.367188.101562-21.027344 8.332031-22.929688 19.535156-1.902343 11.207032 4.496094 22.164063 15.191407 26.011719l25.640624 9.078125c15.039063 5.3125 30.769532 9.835938 45.769532 13.535156v7c-13 3.441406-22.105469 14.820313-22.105469 27.902344 0 13.390625 9.960937 25.003906 22.964844 28.132812 3.03125 23.804688 13.746093 45.972657 30.515625 63.136719 4.539062 4.613281 9.429687 8.871094 14.625 12.734375v21.933594h-40.773438c-42.101562 0-76.226562 34.6875-76.226562 76.789062v60.421876c-.019532 2.085937.804687 4.09375 2.289062 5.5625 1.484375 1.464843 3.5 2.269531 5.585938 2.226562h342.246094c2.089843.042969 4.105468-.761719 5.585937-2.226562 1.484375-1.46875 2.3125-3.476563 2.292969-5.5625v-60.421876c0-42.101562-34.128906-76.789062-76.226563-76.789062h-41.773437v-21.746094c5.59375-3.675781 10.71875-8.015625 15.265625-12.929687 16.847656-17.148438 27.652343-39.316407 30.777343-63.152344 12.757813-3.148437 21.800782-14.488281 22.023438-27.628906.222656-13.136719-8.425781-24.78125-21.066406-28.359375v-7.023438c15-3.703125 30.734375-8.195312 45.765625-13.507812zm-261.765625 58.949218c-3.761719-2.183593-6.074219-6.203124-6.074219-10.550781 0-4.347656 2.3125-8.367187 6.074219-10.550781zm42.261718-179.75c2.167969-10.410156 11.355469-17.867187 21.988282-17.851562h88.320312c10.605469-.027344 19.777344 7.382812 21.972656 17.757812l16.332032 85.144532-26.25 4.492187c-37.46875 6.460938-75.769532 6.425781-113.226563-.101562l-25.449219-4.375zm56.738282 424.148438h-154v-52.210938c0-33.277343 26.945312-60.789062 60.226562-60.789062h46.679688l47.09375 30.925781zm-37-124.890625v-16.519531c28.734375 13.875 62.222656 13.921875 91 .128906v16.277344l-46.6875 29.109375zm148.773437 11.890625c33.277344 0 60.226563 27.511719 60.226563 60.789062v52.210938h-156v-81.960938l48.730468-31.039062zm-10.773437-127.992188c.015625 24.738282-9.683594 48.496094-27.007813 66.15625-17.5 17.96875-40.574219 27.867188-65.011719 27.867188-24.433593 0-47.480468-9.898438-64.980468-27.867188-17.324219-17.660156-27.019532-41.417968-27-66.15625v-45.320312c30.277344 6.160156 61.101562 9.257812 92 9.242188 30.898437.011718 61.71875-3.085938 92-9.246094zm21.097656-13.953124c-.042969 4.023437-1.921875 7.808593-5.097656 10.28125v-20.5625c3.175781 2.472656 5.054687 6.257812 5.097656 10.28125zm-261.566406-63.5-25.613282-9.03125c-1.933593-.675782-3.488281-2.144532-4.265624-4.039063-.796876-1.96875-.746094-4.179687.140624-6.109375 1.175782-2.578125 3.703126-4.269531 6.535157-4.375h73.785156l-1.414063 7.601562c-.402343 2.144532.058594 4.363282 1.277344 6.171876 1.214844 1.78125 3.09375 3.003906 5.210938 3.390624l33.472656 5.84375c19.683594 3.429688 39.625 5.15625 59.601562 5.164063 19.800782 0 39.566407-1.691406 59.082032-5.050781l34.28125-5.902344c2.117187-.363281 4-1.5625 5.222656-3.328125 1.222656-1.855469 1.683594-4.109375 1.277344-6.296875l-1.410156-7.597656h72.960937c2.449219.101562 4.699219 1.386718 6.027344 3.449218s1.566406 4.640626.644531 6.914063c-.773438 1.914063-2.324219 3.40625-4.265625 4.101563l-25.609375 9.074218c-96.089844 33.832032-200.851562 33.835938-296.945312.015625zm0 0"/><path d="m167.179688 189.511719c-4.417969 0-8 3.582031-8 8 0 5.015625-4.0625 9.078125-9.078126 9.078125-5.011718 0-9.078124-4.0625-9.078124-9.078125 0-4.417969-3.582032-8-8-8-4.417969 0-8 3.582031-8 8 0 13.851562 11.230468 25.078125 25.078124 25.078125 13.851563 0 25.078126-11.226563 25.078126-25.078125 0-4.417969-3.582032-8-8-8zm0 0"/><path d="m235.492188 222.589844c13.84375-.015625 25.0625-11.234375 25.078124-25.078125 0-4.417969-3.582031-8-8-8-4.417968 0-8 3.582031-8 8-.050781 4.980469-4.101562 8.984375-9.078124 8.984375-4.976563 0-9.027344-4.003906-9.078126-8.984375 0-4.417969-3.582031-8-8-8-4.417968 0-8 3.582031-8 8 .015626 13.847656 11.234376 25.0625 25.078126 25.078125zm0 0"/><path d="m168.597656 86.011719-3.375 19.6875c-.515625 3.003906.71875 6.035156 3.179688 7.824219 2.464844 1.789062 5.730468 2.027343 8.425781.609374l17.679687-9.292968 17.675782 9.292968c2.695312 1.417969 5.960937 1.179688 8.425781-.609374 2.460937-1.789063 3.695313-4.820313 3.183594-7.824219l-3.378907-19.683594 14.300782-13.941406c2.179687-2.125 2.964844-5.304688 2.027344-8.199219-.941407-2.898438-3.445313-5.007812-6.460938-5.445312l-19.765625-2.871094-8.835937-17.910156c-1.347657-2.730469-4.128907-4.457032-7.175782-4.457032-3.042968 0-5.824218 1.726563-7.171875 4.457032l-8.839843 17.910156-19.757813 2.867187c-3.015625.4375-5.519531 2.546875-6.460937 5.445313-.941407 2.894531-.15625 6.074218 2.023437 8.199218zm16.359375-15.230469c2.605469-.378906 4.859375-2.015625 6.023438-4.375l3.527343-7.144531 3.527344 7.144531c1.164063 2.359375 3.414063 3.996094 6.019532 4.375l7.886718 1.144531-5.707031 5.5625c-1.886719 1.839844-2.746094 4.488281-2.300781 7.082031l1.347656 7.851563-7.054688-3.707031c-2.332031-1.222656-5.113281-1.222656-7.445312 0l-7.054688 3.707031 1.347657-7.851563c.445312-2.59375-.414063-5.242187-2.296875-7.082031l-5.707032-5.5625zm0 0"/></svg>