<svg height="415pt" viewBox="-14 0 415 415.50858" width="415pt" xmlns="http://www.w3.org/2000/svg"><path d="m361.449219 2.34375c-3.121094-3.125-8.1875-3.125-11.3125 0l-69.4375 69.441406c-14.964844 14.964844-43.632813 42.710938-58.601563 55.941406l-113.53125 102.566407-8.746094-8.746094c-2.019531-2.042969-4.972656-2.847656-7.746093-2.109375-2.773438.738281-4.941407 2.902344-5.679688 5.675781-.734375 2.773438.070313 5.730469 2.109375 7.746094l15.558594 15.558594-16.613281 16.609375-42.421875 42.425781-42.429688 42.429687c-3.125 3.121094-3.125 8.1875 0 11.3125l51.96875 51.96875c3.125 3.125 8.191406 3.125 11.3125 0l63.640625-63.636718 37.820313-37.824219 15.5625 15.550781c3.128906 3.09375 8.167968 3.078125 11.277344-.035156 3.113281-3.109375 3.128906-8.148438.035156-11.277344l-8.484375-8.484375 175.71875-175.71875c35.675781-35.753906 35.675781-93.640625 0-129.394531zm-301.226563 393.851562-40.65625-40.65625 9.902344-9.902343 40.65625 40.65625zm21.214844-21.214843-40.65625-40.65625 9.898438-9.898438 40.65625 40.65625zm21.214844-21.210938-40.65625-40.65625 9.898437-9.902343 40.65625 40.65625zm21.210937-21.214843-40.65625-40.65625 9.902344-9.898438 40.652344 40.652344zm21.214844-21.214844-40.65625-40.65625 10.953125-10.953125 40.65625 40.65625zm13.433594-31.820313-38.238281-38.238281 112.484374-101.628906c15.144532-13.386719 44.140626-41.449219 59.25-56.558594l52.007813-52.007812c10.449219 27.78125 3.71875 59.105468-17.214844 80.144531zm16.261719 16.265625-4.949219-4.949218 168.289062-168.289063c26.078125-26.207031 33.902344-65.496094 19.855469-99.691406 21.683594 30.039062 18.363281 71.375-7.835938 97.570312zm0 0"/></svg>