<?xml version="1.0"?>
<svg xmlns="http://www.w3.org/2000/svg" id="Outline" viewBox="0 0 512 512" width="512" height="512"><path d="M256,150a38,38,0,1,0-38-38A38.043,38.043,0,0,0,256,150Zm0-60a22,22,0,1,1-22,22A22.025,22.025,0,0,1,256,90Z"/><path d="M415.675,205.743A8,8,0,0,0,408,200H301.734l8.7-18.858a88,88,0,1,0-108.876,0l8.7,18.858H104a8,8,0,0,0-7.675,5.743l-80,272A8,8,0,0,0,24,488H488a8,8,0,0,0,7.675-10.257ZM184,112a72,72,0,1,1,115.194,57.6,8.008,8.008,0,0,0-2.459,3.044L256,260.909l-40.735-88.26a8.017,8.017,0,0,0-2.459-3.044A71.462,71.462,0,0,1,184,112Zm33.651,104,31.085,67.353a8,8,0,0,0,14.528,0L294.349,216h57.463L257.645,339.141l.277.212-90.894-9.09,53.41-35.607a8,8,0,0,0,2.99-9.627L195.816,216ZM34.692,472l75.294-256h68.6l27.578,68.944-66.6,44.4A8,8,0,0,0,143.2,343.96l143.879,14.389L180.534,472Zm167.774,0,66.881-71.339L340.686,472Zm160.848,0L280.3,388.981l29.54-31.509a8,8,0,0,0-5.04-13.432l-28.571-2.857L371.953,216h30.061l75.3,256Z"/></svg>
