<svg height="471pt" viewBox="-24 0 471 471.44" width="471pt" xmlns="http://www.w3.org/2000/svg"><path d="m141.070312 471.441406c77.570313 0 140.511719-63.113281 140.511719-140.691406.015625-37.089844-14.671875-72.675781-40.851562-98.953125v-40.800781c0-15.441406-12.21875-28.28125-27.660157-28.28125h-64.339843v-74.714844c0-39.765625 32.234375-72 72-72s72 32.234375 72 72v85c0 26.46875 21.875 47.71875 48.339843 47.71875h10c4.417969 0 8-3.582031 8-8s-3.582031-8-8-8h-10c-17.640624 0-32.339843-14.074219-32.339843-31.71875v-85c0-48.601562-39.398438-88-88-88-48.601563 0-88 39.398438-88 88v74.71875h-63.660157c-15.578124.121094-28.183593 12.703125-28.339843 28.28125v40.800781c-26.082031 26.3125-40.652344 61.902344-40.507813 98.949219 0 77.578125 63.277344 140.691406 140.847656 140.691406zm-84.339843-280.441406c.144531-6.746094 5.59375-12.167969 12.339843-12.28125h144c6.617188 0 11.660157 5.664062 11.660157 12.28125v26.898438c-24.195313-18.222657-53.707031-28-84-27.828126-30.648438 0-59 9.613282-84 27.828126zm7.128906 41.847656c37.507813-29.585937 88.625-35.136718 131.613281-14.289062 42.984375 20.84375 70.28125 64.417968 70.277344 112.1875 0 58.253906-40.339844 108.742187-97.15625 121.601562s-114.964844-15.335937-140.050781-67.914062c-25.085938-52.574219-10.421875-115.511719 35.316406-151.585938zm0 0"/><path d="m415.070312 204.71875h-34c-4.417968 0-8 3.582031-8 8s3.582032 8 8 8h34c4.417969 0 8-3.582031 8-8s-3.582031-8-8-8zm0 0"/><path d="m371.074219 181.003906c1.167969-.003906 2.324219-.257812 3.378906-.753906l30-14c4.003906-1.871094 5.734375-6.628906 3.867187-10.632812-1.867187-4.003907-6.628906-5.738282-10.632812-3.867188l-30 14c-3.402344 1.582031-5.246094 5.320312-4.429688 8.984375.8125 3.664063 4.066407 6.273437 7.816407 6.265625zm0 0"/><path d="m367.6875 260.25 30 14c4.003906 1.867188 8.765625.136719 10.632812-3.867188 1.867188-4.003906.136719-8.765624-3.867187-10.632812l-30-14c-4.003906-1.871094-8.765625-.136719-10.632813 3.867188-1.867187 4.003906-.136718 8.761718 3.867188 10.632812zm0 0"/><path d="m61.808594 314.289062c7.40625-24.296874 22.082031-45.742187 42.050781-61.441406 2.277344-1.761718 3.4375-4.609375 3.03125-7.460937-.40625-2.847657-2.3125-5.261719-4.992187-6.316407-2.679688-1.054687-5.71875-.585937-7.957032 1.222657-22.527344 17.714843-39.082031 41.910156-47.4375 69.328125-.894531 2.75-.234375 5.769531 1.726563 7.894531 1.960937 2.128906 4.917969 3.03125 7.730469 2.359375 2.8125-.667969 5.046874-2.800781 5.84375-5.582031zm0 0"/></svg>