<svg height="496pt" viewBox="-48 0 496 496" width="496pt" xmlns="http://www.w3.org/2000/svg"><path d="m392 176h-8v-168c0-4.425781-3.585938-8-8-8h-208c-22.054688 0-40 17.945312-40 40v24h-72c-22.054688 0-40 17.945312-40 40v72h-8c-4.414062 0-8 3.574219-8 8v288c0 4.425781 3.585938 8 8 8h169.367188c2.136718 0 4.152343.832031 5.664062 2.34375l11.3125 11.3125c1.558594 1.558594 3.609375 2.34375 5.65625 2.34375s4.097656-.785156 5.65625-2.34375l11.3125-11.3125c1.511719-1.511719 3.527344-2.34375 5.664062-2.34375h169.367188c4.414062 0 8-3.574219 8-8v-288c0-4.425781-3.585938-8-8-8zm-24 0h-96v-104c0-4.425781-3.585938-8-8-8h-24v-8c0-4.425781-3.585938-8-8-8h-40v-32h176zm-162.34375 7.03125-5.65625 5.65625-5.65625-5.65625c-4.527344-4.535156-10.558594-7.03125-16.976562-7.03125h-97.367188v-96h80v56c0 2.777344 1.441406 5.34375 3.792969 6.808594 2.359375 1.464844 5.3125 1.582031 7.78125.351562l28.425781-14.214844 28.425781 14.207032c1.125.566406 2.351563.847656 3.574219.847656 1.464844 0 2.921875-.398438 4.207031-1.191406 2.351563-1.464844 3.792969-4.03125 3.792969-6.808594v-56h16v96h-33.367188c-6.417968 0-12.449218 2.496094-16.976562 7.03125zm18.34375-119.03125v59.054688l-20.425781-10.207032c-1.117188-.566406-2.351563-.847656-3.574219-.847656s-2.457031.28125-3.574219.839844l-20.425781 10.214844v-59.054688zm-80-24c0-13.230469 10.769531-24 24-24h8v32h-8c-4.414062 0-8 3.574219-8 8v8h-16zm-112 64c0-13.230469 10.769531-24 24-24h8v96h-32zm145.367188 360h-161.367188v-272h161.367188c2.136718 0 4.152343.832031 5.664062 2.34375l8.96875 8.96875v265.792969c-4.183594-3.25-9.246094-5.105469-14.632812-5.105469zm206.632812 0h-161.367188c-5.386718 0-10.441406 1.855469-14.632812 5.105469v-265.792969l8.96875-8.96875c1.511719-1.511719 3.527344-2.34375 5.664062-2.34375h161.367188zm0 0"/><path d="m168 208h-128c-4.414062 0-8 3.574219-8 8v32c0 4.425781 3.585938 8 8 8h128c4.414062 0 8-3.574219 8-8v-32c0-4.425781-3.585938-8-8-8zm-8 32h-112v-16h112zm0 0"/><path d="m32 304h80v16h-80zm0 0"/><path d="m32 336h80v16h-80zm0 0"/><path d="m32 368h144v16h-144zm0 0"/><path d="m32 400h144v16h-144zm0 0"/><path d="m224 208h80v16h-80zm0 0"/><path d="m224 240h80v16h-80zm0 0"/><path d="m224 272h144v16h-144zm0 0"/><path d="m224 304h144v16h-144zm0 0"/><path d="m232 448h128c4.414062 0 8-3.574219 8-8v-32c0-4.425781-3.585938-8-8-8h-128c-4.414062 0-8 3.574219-8 8v32c0 4.425781 3.585938 8 8 8zm8-32h112v16h-112zm0 0"/></svg>