<svg width="56" height="54" viewBox="0 0 56 54" fill="none" xmlns="http://www.w3.org/2000/svg">
<path d="M5.86599 10.46C15.724 -1.012 34.672 -2.32 46.438 6.938C51.754 11.006 55.426 17.384 55.564 24.152C55.81 30.452 52.972 36.638 48.424 40.922C41.308 47.702 30.67 50.162 21.172 48.008C17.518 52.046 12.01 54.05 6.60999 53.612C8.73399 50.63 10.78 47.378 11.17 43.652C6.13599 40.286 2.13999 35.132 0.861988 29.144C-0.572012 22.58 1.44999 15.482 5.86599 10.46ZM8.09799 11.588C3.68199 16.31 1.67799 23.294 3.46599 29.576C4.89399 35.066 8.93799 39.464 13.624 42.458C13.66 45.5 12.508 48.35 11.218 51.044C14.824 50.3 18.016 48.206 20.284 45.332C30.004 48.038 41.386 45.422 48.148 37.718C51.982 33.428 53.932 27.428 52.924 21.722C51.928 15.626 47.818 10.352 42.586 7.214C31.93 0.643999 16.63 2.21 8.09799 11.588Z" fill="#556080"/>
<path d="M22.438 14.426C26.266 10.46 34.696 12.218 35.248 18.182C36.34 23.756 28.3 25.322 28.924 30.8C27.928 30.794 26.926 30.794 25.93 30.8C26.122 29.084 26.146 27.218 27.226 25.772C28.51 23.876 30.538 22.592 31.636 20.564C32.764 18.512 31.66 15.32 29.182 14.96C27.496 14.66 25.474 14.894 24.328 16.298C23.488 17.39 23.44 18.83 23.158 20.12C22.156 20.114 21.16 20.114 20.158 20.114C20.38 18.068 20.878 15.896 22.438 14.426Z" fill="#556080"/>
<path d="M25.96 33.56C27.04 33.566 28.12 33.56 29.2 33.56C29.194 34.718 29.194 35.882 29.2 37.04C28.12 37.034 27.04 37.034 25.96 37.04C25.96 35.876 25.96 34.718 25.96 33.56Z" fill="#556080"/>
</svg>
