<svg height="502pt" viewBox="-80 0 502 502.80765" width="502pt" xmlns="http://www.w3.org/2000/svg"><path d="m213.027344 115.015625-8.835938 20.574219c-1.0625 2.472656-.8125 5.3125.667969 7.558594 1.480469 2.246093 3.988281 3.597656 6.679687 3.597656.464844 0 .925782-.039063 1.382813-.117188l35.023437-6.144531c7.371094 2.519531 15.109376 3.800781 22.898438 3.800781 33.429688.097656 62.546875-22.785156 70.355469-55.289062 7.808593-32.507813-7.734375-66.117188-37.5625-81.21875-29.824219-15.097656-66.117188-7.730469-87.691407 17.804687-21.574218 25.535157-22.78125 62.546875-2.914062 89.433594zm57.988281-98.660156c30.824219.171875 55.707031 25.230469 55.65625 56.050781-.046875 30.824219-25.007813 55.804688-55.832031 55.878906-6.59375.007813-13.132813-1.183594-19.296875-3.515625-1.355469-.519531-2.828125-.664062-4.253907-.414062l-22.558593 3.957031 4.894531-11.394531c1.210938-2.820313.703125-6.082031-1.304688-8.398438-4.039062-4.691406-7.25-10.03125-9.5-15.792969-6.75-17.242187-4.539062-36.703124 5.910157-51.988281 10.445312-15.285156 27.777343-24.414062 46.289062-24.382812zm0 0"/><path d="m239.410156 66.800781h40c4.417969 0 8-3.582031 8-8s-3.582031-8-8-8h-40c-4.417968 0-8 3.582031-8 8s3.582032 8 8 8zm0 0"/><path d="m239.410156 92.800781h67c4.417969 0 8-3.582031 8-8s-3.582031-8-8-8h-67c-4.417968 0-8 3.582031-8 8s3.582032 8 8 8zm0 0"/><path d="m131.429688 182.523438c25.933593 0 46.953124-21.023438 46.953124-46.953126 0-25.933593-21.019531-46.957031-46.953124-46.957031-25.933594 0-46.953126 21.023438-46.953126 46.957031.027344 25.917969 21.035157 46.921876 46.953126 46.953126zm0-77.90625c17.097656 0 30.953124 13.855468 30.953124 30.953124 0 17.09375-13.855468 30.953126-30.953124 30.953126-17.09375 0-30.953126-13.859376-30.953126-30.953126.019532-17.089843 13.867188-30.933593 30.953126-30.953124zm0 0"/><path d="m7.929688 322.800781h22.480468v172.445313c-.089844 2.023437.671875 3.996094 2.101563 5.429687 1.429687 1.4375 3.394531 2.207031 5.417969 2.125h187c4.417968 0 8.480468-3.136719 8.480468-7.554687v-172.445313h21.519532c4.417968 0 8.480468-3.136719 8.480468-7.554687v-50c-.1875-4.597656-3.882812-8.277344-8.480468-8.445313h-42.519532v-24.4375c0-23.730469-19.574218-42.5625-43.304687-42.5625-2.511719-.09375-4.910157 1.03125-6.445313 3.015625-7.375 9.824219-18.9375 15.609375-31.21875 15.613282-12.28125.007812-23.851562-5.765626-31.230468-15.582032-1.535157-1.996094-3.9375-3.128906-6.453126-3.046875-23.734374 0-43.347656 18.832031-43.347656 42.5625v24.4375h-42.480468c-4.417969 0-7.519532 4.027344-7.519532 8.445313v50c-.089844 2.023437.671875 3.996094 2.101563 5.429687 1.429687 1.4375 3.394531 2.207031 5.417969 2.125zm209.480468 164h-171v-164h171zm-151-254.4375c.089844-13.550781 10.125-24.976562 23.550782-26.808593 18.753906 21.496093 50.84375 25.054687 73.847656 8.1875 3.308594-2.390626 6.339844-5.136719 9.046875-8.1875 13.429687 1.828124 23.46875 13.257812 23.554687 26.808593v24.4375h-130zm-50 40.4375h231v34h-231zm0 0"/></svg>