<svg height="464pt" viewBox="-31 0 464 464.00116" width="464pt" xmlns="http://www.w3.org/2000/svg"><path d="m393.707031 386h-8.828125c2.382813-9.457031 3.679688-19.15625 3.867188-28.910156.0625-63.855469.117187-148.558594.007812-189.511719-.066406-14.128906-11.53125-25.558594-25.664062-25.578125h-6.53125c-2.898438-.046875-5.785156.363281-8.558594 1.214844v-119.851563c0-12.945312-10.785156-23.363281-24.199219-23.363281h-299.183593c-13.410157 0-24.617188 10.421875-24.617188 23.367188v361.113281c0 .023437.148438-.175781.148438-.15625 0 20.34375 17.398437 36.675781 38.609374 36.675781h138.242188v35.113281c.015625 2.113281.875 4.136719 2.382812 5.617188 1.511719 1.480469 3.550782 2.296875 5.664063 2.269531h208.660156c4.453125.074219 8.144531-3.433594 8.292969-7.886719v-62.464843c0-4.417969-3.875-7.648438-8.292969-7.648438zm-54.71875-127.824219c4.117188.039063 7.578125-3.078125 7.96875-7.175781.007813 0 .011719-.355469.015625-.445312 0-.015626 0-.121094 0-.136719 0-.109375.007813-.269531.007813-.378907 0-.464843-.015625-51.601562-.09375-82.519531-.015625-2.546875 1.003906-4.988281 2.824219-6.765625 1.820312-1.800781 4.289062-2.792968 6.847656-2.753906h6.535156c2.546875-.019531 4.996094.976562 6.808594 2.765625s2.839844 4.222656 2.855468 6.769531c.109376 40.925782.054688 125.746094-.011718 189.589844-.191406 9.785156-1.71875 19.5-4.535156 28.875h-157.972657l-55.308593-107.457031 1.070312-.914063c.105469-.082031.207031-.210937.3125-.300781 9.789062-8.351563 24.460938-7.332031 33.003906 2.292969l16.953125 19.253906c2.203125 2.503906 5.722657 3.378906 8.839844 2.199219 3.113281-1.179688 5.171875-4.167969 5.167969-7.5-.03125-45.308594-.042969-109.609375.039062-142.0625.015625-2.542969 1.046875-4.976563 2.859375-6.761719 1.816407-1.785156 4.265625-2.773438 6.8125-2.75h6.503907c2.550781-.027344 5.003906.964844 6.820312 2.757812 1.816406 1.789063 2.84375 4.226563 2.855469 6.777344.007812 8.375.039062 96.890625.019531 100.535156.023438 4.226563 3.328125 7.703126 7.546875 7.945313 4.21875.238281 7.894531-2.84375 8.398437-7.035156.042969-.324219.058594-.652344.035157-.980469h.019531s0-.515625 0-1.074219c.226562-14.484375.15625-99.949219 0-117.230469 0-1.136718 0-2.292968 0-3.5-.003906-2.496093 1.019531-4.886718 2.835938-6.605468 1.835937-1.753906 4.308593-2.691406 6.847656-2.589844h6.976562c5.324219 0 10.152344 3.851562 10.152344 9.183594v.066406c-1 46.855469-.054688 107.589844-.007812 119.289062l.007812.453126v.15625c-.027344 2.074218.78125 4.074218 2.242188 5.546874 1.460937 1.476563 3.449218 2.300782 5.523437 2.296876 2.109375-.003907 4.132813-.851563 5.613281-2.355469 1.480469-1.5 2.296875-3.535157 2.273438-5.644531l-.058594-.527344c.035156-14.367188.113281-64.144532.042969-101.476563-.015625-2.613281.992187-5.125 2.8125-7 1.789062-1.863281 4.246093-2.941406 6.828125-2.988281h6.949218c5.351563.082031 9.652344 4.4375 9.667969 9.789062l.007813 1.871094c-.277344 35.238282 0 85.269532.082031 99.753906l.015625.578126v.015624c-.015625 4.445313 3.542969 8.082032 7.988281 8.167969zm-322.988281-234.808593c0-4.125 4.027344-7.367188 8.617188-7.367188h299.183593c4.585938 0 8.199219 3.242188 8.199219 7.363281v101.382813c-3.328125-1.746094-7.015625-2.683594-10.773438-2.746094h-6.949218c-3.597656.125-7.132813 1-10.378906 2.566406-2.742188-11.578125-13.152344-19.707031-25.050782-19.566406h-6.976562c-13.210938-.214844-24.351563 9.789062-25.554688 22.945312-3.117187-1.289062-6.453125-1.953124-9.824218-1.945312h-6.503907c-14.121093-.039062-25.605469 11.359375-25.671875 25.476562-.070312 27.664063-.074218 78.472657-.054687 120.957032l-2.933594-3.371094c-14.277344-16.117188-38.804687-17.910156-55.277344-4.042969l-6.179687 4.78125c-3.054688 2.429688-3.976563 6.675781-2.210938 10.160157l34.988282 68.039062h-133.890626c-8.066406-.042969-15.972656 2.257812-22.757812 6.625zm169.046875 362.632812c-2.089844-.082031-4.121094.6875-5.636719 2.125-1.515625 1.441406-2.382812 3.433594-2.410156 5.523438v11.351562h-138.242188c-12.386718 0-22.464843-9-22.464843-20h-.292969v-.515625c0-11.492187 10.394531-20.484375 22.757812-20.484375h142.144532l11.339844 22zm200.953125 62h-193v-46h193zm0 0"/></svg>