<svg width="48" height="48" viewBox="0 0 48 48" fill="none" xmlns="http://www.w3.org/2000/svg">
<g clip-path="url(#clip0)">
<path d="M20.0106 3.20947C10.7357 3.20947 3.21698 10.7282 3.21698 20.0031C3.21698 29.278 10.7357 36.7967 20.0106 36.7967C29.2855 36.7967 36.8042 29.278 36.8042 20.0031C36.7942 10.7324 29.2813 3.21957 20.0106 3.20947ZM20.0106 4.80887C24.9503 4.81276 29.5793 7.22025 32.4187 11.2624L30.4195 13.2617C29.9329 12.9673 29.376 12.8097 28.8073 12.8058C27.0406 12.8058 25.6085 14.238 25.6085 16.0046C25.6113 16.5739 25.7679 17.1318 26.0619 17.6192L20.8255 22.8556C19.834 22.2511 18.5879 22.2511 17.5963 22.8556L13.9593 19.2186C14.2533 18.7312 14.4099 18.1733 14.4127 17.604C14.4149 15.8409 12.9875 14.4098 11.2243 14.4076C9.7662 14.4058 8.49218 15.3922 8.12872 16.8043H5.16184C6.67597 9.81227 12.8565 4.81936 20.0106 4.80887ZM30.4067 16.0046C30.4067 16.888 29.6906 17.604 28.8073 17.604C27.9239 17.604 27.2079 16.888 27.2079 16.0046C27.2079 15.1213 27.9239 14.4052 28.8073 14.4052C29.6906 14.4052 30.4067 15.1213 30.4067 16.0046ZM20.8103 25.601C20.8103 26.4843 20.0943 27.2004 19.2109 27.2004C18.3276 27.2004 17.6115 26.4843 17.6115 25.601C17.6115 24.7176 18.3276 24.0016 19.2109 24.0016C20.0943 24.0016 20.8103 24.7176 20.8103 25.601ZM12.8133 17.604C12.8133 18.4874 12.0973 19.2034 11.2139 19.2034C10.3306 19.2034 9.61455 18.4874 9.61455 17.604C9.61455 16.7206 10.3306 16.0046 11.2139 16.0046C12.0973 16.0046 12.8133 16.7206 12.8133 17.604ZM27.3932 33.2887C25.1349 34.5426 22.5938 35.1995 20.0106 35.1972C11.6248 35.2029 4.82207 28.4096 4.81637 20.0238C4.81597 19.4826 4.84456 18.9417 4.90194 18.4036H8.12872C8.49228 19.8116 9.7598 20.7972 11.2139 20.8027C11.7832 20.7999 12.3411 20.6433 12.8285 20.3493L16.4656 23.9863C16.1716 24.4737 16.0149 25.0316 16.0121 25.6009C16.0121 27.3675 17.4443 28.7997 19.2109 28.7997C20.9775 28.7997 22.4097 27.3675 22.4097 25.6009C22.4069 25.0316 22.2503 24.4737 21.9563 23.9863L27.1927 18.7499C27.6801 19.0439 28.238 19.2005 28.8073 19.2033C30.5739 19.2033 32.0061 17.7712 32.0061 16.0045C32.0033 15.4352 31.8466 14.8773 31.5526 14.3899L33.296 12.6474C37.3659 19.9774 34.7231 29.2188 27.3932 33.2887Z" fill="#C9B38C"/>
<path d="M40.003 8.00784C41.4572 8.00234 42.7247 7.01681 43.0883 5.60875H48V4.00935H43.0883C42.7247 2.60129 41.4572 1.61576 40.003 1.61026C38.2364 1.61026 36.8042 3.04242 36.8042 4.80905C36.807 5.37833 36.9637 5.93622 37.2577 6.42364L35.8526 7.82871C29.1297 -0.930074 16.5792 -2.58045 7.82043 4.1425C-0.938344 10.8655 -2.58872 23.416 4.13423 32.1748C10.4802 40.4423 22.1129 42.4479 30.8609 36.7825L33.2744 39.196L34.4052 40.3268L40.8427 46.7643C42.48 48.4016 45.1344 48.4016 46.7717 46.7643C48.4089 45.1271 48.4089 42.4727 46.7717 40.8354L40.3341 34.3978L39.2033 33.2671L36.7898 30.8536C41.0741 24.2545 41.0741 15.7522 36.7898 9.153L38.3892 7.55361C38.8764 7.8477 39.434 8.00464 40.003 8.00784ZM40.003 3.20966C40.8864 3.20966 41.6024 3.92568 41.6024 4.80905C41.6024 5.69241 40.8864 6.40844 40.003 6.40844C39.1197 6.40844 38.4036 5.69241 38.4036 4.80905C38.4036 3.92568 39.1198 3.20966 40.003 3.20966ZM45.6409 41.9662C46.6651 42.9674 46.6838 44.6094 45.6826 45.6336C44.6814 46.6578 43.0394 46.6765 42.0152 45.6753C42.0011 45.6616 41.9873 45.6477 41.9735 45.6336L35.5359 39.196L39.2033 35.5286L45.6409 41.9662ZM38.0726 34.3978L34.4052 38.0652L32.1916 35.8517C32.3043 35.7653 32.4099 35.6702 32.5211 35.5814C32.6322 35.4926 32.761 35.3863 32.8801 35.2863C33.0553 35.1392 33.228 34.9904 33.3975 34.8377C33.4847 34.7577 33.5679 34.6777 33.6534 34.5978C33.9813 34.2907 34.2988 33.9732 34.6059 33.6453C34.6858 33.5597 34.7658 33.4766 34.8458 33.3894C34.9985 33.2199 35.1473 33.0471 35.2944 32.872C35.3947 32.7537 35.493 32.634 35.5895 32.5129C35.6775 32.4026 35.7726 32.297 35.859 32.1843L38.0726 34.3978ZM34.9713 30.6832C34.7194 31.0351 34.4595 31.3798 34.1852 31.7117C34.1053 31.8084 34.0197 31.902 33.9373 31.9971C33.6926 32.2818 33.4399 32.558 33.1792 32.8256C33.0657 32.9429 32.9502 33.0583 32.833 33.1719C32.5664 33.4326 32.2903 33.6853 32.0045 33.93C31.9093 34.01 31.8157 34.0971 31.719 34.1779C31.3871 34.4522 31.0424 34.7121 30.6906 34.964C22.4121 40.8783 10.9066 38.9617 4.99231 30.6832C-0.92195 22.4048 0.994623 10.8992 9.27308 4.98498C17.5515 -0.929274 29.0571 0.987199 34.9713 9.26576C39.5477 15.6715 39.5477 24.2775 34.9713 30.6832Z" fill="#C9B38C"/>
</g>
<defs>
<clipPath id="clip0">
<rect width="48" height="48" fill="white"/>
</clipPath>
</defs>
</svg>
