<svg height="472pt" viewBox="-53 0 472 472" width="472pt" xmlns="http://www.w3.org/2000/svg"><path d="m7.992188 472h350.015624c4.417969 0 7.992188-3.992188 7.992188-8.410156v-43.789063c-.050781-42.984375-34.910156-77.800781-77.894531-77.800781h-42.105469v-14h102.835938c4.140624 0 7.597656-3.15625 7.972656-7.277344.371094-4.121094-2.460938-7.847656-6.53125-8.59375-44.136719-8.070312-61.167969-54.257812-64.183594-63.597656 3.113281-8.25 5.246094-16.839844 6.347656-25.589844 12.894532-3.433594 21.847656-15.132812 21.792969-28.476562 0-13.324219-8.234375-24.601563-21.234375-28.222656v-19.851563c17.019531-7.835937 31.320312-20.558594 41.082031-36.550781l7.921875-12.832032c6.496094-10.613281 3.15625-24.484374-7.460937-30.980468-10.617188-6.496094-24.488281-3.15625-30.984375 7.457031l-7.8125 12.808594c-4.570313 7.457031-10.992188 13.597656-18.644532 17.828125l-15.101562-74.210938c-3.550781-17.304687-18.714844-29.769531-36.382812-29.910156h-84.507813c-17.664063.140625-32.828125 12.605469-36.378906 29.910156l-15.175781 74.449219c-7.929688-4.199219-14.589844-10.449219-19.289063-18.089844l-7.835937-12.8125c-6.5-10.636719-20.394532-13.988281-31.03125-7.488281-10.636719 6.503906-13.988282 20.394531-7.488282 31.03125l8 12.832031c9.765625 15.996094 24.066406 28.722657 41.089844 36.554688v19.820312c-13 3.613281-22.25 15.085938-22.25 28.253907 0 13.480468 9.863281 25.195312 22.898438 28.507812 1.085937 8.699219 3.1875 17.238281 6.261718 25.445312-2.890625 9.082032-19.8125 55.574219-64.324218 63.714844-4.066407.742188-6.898438 4.460938-6.53125 8.582032.367187 4.117187 3.8125 7.277343 7.945312 7.289062h103v14h-42.105469c-42.984375 0-77.8437498 34.816406-77.894531 77.800781v43.789063c0 4.417968 3.574219 8.410156 7.992188 8.410156zm65.007812-266.75c-3.773438-2.285156-6.082031-6.375-6.082031-10.789062 0-4.410157 2.308593-8.503907 6.082031-10.785157zm215.105469 152.75c34.152343-.011719 61.851562 27.648438 61.894531 61.800781v36.199219h-160v-66.730469l49.945312-31.269531zm-106.457031 17.339844-45.648438-29.6875v-35.296875c29.703125 14.285156 64.296875 14.285156 94 0v35.011719zm1.265624-70.269532c-25.035156 0-48.488281-10.140624-66.421874-28.554687-17.699219-18.113281-27.574219-42.457031-27.492188-67.785156v-56.46875c8 2.125 15.8125 3.738281 24.15625 3.738281h139.6875c8.34375 0 16.15625-1.609375 24.15625-3.738281v56.46875c.066406 25.332031-9.824219 49.675781-27.535156 67.785156-17.933594 18.414063-41.511719 28.554687-66.550782 28.554687zm128.046876 6.929688h-64.960938v-11.164062c5.363281-4.03125 10.441406-8.429688 15.199219-13.160157 5.832031-6 10.992187-12.621093 15.382812-19.742187 6.023438 13.027344 16.742188 30.933594 34.378907 44.066406zm-12.898438-117.539062c-.039062 4.082031-1.898438 7.933593-5.066406 10.5v-20.996094c3.171875 2.566406 5.03125 6.417968 5.070312 10.496094zm-177.65625-161.351563c2.011719-9.867187 10.632812-16.992187 20.703125-17.109375h84.507813c10.070312.121094 18.6875 7.246094 20.703124 17.109375l15.550782 76.128906c-2.980469.527344-6.003906.78125-9.03125.761719h-139.652344c-2.800781.015625-5.597656-.199219-8.359375-.648438zm-75 68.628906-7.835938-12.949219c-1.886718-3.117187-.914062-7.167968 2.179688-9.089843 1.476562-.921875 3.261719-1.214844 4.957031-.8125 1.695313.398437 3.160157 1.460937 4.066407 2.949219l7.851562 12.660156c12.03125 19.675781 33.472656 31.625 56.53125 31.503906h139.710938c6.707031.054688 13.382812-.90625 19.800781-2.855469.0625-.011719.121093.078125.183593.066407.679688-.125 1.335938-.339844 1.960938-.636719 14.398438-5.050781 26.613281-14.921875 34.578125-27.941407l7.835937-12.820312c1.910157-3.050781 5.921876-3.996094 8.992188-2.117188 3.074219 1.878907 4.058594 5.882813 2.214844 8.972657l-7.832032 13.074219c-14.460937 23.601562-40.082031 38.066406-67.757812 38.257812h-139.683594c-27.679687-.191406-53.300781-14.65625-67.761718-38.261719zm9.480469 210.261719c17.691406-13.167969 28.496093-31.128906 34.523437-44.164062 4.386719 7.160156 9.550782 13.8125 15.390625 19.839843 4.757813 4.730469 9.835938 9.128907 15.203125 13.160157v11.164062zm-38.886719 107.800781c.042969-34.152343 27.742188-61.8125 61.894531-61.800781h47.792969l48.3125 31.15625v66.84375h-158zm0 0"/><path d="m270 229.128906v-44.667968c-.042969-4.542969-3.628906-8.257813-8.167969-8.460938h-65.664062c-2.335938.105469-4.519531 1.179688-6.027344 2.96875s-2.195313 4.125-1.902344 6.441406l.625 4.722656c-3.867187-.804687-7.863281-.796874-11.726562.03125l.625-4.652343c.308593-2.355469-.382813-4.734375-1.90625-6.554688-1.496094-1.796875-3.6875-2.871093-6.023438-2.957031h-65.664062c-4.539063.203125-8.125 3.917969-8.167969 8.460938v44.667968c.089844 4.425782 3.742188 7.945313 8.167969 7.871094h59.664062c3.996094.027344 7.390625-2.914062 7.929688-6.871094l2.898437-21.554687 1.980469-1.21875c3.898437-2.414063 8.824219-2.410157 12.71875.007812l1.980469 1.238281 2.898437 21.527344c.539063 3.957032 3.933594 6.898438 7.929688 6.871094h59.664062c4.425781.074219 8.078125-3.445312 8.167969-7.871094zm-113.164062-8.128906h-44.835938v-29h48.6875zm97.164062 0h-44.835938l-3.851562-29h48.6875zm0 0"/></svg>