<svg height="500pt" viewBox="0 -7 500 499" width="500pt" xmlns="http://www.w3.org/2000/svg"><path d="m482.617188 333.328125-41.566407-54.058594 18.171875-84.152343c.644532-2.984376-.46875-6.074219-2.867187-7.96875-2.398438-1.890626-5.664063-2.25-8.417969-.929688l-55.40625 26.59375c-5.140625 2.484375-11.132812 2.484375-16.269531 0l-55.40625-26.59375c-2.742188-1.316406-5.996094-.964844-8.394531.90625-2.398438 1.875-3.523438 4.945312-2.90625 7.925781l17.417968 84.214844-36.46875 48.164063c-.652344-.011719-1.304687.070312-2 .070312h-42.503906v-23.140625c5.691406-3.808594 10.925781-8.257813 15.601562-13.257813 20.71875-21.058593 32.351563-49.402343 32.398438-78.941406v-57.660156c4.417969 0 8-3.582031 8-8v-35c0-3.164062-1.871094-6.03125-4.765625-7.3125-.140625-2.199219-.339844-4.554688-.609375-6.730469-6.78125-55.1875-54.359375-96.957031-110.671875-96.957031h-5c-29.003906 0-56.875 11.257812-77.738281 31.398438-19.742188 18.839843-31.730469 44.378906-33.613282 71.601562h-5.601562c-4.417969 0-8 3.582031-8 8v35c0 4.417969 3.582031 8 8 8h9v57.660156c0 .417969.042969.839844.046875 1.257813-.109375.839843-.082031 1.691406.082031 2.523437.847656 28.171875 12.246094 55 31.9375 75.164063 4.664063 4.699219 9.652344 9.066406 14.933594 13.0625v23.332031h-41.699219c-42.957031 0-78.300781 34.769531-78.300781 77.722656v51.796875c.148438 4.589844 3.8125 8.289063 8.398438 8.480469h284.203124c13.429688 12.210938 30.929688 18.984375 49.082032 19h85.441406c26.164062-.082031 50.265625-14.210938 63.117188-37 .011718-.019531.222656-.117188.234374-.140625 6.171876-10.875 9.449219-23.152344 9.523438-35.660156v-22.109375c-.054688-19.832032-5.90625-39.21875-16.832031-55.769532-.109375-.167968-.425781-.332031-.550781-.492187zm-113.28125-106.089844c9.515624 4.59375 20.605468 4.59375 30.121093 0l40.675781-19.523437-14.207031 65.796875-83.859375-.289063-13.566406-65.585937zm-255.042969-183.789062c17.890625-17.28125 41.789062-26.941407 66.660156-26.949219h5c48.242187 0 89 35.730469 94.792969 82.90625.160156 1.304688.285156 2.777344.394531 4.09375h-195.488281c1.863281-22.851562 12.054687-44.222656 28.640625-60.050781zm-42.292969 95.050781v-19h214v19zm17 16h189v52h-62.601562l-28.234376-15.058594c-2.351562-1.253906-5.175781-1.253906-7.527343 0l-28.238281 15.058594h-62.398438zm27.773438 125.441406c-15.253907-15.550781-24.816407-35.785156-27.152344-57.441406h63.777344c1.3125 0 2.605468-.324219 3.765624-.941406l26.234376-13.992188 26.238281 13.992188c1.15625.617187 2.449219.941406 3.761719.941406h63.78125c-2.332032 21.65625-11.898438 41.890625-27.148438 57.441406-17.925781 18.414063-41.589844 28.558594-66.632812 28.558594-25.039063 0-48.699219-10.144531-66.625-28.558594zm113.226562 33.902344v17.035156l-13.328125 8.320313c-21.230469 13.101562-48.105469 12.8125-69.042969-.75l-11.628906-7.457031v-17.277344c14.710938 7.0625 30.816406 10.746094 47.136719 10.785156 16.226562.066406 32.257812-3.578125 46.863281-10.65625zm-214 135.65625v-34h253.273438c.5625 11.230469 3.71875 22.175781 9.222656 31.976562.011718.015626.019531.152344.027344.167969.421874.570313.761718 1.195313 1.015624 1.855469zm253-60.265625v10.265625h-252.292969c2.921875-31.804688 29.65625-56.109375 61.59375-56h47.792969l13.039062 8.429688c26.066407 16.960937 59.582032 17.347656 86.027344.980468l15.1875-9.410156h39.785156c-7.285156 14.148438-11.097656 29.824219-11.132812 45.734375zm215 22.464844c-.074219 9.710937-2.636719 19.238281-7.441406 27.675781-.011719.019531-.121094.191406-.128906.210938-10.046876 17.796874-28.875 28.839843-49.3125 28.914062h-85.441407c-20.398437-.078125-39.179687-11.101562-49.191406-28.875-.007813-.015625-.109375-.105469-.117187-.121094-4.792969-8.484375-7.328126-18.058594-7.367188-27.804687v-22.464844c.023438-16.402344 4.753906-32.457031 13.628906-46.25l40.832032-53.765625 89.269531.308594 41.203125 53.308594c9.117187 13.894531 14.003906 30.136718 14.066406 46.753906zm0 0"/><path d="m427.164062 330.5c0-4.417969-3.582031-8-8-8h-69.535156c-4.421875 0-8 3.582031-8 8s3.578125 8 8 8h19.898438c8.980468.117188 17.003906 5.648438 20.3125 14h-40.210938c-4.421875 0-8 3.582031-8 8s3.578125 8 8 8h40.207032c-3.304688 8.351562-11.328126 13.882812-20.3125 14h-19.898438c-3.25-.082031-6.214844 1.859375-7.433594 4.875-1.222656 3.011719-.449218 6.46875 1.941406 8.675781l49.734376 46.949219c3.226562 2.988281 8.261718 2.816406 11.277343-.386719s2.886719-8.238281-.289062-11.28125l-35.113281-33.089843c17.707031-.074219 32.992187-12.4375 36.757812-29.742188h12.664062c4.417969 0 8-3.582031 8-8s-3.582031-8-8-8h-12.664062c-1.074219-5.03125-3.148438-9.792969-6.105469-14h18.769531c4.417969 0 8-3.582031 8-8zm0 0"/><path d="m164.785156 180.5625c0-12.335938-11.976562-22-27.273437-22-15.292969 0-27.273438 9.660156-27.273438 22 0 12.335938 11.980469 22 27.273438 22 15.296875 0 27.273437-9.664062 27.273437-22zm-27.273437 6c-6.878907 0-11.273438-3.554688-11.273438-6 0-2.449219 4.394531-6 11.273438-6 6.882812 0 11.273437 3.550781 11.273437 6 0 2.445312-4.386718 5.996094-11.273437 5.996094zm0 0"/><path d="m229.292969 202.558594c15.296875 0 27.273437-9.664063 27.273437-22 0-12.339844-11.976562-22-27.273437-22-15.292969 0-27.273438 9.660156-27.273438 22 0 12.335937 11.980469 22 27.273438 22zm0-27.996094c6.882812 0 11.273437 3.550781 11.273437 6s-4.390625 6-11.273437 6c-6.882813 0-11.273438-3.550781-11.273438-6s4.394531-6 11.273438-6zm0 0"/></svg>