<svg id="Capa_1" enable-background="new 0 0 512 512" height="512" viewBox="0 0 512 512" width="512" xmlns="http://www.w3.org/2000/svg"><g><path d="m496.081 458.413c-.599-20.999-17.286-40.353-38.247-43.806-.784-24.558-20.189-45.415-44.334-45.827v-120.137h30v-135h-52.418v-29.487h-15v29.486h-14.922v-59.486h14.922v15h15v-30h-44.922v66.642l-90.283-67.21-95.505 75.055h-91.873v135h30v15.409h15v-19.452l142.499-111.986 142.501 112.048v183.731h-150.166v-179.833h-104.5v179.834h-30.333v-119.343h-15v59.711c-24.348.332-43.455 21.259-44.333 45.845-21.027 3.463-37.688 22.737-38.254 43.806h-15.913v15h512v-15zm-53.248-29.418c18.141-1.387 37.938 10.449 38.311 29.418h-52.456v-30.018h-15.189v-44.71c22.483-.07 32.293 25.19 29.334 45.31zm-339.666-195.352h-19.668v-105h134.833v-15h-33.685l71.476-56.171 75.454 56.171h-38.244v15h135.167v105h-19.748l-152.752-120.108zm55.666 29.917h74.5v164.834h-74.5zm254.666 179.835h.189v15.018h-315.188v-15.018zm-344.332-14.4c-3.158-20.145 7.457-45.138 29.333-45.281v44.68h-15v30.018h-52.661c.259-19.36 20.172-30.906 38.328-29.417z"/><path d="m98.499 279.051h15v15h-15z"/><path d="m218.499 204.306h15v15h-15z"/><path d="m98.499 143.784h15v15h-15z"/><path d="m248.499 204.306h15v15h-15z"/><path d="m203.333 338.984h15v15h-15z"/><path d="m278.499 204.306h15v15h-15z"/><path d="m263.083 383.977h105.25v-135.417h-105.25zm15-120.417h30.083v45.25h15v-45.25h30.167v105.417h-30.167v-15.167h-15v15.167h-30.083z"/><path d="m308.166 323.81h15v15h-15z"/><path d="m98.499 173.283h15v30.667h-15z"/></g></svg>