<?xml version="1.0" encoding="iso-8859-1"?>
<!-- Generator: Adobe Illustrator 19.0.0, SVG Export Plug-In . SVG Version: 6.00 Build 0)  -->
<svg version="1.1" id="Capa_1" xmlns="http://www.w3.org/2000/svg" xmlns:xlink="http://www.w3.org/1999/xlink" x="0px" y="0px"
	 viewBox="0 0 463 463" style="enable-background:new 0 0 463 463;" xml:space="preserve">
<path d="M415.5,416h-50.034L278.003,36.994C272.977,15.213,253.854,0,231.5,0s-41.477,15.213-46.503,36.994L97.534,416H47.5
	C34.542,416,24,426.542,24,439.5S34.542,463,47.5,463h368c12.958,0,23.5-10.542,23.5-23.5S428.458,416,415.5,416z M155.621,230.998
	c0.016,0,0.031,0.002,0.046,0.002h151.666c0.016,0,0.031-0.002,0.046-0.002L311.303,248H151.697L155.621,230.998z M292.842,168
	H170.158l3.923-17h114.837L292.842,168z M166.697,183h129.606l7.615,33H159.082L166.697,183z M199.612,40.367
	C203.06,25.432,216.172,15,231.5,15s28.44,10.432,31.888,25.367L285.457,136H177.543L199.612,40.367z M148.235,263h166.529
	l35.308,153H112.928L148.235,263z M415.5,448h-368c-4.687,0-8.5-3.813-8.5-8.5s3.813-8.5,8.5-8.5h311.97
	c0.008,0,0.015,0.002,0.023,0.002c0.011,0,0.023-0.002,0.034-0.002H415.5c4.687,0,8.5,3.813,8.5,8.5S420.187,448,415.5,448z"/>
<g>
</g>
<g>
</g>
<g>
</g>
<g>
</g>
<g>
</g>
<g>
</g>
<g>
</g>
<g>
</g>
<g>
</g>
<g>
</g>
<g>
</g>
<g>
</g>
<g>
</g>
<g>
</g>
<g>
</g>
</svg>
