<svg height="474pt" viewBox="-55 0 474 474.00278" width="474pt" xmlns="http://www.w3.org/2000/svg"><path d="m153.851562 185.691406c-4.417968 0-8 3.582032-8 8 0 5.152344-4.179687 9.328125-9.332031 9.328125-5.152343 0-9.328125-4.175781-9.328125-9.328125 0-4.417968-3.582031-8-8-8-4.417968 0-8 3.582032-8 8 0 13.988282 11.339844 25.328125 25.328125 25.328125 13.992188 0 25.332031-11.339843 25.332031-25.328125 0-4.417968-3.582031-8-8-8zm0 0"/><path d="m223.164062 219.019531c13.984376-.015625 25.3125-11.347656 25.328126-25.328125 0-4.417968-3.582032-8-8-8-4.417969 0-8 3.582032-8 8 .035156 3.355469-1.734376 6.472656-4.636719 8.160156-2.898438 1.6875-6.484375 1.6875-9.382813 0-2.902344-1.6875-4.671875-4.804687-4.636718-8.160156 0-4.417968-3.582032-8-8-8-4.417969 0-8 3.582032-8 8 .015624 13.980469 11.347656 25.3125 25.328124 25.328125zm0 0"/><path d="m8.375 474.003906h347.269531c4.417969 0 8.363281-3.253906 8.363281-7.671875v-61.308593c0-42.65625-35.0625-77.019532-77.714843-77.019532h-42.285157v-24.609375c4.785157-3.40625 9.222657-7.277343 13.25-11.554687 17.097657-17.425782 28.042969-39.957032 31.160157-64.171875 12.898437-3.359375 21.878906-15.027344 21.832031-28.355469 0-13.300781-8.242188-24.546875-21.242188-28.101562v-52.207032h17.320313c2.101563.039063 4.132813-.765625 5.636719-2.234375s2.355468-3.480469 2.363281-5.582031c-.066406-42.671875-34.695313-77.222656-77.367187-77.183594h-71.410157c-8.90625-.035156-17.597656 2.742188-24.835937 7.929688-42.445313 16.164062-70.554688 56.800781-70.707032 102.222656v26.875c-12.652343 3.621094-21.425781 15.121094-21.574218 28.28125 0 13.324219 9.84375 24.910156 22.691406 28.285156 3.003906 24.214844 13.859375 46.777344 30.898438 64.242188 5.1875 5.351562 10.875 10.199218 16.984374 14.46875v21.695312h-41.28125c-42.652343 0-77.7187495 34.363282-77.7187495 77.019532v61.308593c0 4.417969 3.9453125 7.671875 8.3671875 7.671875zm61.632812-264.234375c-3-2.476562-5.726562-6.3125-5.726562-10.457031 0-4.515625 2.726562-8.507812 5.726562-10.90625zm216.285157 134.234375c33.828125 0 61.714843 27.1875 61.714843 61.019532v52.980468h-159v-83.234375l49.519532-30.765625zm-105.984375 16.835938-45.300782-29.5v-15.984375c29.691407 13.503906 63.910157 12.78125 93-1.96875v17.839843zm113.785156-161.527344c-.042969 4.0625-1.910156 7.890625-5.085938 10.425781v-20.851562c3.175782 2.535156 5.042969 6.363281 5.085938 10.425781zm-128.542969-149.308594h71.410157c30.707031-.101562 56.734374 22.566406 60.847656 53h-132.257813c-14.636719 0-26.5-11.867187-26.5-26.5 0-14.636718 11.863281-26.5 26.5-26.5zm-79.542969 94.152344c.164063-29.285156 13.941407-56.824219 37.277344-74.519531-2.964844 19.476562 7.582032 38.5 25.671875 46.300781-23.761719 25.339844-49.949219 28.84375-62.949219 28.898438zm27.574219 136.523438c-17.636719-17.929688-27.539062-42.058594-27.574219-67.207032v-52.660156c17-.085938 52.339844-4.808594 81.417969-41.808594h105.582031v94.46875c.074219 25.113282-9.726562 49.25-27.285156 67.207032-17.777344 18.257812-41.144531 28.308593-65.972656 28.308593-24.984375-.050781-48.875-10.273437-66.167969-28.308593zm-97.574219 124.34375c0-33.832032 27.886719-61.019532 61.71875-61.019532h47.398438l47.882812 30.652344v83.347656h-157zm0 0"/><path d="m8.007812 75.472656c4.417969 0 8-3.582031 8-8v-51.46875h51.328126c4.417968 0 8-3.582031 8-8 0-4.417968-3.582032-7.99999975-8-7.99999975h-59.800782c-2.035156-.05859375-4.007812.73828175-5.433594 2.19531275-1.429687 1.453125-2.1874995 3.4375-2.0937495 5.472656v59.800781c.0039063 4.417969 3.5820315 8 7.9999995 8zm0 0"/><path d="m296.683594 16.003906h51.324218v51.46875c0 4.417969 3.582032 8 8 8 4.417969 0 8-3.582031 8-8v-59.800781c.09375-2.035156-.664062-4.019531-2.089843-5.476563-1.429688-1.453124-3.398438-2.2499995-5.4375-2.19140575h-59.800781c-4.417969 0-8 3.58203175-8 7.99999975 0 4.417969 3.582031 8 8 8zm0 0"/><path d="m356.007812 244.542969c-4.417968 0-8 3.582031-8 8v51.460937h-51.324218c-4.417969 0-8 3.582032-8 8 0 4.417969 3.582031 8 8 8h59.796875c2.039062.058594 4.007812-.734375 5.4375-2.191406 1.425781-1.453125 2.183593-3.433594 2.089843-5.472656v-59.796875c0-4.417969-3.582031-8-8-8zm0 0"/><path d="m7.539062 320.003906h59.796876c4.417968 0 8-3.582031 8-8 0-4.417968-3.582032-8-8-8h-51.328126v-51.460937c0-4.417969-3.582031-8-8-8-4.417968 0-7.9999995 3.582031-7.9999995 8v59.800781c-.09375 2.035156.6679685 4.019531 2.0937495 5.472656 1.429688 1.453125 3.398438 2.246094 5.4375 2.1875zm0 0"/></svg>