<svg height="496pt" viewBox="0 0 496 496" width="496pt" xmlns="http://www.w3.org/2000/svg"><path d="m488 432h-56v-24c0-4.414062-3.574219-8-8-8h-24v-152c0-83.816406-68.183594-152-152-152s-152 68.183594-152 152v152h-24c-4.425781 0-8 3.585938-8 8v24h-56c-4.425781 0-8 3.585938-8 8v48c0 4.414062 3.574219 8 8 8h480c4.425781 0 8-3.585938 8-8v-48c0-4.414062-3.574219-8-8-8zm-376-48h96v-16h-96v-120c0-74.992188 61.007812-136 136-136s136 61.007812 136 136v120h-96v16h96v16h-112v-102.496094c14.320312-8.3125 24-23.785156 24-41.503906 0-26.472656-21.527344-48-48-48s-48 21.527344-48 48c0 17.71875 9.679688 33.191406 24 41.503906v102.496094h-112zm136-96c-17.648438 0-32-14.351562-32-32s14.351562-32 32-32 32 14.351562 32 32-14.351562 32-32 32zm0 16c2.726562 0 5.390625-.28125 8-.71875v96.71875h-16v-96.71875c2.609375.4375 5.273438.71875 8 .71875zm-168 112h336v16h-336zm400 64h-464v-32h464zm0 0"/><path d="m416 128h16c0-35.289062-28.710938-64-64-64v16c26.472656 0 48 21.527344 48 48zm0 0"/><path d="m448 128h16c0-52.9375-43.0625-96-96-96v16c44.113281 0 80 35.886719 80 80zm0 0"/><path d="m480 128h16c0-70.574219-57.425781-128-128-128v16c61.761719 0 112 50.238281 112 112zm0 0"/><path d="m80 128c0-26.472656 21.527344-48 48-48v-16c-35.289062 0-64 28.710938-64 64zm0 0"/><path d="m128 32c-52.9375 0-96 43.0625-96 96h16c0-44.113281 35.886719-80 80-80zm0 0"/><path d="m128 16v-16c-70.574219 0-128 57.425781-128 128h16c0-61.761719 50.238281-112 112-112zm0 0"/><path d="m336 296h16v16h-16zm0 0"/><path d="m320 312h16v16h-16zm0 0"/><path d="m336 328h16v16h-16zm0 0"/><path d="m352 312h16v16h-16zm0 0"/><path d="m144 248h16v16h-16zm0 0"/><path d="m128 264h16v16h-16zm0 0"/><path d="m144 280h16v16h-16zm0 0"/><path d="m160 264h16v16h-16zm0 0"/><path d="m264 136h16v16h-16zm0 0"/><path d="m248 152h16v16h-16zm0 0"/><path d="m264 168h16v16h-16zm0 0"/><path d="m280 152h16v16h-16zm0 0"/></svg>