<?xml version="1.0" encoding="iso-8859-1"?>
<!-- Generator: Adobe Illustrator 19.0.0, SVG Export Plug-In . SVG Version: 6.00 Build 0)  -->
<svg version="1.1" id="Capa_1" xmlns="http://www.w3.org/2000/svg" xmlns:xlink="http://www.w3.org/1999/xlink" x="0px" y="0px"
	 viewBox="0 0 463 463" style="enable-background:new 0 0 463 463;" xml:space="preserve">
<g>
	<path d="M398.901,333.619l-76.691-19.173c-0.738-6.717-4.331-13.04-10.3-17.019l-11.384-7.59C326.38,265.001,343,226.566,343,183.5
		c0-6.313-0.74-13.369-2.187-20.993c1.41-2.358,2.187-5.085,2.187-7.951v-41.408l31.31-67.838c0.934-2.023,0.92-4.356-0.038-6.368
		c-0.958-2.011-2.76-3.493-4.919-4.043l-136-34.667c-1.215-0.31-2.49-0.31-3.705,0l-136,34.667c-2.159,0.55-3.961,2.032-4.919,4.043
		c-0.958,2.012-0.972,4.345-0.038,6.368L120,113.147v41.408c0,2.368,0.526,4.643,1.504,6.693C120.507,168.566,120,176.037,120,183.5
		c0,43.066,16.62,81.501,42.473,106.338l-11.384,7.59c-5.969,3.979-9.562,10.302-10.3,17.019l-76.691,19.173
		C35.779,340.699,16,366.032,16,395.223V439.5c0,12.958,10.542,23.5,23.5,23.5h384c12.958,0,23.5-10.542,23.5-23.5v-44.277
		C447,366.031,427.221,340.699,398.901,333.619z M306.483,320.773c-15.982,31.986-24.677,49.376-29.199,58.414
		c-12.863-11.311-24.587-18.251-32.629-22.236l51.801-51.8l7.135,4.757C307.149,312.28,308.392,316.951,306.483,320.773z
		 M230.112,399h2.776l6.189,49h-15.155L230.112,399z M240,383.5c0,0.276-0.225,0.5-0.5,0.5h-16c-0.275,0-0.5-0.224-0.5-0.5v-12.062
		c3.722-1.946,6.651-3.214,8.499-3.951c1.853,0.738,4.781,2.007,8.501,3.951V383.5z M135.724,155.003
		c-0.076,0.038-0.196,0.09-0.365,0.032c-0.113-0.152-0.233-0.299-0.357-0.442c0-0.012-0.001-0.026-0.001-0.037v-22.109
		c6.331,3.817,13.823,6.717,20.755,8.85c0.345,0.106,0.707,0.205,1.055,0.309l-2.565,4.137L135.724,155.003z M160.167,126.959
		c-8.697-2.676-14.598-5.455-18.487-7.959h179.64c-3.889,2.504-9.79,5.283-18.487,7.959C283.886,132.789,258.552,136,231.5,136
		S179.114,132.789,160.167,126.959z M231.5,55c4.687,0,8.5,3.813,8.5,8.5s-3.813,8.5-8.5,8.5s-8.5-3.813-8.5-8.5
		S226.813,55,231.5,55z M307.245,141.296c6.931-2.133,14.424-5.032,20.755-8.85v22.109c0,0.104,0,0.279-0.237,0.425
		c-0.236,0.148-0.393,0.069-0.486,0.022l-18.678-9.339l-2.708-3.971C306.339,141.559,306.802,141.432,307.245,141.296z M330.701,104
		h-91.699l0.002-18.236C248.292,82.625,255,73.834,255,63.5c0-10.336-6.71-19.128-16-22.266V17.151l117.913,30.056L330.701,104z
		 M224,17.151v24.083c-9.29,3.138-16,11.93-16,22.266c0,10.337,6.711,19.13,16.003,22.267L224.002,104h-91.703l-26.212-56.792
		L224,17.151z M135,183.5c0-4.494,0.225-8.984,0.624-13.438c2.32-0.02,4.644-0.561,6.809-1.643l20.422-10.211
		c1.242-0.621,2.288-1.575,3.02-2.756l6.21-10.017c17.499,3.62,38.003,5.565,59.416,5.565c21.189,0,41.484-1.907,58.863-5.455
		l6.941,10.18c0.72,1.057,1.698,1.911,2.842,2.483l20.422,10.211c2.012,1.006,4.16,1.526,6.315,1.615
		c0.736,4.866,1.117,9.381,1.117,13.467c0,66.444-43.29,120.5-96.5,120.5S135,249.944,135,183.5z M231.5,319
		c13.338,0,26.136-2.865,38.001-8.108L231.5,348.893l-38.001-38.001C205.364,316.135,218.161,319,231.5,319z M159.409,309.907
		l7.135-4.757l51.801,51.8c-8.042,3.985-19.766,10.925-32.629,22.236c-4.522-9.038-13.217-26.428-29.199-58.414
		C154.607,316.951,155.85,312.28,159.409,309.907z M31,439.5v-44.276c0-22.296,15.106-41.645,36.737-47.052l76.185-19.046
		l31.881,63.766c1.452,2.896,2.707,5.396,6.495,6.012c0.4,0.065,0.803,0.097,1.202,0.097c1.956,0,3.854-0.766,5.269-2.162
		c6.749-6.66,13.304-11.971,19.231-16.169v2.83c0,5.531,2.922,10.382,7.293,13.125L208.804,448H103v-24.5c0-4.142-3.357-7.5-7.5-7.5
		s-7.5,3.358-7.5,7.5V448H39.5C34.813,448,31,444.187,31,439.5z M287,438.5V422h41v16.5c0,3.426-1.07,6.732-3.024,9.5h-34.952
		C288.07,445.231,287,441.926,287,438.5z M432,439.5c0,4.687-3.813,8.5-8.5,8.5H375v-24.5c0-4.142-3.357-7.5-7.5-7.5
		s-7.5,3.358-7.5,7.5V448h-18.47c0.963-3.046,1.47-6.245,1.47-9.5v-24c0-4.142-3.357-7.5-7.5-7.5h-56c-4.143,0-7.5,3.358-7.5,7.5v24
		c0,3.255,0.507,6.454,1.47,9.5h-19.274l-6.49-51.375c4.372-2.744,7.293-7.594,7.293-13.125v-2.83
		c5.927,4.198,12.483,9.508,19.231,16.169c1.415,1.396,3.313,2.162,5.269,2.162c0.399,0,0.802-0.032,1.202-0.097
		c3.788-0.615,5.043-3.116,6.495-6.012l31.881-63.766l76.185,19.047C416.893,353.579,432,372.927,432,395.223V439.5z"/>
	<path d="M215.5,263h32c4.143,0,7.5-3.358,7.5-7.5s-3.357-7.5-7.5-7.5h-32c-4.143,0-7.5,3.358-7.5,7.5S211.357,263,215.5,263z"/>
	<path d="M184,183.003v8.5c0,4.142,3.357,7.5,7.5,7.5s7.5-3.358,7.5-7.5v-8.5h0.499c4.143,0,7.5-3.358,7.5-7.5s-3.357-7.5-7.5-7.5
		h-24c-4.143,0-7.5,3.358-7.5,7.5s3.357,7.5,7.5,7.5H184z"/>
	<path d="M263.5,183.003h0.5v8.5c0,4.142,3.357,7.5,7.5,7.5s7.5-3.358,7.5-7.5v-8.5h8.5c4.143,0,7.5-3.358,7.5-7.5
		s-3.357-7.5-7.5-7.5h-24c-4.143,0-7.5,3.358-7.5,7.5S259.357,183.003,263.5,183.003z"/>
</g>
<g>
</g>
<g>
</g>
<g>
</g>
<g>
</g>
<g>
</g>
<g>
</g>
<g>
</g>
<g>
</g>
<g>
</g>
<g>
</g>
<g>
</g>
<g>
</g>
<g>
</g>
<g>
</g>
<g>
</g>
</svg>
