<svg height="475pt" viewBox="0 -4 475.579 475" width="475pt" xmlns="http://www.w3.org/2000/svg"><path d="m328.109375 276.578125c-4.417969 0-8 3.582031-8 8 0 2.175781-1.765625 3.941406-3.941406 3.941406s-3.941407-1.765625-3.941407-3.941406c0-4.417969-3.582031-8-8-8-4.417968 0-8 3.582031-8 8 0 11.011719 8.929688 19.941406 19.941407 19.941406s19.941406-8.929687 19.941406-19.941406c0-4.417969-3.582031-8-8-8zm0 0"/><path d="m387.8125 276.578125c-4.417969 0-8 3.582031-8 8 0 2.175781-1.765625 3.941406-3.941406 3.941406-2.175782 0-3.941406-1.765625-3.941406-3.941406 0-4.417969-3.582032-8-8-8-4.417969 0-8 3.582031-8 8 0 11.011719 8.929687 19.941406 19.941406 19.941406 11.011718 0 19.941406-8.929687 19.941406-19.941406 0-4.417969-3.582031-8-8-8zm0 0"/><path d="m267.578125 237.453125v47.765625c.007813 20.847656 8.199219 40.863281 22.8125 55.734375 3.417969 3.519531 7.164063 6.707031 11.1875 9.515625v11.402344h-25.921875c-30.761719 0-56.078125 24.574218-56.078125 55.335937v42.246094c.101563 4.554687 3.734375 8.246094 8.289063 8.417969h239.289062c4.582031-.164063 8.257812-3.835938 8.421875-8.417969v-42.246094c0-30.761719-25.445313-55.335937-56.210937-55.335937h-26.789063v-13.46875c2.953125-2.265625 5.722656-4.757813 8.292969-7.449219 14.582031-14.882813 22.738281-34.898437 22.707031-55.734375v-24.378906c3.386719.835937 6.855469 1.28125 10.339844 1.324218 2.414062 0 4.824219-.210937 7.199219-.628906 15.894531-2.808594 28.527343-14.917968 32.007812-30.675781 3.476562-15.757813-2.886719-32.0625-16.125-41.292969-8.824219-6.113281-19.761719-8.34375-30.273438-6.179687-6.488281 1.253906-12.582031 4.035156-17.769531 8.121093-14.757812-20.125-38.222656-32.015624-63.179687-32.015624-42.988282 0-78.199219 34.976562-78.199219 77.960937zm190.03125-19.371094c1.167969 6.21875-.207031 12.648438-3.816406 17.847657-3.6875 5.21875-9.296875 8.761718-15.59375 9.855468-4.957031.847656-10.054688.175782-14.621094-1.929687v-5.15625l32.925781-24.347657c.46875 1.210938.835938 2.457032 1.105469 3.730469zm-27.8125-18.992187c5.769531-1.199219 11.773437-.199219 16.839844 2.8125l-24.601563 18.304687c-1.136718-5.023437-2.777344-9.921875-4.890625-14.617187 3.523438-3.316406 7.90625-5.566406 12.652344-6.5zm-91.21875 252.78125h-103v-34.664063c0-21.9375 18.136719-39.335937 40.078125-39.335937h31.921875l31 19.757812zm-21-86.78125v-5.921875c8.945313 3.546875 18.480469 5.375 28.101563 5.386719 10.652343.070312 21.195312-2.167969 30.898437-6.566407v6.988281l-30.300781 18.835938zm101.789063 12.78125c21.941406 0 40.210937 17.398437 40.210937 39.335937v34.664063h-105v-54.128906l32.589844-19.871094zm-11.789063-92.652344c.078125 16.644531-6.394531 32.65625-18.019531 44.574219-11.382813 11.9375-27.144532 18.714843-43.640625 18.753906-16.582031-.035156-32.433594-6.804687-43.929688-18.753906-11.730469-11.878907-18.339843-27.878907-18.410156-44.574219v-24.773438c8.136719 1.25 16.351563 1.90625 24.582031 1.953126 3.53125 0 7.339844-.125 11.132813-.429688 27.734375-2.199219 49.867187-12.808594 65.113281-30.90625 5.703125 9.777344 13.644531 18.066406 23.171875 24.175781zm-29.597656-100.8125c17.882812 10.785156 29.136719 29.847656 29.945312 50.714844-6.390625-6.152344-11.148437-13.796875-13.847656-22.246094-.789063-3.160156-3.417969-5.527344-6.644531-5.980469-3.226563-.457031-6.40625 1.09375-8.039063 3.914063-12.15625 21-32.851562 32.832031-61.046875 35.175781-11.617187.84375-23.296875.246094-34.769531-1.78125v-6.75c.082031-4.511719.65625-9 1.710937-13.386719 5.382813.871094 10.828126 1.308594 16.285157 1.308594 4.648437 0 9.292969-.324219 13.898437-.972656 18.199219-2.601563 43.277344-11.753906 62.507813-39.996094zm-31.960938-8.914062c5.753907 0 11.480469.804687 17.011719 2.390624-23.667969 32.476563-56.289062 32.9375-71.914062 30.902344 10.683593-20.445312 31.832031-33.273437 54.902343-33.292968zm0 0"/><path d="m48.265625 173.507812c28.589844 0 48.558594-18.109374 48.558594-44.035156 0-3.214844-1.925781-6.121094-4.890625-7.371094l-32.167969-86.230468h63.609375c2.878906 5.992187 7.972656 10.640625 14.203125 12.960937v119.039063h-6.640625c-11.410156-.058594-21.539062 7.28125-25.035156 18.140625-4.113282.265625-7.316406 3.671875-7.324219 7.789062v21.332031c.007813 2.09375.855469 4.09375 2.359375 5.550782 1.503906 1.457031 3.53125 2.246094 5.621094 2.1875h78.710937c4.417969 0 8.308594-3.320313 8.308594-7.738282v-21.332031c-.082031-4.148437-3.339844-7.539062-7.484375-7.789062-3.570312-10.878907-13.753906-18.207031-25.203125-18.140625h-7.3125v-119.039063c6.585937-1.996093 12-6.714843 14.878906-12.960937h63.605469l-32.167969 86.230468c-2.960937 1.25-4.890625 4.15625-4.886719 7.371094 0 25.925782 19.847657 44.035156 48.265626 44.035156 28.589843 0 48.554687-18.109374 48.554687-44.035156 0-3.070312-1.765625-5.871094-4.535156-7.199218l-36.007813-96.53125c-.957031-3.464844-4.109375-5.871094-7.707031-5.871094h-73.3125c-2.511719-11.4375-12.640625-19.582032-24.351563-19.582032-11.707031 0-21.835937 8.144532-24.347656 19.582032h-71.988281c-.328125 0-.65625.023437-.984375.066406-.09375 0-.191406 0-.285156 0-.144532 0-.292969-.007812-.4375 0-.109375.003906-.222656.019531-.332032.03125-.148437.011719-.300781.023438-.445312.046875-.109375.015625-.210938.039063-.320312.058594-.152344.03125-.304688.058593-.457032.097656-.097656.023437-.199218.058594-.296875.085937-.15625.046876-.308593.089844-.460937.148438-.027344.007812-.054688.015625-.085938.023438-.078125.03125-.148437.070312-.226562.101562-.140625.058594-.277344.113281-.410156.179688-.117188.054687-.230469.113281-.34375.175781-.109376.058593-.226563.121093-.339844.1875-.113282.066406-.230469.148437-.34375.222656-.117188.078125-.203125.136719-.300782.210937-.101562.070313-.21875.167969-.324218.253907-.105469.085937-.191406.160156-.285156.242187-.089844.085938-.1875.179688-.28125.273438-.089844.089844-.183594.183594-.273438.285156-.089844.097656-.160156.183594-.242188.277344-.078124.097656-.171874.214844-.253906.328125-.082031.113281-.140625.199219-.207031.300781-.078125.113281-.152344.230469-.226563.347656-.070312.121094-.128906.226563-.1875.339844-.0625.117188-.121093.226562-.175781.339844-.066406.136718-.121093.277344-.179687.417968-.03125.078126-.066406.148438-.101563.222657l-36.230469 97.132812c-2.773437 1.328125-4.53515575 4.128907-4.539062 7.199219 0 25.929688 19.847656 44.039062 48.265625 44.039062zm195.007813-15.601562c-12.777344 0-27.402344-6.03125-31.28125-20.03125h62.785156c-3.851563 12.996094-17.730469 20.027344-31.503906 20.027344zm26.648437-36.035156h-52.714844l26.355469-70.65625zm-92.34375 85h-63v-5h63zm-16.6875-23c2.285156.101562 4.507813.789062 6.449219 2h-42.847656c1.941406-1.210938 4.160156-1.898438 6.445312-2zm-14.976563-167.585938c4.527344-.003906 8.339844 3.375 8.882813 7.867188.542969 4.492187-2.363281 8.679687-6.757813 9.75-4.398437 1.070312-8.902343-1.316406-10.484374-5.558594.007812-.15625.023437-.3125.023437-.472656 0-1.023438-.195313-2.039063-.582031-2.988282.183594-4.792968 4.121094-8.589843 8.917968-8.597656zm-97.648437 34.929688 26.359375 70.65625h-52.714844zm31.511719 86.65625c-3.851563 13-17.730469 20.03125-31.507813 20.03125-12.777343 0-27.398437-6.03125-31.277343-20.03125zm0 0"/></svg>