<svg height="472pt" viewBox="-54 0 472 472" width="472pt" xmlns="http://www.w3.org/2000/svg"><path d="m364 427.027344v-319c-.195312-2.925782-1.699219-5.605469-4.089844-7.300782l-103.347656-95.554687c-1.804688-3.125-5.109375-5.0859375-8.71875-5.171875h-200.761719c-25.976562 0-47.082031 20.175781-47.082031 44.972656v382.054688c0 24.796875 21.105469 44.972656 47.082031 44.972656h269.835938c25.976562 0 47.082031-20.175781 47.082031-44.972656zm-107-399.527344 77.917969 71.5h-66.21875c-6.371094 0-11.699219-4.300781-11.699219-10.082031zm91 399.53125c0 15.96875-13.929688 28.96875-31.082031 28.96875h-269.835938c-17.152343 0-31.082031-13-31.082031-28.972656v-382.054688c0-15.972656 13.929688-28.972656 31.082031-28.972656h193.917969v72.917969c0 14.601562 12.507812 26.082031 27.699219 26.082031h79.300781zm0 0"/><path d="m53 297c0 4.417969 3.582031 8 8 8h242c4.417969 0 8-3.582031 8-8s-3.582031-8-8-8h-242c-4.417969 0-8 3.582031-8 8zm0 0"/><path d="m303 329h-242c-4.417969 0-8 3.582031-8 8s3.582031 8 8 8h242c4.417969 0 8-3.582031 8-8s-3.582031-8-8-8zm0 0"/><path d="m221 369h-160c-4.417969 0-8 3.582031-8 8s3.582031 8 8 8h160c4.417969 0 8-3.582031 8-8s-3.582031-8-8-8zm0 0"/><path d="m85.476562 209.242188-6.226562 36.433593c-.511719 3 .722656 6.035157 3.191406 7.824219 2.464844 1.785156 5.730469 2.019531 8.425782.597656l32.574218-17.183594 32.574219 17.1875c2.695313 1.417969 5.960937 1.1875 8.425781-.601562 2.46875-1.785156 3.703125-4.820312 3.191406-7.824219l-6.226562-36.433593 26.375-25.796876c2.171875-2.128906 2.953125-5.304687 2.011719-8.199218-.941407-2.890625-3.441407-5-6.453125-5.4375l-36.425782-5.3125-16.292968-33.128906c-1.347656-2.734376-4.128906-4.46875-7.179688-4.46875-3.046875 0-5.832031 1.734374-7.179687 4.46875l-16.296875 33.132812-36.425782 5.308594c-3.011718.4375-5.511718 2.546875-6.453124 5.441406-.941407 2.890625-.164063 6.066406 2.011718 8.195312zm20.964844-29.519532c2.609375-.378906 4.863282-2.019531 6.027344-4.382812l10.972656-22.316406 10.972656 22.316406c1.164063 2.363281 3.417969 4.003906 6.027344 4.382812l24.597656 3.585938-17.816406 17.425781c-1.878906 1.839844-2.734375 4.480469-2.289062 7.070313l4.199218 24.570312-21.953124-11.582031c-2.335938-1.230469-5.132813-1.230469-7.464844 0l-21.957032 11.582031 4.203126-24.570312c.441406-2.589844-.417969-5.230469-2.292969-7.070313l-17.820313-17.425781zm0 0"/></svg>