<svg height="496pt" viewBox="0 0 496 496" width="496pt" xmlns="http://www.w3.org/2000/svg"><path d="m488 120c4.425781 0 8-3.574219 8-8v-32c0-4.425781-3.574219-8-8-8h-24v-16h8c4.425781 0 8-3.574219 8-8v-8c0-22.054688-17.945312-40-40-40s-40 17.945312-40 40v8c0 4.425781 3.574219 8 8 8h8v16h-24c-4.425781 0-8 3.574219-8 8v32c0 4.425781 3.574219 8 8 8h8v16h-304v-16h8c4.425781 0 8-3.574219 8-8v-32c0-4.425781-3.574219-8-8-8h-24v-16h8c4.425781 0 8-3.574219 8-8v-8c0-22.054688-17.945312-40-40-40s-40 17.945312-40 40v8c0 4.425781 3.574219 8 8 8h8v16h-24c-4.425781 0-8 3.574219-8 8v32c0 4.425781 3.574219 8 8 8h8v256h-8c-4.425781 0-8 3.574219-8 8v32c0 4.425781 3.574219 8 8 8h24v16h-8c-4.425781 0-8 3.574219-8 8v8c0 22.054688 17.945312 40 40 40s40-17.945312 40-40v-8c0-4.425781-3.574219-8-8-8h-8v-16h24c4.425781 0 8-3.574219 8-8v-32c0-4.425781-3.574219-8-8-8h-8v-16h304v16h-8c-4.425781 0-8 3.574219-8 8v32c0 4.425781 3.574219 8 8 8h24v16h-8c-4.425781 0-8 3.574219-8 8v8c0 22.054688 17.945312 40 40 40s40-17.945312 40-40v-8c0-4.425781-3.574219-8-8-8h-8v-16h24c4.425781 0 8-3.574219 8-8v-32c0-4.425781-3.574219-8-8-8h-8v-256zm-48-104c13.230469 0 24 10.769531 24 24h-48c0-13.230469 10.769531-24 24-24zm-8 40h16v16h-16zm-32 32h80v16h-80zm-344-72c13.230469 0 24 10.769531 24 24h-48c0-13.230469 10.769531-24 24-24zm-8 40h16v16h-16zm-32 32h80v16h-80zm40 392c-13.230469 0-24-10.769531-24-24h48c0 13.230469-10.769531 24-24 24zm8-40h-16v-16h16zm32-32h-80v-16h80zm-64-32v-256h48v256zm64-32v-192h304v192zm344 136c-13.230469 0-24-10.769531-24-24h48c0 13.230469-10.769531 24-24 24zm8-40h-16v-16h16zm32-32h-80v-16h80zm-16-32h-48v-256h48zm0 0"/><path d="m112 168h112v16h-112zm0 0"/><path d="m112 200h112v16h-112zm0 0"/><path d="m112 232h112v16h-112zm0 0"/><path d="m112 264h112v16h-112zm0 0"/><path d="m272 216h112v16h-112zm0 0"/><path d="m272 248h112v16h-112zm0 0"/><path d="m272 280h112v16h-112zm0 0"/><path d="m272 312h112v16h-112zm0 0"/></svg>