<svg height="494pt" viewBox="-72 0 494 494.25262" width="494pt" xmlns="http://www.w3.org/2000/svg"><path d="m73.769531 344.25h202.722657c3.867187 0 6.640624-3.335938 6.640624-7.199219v-30c0-26.183593-20.941406-47.800781-47.125-47.800781h-21.875v-9.429688c2.863282-2.160156 5.527344-4.574218 7.960938-7.214843 12.320312-12.679688 19.160156-29.695313 19.039062-47.375v-33.101563c3.515626-.316406 6.160157-3.347656 6-6.878906v-20c-.003906-2.71875-1.578124-5.1875-4.042968-6.335938-.011719-.105468-.019532-.3125-.035156-.417968-4.070313-33.144532-32.636719-58.246094-66.449219-58.246094h-2.898438c-17.410156.003906-34.140625 6.765625-46.664062 18.859375-10.882813 10.398437-17.871094 24.214844-19.796875 39.140625h-1.113282c-3.867187 0-7 3.136719-7 7v20c0 3.867188 3.132813 7 7 7h3v32.980469c-.09375 17.6875 6.769532 34.703125 19.113282 47.375 2.402344 2.609375 5.039062 4.984375 7.886718 7.097656v9.546875h-21.878906c-26.183594 0-47.121094 21.617188-47.121094 47.800781v30c0 3.863281 2.769532 7.199219 6.636719 7.199219zm153.363281-154.949219-20.019531 2.042969c7.394531-1.90625 12.691407-7.558594 12.691407-14.414062 0-7.230469-5.746094-13.101563-13.777344-14.679688h21.105468zm-53.421874-105.050781h2.902343c25.820313-.046875 47.902344 18.550781 52.25 44h-107.453125c4.523438-25.371094 26.53125-43.886719 52.300782-44zm-60.578126 58h120v6h-120zm53.582032 34.679688c0-7.230469-5.816406-13.101563-13.847656-14.679688h44.527343c-8.03125 1.574219-13.847656 7.449219-13.847656 14.679688 0 8.207031 7.5 14.675781 17.234375 15.066406l-6.683594.679687-15.390625-9.144531c-2.203125-1.308594-4.949219-1.308594-7.152343 0l-15.390626 9.144531-6.683593-.679687c9.734375-.390625 17.234375-6.859375 17.234375-15.066406zm-18.164063 1.105468c-1.375.054688-2.734375-.332031-3.875-1.105468 2.371094-1.476563 5.378907-1.476563 7.753907 0-1.144532.773437-2.5 1.160156-3.878907 1.105468zm49.28125-1.105468c2.375-1.476563 5.382813-1.476563 7.753907 0-2.375 1.472656-5.378907 1.472656-7.753907 0zm-74.699219-14.679688h21.097657c-8.03125 1.574219-13.847657 7.449219-13.847657 14.679688 0 6.855468 5.367188 12.507812 12.761719 14.414062l-20.011719-2.042969zm.359376 41.1875 33.558593 3.402344c1.492188.148437 2.988281-.183594 4.28125-.945313l13.800781-8.203125 13.796876 8.203125c1.082031.640625 2.316406.980469 3.578124.980469.234376 0 .46875-.011719.703126-.035156l33.558593-3.402344c-1.726562 11.101562-6.878906 21.378906-14.742187 29.402344-9.613282 10.101562-22.949219 15.820312-36.894532 15.820312-13.949218 0-27.285156-5.71875-36.898437-15.820312-7.863281-8.023438-13.015625-18.300782-14.742187-29.402344zm76.640624 54.328125v4.914063l-6.796874 4.121093c-11.53125 7.101563-26.121094 6.945313-37.5-.40625l-5.703126-3.617187v-5.074219c16.007813 6.589844 33.96875 6.613281 50 .0625zm-85.878906 15.484375h26.976563l6.960937 4.699219c15.890625 10.296875 36.292969 10.488281 52.375.496093l8.222656-5.203124h27.21875c16.324219.09375 30.222657 11.90625 32.941407 28h-187.636719c2.722656-16.09375 16.621094-27.902344 32.941406-27.992188zm-33.121094 42h188v15h-188zm0 0"/><path d="m342.492188 33.25h-25.359376v-8.058594c0-4.417968-3.941406-7.941406-8.359374-7.941406h-30.640626v-9.25c0-4.417969-3.582031-8-8-8-4.421874 0-8 3.582031-8 8v9.25h-31.625c-4.417968 0-8.375 3.523438-8.375 7.941406v8.058594h-94v-8.058594c0-4.417968-3.960937-7.941406-8.378906-7.941406h-31.621094v-9.25c0-4.417969-3.582031-8-8-8-4.421874 0-8 3.582031-8 8v9.25h-30.644531c-4.417969 0-8.355469 3.523438-8.355469 7.941406v8.058594h-25.363281c-2.042969-.070312-4.027343.710938-5.472656 2.15625-1.449219 1.445312-2.234375 3.429688-2.164063 5.472656v445.625c-.0742182 2.054688.703126 4.050782 2.148438 5.519532 1.445312 1.464843 3.429688 2.269531 5.488281 2.226562h334.722657c2.058593.042969 4.042968-.761719 5.488281-2.226562 1.445312-1.46875 2.222656-3.464844 2.152343-5.519532v-445.625c.066407-2.042968-.71875-4.027344-2.167968-5.472656-1.445313-1.445312-3.429688-2.226562-5.472656-2.15625zm-104.359376 0h63v15h-63zm-189 0h63v15h-63zm285 445h-318v-429h17v6.859375c.15625 4.511719 3.839844 8.101563 8.355469 8.140625h78.265625c4.519532-.035156 8.210938-3.625 8.378906-8.140625v-6.859375h94v6.859375c.164063 4.515625 3.855469 8.105469 8.375 8.140625h78.265626c4.515624-.039062 8.199218-3.628906 8.359374-8.140625v-6.859375h17zm0 0"/><path d="m43.210938 374.25h86.632812c4.417969 0 8-3.582031 8-8s-3.582031-8-8-8h-86.632812c-4.417969 0-8 3.582031-8 8s3.582031 8 8 8zm0 0"/><path d="m307.050781 394.25h-263.839843c-4.417969 0-8 3.582031-8 8s3.582031 8 8 8h263.839843c4.417969 0 8-3.582031 8-8s-3.582031-8-8-8zm0 0"/><path d="m307.050781 431.25h-263.839843c-4.417969 0-8 3.582031-8 8s3.582031 8 8 8h263.839843c4.417969 0 8-3.582031 8-8s-3.582031-8-8-8zm0 0"/></svg>