<svg height="487pt" viewBox="-12 0 487 487.68786" width="487pt" xmlns="http://www.w3.org/2000/svg"><path d="m53.355469 46.1875v14.597656c0 24.578125 19.925781 44.5 44.5 44.5 24.578125 0 44.5-19.921875 44.5-44.5v-14.597656c0-24.578125-19.921875-44.5-44.5-44.5-24.574219 0-44.5 19.921875-44.5 44.5zm73 0v14.597656c0 15.742188-12.757813 28.5-28.5 28.5-15.738281 0-28.5-12.757812-28.5-28.5v-14.597656c0-15.742188 12.761719-28.5 28.5-28.5 15.742187 0 28.5 12.757812 28.5 28.5zm0 0"/><path d="m156.527344 105.363281c-1.535156-.199219-3.078125-.320312-4.625-.363281h-19.21875c-2.050782.050781-4.003906.871094-5.472656 2.300781l-27.941407 26.285157-26.851562-26.222657c-1.484375-1.480469-3.484375-2.328125-5.578125-2.363281h-20.394532c-25.386718.191406-45.914062 20.726562-46.101562 46.109375 0 1.402344.011719 2.878906.011719 4.277344v111.796875c0 15.507812 12.988281 27.816406 28.492187 27.816406h.007813l.3125.148438c4.742187-.027344 9.394531-1.289063 13.5-3.65625l4.972656 167.417968c.421875 12.058594 8.074219 22.671875 19.378906 26.886719 11.304688 4.214844 24.035157 1.199219 32.25-7.640625 8.210938 8.851562 20.949219 11.871094 32.261719 7.652344 11.3125-4.222656 18.957031-14.851563 19.367188-26.914063l4.964843-167.101562c4.113281 2.3125 8.757813 3.523437 13.476563 3.519531 15.511718-.027344 28.058594-12.636719 28.015625-28.148438v-111.777343c1.128906-11.980469-2.464844-23.929688-10.015625-33.300781-7.617188-9.472657-18.714844-15.496094-30.8125-16.722657zm-21.597656 353.082031c-.25 7.546876-6.519532 13.492188-14.070313 13.335938-7.550781-.160156-13.570313-6.359375-13.503906-13.910156v-164.871094c0-4.417969-3.582031-8-8-8s-8 3.582031-8 8v164.867188c-.027344 7.640624-6.226563 13.820312-13.867188 13.824218-7.417969.066406-13.546875-5.777344-13.832031-13.191406l-5.746094-192.5h82.714844zm46.597656-304.253906c-.027344.269532-.171875.539063-.171875.808594v112.164062c0 6.628907-5.371094 12-12 12-6.625 0-12-5.371093-12-12v-24.429687l.117187-3.878906c.015625-.550781-.117187-1.09375-.117187-1.617188v-45.148437c0-4.417969-3.582031-8-8-8s-8 3.582031-8 8v50.433594l-.253907 7.476562h-83.667968l-.152344-11.539062c-.007812-.371094.074219-.808594.074219-1.164063v-45.207031c0-4.417969-3.582031-8-8-8s-8 3.582031-8 8v74.523437c-.042969 6.820313-5.5625 12.339844-12.382813 12.386719h-.121094c-6.6875 0-12.496093-5.136719-12.496093-11.820312v-112.179688c0-.269531.167969-.539062.140625-.808594-.796875-8.460937 1.988281-16.867187 7.683594-23.175781 5.691406-6.308594 13.769531-9.941406 22.265624-10.015625h17.144532l30 29.3125c.046875.046875.097656.152344.148437.203125.113281.105469.230469.242187.347657.339844.089843.074219.183593.160156.273437.230469.121094.089843.242187.1875.367187.269531.101563.066406.203126.132812.300782.191406.125.074219.246094.148437.375.21875.105468.054687.214844.113281.324218.164063.113282.054687.25.117187.375.167968.125.054688.234376.09375.351563.136719.117187.039063.246094.085937.375.125.125.035156.242187.070313.367187.097656.125.03125.25.0625.378907.089844.125.023437.246093.046875.371093.0625.125.019531.261719.039063.390626.050781.128906.015625.246093.023438.367187.03125.125.007813.269531.011719.402344.011719h.359375c.136718 0 .273437-.011719.410156-.023437.117188-.011719.234375-.023438.351562-.039063.136719-.019531.273438-.042969.414063-.066406.113281-.023438.226563-.046875.339844-.070313.136719-.035156.273437-.070312.410156-.109375.113281-.03125.222656-.066406.332031-.097656.136719-.046875.269532-.09375.402344-.148437.109375-.042969.21875-.089844.324219-.140626.128906-.054687.257812-.117187.382812-.183593.109375-.054688.214844-.113281.324219-.175781.105469-.0625.238281-.140626.355469-.21875.117187-.074219.210937-.140626.3125-.214844.105469-.074219.230469-.164063.339843-.253906.109376-.089844.195313-.160157.289063-.246094.0625-.054688.128906-.234375.1875-.289063l31.210937-29.425781h16.050782c.984375.042969 1.96875.136719 2.945312.28125 16.4375 1.753906 28.367188 16.46875 26.679688 32.910156zm0 0"/><path d="m430.398438 1.570312-19.566407-.316406-161.085937-1.253906h-.300782c-18.648437 0-34.089843 14.878906-34.089843 32.921875v.03125l-.523438 125.546875c-.070312 8.859375 3.519531 17.355469 9.921875 23.476562 6.386719 6.183594 14.914063 9.660157 23.800782 9.699219l7.382812.140625-2.988281 48.773438c-.191407 3.148437 1.484375 6.117187 4.28125 7.582031 2.792969 1.460937 6.1875 1.140625 8.664062-.816406l69.371094-54.765625 94.03125.40625h.304687c8.8125.035156 17.304688-3.304688 23.738282-9.332032 6.503906-6.03125 10.230468-14.480468 10.296875-23.351562l.550781-125.550781c.074219-8.859375-3.511719-17.355469-9.914062-23.480469-6.40625-6.199219-14.960938-9.679688-23.875-9.710938zm17.242187 158.628907c-.054687 4.492187-1.957031 8.757812-5.261719 11.800781-3.472656 3.242188-8.058594 5.03125-12.8125 5h-97.066406c-1.773438-.078125-3.523438.449219-4.957031 1.5l-57.53125 45.328125 2.40625-39.300781c.136719-2.179688-.621094-4.320313-2.097657-5.933594-1.476562-1.609375-3.546874-2.546875-5.734374-2.59375l-15.808594-.308594c-4.796875 0-9.40625-1.859375-12.863282-5.1875-3.257812-3.097656-5.089843-7.40625-5.0625-11.898437l.550782-125.714844c.082031-9.261719 8.160156-16.890625 18.054687-16.890625h.164063l161.085937 1.253906 19.550781.242188c4.800782.015625 9.414063 1.886718 12.867188 5.222656 3.257812 3.105469 5.085938 7.414062 5.058594 11.914062zm0 0"/><path d="m420.070312 104.382812-19.507812-52.289062c-.027344-.078125-.066406-.148438-.097656-.222656-.058594-.140625-.117188-.28125-.183594-.417969-.054688-.117187-.113281-.226563-.171875-.339844-.058594-.109375-.125-.230469-.191406-.339843-.070313-.113282-.148438-.234376-.226563-.351563-.066406-.097656-.132812-.199219-.199218-.300781-.082032-.109375-.171876-.21875-.261719-.328125-.085938-.109375-.152344-.183594-.234375-.273438-.082032-.089843-.183594-.203125-.277344-.292969-.097656-.09375-.183594-.179687-.277344-.265624-.09375-.085938-.191406-.167969-.292968-.25-.097657-.078126-.207032-.167969-.3125-.246094-.105469-.078125-.207032-.148438-.3125-.21875-.105469-.070313-.21875-.144532-.332032-.214844-.113281-.066406-.238281-.132812-.355468-.199219-.121094-.066406-.214844-.113281-.328126-.167969-.140624-.066406-.28125-.125-.425781-.183593-.074219-.03125-.140625-.066407-.21875-.09375-.027343-.011719-.054687-.015625-.082031-.027344-.148438-.054687-.304688-.097656-.457031-.144531-.101563-.03125-.203125-.0625-.308594-.089844-.140625-.035156-.28125-.0625-.425781-.089844-.117188-.023437-.234375-.050781-.355469-.066406-.117187-.019531-.246094-.027344-.371094-.039062-.125-.011719-.273437-.03125-.410156-.039063-.109375-.003906-.21875 0-.324219 0-.15625 0-.308594-.003906-.460937 0-.097657.003906-.191407.019531-.289063.027344-.164062.015625-.332031.027343-.492187.050781-.089844.015625-.175781.035156-.261719.050781-.175781.03125-.347656.066407-.515625.109375-.085937.019532-.167969.046875-.25.070313-.171875.050781-.34375.101562-.515625.164062-.023438.007813-.046875.015625-.070312.023438-.066407.023437-.128907.054687-.195313.082031-.152344.0625-.308594.125-.457031.199219-.101563.050781-.199219.101562-.300782.15625-.097656.058593-.210937.109375-.3125.167969h-33.199218c-2.328125-7.105469-8.960938-11.910157-16.4375-11.910157-7.480469 0-14.113282 4.804688-16.441406 11.910157h-33.199219c-.101563-.054688-.195313-.105469-.292969-.15625-.097656-.050782-.21875-.117188-.332031-.171876-.136719-.066406-.277344-.125-.417969-.179687-.078125-.03125-.148438-.070313-.222656-.101563-.027344-.011718-.058594-.015624-.085938-.027343-.152344-.054688-.3125-.097657-.46875-.144531-.101562-.03125-.191406-.0625-.289062-.085938-.160156-.039062-.316406-.070312-.476563-.101562-.101562-.015626-.203125-.039063-.300781-.054688-.160156-.023438-.320312-.039062-.480469-.050781-.097656-.011719-.199219-.023438-.296875-.027344-.160156-.007813-.320312 0-.476562 0-.101563 0-.199219 0-.300782 0-.152343.007813-.300781.023437-.453124.039063-.109376.011718-.21875.019531-.328126.035156-.136718.019531-.273437.050781-.410156.078125-.121094.027343-.242187.046875-.363281.078125s-.246094.070312-.371094.109375c-.121093.035156-.261719.078125-.390625.121093-.035156.011719-.066406.019532-.101562.035157-.089844.03125-.175782.074219-.261719.109375-.125.054687-.246094.101562-.363281.160156-.121094.054688-.253906.125-.378906.191406-.097657.058594-.207032.113282-.304688.171875-.128906.078125-.253906.160157-.375.242188-.09375.058593-.183594.125-.273438.1875-.117187.089843-.234374.179687-.347656.273437-.085937.074219-.175781.148438-.261718.226563-.101563.089843-.199219.1875-.300782.285156-.097656.097656-.175781.179687-.257812.273437-.085938.09375-.171875.191407-.25.292969-.082032.097657-.171875.207031-.25.3125-.082032.109375-.144532.199219-.214844.308594-.066406.105469-.148438.222656-.21875.339844-.070312.117187-.128906.230469-.191406.347656s-.121094.21875-.175782.332031c-.0625.136719-.121093.28125-.179687.421875-.03125.074219-.066406.144531-.101563.222657l-19.503906 52.289062c-1.980468 1.507812-3.144531 3.855469-3.144531 6.34375 0 16.378906 12.394531 27.816406 30.144531 27.816406 17.558594 0 30.300782-11.699218 30.300782-27.816406 0-2.585938-1.253907-5.011719-3.363282-6.507812l-14.988281-40.210938h28.105469c1.566406 1.917969 3.480468 3.523438 5.640625 4.738281v70.261719h-8.203125c-4.417969 0-8 3.582031-8 8s3.582031 8 8 8h32.4375c4.417968 0 8-3.582031 8-8s-3.582032-8-8-8h-8.234375v-70.261719c2.167969-1.214843 4.09375-2.820312 5.671875-4.738281h28.105468l-15 40.21875c-2.113281 1.496094-3.363281 3.921875-3.363281 6.511719 0 16.375 12.398438 27.8125 30.140625 27.8125 17.558594 0 30.300782-11.699219 30.300782-27.8125 0-2.492188-1.160157-4.835938-3.140626-6.347657zm-134.402343-26.335937 9.3125 24.953125h-18.617188zm0 44.765625c-2.199219 0-7.691407-.8125-11.148438-3.8125h22.335938c-3.699219 3-9.582031 3.8125-11.183594 3.8125zm53.699219-68.097656c-.722657 0-1.3125-.585938-1.3125-1.3125 0-.726563.585937-1.3125 1.3125-1.3125.726562-.003906 1.3125.585937 1.3125 1.308594 0 .726562-.585938 1.308593-1.308594 1.3125zm53.703124 23.335937 9.304688 24.949219h-18.617188zm-.160156 44.765625c-2.199218 0-7.691406-.8125-11.148437-3.8125h22.335937c-3.703125 2.996094-9.585937 3.808594-11.1875 3.808594zm0 0"/></svg>