<?xml version="1.0" encoding="iso-8859-1"?>
<!-- Generator: Adobe Illustrator 19.0.0, SVG Export Plug-In . SVG Version: 6.00 Build 0)  -->
<svg version="1.1" id="Capa_1" xmlns="http://www.w3.org/2000/svg" xmlns:xlink="http://www.w3.org/1999/xlink" x="0px" y="0px"
	 viewBox="0 0 463.052 463.052" style="enable-background:new 0 0 463.052 463.052;" xml:space="preserve">
<path d="M338.296,0.917c-8.757-3.628-18.897,3.29-36.167,24.665c-11.032,13.655-24.846,33.246-41.058,58.228
	c-27.472,42.333-52.777,86.265-53.029,86.704c-1.28,2.226-1.333,4.952-0.139,7.225l27.406,52.213l-14.125,34.1h-39.8
	c-12.958,0-23.5,10.542-23.5,23.5c0,10.336,6.71,19.128,16,22.266v1.734c0,4.687-3.813,8.5-8.5,8.5h-11.751
	c-11.325,0-22.118,4.869-29.613,13.359c-7.494,8.49-10.987,19.804-9.582,31.041l10.453,83.625c-3.911,0.255-7.007,3.499-7.007,7.475
	c0,4.142,3.358,7.5,7.5,7.5h176c4.142,0,7.5-3.358,7.5-7.5c0-3.976-3.096-7.22-7.007-7.475l10.453-83.625
	c1.405-11.237-2.088-22.551-9.583-31.041c-7.495-8.49-18.288-13.359-29.612-13.359h-11.751c-4.687,0-8.5-3.813-8.5-8.5v-1.734
	c9.29-3.138,16-11.93,16-22.266c0-12.958-10.542-23.5-23.5-23.5h-7.964l17.204-41.534l39.999-18.215
	c1.77-0.806,3.157-2.267,3.87-4.076c0.177-0.449,17.865-45.455,32.072-91.228c8.403-27.074,13.982-49.189,16.582-65.73
	C349.805,26.358,351.201,6.263,338.296,0.917z M261.384,335.052h11.751c7.024,0,13.718,3.02,18.367,8.286
	c4.649,5.266,6.815,12.284,5.944,19.253l-10.683,85.461H140.004l-10.683-85.461c-0.871-6.97,1.295-13.987,5.943-19.253
	c4.649-5.266,11.343-8.286,18.368-8.286h11.751c12.958,0,23.5-10.542,23.5-23.5v-0.5h49v0.5
	C237.884,324.51,248.426,335.052,261.384,335.052z M253.884,287.552c0,4.687-3.813,8.5-8.5,8.5h-64c-4.687,0-8.5-3.813-8.5-8.5
	s3.813-8.5,8.5-8.5h64C250.071,279.052,253.884,282.865,253.884,287.552z M314.897,108.841
	c-11.723,37.18-25.36,72.973-29.266,83.074l-22.593,10.288L311.74,84.627c1.585-3.827-0.232-8.214-4.059-9.799
	c-3.827-1.584-8.214,0.232-9.799,4.059L242.78,211.913l-19.672-37.479c6.236-10.711,25.768-43.95,47.207-77.29
	c42.457-66.023,57.878-79.014,62.506-81.548C334.414,19.55,337.407,37.451,314.897,108.841z"/>
<g>
</g>
<g>
</g>
<g>
</g>
<g>
</g>
<g>
</g>
<g>
</g>
<g>
</g>
<g>
</g>
<g>
</g>
<g>
</g>
<g>
</g>
<g>
</g>
<g>
</g>
<g>
</g>
<g>
</g>
</svg>
