<svg height="456pt" viewBox="-48 0 456 456.00147" width="456pt" xmlns="http://www.w3.org/2000/svg"><path d="m89.5 409.074219c16.234375 29.015625 46.898438 46.972656 80.148438 46.925781h99.226562c50.582031.003906 91.628906-40.929688 91.761719-91.511719.097656-93.300781.175781-217.046875.015625-276.785156-.082032-18.613281-15.183594-33.667969-33.800782-33.699219h-9.535156c-6.3125.066406-12.476562 1.898438-17.800781 5.289063-.207031-18.5-15.300781-33.367188-33.800781-33.292969h-10.148438c-6.367187-.019531-12.609375 1.769531-18 5.164062-1.441406-17.578124-16.109375-31.1210932-33.746094-31.164062h-10.191406c-9.023437-.0820312-17.710937 3.433594-24.136718 9.769531-6.417969 6.253907-10.0625 14.816407-10.117188 23.777344v2.257813c-5.210938-3.269532-11.265625-4.941407-17.414062-4.804688h-9.585938v-.152344c-8.957031-.070312-17.566406 3.449219-23.914062 9.769532-6.34375 6.320312-9.890626 14.921874-9.851563 23.878906-.105469 42.765625-.085937 122.777344-.050781 186.46875l-10.730469-12.226563c-19.546875-22.054687-53.125-24.480469-75.636719-5.460937l-9.089844 7.035156c-3.1249995 2.390625-4.015624 6.714844-2.089843 10.144531zm-67.355469-163.273438c.105469-.082031.210938-.167969.3125-.253906 15.839844-13.492187 39.566407-11.828125 53.371094 3.746094l24.761719 28.136719c2.199218 2.5 5.714844 3.378906 8.832031 2.199218 3.113281-1.175781 5.175781-4.15625 5.171875-7.488281-.046875-66.015625-.0625-159.867187.054688-207.527344.054687-9.78125 8.027343-17.667969 17.808593-17.613281h9.5c4.707031-.027344 9.226563 1.816406 12.570313 5.128906 3.339844 3.308594 5.230468 7.8125 5.246094 12.515625.007812 4.300781.015624 8.023438.023437 11.386719.011719 4.242188.023437 7.75.019531 10.710938 0 .011718-.007812.007812-.011718.019531-.039063.117187-.070313.226562-.101563.34375-.039063.132812-.082031.257812-.113281.394531-.058594.253906-.109375.515625-.140625.777344-.042969.3125-.070313.617187-.082031.921875-.011719.300781 0 .597656.019531.898437-.015625 4.875-.007813 18.253906-.007813 34.429688v75.382812 8.007813.570312c-.003906 2.121094.839844 4.15625 2.339844 5.65625 1.5 1.503907 3.539062 2.34375 5.660156 2.34375h.046875c.257813 0 .507813-.015625.757813-.039062.179687-.019531.351562-.050781.527344-.078125.082031-.015625.167968-.023438.25-.039063 3.613281-.707031 6.261718-3.804687 6.402343-7.480469 0-.035156.007813-.066406.007813-.101562 0-.03125 0-.042969 0-.066406v-116.78125c.183594-.535156.308594-1.085938.375-1.644532.175781-1.441406.5-4.125.058594-51.585937.003906-1.664063.007812-3.375.003906-5.136719.011718-4.695312 1.902344-9.195312 5.25-12.488281s7.875-5.113281 12.570312-5.046875h10.191406c4.65625-.050781 9.140626 1.769531 12.445313 5.054688 3.300781 3.289062 5.140625 7.765624 5.109375 12.421874v.144532c0 68.410156-.082031 157.097656-.011719 174.183594l.011719.675781v.144531c.035156 4.417969 3.648438 7.96875 8.066406 7.933594 4.417969-.035156 7.96875-3.648438 7.933594-8.066406l.140625-.785157c.050781-20.984375.277344-93.675781.175781-148.191406-.007812-4.6875 1.882813-9.179687 5.238282-12.449219 3.363281-3.3125 7.917968-5.140625 12.636718-5.066406h10.148438c9.769531-.054688 17.734375 7.8125 17.800781 17.582031l.007813 2.585938c-.398438 51.4375-.023438 124.394531.101562 145.542969v.792968c.003906 4.417969 3.589844 7.996094 8.007812 7.992188 4.417969-.007813 7.996094-3.589844 7.992188-8.007813 0-.683593-.019531-75.449219-.136719-120.480469-.035156-9.890624 7.9375-17.945312 17.828125-18.007812h9.539063c9.820312.050781 17.761719 8.003906 17.800781 17.820312.160156 59.714844.082031 183.332032-.015625 276.613282-.109375 41.765625-34 75.570312-75.765625 75.566406h-99.226562c-27.449219.050781-52.769532-14.765625-66.175782-38.714844l-85.132812-152.613281zm0 0"/></svg>