<svg height="496pt" viewBox="0 0 496 496" width="496pt" xmlns="http://www.w3.org/2000/svg"><path d="m176 136v-16c0-30.871094-25.121094-56-56-56h-24v16h24c22.054688 0 40 17.945312 40 40v16zm0 0"/><path d="m176 232v-80h-16v80c0 4.414062-3.59375 8-8 8h-32v16h32c13.230469 0 24-10.769531 24-24zm0 0"/><path d="m96 160h16v72h-16zm0 0"/><path d="m96 128h16v16h-16zm0 0"/><path d="m144 272h-24c-22.054688 0-40-17.945312-40-40v-24h-16v24c0 30.871094 25.121094 56 56 56h24zm0 0"/><path d="m144 224v-104c0-13.230469-10.769531-24-24-24h-32c-13.230469 0-24 10.769531-24 24v72h16v-72c0-4.414062 3.59375-8 8-8h32c4.40625 0 8 3.585938 8 8v104zm0 0"/><path d="m208 232v-112c0-41.6875-29.609375-77.953125-70.40625-86.238281l-3.1875 15.6875c33.371094 6.765625 57.59375 36.4375 57.59375 70.550781v112c0 10.015625-2.015625 19.703125-5.992188 28.800781l14.664063 6.40625c4.863281-11.128906 7.328125-22.976562 7.328125-35.207031zm0 0"/><path d="m32 120v64h16v-64c0-39.703125 32.304688-72 72-72v-16c-48.519531 0-88 39.480469-88 88zm0 0"/><path d="m32 200h16v16h-16zm0 0"/><path d="m120 320c5.902344 0 11.824219-.59375 17.59375-1.761719l-3.179688-15.6875c-4.726562.960938-9.574218 1.449219-14.414062 1.449219-39.695312 0-72-32.296875-72-72h-16c0 48.519531 39.480469 88 88 88zm0 0"/><path d="m190.398438 284.808594-12.796876-9.609375c-7.480468 9.960937-17.441406 17.847656-28.808593 22.824219l6.40625 14.65625c13.898437-6.078126 26.074219-15.71875 35.199219-27.871094zm0 0"/><path d="m16 232v-112c0-21.398438 6.449219-41.945312 18.640625-59.425781l-13.128906-9.148438c-14.070313 20.175781-21.511719 43.886719-21.511719 68.574219v112c0 21.097656 5.550781 41.839844 16.054688 60.007812l13.847656-8.015624c-9.09375-15.726563-13.902344-33.710938-13.902344-51.992188zm0 0"/><path d="m38.28125 296.335938-12.5625 9.902343c7.335938 9.304688 15.984375 17.464844 25.707031 24.242188l9.148438-13.128907c-8.429688-5.863281-15.925781-12.945312-22.292969-21.015624zm0 0"/><path d="m120 16c57.34375 0 104 46.65625 104 104v40h16v-40c0-15.601562-3.089844-30.472656-8.527344-44.160156l19.839844-19.839844h77.40625c3.824219 22.664062 23.539062 40 47.28125 40 26.472656 0 48-21.527344 48-48s-21.527344-48-48-48c-23.734375 0-43.449219 17.335938-47.28125 40h-80.71875c-2.121094 0-4.160156.839844-5.65625 2.34375l-18.230469 18.230469c-20.707031-36.125-59.570312-60.574219-104.113281-60.574219-18 0-35.304688 3.886719-51.433594 11.550781l6.867188 14.457031c13.972656-6.640624 28.964844-10.007812 44.566406-10.007812zm256 0c17.648438 0 32 14.351562 32 32s-14.351562 32-32 32-32-14.351562-32-32 14.351562-32 32-32zm0 0"/><path d="m60.574219 34.640625-9.148438-13.128906c-5.449219 3.800781-10.632812 8.097656-15.410156 12.777343l11.191406 11.421876c4.144531-4.054688 8.640625-7.78125 13.367188-11.070313zm0 0"/><path d="m496 232c0-66.167969-53.832031-120-120-120s-120 53.832031-120 120c0 55.078125 37.34375 101.480469 88 115.535156v116.464844c0 17.648438 14.351562 32 32 32s32-14.351562 32-32v-116.464844c50.65625-14.054687 88-60.457031 88-115.535156zm-120 248c-8.824219 0-16-7.175781-16-16v-80h32v80c0 8.824219-7.175781 16-16 16zm16-112h-32v-17.191406c5.246094.703125 10.558594 1.191406 16 1.191406s10.753906-.488281 16-1.191406zm-16-32c-57.34375 0-104-46.65625-104-104s46.65625-104 104-104 104 46.65625 104 104-46.65625 104-104 104zm0 0"/><path d="m376 144c-48.519531 0-88 39.480469-88 88h16c0-39.703125 32.304688-72 72-72zm0 0"/><path d="m448 232c0 39.703125-32.304688 72-72 72v16c48.519531 0 88-39.480469 88-88zm0 0"/><path d="m384 240h24v-16h-24v-24h-16v24h-24v16h24v24h16zm0 0"/><path d="m200 384c-16.632812 0-31.542969 7.328125-41.808594 18.878906l-30.191406-30.191406v-21.09375c62.441406-4.144531 112-56.121094 112-119.59375v-56h-16v56c0 57.34375-46.65625 104-104 104-15.601562 0-30.59375-3.367188-44.566406-10.007812l-6.867188 14.457031c13.722656 6.519531 28.320313 10.125 43.433594 11.117187v24.433594c0 2.128906.839844 4.160156 2.34375 5.65625l34.878906 34.878906c-3.320312 7.144532-5.222656 15.082032-5.222656 23.464844 0 30.871094 25.121094 56 56 56s56-25.128906 56-56-25.121094-56-56-56zm0 96c-22.054688 0-40-17.945312-40-40s17.945312-40 40-40 40 17.945312 40 40-17.945312 40-40 40zm0 0"/></svg>