<svg height="469pt" viewBox="0 -3 469.618 469" width="469pt" xmlns="http://www.w3.org/2000/svg"><path d="m317.246094 253.171875c-4.417969 0-8 3.582031-8 8 0 2.410156-1.957032 4.363281-4.367188 4.363281s-4.363281-1.953125-4.363281-4.363281c0-4.417969-3.582031-8-8-8s-8 3.582031-8 8c0 11.246094 9.117187 20.363281 20.363281 20.363281 11.25 0 20.367188-9.117187 20.367188-20.363281 0-4.417969-3.582032-8-8-8zm0 0"/><path d="m366.703125 281.535156c11.242187-.011718 20.351563-9.121094 20.363281-20.363281 0-4.417969-3.582031-8-8-8-4.417968 0-8 3.582031-8 8 0 2.410156-1.953125 4.363281-4.363281 4.363281s-4.363281-1.953125-4.363281-4.363281c0-4.417969-3.582032-8-8-8-4.417969 0-8 3.582031-8 8 .011718 11.242187 9.121094 20.351563 20.363281 20.363281zm0 0"/><path d="m255.617188 275.285156c-.03125 21.5 8.386718 42.15625 23.433593 57.515625 3.566407 3.625 7.4375 6.941407 11.566407 9.910157v11.28125h-27.6875c-31.699219 0-57.3125 26.269531-57.3125 57.96875v43.746093c-.101563 4.4375 3.386718 8.136719 7.824218 8.285157h247.789063c4.550781-.101563 8.230469-3.738282 8.386719-8.285157v-43.746093c0-31.699219-26.175782-57.96875-57.871094-57.96875h-28.128906v-13.414063c3.203124-2.394531 6.246093-4.992187 9.117187-7.777344 15.144531-15.554687 23.882813-35.980469 23.882813-57.515625v-65.292968h9.425781c2.09375.054687 4.125-.734376 5.628906-2.195313 1.507813-1.457031 2.359375-3.460937 2.371094-5.558594-.058594-31.691406-25.804688-57.328125-57.496094-57.246093h-50.953125c-6.691406-.03125-13.222656 2.03125-18.683594 5.898437-30.875 12.0625-51.21875 41.789063-51.292968 74.933594zm73 172.707032h-107v-36.03125c0-22.871094 18.4375-41.96875 41.3125-41.96875h33.136718l32.550782 21.542968zm-22-89.84375v-6.710938c9.214843 3.796875 19.085937 5.738281 29.050781 5.710938 11.027343.011718 21.925781-2.359376 31.949219-6.949219v7.832031l-31.332032 19.6875zm105.128906 11.84375c22.871094 0 41.871094 19.097656 41.871094 41.96875v36.03125h-109v-56.34375l33.699218-21.65625zm-11.128906-94.707032c-.066407 17.359375-6.941407 34.003906-19.140626 46.355469-11.855468 12.457031-28.300781 19.507813-45.5 19.507813-17.199218 0-33.644531-7.050782-45.5-19.507813-12.121093-12.382813-18.894531-29.03125-18.859374-46.355469v-35.347656c13-.527344 36.480468-4.945312 56.402343-29.945312h72.597657zm-75.023438-114.292968h50.953125c19.722656-.167969 36.796875 13.671874 40.722656 33h-91.675781c-9.113281 0-16.5-7.386719-16.5-16.5 0-9.113282 7.386719-16.5 16.5-16.5zm-32.742188 16.859374c.105469 11.914063 6.667969 22.832032 17.136719 28.515626-14.402343 14.058593-29.835937 17.125-38.605469 17.582031.570313-17.652344 8.328126-34.300781 21.46875-46.097657zm0 0"/><path d="m46.085938 164.964844c27.292968 0 46.355468-17.300782 46.355468-42.078125 0-3.144531-1.84375-5.996094-4.710937-7.285157l-30.070313-80.609374h59.285156c2.828126 5.605468 7.734376 9.890624 13.671876 11.941406v111.058594h-6.347657c-10.894531.113281-20.488281 7.195312-23.804687 17.574218-4.011719.605469-6.949219 4.101563-6.847656 8.15625v20.175782c0 4.417968 3.179687 8.09375 7.601562 8.09375h74.4375c4.429688-.050782 7.984375-3.667969 7.960938-8.09375v-20.175782c.023437-4.089844-2.976563-7.570312-7.027344-8.15625-3.402344-10.398437-13.050782-17.46875-23.988282-17.574218h-5.984374v-111.058594c5.839843-2.066406 10.625-6.359375 13.308593-11.941406h59.285157l-30.070313 80.605468c-2.867187 1.292969-4.710937 4.144532-4.710937 7.289063 0 24.773437 18.949218 42.078125 46.082031 42.078125 27.292969 0 46.351562-17.300782 46.351562-42.078125 0-3.007813-1.691406-5.765625-4.378906-7.125l-34.207031-91.699219c-.027344-.078125-.0625-.148438-.097656-.222656-.058594-.140625-.117188-.28125-.179688-.421875-.054688-.113281-.113281-.222657-.175781-.332031-.058594-.109376-.125-.234376-.191407-.347657-.066406-.113281-.144531-.230469-.21875-.339843-.074218-.109376-.140624-.207032-.214843-.304688-.070313-.101562-.164063-.214844-.25-.320312-.085938-.101563-.160157-.199219-.246094-.289063-.085937-.085937-.175781-.183594-.265625-.273437-.089844-.089844-.191406-.191407-.292969-.28125-.101562-.09375-.179687-.15625-.269531-.234376-.113281-.089843-.222656-.179687-.339844-.265624-.089844-.066407-.1875-.132813-.28125-.199219-.117187-.082031-.238281-.160157-.363281-.234375-.101563-.0625-.210937-.121094-.320313-.175782-.105468-.058593-.238281-.132812-.363281-.191406s-.253906-.109375-.378906-.164062c-.085937-.035156-.164063-.074219-.253906-.105469-.027344-.015625-.0625-.019531-.09375-.03125-.136719-.050781-.273438-.089844-.410157-.128906-.117187-.035157-.234374-.074219-.351562-.101563s-.253906-.054687-.382812-.082031c-.128907-.023437-.261719-.054687-.398438-.074219-.117188-.015625-.230469-.023437-.347656-.035156-.144532-.015625-.289063-.035156-.433594-.039062-.105469 0-.214844 0-.320312 0-.15625 0-.308594-.007813-.460938 0-.097656 0-.199219.015624-.304688.027343-.160156.011719-.316406.027344-.476562.050781-.082031.011719-.167969.03125-.253906.046876h-67.5c-2.484375-10.929688-12.203125-18.683594-23.410156-18.683594-11.207032 0-20.925782 7.753906-23.410157 18.683594h-67.496093c-.09375-.019532-.191407-.039063-.289063-.050782-.09375-.015625-.171875-.019531-.257813-.027344-.171874-.023437-.34375-.042968-.519531-.050781-.078125 0-.160156 0-.242187 0-.179688 0-.359375-.003906-.535156 0-.085938 0-.171876.015625-.261719.023438-.171875.015625-.34375.03125-.515625.054687-.09375.015625-.183594.039063-.277344.054688-.164062.03125-.328125.0625-.492188.101562-.097656.023438-.199218.054688-.292968.085938-.15625.042968-.308594.089844-.460938.144531-.03125.011719-.058594.015625-.089844.027344-.078124.03125-.152343.070312-.230468.101562-.136719.054688-.273438.109375-.402344.171875s-.230469.117188-.347656.179688c-.113282.0625-.222656.121094-.332032.1875-.113281.066406-.238281.148437-.351562.222656-.113281.078125-.199219.136719-.300781.207031-.097657.074219-.21875.171875-.324219.257813-.105469.089844-.191406.15625-.28125.242187-.089844.082031-.191406.179688-.285156.273438-.09375.089843-.183594.183593-.273438.28125-.089844.097656-.160156.1875-.238281.28125-.078125.097656-.175781.214843-.257813.328125-.082031.109375-.140624.199218-.207031.296875-.066406.101562-.152343.230469-.226562.351562-.070313.121094-.125.226563-.1875.339844-.0625.117187-.121094.222656-.175781.339844-.0625.136719-.121094.277343-.179688.417969-.03125.074218-.066406.144531-.101562.222656l-34.207032 91.699218c-2.683594 1.359376-4.378906 4.117188-4.378906 7.125.00390625 24.777344 18.953125 42.082032 46.085938 42.082032zm184.425781-15.898438c-11.75 0-25.167969-5.078125-29-18.078125h58.214843c-3.808593 12.003907-16.5625 18.082031-29.214843 18.082031zm.273437-99.222656 24.300782 65.148438h-48.601563zm-63.167968 146.148438h-58v-4h58zm-15.015626-22c1.734376.167968 3.375.863281 4.699219 2h-37.730469c1.324219-1.136719 2.964844-1.832032 4.699219-2zm-14.167968-157.714844c4.429687 0 8.015625 3.589844 8.015625 8.015625s-3.589844 8.015625-8.015625 8.015625c-4.425782 0-8.015625-3.589844-8.015625-8.015625.003906-4.425781 3.589843-8.011719 8.015625-8.015625zm-92.347656 33.570312 24.304687 65.144532h-48.601563zm29.214843 81.144532c-3.808593 12-16.558593 18.078124-29.214843 18.078124-11.746094 0-25.164063-5.078124-29-18.078124zm0 0"/></svg>