<svg height="486pt" viewBox="-69 0 486 486.242" width="486pt" xmlns="http://www.w3.org/2000/svg"><path d="m304.558594 78.242188h-48.4375v-6.957032c-.160156-16.519531-13.507813-29.875-30.027344-30.042968h-10.972656v-.242188c0-22.644531-18.355469-41-41-41-22.644532 0-41 18.355469-41 41v.242188h-10.972656c-16.519532.167968-29.867188 13.523437-30.027344 30.042968v6.957032h-48.4375c-24.148438.117187-43.6445315 19.769531-43.5625 43.921874v320.339844c-.0312502 11.578125 4.542968 22.695313 12.714844 30.902344 8.171874 8.203125 19.269531 12.820312 30.847656 12.835938h260.875c11.578125-.015626 22.675781-4.632813 30.847656-12.835938 8.171875-8.207031 12.746094-19.324219 12.714844-30.902344v-320.339844c.082031-24.152343-19.414063-43.804687-43.5625-43.921874zm-155.4375-37.242188c0-13.808594 11.191406-25 25-25s25 11.191406 25 25v.242188h-50zm-41 30.285156c.148437-7.683594 6.339844-13.882812 14.027344-14.042968h103.945312c7.6875.160156 13.878906 6.359374 14.027344 14.042968v45.957032h-132zm224 371.21875c.035156 7.335938-2.851563 14.386719-8.023438 19.59375-5.171875 5.203125-12.203125 8.136719-19.539062 8.144532h-260.875c-7.335938-.007813-14.367188-2.941407-19.539063-8.144532-5.171875-5.207031-8.058593-12.257812-8.023437-19.59375v-320.339844c-.089844-15.320312 12.246094-27.816406 27.5625-27.921874h48.4375v31.355468c0 4.417969 3.945312 7.644532 8.363281 7.644532h147.273437c4.417969 0 8.363282-3.226563 8.363282-7.644532v-31.355468h48.4375c15.316406.105468 27.652344 12.601562 27.5625 27.921874zm0 0"/><path d="m70.808594 353.242188h101.039062c4.417969 0 8-3.582032 8-8 0-4.417969-3.582031-8-8-8h-101.039062c-4.417969 0-8 3.582031-8 8 0 4.417968 3.582031 8 8 8zm0 0"/><path d="m277.433594 391.242188h-206.625c-4.417969 0-8 3.582031-8 8 0 4.417968 3.582031 8 8 8h206.625c4.417968 0 8-3.582032 8-8 0-4.417969-3.582032-8-8-8zm0 0"/><path d="m106.847656 278.578125c20.824219 0 35.941406-13.804687 35.941406-32.824219 0-2.796875-1.464843-5.386718-3.855468-6.835937l-20.398438-54.675781h38.875c2.074219 3.355468 5.109375 6.015624 8.710938 7.632812v91.367188h-12.320313c-4.417969 0-8 3.582031-8 8 0 4.417968 3.582031 8 8 8h40.640625c4.417969 0 8-3.582032 8-8 0-4.417969-3.582031-8-8-8h-12.320312v-91.367188c3.601562-1.617188 6.636718-4.277344 8.714844-7.632812h38.871093l-20.398437 54.675781c-2.394532 1.449219-3.855469 4.039062-3.855469 6.835937 0 19.324219 14.699219 32.824219 35.738281 32.824219 20.828125 0 35.945313-13.804687 35.945313-32.824219 0-2.691406-1.351563-5.199218-3.601563-6.679687l-24.648437-66.078125c-.027344-.074219-.066407-.144532-.097657-.21875-.058593-.140625-.117187-.285156-.183593-.421875-.054688-.113281-.113281-.222657-.171875-.332031-.058594-.109376-.125-.234376-.191406-.347657-.070313-.113281-.148438-.230469-.222657-.339843-.074219-.113282-.136719-.207032-.210937-.308594-.078125-.097656-.164063-.210938-.25-.316406-.085938-.101563-.164063-.199219-.25-.289063-.085938-.089844-.171875-.183594-.261719-.273437-.089844-.089844-.195313-.191407-.300781-.285157-.105469-.089843-.179688-.152343-.269532-.230469-.109374-.089843-.222656-.179687-.339843-.265624-.089844-.066407-.183594-.132813-.28125-.199219-.117188-.082031-.238281-.160157-.363281-.234375-.105469-.0625-.210938-.121094-.320313-.179688-.105469-.054687-.238281-.128906-.363281-.1875s-.253906-.109375-.378906-.164062c-.085938-.035156-.164063-.074219-.25-.105469-.03125-.015625-.0625-.019531-.09375-.03125-.136719-.050781-.277344-.089844-.414063-.132813-.117187-.035156-.234375-.070312-.351563-.097656-.117187-.027344-.253906-.054687-.378906-.082031-.128906-.023437-.265625-.054687-.398437-.074219-.113281-.015625-.226563-.023437-.335938-.035156-.148437-.015625-.300781-.035156-.445312-.042969-.101563 0-.203125 0-.300781 0-.160157 0-.320313 0-.476563 0-.101563 0-.199219.019531-.292969.027344-.164062.015625-.324218.027344-.484375.054687-.101562.011719-.191406.035157-.285156.050782-.164063.03125-.332031.0625-.492187.101562-.089844.023438-.183594.054688-.273438.078125-.136719.042969-.273438.078125-.40625.125h-45.808594c-2.503906-8.300781-10.148437-13.980469-18.820312-13.980469s-16.316406 5.679688-18.820313 13.980469h-45.820312c-.113281-.039062-.226563-.066406-.339844-.101562-.117187-.03125-.238281-.074219-.359375-.097657-.117188-.027343-.246094-.054687-.371094-.078124-.125-.027344-.269531-.058594-.402344-.078126-.109374-.015624-.21875-.023437-.328124-.035156-.152344-.015625-.300782-.035156-.453126-.042968-.097656 0-.199218 0-.304687 0-.15625 0-.316406 0-.476563 0-.097656 0-.199218.019531-.296874.03125-.164063.011718-.320313.023437-.480469.050781-.101563.011719-.195313.035156-.289063.054687-.164062.03125-.328125.058594-.488281.097656-.089844.023438-.183594.054688-.277344.082032-.160156.046875-.324219.101562-.480469.152344-.027343.011718-.054687.015624-.082031.027343-.074219.027344-.140625.0625-.210937.089844-.148438.058594-.292969.121094-.433594.1875-.109375.050781-.214844.109375-.320312.164063-.121094.066406-.242188.132812-.363282.199218-.117187.070313-.21875.140625-.328125.210938-.105469.074218-.210937.144531-.316406.222656s-.207031.160156-.308594.242188c-.101562.082031-.199219.167968-.300781.253906-.097656.089844-.179688.171875-.269531.261718-.089844.085938-.191407.199219-.285157.300782-.078124.085937-.15625.175781-.230468.265625-.089844.109375-.179688.222656-.265625.335937-.070313.097656-.132813.191406-.199219.289063-.078125.117187-.15625.234375-.230469.355469-.074219.125-.128906.222656-.1875.335937-.058593.113281-.121093.226563-.175781.34375-.066406.136719-.121094.277344-.179688.417969-.03125.074218-.066406.144531-.101562.222656l-24.640625 66.074219c-2.25 1.480469-3.601563 3.988281-3.601563 6.679687 0 19.324219 14.699219 32.824219 35.746094 32.824219zm134.347656-15.511719c-7.105468 0-14.574218-2.824218-17.925781-8.824218h35.976563c-3.488282 6-11.195313 8.824218-18.050782 8.824218zm.199219-63.898437 14.578125 39.074219h-29.152344zm-67.273437-28.90625c2.023437 0 3.667968 1.640625 3.667968 3.664062 0 2.027344-1.644531 3.667969-3.667968 3.667969-2.023438 0-3.667969-1.640625-3.667969-3.667969.003906-2.023437 1.644531-3.664062 3.667969-3.664062zm-67.273438 28.910156 14.574219 39.070313h-29.152344zm18.046875 55.070313c-3.488281 6-11.199219 8.824218-18.046875 8.824218-7.109375 0-14.578125-2.824218-17.929687-8.824218zm0 0"/></svg>