<svg height="463pt" viewBox="0 -90 463.40076 463" width="463pt" xmlns="http://www.w3.org/2000/svg"><path d="m81.914062 224.703125-4.429687 25.925781c-.667969 3.945313 1.601563 7.796875 5.378906 9.117188 47.765625 15.882812 97.769531 24.019531 148.109375 24.101562h.664063c50.113281-.046875 99.898437-8.042968 147.507812-23.6875l1.242188-.492187c3.804687-1.265625 6.101562-5.140625 5.378906-9.089844l-4.667969-25.550781 71.527344-69.425782c13.566406-13.15625 14.433594-34.636718 1.96875-48.839843l-52.699219-60.113281c-4.878906-5.582032-11.394531-9.488282-18.617187-11.160157l-150.511719-35.078125c-1.199219-.28125-2.445313-.28125-3.644531 0l-149.019532 35.066406c-7.210937 1.683594-13.707031 5.59375-18.570312 11.171876l-52.746094 60.277343c-12.445312 14.207031-11.566406 35.679688 2 48.820313zm149.722657 43.144531h-.644531c-46.335938-.078125-92.386719-7.222656-136.566407-21.1875l3.859375-22.699218 25.816406-4.597657c.0625-.011719.128907-.046875.191407-.058593 23.4375-4.726563 47.160156-7.902344 71.011719-9.5l.246093.230468-5.667969 33.023438c-.511718 3.003906.722657 6.035156 3.183594 7.824218 2.464844 1.789063 5.730469 2.023438 8.425782.609376l29.660156-15.59375 29.660156 15.59375c2.695312 1.417968 5.960938 1.179687 8.425781-.609376 2.464844-1.789062 3.699219-4.824218 3.183594-7.824218l-5.664063-33.027344.285157-.28125c23.71875 1.558594 47.308593 4.675781 70.617187 9.324219l.183594.035156 26.769531 4.707031 4.152344 22.871094c-44.371094 13.980469-90.609375 21.113281-137.128906 21.160156zm109.164062-92.464844c-29.417969-5.875-59.261719-9.371093-89.242187-10.457031l-13.230469-26.796875c-1.347656-2.730468-4.128906-4.460937-7.171875-4.460937-3.046875 0-5.828125 1.730469-7.175781 4.460937l-13.238281 26.828125c-30.109376 1.128907-60.078126 4.6875-89.613282 10.644531l-15.121094 3.054688 5.621094-32.910156 13.378906-3.636719c69.371094-18.835937 142.511719-18.835937 211.886719 0l13.445313 3.652344 5.988281 32.730469zm18.625 20.042969 2.121094 11.601563-20.847656-3.660156c-19.308594-3.851563-38.8125-6.679688-58.421875-8.472657l8.472656-8.257812c.757812-.746094 1.363281-1.636719 1.773438-2.617188 15.152343 1.71875 30.230468 4.074219 45.128906 7.054688zm-109.152343 13.160157 3.636718 21.203124-19.035156-10.007812c-2.332031-1.226562-5.113281-1.226562-7.445312 0l-19.035157 10.007812 3.632813-21.203124c.445312-2.59375-.414063-5.242188-2.296875-7.078126l-15.402344-15.011718 21.285156-3.09375c2.605469-.378906 4.859375-2.015625 6.023438-4.375l9.515625-19.285156 9.519531 19.285156c1.164063 2.359375 3.417969 3.996094 6.023437 4.375l21.28125 3.09375-15.398437 15.011718c-1.886719 1.835938-2.746094 4.484376-2.304687 7.078126zm-125.980469-17.304688c15.03125-3.035156 30.238281-5.4375 45.519531-7.1875.410156.953125 1 1.816406 1.742188 2.542969l8.527343 8.3125c-19.757812 1.832031-39.40625 4.710937-58.859375 8.628906l-20.078125 3.542969 1.976563-11.5625zm-103.46875-73.820312 52.75-60.277344c2.667969-3.0625 6.234375-5.207032 10.1875-6.132813l147.195312-34.632812 148.683594 34.652343c3.96875.917969 7.542969 3.058594 10.21875 6.125l52.703125 60.109376c6.839844 7.792968 6.363281 19.582031-1.082031 26.800781l-63.847657 61.960937-12.464843-68.148437c-.554688-3.027344-2.800781-5.472657-5.773438-6.28125l-18.308593-4.972657c-72.121094-19.578124-148.15625-19.578124-220.277344 0l-18.308594 4.972657c-3.003906.820312-5.265625 3.304687-5.789062 6.375l-11.535157 67.570312-63.25-61.324219c-7.449219-7.210937-7.929687-18.996093-1.101562-26.796874zm0 0"/></svg>