<?xml version="1.0" encoding="iso-8859-1"?>
<!-- Generator: Adobe Illustrator 19.0.0, SVG Export Plug-In . SVG Version: 6.00 Build 0)  -->
<svg version="1.1" id="Capa_1" xmlns="http://www.w3.org/2000/svg" xmlns:xlink="http://www.w3.org/1999/xlink" x="0px" y="0px"
	 viewBox="0 0 463 463" style="enable-background:new 0 0 463 463;" xml:space="preserve">
<path d="M439.5,96c-10.336,0-19.128,6.71-22.266,16H407V73.141c4.899-4.31,8-10.619,8-17.641v-16C415,17.72,397.28,0,375.5,0h-288
	C65.72,0,48,17.72,48,39.5v16c0,7.023,3.101,13.332,8,17.641V112H45.766c-3.138-9.29-11.93-16-22.266-16
	C10.542,96,0,106.542,0,119.5v56C0,188.458,10.542,199,23.5,199c10.336,0,19.128-6.71,22.266-16H56v36.172
	c-14.097,6.038-24,20.047-24,36.328v102.359c-4.899,4.31-8,10.619-8,17.641v8c0,12.958,10.542,23.5,23.5,23.5H48v32.5
	c0,12.958,10.542,23.5,23.5,23.5h24c12.958,0,23.5-10.542,23.5-23.5V407h25v0.5c0,12.958,10.542,23.5,23.5,23.5h128
	c12.958,0,23.5-10.542,23.5-23.5V407h25v32.5c0,12.958,10.542,23.5,23.5,23.5h24c12.958,0,23.5-10.542,23.5-23.5V407h0.5
	c12.958,0,23.5-10.542,23.5-23.5v-8c0-7.023-3.101-13.332-8-17.641V255.5c0-16.281-9.903-30.29-24-36.328V183h10.234
	c3.138,9.29,11.93,16,22.266,16c12.958,0,23.5-10.542,23.5-23.5v-56C463,106.542,452.458,96,439.5,96z M63,39.5
	C63,25.99,73.991,15,87.5,15h288c13.509,0,24.5,10.99,24.5,24.5v16c0,4.687-3.813,8.5-8.5,8.5h-10.097
	c1.027-2.638,1.597-5.503,1.597-8.5c0-12.958-10.542-23.5-23.5-23.5c-6.177,0-11.801,2.399-16,6.31c-4.199-3.911-9.823-6.31-16-6.31
	C314.542,32,304,42.542,304,55.5c0,2.997,0.57,5.862,1.597,8.5H157.403c1.027-2.638,1.597-5.503,1.597-8.5
	c0-12.958-10.542-23.5-23.5-23.5c-6.177,0-11.801,2.399-16,6.31c-4.199-3.911-9.823-6.31-16-6.31C90.542,32,80,42.542,80,55.5
	c0,2.997,0.57,5.862,1.597,8.5H71.5c-4.687,0-8.5-3.813-8.5-8.5V39.5z M319,55.5c0-4.687,3.813-8.5,8.5-8.5s8.5,3.813,8.5,8.5
	s-3.813,8.5-8.5,8.5S319,60.187,319,55.5z M351,55.5c0-4.687,3.813-8.5,8.5-8.5s8.5,3.813,8.5,8.5s-3.813,8.5-8.5,8.5
	S351,60.187,351,55.5z M95,55.5c0-4.687,3.813-8.5,8.5-8.5s8.5,3.813,8.5,8.5s-3.813,8.5-8.5,8.5S95,60.187,95,55.5z M127,55.5
	c0-4.687,3.813-8.5,8.5-8.5s8.5,3.813,8.5,8.5s-3.813,8.5-8.5,8.5S127,60.187,127,55.5z M23.5,184c-4.687,0-8.5-3.813-8.5-8.5v-56
	c0-4.687,3.813-8.5,8.5-8.5s8.5,3.813,8.5,8.5v56C32,180.187,28.187,184,23.5,184z M47,168v-41h9v41H47z M71,78.987
	C71.167,78.991,71.332,79,71.5,79H224v137H71.5c-0.168,0-0.333,0.011-0.5,0.013V78.987z M104,439.5c0,4.687-3.813,8.5-8.5,8.5h-24
	c-4.687,0-8.5-3.813-8.5-8.5V407h41V439.5z M304,407.5c0,4.687-3.813,8.5-8.5,8.5h-128c-4.687,0-8.5-3.813-8.5-8.5V407h145V407.5z
	 M400,439.5c0,4.687-3.813,8.5-8.5,8.5h-24c-4.687,0-8.5-3.813-8.5-8.5V407h41V439.5z M424,383.5c0,4.687-3.813,8.5-8.5,8.5h-368
	c-4.687,0-8.5-3.813-8.5-8.5v-8c0-4.687,3.813-8.5,8.5-8.5h368c4.687,0,8.5,3.813,8.5,8.5V383.5z M95.5,263
	c9.098,0,16.5,7.402,16.5,16.5S104.598,296,95.5,296S79,288.598,79,279.5S86.402,263,95.5,263z M184,263v57h-25v-57H184z M224,263
	v57h-25v-57H224z M264,263v57h-25v-57H264z M304,263v57h-25v-57H304z M340.681,263c-2.965,4.802-4.681,10.454-4.681,16.5
	c0,17.369,14.131,31.5,31.5,31.5c6.046,0,11.698-1.716,16.5-4.681V320h-65v-57H340.681z M384,279.5c0,9.098-7.402,16.5-16.5,16.5
	s-16.5-7.402-16.5-16.5s7.402-16.5,16.5-16.5S384,270.402,384,279.5z M319,352v-17h65v17H319z M279,352v-17h25v17H279z M239,352v-17
	h25v17H239z M199,352v-17h25v17H199z M159,352v-17h25v17H159z M144,320H79v-13.681C83.802,309.284,89.454,311,95.5,311
	c17.369,0,31.5-14.131,31.5-31.5c0-6.046-1.716-11.698-4.681-16.5H144V320z M79,335h65v17H79V335z M416,255.5v96.513
	c-0.167-0.004-0.332-0.013-0.5-0.013H399v-72.5c0-17.369-14.131-31.5-31.5-31.5h-272C78.131,248,64,262.131,64,279.5V352H47.5
	c-0.168,0-0.333,0.009-0.5,0.013V255.5c0-13.51,10.991-24.5,24.5-24.5h320C405.009,231,416,241.99,416,255.5z M391.5,216H239V79
	h152.5c0.168,0,0.333-0.009,0.5-0.013v137.025C391.833,216.011,391.668,216,391.5,216z M407,127h9v41h-9V127z M448,175.5
	c0,4.687-3.813,8.5-8.5,8.5s-8.5-3.813-8.5-8.5v-56c0-4.687,3.813-8.5,8.5-8.5s8.5,3.813,8.5,8.5V175.5z"/>
<g>
</g>
<g>
</g>
<g>
</g>
<g>
</g>
<g>
</g>
<g>
</g>
<g>
</g>
<g>
</g>
<g>
</g>
<g>
</g>
<g>
</g>
<g>
</g>
<g>
</g>
<g>
</g>
<g>
</g>
</svg>
