<svg height="496pt" viewBox="0 0 496 496" width="496pt" xmlns="http://www.w3.org/2000/svg"><path d="m488 151.738281h-48c-4.414062 0-8 3.582031-8 8v8h-32v-96c0-2.207031-.894531-4.207031-2.34375-5.65625l-47.992188-47.992187c-1.457031-1.457032-3.457031-2.351563-5.664062-2.351563h-81.871094l-7.273437-12.121093c-2.886719-4.824219-10.832031-4.824219-13.71875 0l-7.265625 12.121093h-129.871094c-4.414062 0-8 3.582031-8 8v144h-32v-8c0-4.417969-3.585938-8-8-8h-48c-4.414062 0-8 3.582031-8 8v192c0 4.414063 3.585938 8 8 8h48c4.414062 0 8-3.585937 8-8v-25.871093l27.878906 16.726562c1.25.753906 2.671875 1.144531 4.121094 1.144531h4.6875l-3.710938 3.710938c-5.792968 5.792969-8.976562 13.480469-8.976562 21.65625 0 17.359375 14.855469 31.265625 32.03125 30.601562-.023438.464844-.03125.933594-.03125 1.398438 0 17.359375 14.824219 31.234375 32.03125 30.601562-.023438.464844-.03125.933594-.03125 1.398438 0 17.359375 14.792969 31.351562 32.03125 30.601562-.023438.464844-.03125.933594-.03125 1.398438 0 16.898437 13.734375 30.632812 30.632812 30.632812 8.175782 0 15.871094-3.183593 21.65625-8.976562l11.710938-11.710938 11.710938 11.710938c5.792968 5.792969 13.480468 8.976562 21.65625 8.976562 16.898437 0 30.632812-13.734375 30.632812-30.632812 0-.519531-.121094-1.007813-.152344-1.519531.511719.03125 1.007813.152343 1.519532.152343 16.898437 0 30.632812-13.734375 30.632812-30.632812 0-.519531-.121094-1.007813-.152344-1.519531.511719.03125 1.007813.152343 1.519532.152343 16.898437 0 30.632812-13.734375 30.632812-30.632812 0-.519531-.121094-1.007813-.152344-1.519531.511719.03125 1.007813.152343 1.519532.152343 16.898437 0 30.632812-13.734375 30.632812-30.632812 0-8.175781-3.183594-15.871094-8.976562-21.65625l-3.710938-3.710938h12.6875c1.726562 0 3.414062-.558593 4.800781-1.601562l19.199219-14.398438v24c0 4.414063 3.585938 8 8 8h48c4.414062 0 8-3.585937 8-8v-192c0-4.417969-3.585938-8-8-8zm-136-108.6875 20.6875 20.6875h-20.6875zm-16-11.3125v40c0 4.414063 3.585938 8 8 8h40v88h-96v-16h16v-16h-13.390625l13.085937-45.800781c.609376-2.128906.3125-4.414062-.832031-6.320312l-31.136719-51.878907zm-96 156.6875-16-16v-20.6875h48v17.296875c-10.414062 2.238282-20 7.390625-27.710938 15.109375zm8-165.136719 39.351562 65.59375-13.382812 46.855469h-51.9375l-13.390625-46.855469zm-136 8.449219h112.273438l-31.128907 51.878907c-1.144531 1.898437-1.441406 4.183593-.832031 6.320312l13.078125 45.800781h-13.390625v16h16v16h-96zm-64 312h-32v-176h32zm50.214844-16-34.214844-20.527343v-123.472657h148.6875l69.367188 69.367188c3.832031 3.832031 5.945312 8.929687 5.945312 14.34375 0 11.183593-9.105469 20.289062-20.289062 20.289062-5.414063 0-10.511719-2.113281-14.34375-5.945312l-39.710938-39.710938c-3.128906-3.128906-8.183594-3.128906-11.3125 0l-85.65625 85.65625zm126.761718 147.710938c-2.769531 2.769531-6.441406 4.289062-10.34375 4.289062-8.074218 0-14.632812-6.558593-14.632812-14.632812 0-3.902344 1.519531-7.574219 4.289062-10.34375l11.808594-11.808594c.308594.34375.542969.738281.878906 1.066406l19.710938 19.71875zm71.023438-10.34375c0 8.074219-6.558594 14.632812-14.632812 14.632812-3.902344 0-7.574219-1.519531-10.34375-4.289062l-42.742188-42.742188c-2.761719-2.761719-4.28125-6.433593-4.28125-10.335937 0-8.074219 6.558594-14.632813 14.632812-14.632813 3.902344 0 7.574219 1.519531 10.34375 4.289063l42.742188 42.742187c2.761719 2.761719 4.28125 6.433594 4.28125 10.335938zm32-32c0 8.074219-6.558594 14.632812-14.632812 14.632812-3.902344 0-7.574219-1.519531-10.34375-4.289062l-42.742188-42.742188c-2.761719-2.761719-4.28125-6.433593-4.28125-10.335937 0-8.074219 6.558594-14.632813 14.632812-14.632813 3.902344 0 7.574219 1.519531 10.34375 4.289063l42.742188 42.742187c2.761719 2.761719 4.28125 6.433594 4.28125 10.335938zm32-32c0 8.074219-6.558594 14.632812-14.632812 14.632812-3.902344 0-7.574219-1.519531-10.34375-4.289062l-42.742188-42.742188c-2.761719-2.761719-4.28125-6.433593-4.28125-10.335937 0-8.074219 6.558594-14.632813 14.632812-14.632813 3.902344 0 7.574219 1.519531 10.34375 4.289063l42.742188 42.742187c2.761719 2.761719 4.28125 6.433594 4.28125 10.335938zm17.367188-17.367188c-3.902344 0-7.574219-1.519531-10.34375-4.289062l-42.742188-42.742188c-2.761719-2.761719-4.28125-6.433593-4.28125-10.335937 0-8.074219 6.558594-14.632813 14.632812-14.632813 3.902344 0 7.574219 1.519531 10.34375 4.289063l42.742188 42.742187c2.761719 2.761719 4.28125 6.433594 4.28125 10.335938 0 8.074219-6.558594 14.632812-14.632812 14.632812zm27.96875-56h-26.015626l-23.023437-23.023437c-5.800781-5.792969-13.488281-8.976563-21.664063-8.976563-16.898437 0-30.632812 13.734375-30.632812 30.632813 0 .519531.121094 1.007812.152344 1.519531-.511719-.03125-1.007813-.152344-1.519532-.152344-16.898437 0-30.632812 13.734375-30.632812 30.632813 0 .519531.121094 1.007812.152344 1.519531-.511719-.03125-1.007813-.152344-1.519532-.152344-16.898437 0-30.632812 13.734375-30.632812 30.632813 0 .519531.121094 1.007812.152344 1.519531-.511719-.03125-1.007813-.152344-1.519532-.152344-16.898437 0-30.632812 13.734375-30.632812 30.632813 0 1.871094.207031 3.710937.535156 5.519531l-15.566406 15.566406c-2.761719 2.761719-6.433594 4.28125-10.335938 4.28125-8.074218 0-14.632812-6.558593-14.632812-14.632812 0-3.902344 1.519531-7.574219 4.289062-10.34375l17.367188-17.367188c1.558594-1.558593 2.34375-3.609375 2.34375-5.65625s-.785156-4.097656-2.34375-5.65625c-3.128906-3.128906-8.183594-3.128906-11.3125 0l-17.367188 17.367188c-2.769531 2.769531-6.441406 4.289062-10.34375 4.289062-8.074218 0-14.632812-6.558593-14.632812-14.632812 0-3.902344 1.519531-7.574219 4.289062-10.34375l17.367188-17.367188c1.558594-1.558593 2.34375-3.609375 2.34375-5.65625s-.785156-4.097656-2.34375-5.65625c-3.128906-3.128906-8.183594-3.128906-11.3125 0l-17.367188 17.367188c-2.769531 2.769531-6.441406 4.289062-10.34375 4.289062-8.074218 0-14.632812-6.558593-14.632812-14.632812 0-3.902344 1.519531-7.574219 4.289062-10.34375l99.710938-99.710938 34.054688 34.054688c6.855468 6.855469 15.96875 10.632812 25.65625 10.632812 20.007812 0 36.289062-16.28125 36.289062-36.289062 0-9.6875-3.777344-18.808594-10.632812-25.65625l-42.054688-42.054688 4.289062-4.289062c7.550782-7.550781 17.597657-11.710938 28.277344-11.710938h148.121094v124zm74.664062 16h-32v-176h32zm0 0"/><path d="m224 95.738281c0 13.230469 10.769531 24 24 24s24-10.769531 24-24c0-10.417969-6.710938-19.214843-16-22.527343v-17.472657h-16v17.472657c-9.289062 3.3125-16 12.109374-16 22.527343zm24-8c4.40625 0 8 3.589844 8 8 0 4.40625-3.59375 8-8 8s-8-3.59375-8-8c0-4.410156 3.59375-8 8-8zm0 0"/></svg>