<svg height="481pt" viewBox="-8 0 481 481.69769" width="481pt" xmlns="http://www.w3.org/2000/svg"><path d="m135.714844 281.488281c0 26.933594 21.835937 48.769531 48.769531 48.765625 26.9375 0 48.769531-21.832031 48.769531-48.769531 0-26.933594-21.835937-48.765625-48.769531-48.765625-26.921875.03125-48.738281 21.847656-48.769531 48.769531zm81.539062 0c0 18.097657-14.671875 32.765625-32.769531 32.765625s-32.769531-14.667968-32.769531-32.765625c0-18.097656 14.671875-32.769531 32.769531-32.769531 18.089844.019531 32.746094 14.679688 32.769531 32.769531zm0 0"/><path d="m388.449219 20.378906-22.34375-18.554687c-3.1875-2.625-7.855469-2.390625-10.765625.542969l-25.289063 25.332031h-78.914062c-9.59375.003906-18.785157 3.839843-25.539063 10.65625-6.75 6.8125-10.503906 16.039062-10.425781 25.632812v1.492188c-.078125 9.585937 3.679687 18.800781 10.433594 25.605469 6.753906 6.800781 15.945312 10.621093 25.53125 10.613281h.746093c6.902344.035156 13.320313 3.550781 17.0625 9.351562-20.105468-8.820312-41.816406-13.402343-63.773437-13.453125-37.996094.230469-74.613281 14.234375-103.0625 39.417969-28.539063 25.445313-44.539063 58.628906-45.222656 93.65625l-55.300781 87.5c-1.5585942 2.511719-1.6523442 5.664063-.242188 8.261719 1.390625 2.585937 4.070312 4.214844 7.007812 4.265625h49.082032l.5625 56.054687c.121094 10.824219 4.601562 21.140625 12.425781 28.621094 7.824219 7.476562 18.332031 11.488281 29.148437 11.121094l43.601563-1.367188v48.289063c-.03125 2.171875.796875 4.265625 2.300781 5.832031 1.453125 1.515625 3.441406 2.394531 5.539063 2.449219h.101562l180.957031-2.464844c4.375-.089844 7.882813-3.652344 7.902344-8.027344l.679688-120.96875c1.042968-9.347656 2.605468-20.246093 4.257812-31.761719 6.480469-45.128906 14.535156-101.253906.636719-130.390624-10.023437-27.339844-30.855469-50.835938-57.3125-66.988282-.585937-19.671875-16.667969-35.335937-36.351563-35.398437h-.746093c-5.34375.011719-10.46875-2.121094-14.222657-5.921875-3.753906-3.804688-5.824218-8.953125-5.742187-14.296875v-1.492188c-.085937-5.351562 1.980469-10.511719 5.734375-14.324219 3.753906-3.816406 8.878906-5.964843 14.230469-5.964843h62.914062l-8.371093 8.324219c-2.921876 2.914062-3.140626 7.574218-.5 10.746093l18.554687 22.332031c-2.644531 29.867188 13.683594 58.195313 40.851563 70.878907 27.167968 12.683593 59.367187 7.011719 80.570312-14.191407 21.199219-21.199218 26.863281-53.402343 14.175781-80.566406-12.6875-27.167968-41.019531-43.488281-70.886719-40.84375zm-203.964844 189.820313c-9.886719-.007813-19.664063 2.054687-28.707031 6.054687l.886718-9.558594h25.4375c.714844.105469 1.441407.105469 2.15625 0h28.046876l.886718 9.558594c-9.042968-4-18.820312-6.0625-28.707031-6.054687zm55.285156 71.289062c0 30.53125-24.753906 55.28125-55.285156 55.28125-30.535156 0-55.285156-24.753906-55.285156-55.285156 0-30.535156 24.75-55.285156 55.285156-55.285156 30.519531.03125 55.253906 24.765625 55.285156 55.289062zm-64.597656-102.5v11.710938h-25.800781c-4.132813 0-7.585938 3.144531-7.964844 7.261719l-2.679688 28.917968c-22.992187 19.246094-31.480468 50.824219-21.242187 79.003906 10.238281 28.183594 37.015625 46.945313 67 46.945313s56.761719-18.761719 67-46.945313c10.238281-28.179687 1.75-59.757812-21.242187-79.003906l-2.679688-28.917968c-.378906-4.113282-3.832031-7.261719-7.964844-7.261719h-28.425781v-11.710938c.023437-11.234375 9.152344-20.320312 20.386719-20.289062h40.324218c14.007813-.03125 26.757813-8.082031 32.808594-20.710938 21.839844 14.570313 38.121094 34.308594 45.953125 55.925781.097657.269532.207031.53125.332031.785157 12.007813 24.601562 3.964844 80.601562-1.898437 121.488281-1.699219 11.8125-3.300781 22.972656-4.371094 32.675781-.027343.277344-.042969.554688-.046875.832031l-.5625 113.5-164.925781 2.117188v-40.675781l43.523437-1.34375c4.417969-.152344 7.871094-3.855469 7.71875-8.269531-.152343-4.417969-3.855468-7.875-8.269531-7.722657l-103.132812 3.171875c-6.519531.203125-12.84375-2.230468-17.546875-6.742187-4.707032-4.515625-7.398438-10.734375-7.464844-17.257813l-.644531-63.976562c-.054688-4.363282-3.636719-7.855469-8-7.796875h-42.484375l48.753906-77.265625c.808594-1.300782 1.238281-2.800782 1.238281-4.335938 0-31.269531 14.167969-61.152344 39.890625-84.085937 25.507813-22.585938 58.347656-35.148438 92.417969-35.355469 22.84375.140625 45.332031 5.683594 65.628906 16.171875-3.089843 7.75-10.574219 12.84375-18.917969 12.871094h-40.324218c-20.066406-.019531-36.355469 16.222656-36.386719 36.289062zm146.980469-120.851562 39.34375-39.339844 7.386718 6.136719c-18.644531 7.21875-33.382812 21.957031-40.601562 40.597656zm111.648437 72.300781c-21.585937 21.566406-56.566406 21.554688-78.140625-.023438-21.570312-21.582031-21.570312-56.558593 0-78.136718 21.574219-21.582032 56.554688-21.589844 78.140625-.027344 21.558594 21.605469 21.558594 56.585938 0 78.191406zm0 0"/><path d="m360.222656 56.863281c-19.046875 19.046875-19.046875 49.921875 0 68.96875 19.042969 19.046875 49.921875 19.046875 68.96875 0s19.046875-49.921875 0-68.96875c-19.058594-19.015625-49.910156-19.015625-68.96875 0zm57.65625 57.65625c-12.796875 12.78125-33.527344 12.777344-46.316406-.015625-12.785156-12.789062-12.785156-33.523437 0-46.3125 12.789062-12.792968 33.519531-12.796875 46.316406-.015625 12.796875 12.796875 12.796875 33.546875 0 46.34375zm0 0"/></svg>