<svg height="497pt" viewBox="0 -1 497.024 497" width="497pt" xmlns="http://www.w3.org/2000/svg"><path d="m489.023438 239.917969h-42.078126c-4.121093-103-87.433593-185.523438-189.433593-189.628907v-42.277343c0-4.417969-3.582031-8.0000002-8-8.0000002-4.421875 0-8 3.5820312-8 8.0000002v42.277343c-103 4.105469-186.089844 86.628907-190.210938 189.628907h-43.300781c-4.417969 0-8 3.582031-8 8s3.582031 8 8 8h43.300781c4.089844 103 87.210938 185.910156 190.210938 190.019531v41.886719c0 4.417969 3.578125 8 8 8 4.417969 0 8-3.582031 8-8v-41.886719c102-4.109375 185.34375-87.019531 189.4375-190.019531h42.074219c4.417968 0 8-3.582031 8-8s-3.582032-8-8-8zm-239.898438 190.199219c-100.355469 0-182-81.644532-182-182 0-100.355469 81.644531-182 182-182s182 81.644531 182 182c0 100.355468-81.644531 182-182.003906 182zm0 0"/><path d="m278.03125 38.066406c94.136719 12.992188 168.148438 87.003906 181.136719 181.144532.605469 4.375 4.640625 7.433593 9.019531 6.832031 4.375-.605469 7.433594-4.640625 6.832031-9.019531-13.96875-101.238282-93.5625-180.835938-194.800781-194.804688-2.847656-.421875-5.703125.714844-7.476562 2.980469-1.773438 2.265625-2.191407 5.3125-1.097657 7.972656s3.53125 4.53125 6.386719 4.894531zm0 0"/><path d="m220.21875 458.15625c-94.136719-12.984375-168.152344-86.996094-181.140625-181.132812-.367187-2.851563-2.238281-5.289063-4.898437-6.378907-2.660157-1.09375-5.703126-.671875-7.964844 1.097657-2.265625 1.773437-3.40625 4.625-2.988282 7.46875 13.96875 101.238281 93.5625 180.832031 194.800782 194.800781 4.378906.605469 8.414062-2.453125 9.019531-6.832031.605469-4.375-2.453125-8.414063-6.832031-9.019532zm0 0"/><path d="m218.03125 22.222656c-101.238281 13.96875-180.832031 93.5625-194.800781 194.800782-.421875 2.84375.71875 5.695312 2.984375 7.46875 2.265625 1.773437 5.308594 2.191406 7.96875 1.101562 2.660156-1.09375 4.527344-3.53125 4.894531-6.382812 12.988281-94.136719 87-168.148438 181.140625-181.136719 4.335938-.644531 7.347656-4.664063 6.75-9.007813-.601562-4.347656-4.585938-7.398437-8.9375-6.84375zm0 0"/><path d="m468.1875 270.191406c-4.378906-.601562-8.414062 2.457032-9.019531 6.832032-12.988281 94.136718-87 168.148437-181.136719 181.140624-4.167969.570313-7.183594 4.269532-6.898438 8.46875.285157 4.195313 3.773438 7.457032 7.980469 7.457032.367188 0 .734375-.027344 1.101563-.078125 101.234375-13.96875 180.828125-93.5625 194.800781-194.796875.601563-4.378906-2.453125-8.414063-6.828125-9.023438zm0 0"/><path d="m312.734375 213.804688c-2.5-2.5-6.34375-3.058594-9.457031-1.378907l-21.15625-21.160156 11.699218-8.882813c2.261719 1.523438 4.925782 2.335938 7.652344 2.335938 3.621094.003906 7.09375-1.4375 9.644532-4.007812l12.394531-12.445313c5-5.34375 5.394531-14.042969.050781-19.390625l-31.53125-31.558594c-2.566406-2.570312-6.050781-4.015625-9.6875-4.015625-3.632812 0-7.117188 1.445313-9.683594 4.015625l-12.4375 12.445313c-4.8125 4.796875-5.371094 12.398437-1.3125 17.847656l-16.613281 21.882813c-2.695313 3.550781-5.863281 6.71875-9.417969 9.417968l-21.882812 16.609375c-5.445313-4.058593-13.046875-3.5-17.84375 1.308594l-12.441406 12.445313c-5.347657 5.359374-5.347657 14.035156 0 19.390624l31.558593 31.5625c2.570313 2.570313 6.058594 4.011719 9.691407 4.003907 3.699218.011719 7.25-1.429688 9.902343-4.007813l12.648438-12.445312c4-4.707032 5.054687-12.015625 1.46875-17.34375l8.777343-11.703125 21.105469 21.160156c-1.683593 3.105469-1.132812 6.949219 1.355469 9.457031l52.277344 52.285156c9.8125 9.8125 25.722656 9.8125 35.535156-.003906 9.808594-9.8125 9.808594-25.722656-.003906-35.535156zm-30.371094-83.554688 28.316407 28.320312-9.207032 9.207032-28.316406-28.320313zm-60.402343 117.039062-28.316407-28.316406 9.203125-9.203125 28.320313 28.320313zm27.742187-48.492187-15.1875 20-11.964844-11.957031 20-15.1875c4.710938-3.574219 8.910157-7.777344 12.484375-12.488282l15.191406-20.003906 11.964844 11.957032-20 15.1875c-4.710937 3.578124-8.914062 7.78125-12.492187 12.492187zm37.1875 29.539063-22.390625-22.390626c1.5-1.722656 3.113281-3.335937 4.835938-4.835937l22.390624 22.390625zm36.136719 44.210937-28.863282-28.859375 12.914063-12.914062 28.859375 28.863281zm30.683594 17.769531c-3.566407 3.566406-9.347657 3.566406-12.914063 0l-6.457031-6.457031 12.914062-12.910156 6.457032 6.457031c3.558593 3.566406 3.558593 9.34375 0 12.910156zm0 0"/><path d="m287.1875 322.917969h-3.675781v-17.324219c.042969-2.058594-.757813-4.050781-2.222657-5.5-1.464843-1.453125-3.460937-2.238281-5.519531-2.175781h-131.710937c-2.042969-.054688-4.015625.738281-5.445313 2.195312-1.429687 1.457031-2.195312 3.441407-2.101562 5.480469v17.324219h-3.875c-4.457031.027343-8.074219 3.617187-8.125 8.074219v25.542968c.027343 4.519532 3.609375 8.210938 8.125 8.382813h154.550781c4.554688-.15625 8.203125-3.828125 8.324219-8.382813v-25.542968c-.148438-4.492188-3.828125-8.0625-8.324219-8.074219zm-134.675781-9h115v9h-115zm127 35h-139v-10h139zm0 0"/></svg>