<svg height="471pt" viewBox="0 0 471.92385 471" width="471pt" xmlns="http://www.w3.org/2000/svg"><path d="m360.457031 303.003906c-3.125-3.125-8.191406-3.125-11.316406 0l-17.542969 17.542969-23.097656-23.101563c29.9375-32.625 46.535156-75.300781 46.5-119.582031 0-97.820312-79.625-177.402343-177.5-177.402343s-177.5 79.582031-177.5 177.402343c0 97.816407 79.625 177.398438 177.5 177.398438 44.308594.035156 87.019531-16.5625 119.679688-46.507813l23.105468 23.109375-17.738281 17.742188c-3.125 3.125-3.125 8.1875 0 11.3125l99.5 99.5c.351563.355469.699219.675781 1.054687.992187.148438.132813.300782.261719.445313.410156.097656.097657.203125.195313.308594.292969 16.570312 14.648438 41.78125 13.492188 56.9375-2.617187 15.160156-16.105469 14.789062-41.339844-.839844-56.992188zm-182.957031 36.257813c-89.050781 0-161.5-72.398438-161.5-161.398438s72.449219-161.402343 161.5-161.402343 161.5 72.40625 161.5 161.402343c0 88.992188-72.449219 161.398438-161.5 161.398438zm271.074219 109.914062c-9.238281 9.25-24.0625 9.75-33.902344 1.144531-.289063-.28125-.578125-.542968-.871094-.804687-.148437-.132813-.300781-.265625-.441406-.410156l-93.847656-93.84375 35.289062-35.285157 93.796875 93.796876c9.773438 9.78125 9.761719 25.636718-.023437 35.402343zm0 0"/><path d="m177.5 34.859375c-78.910156 0-143.109375 64.152344-143.109375 143 0 78.851563 64.199219 143 143.109375 143s143.109375-64.148437 143.109375-143c0-78.847656-64.199219-143-143.109375-143zm0 270c-70.089844 0-127.109375-56.972656-127.109375-127s57.019531-127 127.109375-127 127.109375 56.972656 127.109375 127c0 70.03125-57.023437 127.003906-127.109375 127.003906zm0 0"/><path d="m279.816406 189.132812-25.863281-69.328124c-.027344-.078126-.0625-.148438-.097656-.222657-.058594-.140625-.117188-.28125-.179688-.417969-.054687-.113281-.117187-.226562-.175781-.335937-.058594-.113281-.121094-.234375-.191406-.34375-.066406-.113281-.144532-.234375-.222656-.347656-.074219-.113281-.136719-.199219-.207032-.300781-.074218-.097657-.167968-.214844-.257812-.320313-.085938-.109375-.15625-.191406-.242188-.285156-.082031-.089844-.179687-.191407-.269531-.28125-.09375-.09375-.1875-.1875-.285156-.273438-.097657-.089843-.1875-.164062-.28125-.242187s-.214844-.171875-.328125-.257813c-.097656-.070312-.199219-.136719-.300782-.203125-.113281-.078125-.226562-.15625-.347656-.226562-.121094-.070313-.222656-.128906-.335937-.1875-.113281-.0625-.230469-.121094-.347657-.179688-.117187-.054687-.269531-.117187-.398437-.175781-.078125-.03125-.152344-.066406-.230469-.097656-.03125-.011719-.0625-.015625-.089844-.027344-.144531-.054687-.292968-.101563-.441406-.140625-.109375-.03125-.214844-.066406-.324218-.09375-.136719-.035156-.277344-.0625-.414063-.085938-.121094-.027343-.242187-.054687-.363281-.070312-.121094-.019531-.25-.027344-.378906-.039062-.125-.011719-.265626-.03125-.398438-.039063-.117188-.003906-.234375 0-.355469 0-.140625 0-.285156 0-.425781 0-.113281.007813-.222656.023437-.335938.03125-.148437.015625-.300781.023437-.445312.046875-.101562.015625-.207031.039062-.308594.058594-.15625.03125-.3125.058594-.46875.101562-.097656.023438-.1875.054688-.285156.082032-.160156.046874-.320312.09375-.476562.152343-.027344.007813-.054688.015625-.082032.023438-.070312.027343-.136718.0625-.210937.09375-.144531.058593-.292969.117187-.433594.1875-.039063.015625-.078125.03125-.117187.050781h-47.382813c-2.351563-8.847656-10.359375-15.011719-19.515625-15.011719s-17.167969 6.164063-19.515625 15.011719h-47.386719c-.039062-.019531-.082031-.035156-.121094-.054688-.136718-.066406-.277343-.121093-.417968-.179687-.074219-.03125-.148438-.066406-.222656-.101563-.027344-.007812-.058594-.015624-.082032-.027343-.152344-.050781-.300781-.097657-.457031-.140625-.101563-.03125-.207031-.066406-.308594-.09375-.144531-.035156-.289062-.058594-.429687-.089844-.117188-.019531-.234375-.046875-.347656-.066406-.117188-.015625-.261719-.027344-.390626-.039063-.128906-.011719-.261718-.03125-.394531-.035156-.128906-.007813-.234375 0-.355469 0-.140624 0-.285156 0-.425781 0-.109375.003906-.21875.019531-.328125.027344-.152344.015625-.300781.027343-.453125.050781-.101562.011719-.203125.039062-.300781.054688-.160156.03125-.320312.0625-.476562.101562-.09375.023438-.1875.054688-.28125.082031-.160157.046875-.324219.09375-.480469.152344-.027344.011719-.054688.015625-.082031.027344-.070313.027343-.136719.058593-.210938.089843-.144531.058594-.289062.121094-.433594.1875-.109375.050782-.214844.109376-.320312.164063-.121094.066406-.242188.132813-.359375.199219-.117188.070312-.222657.140625-.332031.214844-.105469.074218-.210938.140624-.3125.21875-.105469.074218-.210938.164062-.3125.246093-.101563.085938-.199219.164063-.292969.25-.09375.085938-.1875.175781-.277344.265625s-.1875.191406-.28125.292969c-.089844.097656-.15625.179687-.230469.273437-.078125.09375-.179687.214844-.261718.332032-.070313.097656-.140626.191406-.207032.292968-.074218.113282-.152344.230469-.222656.347657-.074219.121093-.128906.226562-.191406.34375-.0625.113281-.121094.222656-.175782.335937-.0625.140625-.121093.277344-.179687.417969-.03125.078125-.066406.148437-.09375.222656l-25.859375 69.332031c-2.304688 1.464844-3.699219 4.007813-3.699219 6.738282 0 20.015625 15.238281 34 37.054688 34 21.941406 0 37.265625-13.984375 37.265625-34-.003906-2.84375-1.515625-5.472656-3.96875-6.902344l-21.464844-57.535156h41.554688c2.109374 3.492187 5.285156 6.214844 9.058593 7.769531v96.230469h-13.269531c-4.417969 0-8 3.578125-8 8 0 4.417968 3.582031 8 8 8h42.5625c4.417969 0 8-3.582032 8-8 0-4.421875-3.582031-8-8-8h-13.292969v-96.230469c3.777344-1.554687 6.960938-4.277344 9.082031-7.769531h41.554688l-21.460938 57.53125c-2.457031 1.429687-3.96875 4.058594-3.96875 6.898437 0 20.019531 15.238282 34 37.054688 34 21.941406 0 37.265625-13.980469 37.265625-34-.003906-2.726562-1.398437-5.265625-3.699219-6.730469zm-174.277344 24.300782c-7.78125 0-15.972656-2-19.398437-10h38.933594c-3.566407 8-12.03125 10-19.535157 10zm15.808594-26h-31.617187l15.808593-42.382813zm54.652344-62.574219c-2.332031 0-4.21875-1.886719-4.222656-4.21875 0-2.332031 1.890625-4.21875 4.222656-4.21875 2.328125-.003906 4.21875 1.886719 4.21875 4.21875-.003906 2.328125-1.890625 4.214844-4.21875 4.21875zm70.460938 20.191406 15.808593 42.382813h-31.621093zm-.210938 68.382813c-7.78125 0-15.972656-2-19.398438-10h38.933594c-3.566406 8-12.03125 10-19.535156 10zm0 0"/></svg>