<?xml version="1.0"?>
<svg xmlns="http://www.w3.org/2000/svg" id="outline" viewBox="0 0 512 512" width="512" height="512"><path d="M64,120h41.052l8.29175,12.4375A7.99943,7.99943,0,0,0,120,136H232a7.99943,7.99943,0,0,0,6.65625-3.5625L246.948,120H288v56h16V112a8.00008,8.00008,0,0,0-8-8H257.6145l10.66675-16H312a8.00917,8.00917,0,0,1,8,8v80h16V96a24.02718,24.02718,0,0,0-24-24H200V64a24,24,0,0,0-48,0v8H40A24.02718,24.02718,0,0,0,16,96V448a24.02718,24.02718,0,0,0,24,24H176V456H40a8.00917,8.00917,0,0,1-8-8V96a8.00917,8.00917,0,0,1,8-8H83.71875L94.3855,104H56a8.00008,8.00008,0,0,0-8,8V432a8.00008,8.00008,0,0,0,8,8H176V424H64ZM168,64a8,8,0,0,1,16,0v8H168Zm81.052,24-21.33325,32H124.28125L102.948,88Z"/><path d="M88,344a8.00008,8.00008,0,0,0-8,8v48a8.00008,8.00008,0,0,0,8,8h48a8.00008,8.00008,0,0,0,8-8V355.314l13.65674-13.65673-11.31348-11.31446L132.686,344Zm40,48H96V360h20.686l-10.34278,10.34277,11.31348,11.31446L128,371.314Z"/><path d="M146.34326,242.34277,132.686,256H88a8.00008,8.00008,0,0,0-8,8v48a8.00008,8.00008,0,0,0,8,8h48a8.00008,8.00008,0,0,0,8-8V267.314l13.65674-13.65673ZM128,304H96V272h20.686l-10.34278,10.34277,11.31348,11.31446L128,283.314Z"/><path d="M146.34326,154.34277,132.686,168H88a8.00008,8.00008,0,0,0-8,8v48a8.00008,8.00008,0,0,0,8,8h48a8.00008,8.00008,0,0,0,8-8V179.314l13.65674-13.65673ZM128,216H96V184h20.686l-10.34278,10.34277,11.31348,11.31446L128,195.314Z"/><rect x="168" y="176" width="48" height="16"/><rect x="232" y="176" width="40" height="16"/><rect x="200" y="208" width="48" height="16"/><rect x="168" y="208" width="16" height="16"/><path d="M488,256H416V232a40.04552,40.04552,0,0,0-40-40H312a40.04552,40.04552,0,0,0-40,40v24H200a8.00008,8.00008,0,0,0-8,8V464a8.00008,8.00008,0,0,0,8,8h72V456H219.314l16-16H280V424H240V346.21582l1.14014,1.90039A8.00072,8.00072,0,0,0,248,352h16v24a8.00008,8.00008,0,0,0,8,8h40a8.00008,8.00008,0,0,0,8-8V352h16V336H320V312a8.00008,8.00008,0,0,0-8-8H272a8.00008,8.00008,0,0,0-8,8v24H252.5293l-38.39978-64H473.87036l-40.73022,67.88379,13.71972,8.23242L480,292.88281V352h16V264A8.00008,8.00008,0,0,0,488,256ZM280,320h24v48H280Zm88-64H320V240h48Zm16-8h16v8H384Zm-72-40h64a24.02718,24.02718,0,0,1,24,24H384a8.00008,8.00008,0,0,0-8-8H312a8.00008,8.00008,0,0,0-8,8H288A24.02718,24.02718,0,0,1,312,208Zm-24,40h16v8H288Zm-64,72V428.686l-16,16V292.88281L224.27039,320Z"/><path d="M374.05811,345.72754A27.05506,27.05506,0,0,0,364.5293,344a20.52923,20.52923,0,0,0-17.60352,31.0918L364.69531,404.708l-66.8081,33.40429A17.88843,17.88843,0,0,0,305.88867,472H496V456H440V384h56V368H433.44971ZM424,456H305.88867a1.8888,1.8888,0,0,1-.84472-3.57812l74.53369-37.26661a7.99967,7.99967,0,0,0,3.28222-11.27148l-22.21435-37.02441A4.52905,4.52905,0,0,1,364.5293,360a11.10248,11.10248,0,0,1,3.91113.709L424,381.544Z"/><path d="M424,344H408V320H384v16H368V312a8.00008,8.00008,0,0,1,8-8h40a8.00008,8.00008,0,0,1,8,8Z"/></svg>
