<svg height="472pt" viewBox="-40 0 471 472" width="472pt" xmlns="http://www.w3.org/2000/svg"><path d="m363.699219 0h-336.398438c-14.53125 0-26.800781 11.398438-26.800781 25.40625v405.707031c0 .128907.222656.265625.222656.398438 0 22.324219 19.175782 40.488281 42.476563 40.488281h296.035156c14.53125 0 26.265625-11.398438 26.265625-25.398438v-39.644531c14-.933593 25-11.941406 25-25.34375v-356.214843c0-14-12.269531-25.398438-26.800781-25.398438zm-14.199219 446.601562c0 5.179688-4.558594 9.398438-10.265625 9.398438h-296.035156c-14.472657 0-26.25-10.988281-26.25-24.488281v-.316407c.175781-13.363281 11.886719-24.195312 26.25-24.195312h306.300781zm25-64.984374c0 5.1875-5.09375 9.386718-10.800781 9.386718h-320.5c-9.910157 0-18.699219 3.304688-26.699219 8.796875v-374.394531c0-5.183594 5.09375-9.40625 10.800781-9.40625h336.398438c5.707031 0 10.800781 4.21875 10.800781 9.398438zm0 0"/><path d="m319.050781 340h-247.101562c-4.417969 0-8 3.582031-8 8s3.582031 8 8 8h247.101562c4.417969 0 8-3.582031 8-8s-3.582031-8-8-8zm0 0"/><path d="m279.050781 316c4.417969 0 8-3.582031 8-8s-3.582031-8-8-8h-167.101562c-4.417969 0-8 3.582031-8 8s3.582031 8 8 8zm0 0"/><path d="m329.550781 176.675781-34.207031-91.703125c-.027344-.074218-.066406-.148437-.101562-.222656-.054688-.140625-.113282-.277344-.179688-.414062-.054688-.117188-.113281-.230469-.171875-.34375-.0625-.109376-.125-.226563-.191406-.339844-.066407-.109375-.148438-.234375-.226563-.347656-.066406-.101563-.132812-.199219-.203125-.300782-.085937-.113281-.171875-.222656-.257812-.328125-.089844-.105469-.160157-.1875-.242188-.277343-.082031-.09375-.179687-.195313-.273437-.289063-.09375-.089844-.1875-.179687-.28125-.269531-.097656-.085938-.1875-.164063-.285156-.242188-.09375-.078125-.210938-.171875-.324219-.253906-.109375-.085938-.199219-.140625-.296875-.210938-.117188-.074218-.230469-.152343-.347656-.222656-.117188-.070312-.226563-.128906-.34375-.1875-.113282-.0625-.222657-.121094-.339844-.175781-.132813-.066406-.273438-.121094-.410156-.179687-.078126-.03125-.148438-.070313-.226563-.101563-.03125-.007813-.058594-.015625-.085937-.027344-.148438-.050781-.300782-.097656-.449219-.140625-.105469-.03125-.210938-.066406-.316407-.09375-.140624-.03125-.277343-.058594-.417968-.085937-.121094-.023438-.238282-.050781-.359375-.070313-.121094-.015625-.253907-.027344-.378907-.039062-.125-.011719-.269531-.03125-.398437-.035156-.117187-.007813-.230469 0-.347656 0-.144531 0-.289063 0-.4375 0-.105469.003906-.214844.019531-.320313.027343-.152344.015625-.308594.027344-.457031.050781-.101563.011719-.203125.039063-.300781.054688-.148438.027344-.292969.054688-.4375.085938h-67c-2.4375-10.988282-12.183594-18.808594-23.441406-18.808594-11.257813 0-21 7.820312-23.441407 18.808594h-67c-.121093-.027344-.246093-.050782-.371093-.074219-.125-.023438-.246094-.050781-.367188-.070313-.121094-.015625-.25-.027344-.375-.039062-.128906-.011719-.273438-.03125-.40625-.035156-.117188-.007813-.230469 0-.347656 0-.144532 0-.289063 0-.433594 0-.109375.003906-.214844.019531-.324219.027343-.152343.015625-.308593.027344-.457031.050781-.101562.011719-.199219.035157-.292969.054688-.164062.03125-.328125.0625-.488281.101562-.085938.019532-.175781.050782-.261719.078126-.167969.046874-.335937.097656-.5.15625-.027343.011718-.050781.015624-.074219.023437-.066406.023437-.128906.058594-.195312.085937-.152344.058594-.308594.125-.457031.199219-.101563.046875-.203125.097657-.300781.152344-.128907.070313-.253907.140625-.378907.214844-.109375.0625-.210937.132812-.3125.199219-.105469.066406-.226562.148437-.332031.230468-.109375.078125-.199219.15625-.300781.234375-.101563.078125-.207031.171875-.308594.261719-.097656.09375-.175781.167969-.261719.253906-.085937.085938-.199218.199219-.292968.300782-.074219.085937-.148438.171874-.222657.261718-.09375.109375-.183593.222656-.269531.34375-.070312.089844-.132812.1875-.199219.28125-.082031.117188-.160156.238282-.234375.359375-.070312.125-.125.21875-.183594.332031-.058593.113282-.121093.226563-.175781.347657-.066406.136719-.125.273437-.179687.414062-.03125.074219-.070313.148438-.101563.222657l-34.207031 91.699218c-2.683594 1.363282-4.375 4.117188-4.378906 7.128906 0 24.773438 18.949218 42.078126 46.082031 42.078126 27.292969 0 46.355469-17.300782 46.355469-42.078126 0-3.144531-1.847656-5.996093-4.714844-7.289062l-30.019531-80.5h59.296875c2.796875 5.527344 7.609375 9.765625 13.441406 11.84375v111.15625h-6.164062c-10.945313 0-20.691407 8.589844-24 19.542969-3.980469.617187-6.894532 4.074219-6.835938 8.097656v20.175781c-.054688 2.117188.734375 4.167969 2.191406 5.703125 1.460938 1.535157 3.472656 2.429688 5.589844 2.480469h74.4375c2.121094-.050781 4.128906-.945312 5.589844-2.480469 1.457031-1.535156 2.246094-3.589843 2.191406-5.707031v-20.175781c.058594-4.023438-2.855469-7.480469-6.835938-8.097657-3.308593-10.953124-13.054687-19.542968-24-19.542968h-6.164062v-111.152344c5.835938-2.074219 10.648438-6.316406 13.441406-11.84375h59.300782l-30.035157 80.511719c-2.867187 1.292969-4.710937 4.144531-4.714843 7.289062 0 24.773438 18.949218 42.078125 46.082031 42.078125 27.292969 0 46.359375-17.300781 46.359375-42.078125-.003906-3.011719-1.699219-5.765625-4.382813-7.125zm-226.398437 33.398438c-11.75 0-25.167969-5.078125-29-18.078125h58.21875c-3.8125 12.003906-16.5625 18.082031-29.21875 18.082031zm24.300781-34.074219h-48.601563l24.300782-65.144531zm97.046875 83h-58v-4h58zm-14.835938-24c2.199219 0 4.425782 2 6.144532 4h-40.617188c1.71875-2 3.941406-4 6.144532-4zm-14.164062-141.777344c-4.425781 0-8.015625-3.589844-8.015625-8.019531 0-4.425781 3.589844-8.015625 8.015625-8.015625s8.015625 3.589844 8.015625 8.015625c-.003906 4.425781-3.589844 8.011719-8.015625 8.019531zm92.347656 17.632813 24.300782 65.144531h-48.597657zm-.273437 99.222656c-11.75 0-25.167969-5.078125-29-18.078125h58.21875c-3.8125 12-16.5625 18.078125-29.21875 18.078125zm0 0"/></svg>