<svg height="496pt" viewBox="0 0 496 496" width="496pt" xmlns="http://www.w3.org/2000/svg"><path d="m488 168h-8v-16h-16v16h-368v-24c0-4.414062-3.574219-8-8-8h-48c-4.425781 0-8 3.585938-8 8v24h-8c-4.425781 0-8 3.585938-8 8v88c0 2.128906.839844 4.160156 2.34375 5.65625l28.96875 28.976562-29.863281 149.367188h-9.449219c-4.425781 0-8 3.574219-8 8v32c0 4.425781 3.574219 8 8 8h144c4.425781 0 8-3.574219 8-8v-32c0-4.425781-3.574219-8-8-8h-14.414062l13.09375-72h89.320312c4.425781 0 8-3.574219 8-8v-72h224c4.425781 0 8-3.574219 8-8v-40h8c4.425781 0 8-3.585938 8-8v-64c0-4.414062-3.574219-8-8-8zm-320 16h232v16h-232zm-120-32h32v16h-32zm192 128c-4.425781 0-8 3.574219-8 8v72h-88c-3.863281 0-7.175781 2.769531-7.863281 6.566406l-16 88c-.433594 2.335938.199219 4.738282 1.726562 6.554688 1.511719 1.824218 3.761719 2.878906 6.136719 2.878906h16v16h-128v-16h8c3.816406 0 7.097656-2.695312 7.839844-6.433594l32-160c.519531-2.621094-.296875-5.335937-2.183594-7.222656l-29.65625-29.65625v-12.6875h304v32zm224 0h-112v-32h112zm16-48h-384v-32h-16v32h-16v-32h-16v32h-16v-48h120v24c0 4.414062 3.574219 8 8 8h248c4.425781 0 8-3.585938 8-8v-24h64zm0 0"/><path d="m120.167969 286.351562-32 152 15.65625 3.296876 30.671875-145.648438h9.503906v16c0 2.671875 1.335938 5.167969 3.558594 6.65625l48 32c1.351562.894531 2.90625 1.34375 4.441406 1.34375 1.894531 0 3.792969-.679688 5.296875-2 2.71875-2.40625 3.488281-6.335938 1.855469-9.574219l-15.152344-30.3125v-14.113281h24v-16h-88c-3.785156 0-7.046875 2.648438-7.832031 6.351562zm56.671875 29.222657 2.527344 5.058593-19.367188-12.914062v-11.71875h16v16c0 1.238281.289062 2.472656.839844 3.574219zm0 0"/><path d="m488 0h-384c-4.425781 0-8 3.585938-8 8v8h-88c-4.425781 0-8 3.585938-8 8v32c0 4.414062 3.574219 8 8 8h88v8c0 4.414062 3.574219 8 8 8h384c4.425781 0 8-3.585938 8-8v-64c0-4.414062-3.574219-8-8-8zm-472 48v-16h80v16zm464 16h-368v-48h368zm0 0"/><path d="m384 408.785156c0-6.410156-.703125-12.832031-2.097656-19.089844l-14.09375-63.429687c-.808594-3.664063-4.054688-6.265625-7.808594-6.265625s-7 2.601562-7.816406 6.265625l-14.09375 63.429687c-1.386719 6.257813-2.089844 12.679688-2.089844 19.089844v71.214844h-16v16h80v-16h-16zm-30.28125-15.617187 6.28125-28.289063 6.28125 28.28125c1.144531 5.128906 1.71875 10.375 1.71875 15.625v39.214844h-16v-39.214844c0-5.25.574219-10.496094 1.71875-15.617187zm-1.71875 86.832031v-16h16v16zm0 0"/><path d="m480 408.785156c0-6.410156-.703125-12.832031-2.097656-19.089844l-14.09375-63.429687c-.808594-3.664063-4.054688-6.265625-7.808594-6.265625s-7 2.601562-7.816406 6.265625l-14.09375 63.429687c-1.386719 6.257813-2.089844 12.679688-2.089844 19.089844v71.214844h-16v16h80v-16h-16zm-30.28125-15.617187 6.28125-28.289063 6.28125 28.28125c1.144531 5.128906 1.71875 10.375 1.71875 15.625v39.214844h-16v-39.214844c0-5.25.574219-10.496094 1.71875-15.617187zm-1.71875 86.832031v-16h16v16zm0 0"/></svg>