<svg height="479pt" viewBox="-17 0 479 479.96382" width="479pt" xmlns="http://www.w3.org/2000/svg"><path d="m8.484375 173.964844h32.5v240h-24.648437c-4.492188-.019532-8.1875 3.53125-8.351563 8.019531v49.96875c.164063 4.488281 3.863281 8.03125 8.351563 8.011719h413.296874c4.488282.019531 8.1875-3.523438 8.351563-8.011719v-49.96875c-.164063-4.488281-3.859375-8.039063-8.351563-8.019531h-24.648437v-240h32.5c3.476563-.066406 6.527344-2.332032 7.597656-5.640625 1.070313-3.3125-.078125-6.933594-2.859375-9.023438l-214.5-157.738281c-2.816406-2.078125-6.652344-2.085938-9.476562-.015625l-214.5 157.691406c-2.785156 2.097657-3.9375 5.726563-2.871094 9.046875 1.066406 3.320313 4.121094 5.601563 7.609375 5.679688zm413.5 256v34h-398v-34zm-365-16v-240h26v240zm222.5625-110 17.019531-45.628906 17.019532 45.628906zm37.765625 16c-3.628906 8-12.828125 11.152344-20.964844 11.152344-8.4375 0-17.332031-3.152344-20.816406-11.152344zm-55.226562-14.886719c-2.519532 1.414063-4.082032 4.082031-4.082032 6.96875 0 20.699219 15.769532 35.152344 38.34375 35.152344 22.699219 0 38.5625-14.453125 38.5625-35.152344 0-2.773437-1.441406-5.347656-3.800781-6.800781l-26.179687-70.183594c-.207032-1.839844-1.046876-3.546875-2.375-4.835938-.019532-.023437-.042969-.042968-.0625-.0625-.089844-.101562-.179688-.191406-.273438-.285156s-.1875-.183594-.285156-.273437c-.097656-.089844-.183594-.160157-.277344-.238281-.09375-.078126-.21875-.175782-.328125-.261719-.101563-.070313-.195313-.136719-.292969-.199219-.117187-.078125-.234375-.15625-.355468-.230469-.125-.070312-.21875-.121093-.328126-.179687-.109374-.0625-.234374-.125-.355468-.183594s-.261719-.117188-.394532-.167969c-.078124-.035156-.15625-.074219-.238281-.101562-.03125-.011719-.0625-.019531-.09375-.027344-.140625-.054687-.289062-.097656-.4375-.140625-.105469-.03125-.210937-.066406-.320312-.09375-.144531-.035156-.292969-.0625-.441407-.09375-.109374-.019531-.21875-.042969-.328124-.0625-.148438-.019531-.292969-.03125-.441407-.046875-.113281-.007813-.226562-.023437-.339843-.03125-.148438-.007813-.296876 0-.445313 0-.109375 0-.222656 0-.332031 0-.144532.007813-.300782.027344-.441406.042969-.113282.011718-.226563.019531-.335938.035156-.136719.019531-.273438.050781-.410156.078125-.121094.023437-.242188.046875-.363282.078125-.117187.027344-.25.070312-.375.109375-.09375.027344-.191406.050781-.28125.082031h-51c-2.476562-9-10.660156-15.238281-19.992187-15.238281-9.335937 0-17.515625 6.238281-19.992187 15.238281h-51c-.105469-.039062-.21875-.066406-.328126-.101562-.105468-.035156-.210937-.066406-.316406-.09375-.148437-.035156-.300781-.0625-.445312-.089844-.109375-.023438-.21875-.046875-.328125-.066406-.148438-.019532-.292969-.03125-.441407-.042969-.113281-.011719-.226562-.027344-.335937-.03125-.148437-.007813-.300781 0-.449219 0-.109375 0-.21875 0-.332031 0-.144531.003906-.292969.023437-.441406.039063-.109375.011718-.222657.019531-.332031.035156-.140626.019531-.277344.050781-.414063.078125-.136719.03125-.242187.046875-.363281.078125s-.25.070312-.375.109375c-.125.035156-.257813.074219-.386719.121093-.03125.011719-.066406.019532-.097656.03125-.09375.035157-.179688.078126-.269531.117188-.117188.050781-.238282.097656-.355469.152344-.117188.054687-.257813.132812-.382813.199218-.101562.054688-.199218.109376-.300781.167969-.128906.078125-.253906.160157-.378906.246094-.089844.058594-.179688.121094-.269531.1875-.117188.085937-.234376.179687-.347657.273437-.089843.074219-.175781.144532-.261719.222657-.101562.09375-.199218.191406-.300781.289062-.097656.097657-.175781.175781-.257812.269531-.023438.023438-.046875.046876-.066407.070313-1.332031 1.285156-2.171874 2.996094-2.378906 4.835937l-26.179687 70.1875c-2.363281 1.453126-3.800781 4.027344-3.800781 6.800782 0 20.699218 15.765624 35.152344 38.34375 35.152344 22.699218 0 38.558593-14.457032 38.558593-35.152344 0-2.890625-1.558593-5.554688-4.078125-6.96875l-22.792968-61.125h44c2.277343 3.882812 5.75 6.929687 9.898437 8.679687v161.320313h-116v-240h248v240h-116v-161.320313c4.148437-1.753906 7.617187-4.796875 9.894531-8.679687h44zm-35.101563-69.035156c-1.230469 1.941406-3.675781 2.726562-5.808594 1.863281-2.128906-.859375-3.339843-3.121094-2.878906-5.375.464844-2.25 2.46875-3.851562 4.769531-3.800781 2.296875.046875 4.234375 1.734375 4.597656 4.003906-.449218 1.015625-.679687 2.117187-.679687 3.230469zm-94.601563 67.921875 17.023438-45.628906 17.015625 45.628906zm37.988282 16c-3.628906 8-12.832032 11.152344-20.964844 11.152344-8.441406 0-17.332031-3.152344-20.816406-11.152344zm192.613281 94v-240h26v240zm-140-395.773438 190.109375 139.773438h-380.21875zm0 0"/><path d="m222.984375 60.753906c-21.757813 0-39.457031 17.160156-39.457031 38.246094 0 21.089844 17.699218 38.246094 39.457031 38.246094s39.457031-17.15625 39.457031-38.246094c0-21.085938-17.699218-38.246094-39.457031-38.246094zm0 60.492188c-12.933594 0-23.457031-9.976563-23.457031-22.246094 0-12.265625 10.523437-22.246094 23.457031-22.246094s23.457031 9.980469 23.457031 22.246094c0 12.269531-10.523437 22.246094-23.457031 22.246094zm0 0"/></svg>