<svg height="455pt" viewBox="-56 0 455 455" width="455pt" xmlns="http://www.w3.org/2000/svg"><path d="m0 256.070312c0 39.9375 25.457031 72.433594 56.746094 72.433594 31.292968 0 56.75-32.496094 56.75-72.433594 0-31.578124-15.917969-58.484374-38.046875-68.375 5.496093-2.65625 11.75-4.148437 16.980469-1.359374 3.890624 2.035156 8.691406.550781 10.761718-3.324219 2.066406-3.871094.625-8.6875-3.230468-10.789063-12.683594-6.769531-26.117188-2.222656-35.773438 3.378906v-116.601562h80.484375l135.515625 135.574219v252.425781c0 4.417969 3.582031 8 8 8h46c4.417969 0 8-3.582031 8-8v-439c0-4.417969-3.582031-8-8-8h-315c-4.417969 0-8 3.582031-8 8v43c0 4.417969 3.582031 8 8 8h29v125.460938c-27.242188 5.285156-48.1875 35.382812-48.1875 71.609374zm280.1875-84.128906-112.890625-112.941406h45.253906l67.636719 67.691406zm0-67.886718-45.019531-45.054688h45.019531zm-253-61.054688v-27h299v423h-30v-388c0-4.417969-3.582031-8-8-8zm29.558594 156.636719c22.46875 0 40.75 25.316406 40.75 56.433593 0 31.117188-18.28125 56.429688-40.75 56.429688-22.464844 0-40.746094-25.316406-40.746094-56.433594 0-31.117187 18.28125-56.429687 40.746094-56.429687zm0 0"/></svg>