<svg height="492pt" viewBox="-10 0 492 492.066" width="492pt" xmlns="http://www.w3.org/2000/svg"><path d="m151.832031 0c-46.964843 0-85.035156 38.070312-85.035156 85.035156-.003906 46.964844 38.070313 85.039063 85.035156 85.039063 46.964844 0 85.035157-38.074219 85.035157-85.039063-.050782-46.941406-38.09375-84.9804685-85.035157-85.035156zm0 154.074219c-38.128906 0-69.035156-30.910157-69.035156-69.039063-.003906-38.128906 30.90625-69.035156 69.035156-69.035156 38.128907 0 69.039063 30.910156 69.035157 69.035156-.042969 38.113282-30.925782 68.996094-69.035157 69.039063zm0 0"/><path d="m341.617188 231.167969c-16.113282-.039063-32.089844 2.925781-47.113282 8.742187-13.394531-25.207031-39.621094-40.949218-68.164062-40.910156-2.554688.027344-4.949219 1.261719-6.449219 3.328125-15.894531 21.6875-41.167969 34.496094-68.054687 34.496094-26.886719 0-52.160157-12.816407-68.050782-34.503907-1.503906-2.066406-3.898437-3.300781-6.453125-3.320312-42.625 0-77.300781 34.84375-77.300781 77.464844v105.402344c-.0117188 4.445312 3.558594 8.070312 8 8.132812h206.269531c12.953125 58 65.113281 102.066406 127.316407 102.066406 71.914062 0 130.414062-58.539062 130.414062-130.449218 0-71.914063-58.5-130.449219-130.414062-130.449219zm-129.835938 142.832031h-195.75v-97.535156c.042969-32.347656 25.167969-59.121094 57.453125-61.210938 19.066406 23.761719 47.882813 37.585938 78.351563 37.585938 30.464843 0 59.28125-13.824219 78.347656-37.585938 20.878906 1.269532 39.652344 13.132813 49.761718 31.445313-42.308593 22.761719-68.710937 66.910156-68.746093 114.953125 0 4.140625.203125 8.347656.582031 12.347656zm129.835938 102c-63.191407 0-114.417969-51.226562-114.417969-114.417969 0-63.191406 51.226562-114.417969 114.417969-114.417969 63.191406 0 114.414062 51.226563 114.414062 114.417969-.070312 63.164063-51.253906 114.347657-114.414062 114.417969zm0 0"/><path d="m341.03125 381.800781c-4.417969 0-8 3.582031-8 8v20.175781c0 4.417969 3.582031 8 8 8 4.421875 0 8-3.582031 8-8v-20.175781c0-4.417969-3.578125-8-8-8zm0 0"/><path d="m384.03125 342.933594v-25.410156c0-24.027344-19.472656-43.5-43.5-43.5-24.023438 0-43.5 19.472656-43.5 43.5v25.410156c-12 11.65625-20.222656 28.257812-20.222656 46.664062.136718 35.140625 28.664062 63.554688 63.808594 63.554688 35.140624 0 63.667968-28.414063 63.804687-63.554688 0-18.40625-7.390625-35.007812-20.390625-46.664062zm-71-25.410156c0-15.1875 12.3125-27.5 27.5-27.5 15.191406 0 27.5 12.3125 27.5 27.5v14.5c-8.574219-4.132813-17.980469-6.253907-27.5-6.210938-9.808594 0-18.5 2.234375-27.5 6.210938zm27.703125 119.863281c-26.394531 0-47.789063-21.394531-47.789063-47.789063 0-26.394531 21.394532-47.789062 47.789063-47.789062 26.390625.003906 47.785156 21.398437 47.785156 47.792968-.03125 26.378907-21.40625 47.753907-47.785156 47.785157zm0 0"/></svg>