<svg height="496pt" viewBox="0 0 496 496" width="496pt" xmlns="http://www.w3.org/2000/svg"><path d="m488 256h-8v-24c0-4.414062-3.574219-8-8-8h-120v-216c0-4.414062-3.574219-8-8-8h-336c-4.425781 0-8 3.585938-8 8v416c0 2.214844.894531 4.214844 2.351562 5.664062l63.984376 63.984376c1.449218 1.457031 3.449218 2.351562 5.664062 2.351562h416c4.425781 0 8-3.585938 8-8v-224c0-4.414062-3.574219-8-8-8zm-136 48c2.128906 0 4.160156-.839844 5.65625-2.34375l29.65625-29.65625h92.6875v128h-248c-2.433594 0-4.726562 1.105469-6.246094 3l-49.753906 62.191406v-161.191406zm112-48h-80c-2.128906 0-4.160156.839844-5.65625 2.34375l-29.65625 29.65625h-156.6875v-64h100.6875l13.65625 13.65625c1.496094 1.503906 3.527344 2.34375 5.65625 2.34375h152zm-400 212.6875-36.6875-36.6875h36.6875zm8-52.6875h-56v-400h320v208h-20.6875l-13.65625-13.65625c-1.496094-1.503906-3.527344-2.34375-5.65625-2.34375h-112c-4.425781 0-8 3.585938-8 8v8h-144v16h144v16h-144v16h144v16h-8c-4.425781 0-8 3.585938-8 8v8h-128v16h128v16h-128v16h128v128h-80v-56c0-4.414062-3.574219-8-8-8zm112.648438 64 51.199218-64h244.152344v64zm0 0"/><path d="m40 144h96c4.425781 0 8-3.585938 8-8v-96c0-4.414062-3.574219-8-8-8h-96c-4.425781 0-8 3.585938-8 8v96c0 4.414062 3.574219 8 8 8zm8-96h80v80h-80zm0 0"/><path d="m160 128h160v16h-160zm0 0"/><path d="m160 96h160v16h-160zm0 0"/><path d="m160 64h160v16h-160zm0 0"/></svg>