<svg height="496pt" viewBox="-48 0 496 496.00151" width="496pt" xmlns="http://www.w3.org/2000/svg"><path d="m335.953125 337.722656-81.984375-9.105468-11.542969-34.625c31.6875-15.703126 53.574219-48.292969 53.574219-85.992188 8.824219 0 16-7.175781 16-16v-64c0-8.824219-7.175781-16-16-16v-104c0-3.230469-1.941406-6.160156-4.933594-7.390625-3-1.238281-6.433594-.5507812-8.722656 1.734375l-3.878906 3.882812c-16.632813 16.613282-38.71875 25.773438-62.230469 25.773438h-88.234375c-13.230469 0-24 10.769531-24 24v56c-8.824219 0-16 7.175781-16 16v64c0 8.824219 7.175781 16 16 16 0 37.699219 21.890625 70.289062 53.578125 85.984375l-11.546875 34.625-81.984375 9.105469c-36.519531 4.070312-64.046875 34.832031-64.046875 71.566406v78.71875c0 4.425781 3.578125 8 8 8h384c4.425781 0 8-3.574219 8-8v-78.71875c0-36.734375-27.527344-67.496094-64.046875-71.558594zm-207.953125-289.722656h88.234375c23.390625 0 45.597656-7.671875 63.765625-21.824219v53.824219h-160v-24c0-4.414062 3.585938-8 8-8zm-8 48h160v16h-56c-2.128906 0-4.160156.839844-5.65625 2.34375l-13.65625 13.65625h-9.375l-13.65625-13.65625c-1.496094-1.503906-3.527344-2.34375-5.65625-2.34375h-56zm-16 32h68.6875l13.65625 13.65625c1.496094 1.503906 3.527344 2.34375 5.65625 2.34375h16c2.128906 0 4.160156-.839844 5.65625-2.34375l13.65625-13.65625h68.6875l.015625 64h-68.703125l-13.65625-13.65625c-1.496094-1.503906-3.527344-2.34375-5.65625-2.34375h-16c-2.128906 0-4.160156.839844-5.65625 2.34375l-13.65625 13.65625h-68.6875zm16 80h56c2.128906 0 4.160156-.839844 5.65625-2.34375l13.65625-13.65625h9.375l13.65625 13.65625c1.496094 1.503906 3.527344 2.34375 5.65625 2.34375h56c0 44.113281-35.886719 80-80 80-44.109375 0-80-35.886719-80-80zm80 96c9.578125 0 18.808594-1.445312 27.542969-4.070312l11.042969 33.136718-25.25 18.933594h-26.671876l-25.246093-18.933594 11.039062-33.136718c8.734375 2.625 17.96875 4.070312 27.542969 4.070312zm-134.183594 49.625 83.929688-9.320312 29.453125 22.097656c1.386719 1.039062 3.066406 1.597656 4.800781 1.597656h32c1.738281 0 3.417969-.558594 4.800781-1.597656l29.464844-22.097656 83.925781 9.320312c19.386719 2.152344 35.503906 13.992188 43.785156 30.375h-355.953124c8.289062-16.382812 24.402343-28.222656 43.792968-30.375zm318.183594 55.65625v22.71875h-368v-22.71875c0-3.160156.304688-6.253906.808594-9.28125h366.382812c.503906 3.027344.808594 6.121094.808594 9.28125zm-368 70.71875v-32h368v32zm0 0"/><path d="m244 176c6.617188 0 12-5.382812 12-12 0-6.613281-5.382812-12-12-12s-12 5.386719-12 12c0 6.617188 5.382812 12 12 12zm0-16c2.199219 0 4 1.800781 4 4 0 2.203125-1.800781 4-4 4s-4-1.796875-4-4c0-2.199219 1.800781-4 4-4zm0 0"/><path d="m164 152c-6.617188 0-12 5.386719-12 12 0 6.617188 5.382812 12 12 12s12-5.382812 12-12c0-6.613281-5.382812-12-12-12zm0 16c-2.199219 0-4-1.796875-4-4 0-2.199219 1.800781-4 4-4s4 1.800781 4 4c0 2.203125-1.800781 4-4 4zm0 0"/></svg>