<?xml version="1.0" encoding="iso-8859-1"?>
<!-- Generator: Adobe Illustrator 19.0.0, SVG Export Plug-In . SVG Version: 6.00 Build 0)  -->
<svg version="1.1" id="Capa_1" xmlns="http://www.w3.org/2000/svg" xmlns:xlink="http://www.w3.org/1999/xlink" x="0px" y="0px"
	 viewBox="0 0 463 463" style="enable-background:new 0 0 463 463;" xml:space="preserve">
<g>
	<path d="M381.454,348.116l-11.792-5.079c0.089-3.218-1.914-6.249-5.124-7.319l-5.55-1.85c-0.261-29.676-7.571-46.375-14.039-61.13
		c-5.298-12.087-9.873-22.545-9.942-38.869c1.716-5.19,3.177-10.536,4.36-16.019l1.853-2.371C357.296,194.925,367,182.519,367,151.5
		c0-36.42-14.318-74.1-39.284-103.376C301.253,17.091,267.083,0,231.5,0s-69.753,17.091-96.216,48.124
		C110.318,77.4,96,115.08,96,151.5c0,31.054,10.577,44.579,26.586,65.05l1.06,1.356c5.956,27.553,18.891,51.703,36.359,69.485
		c-0.001,0.036-0.005,0.072-0.005,0.108v19.986l-8.912,5.941c-2.822,1.881-5.097,4.297-6.81,7.019l-45.816,15.272
		c-3.209,1.07-5.212,4.1-5.124,7.319l-11.792,5.079C61.167,356.893,48,376.901,48,399.089V439.5c0,12.958,10.542,23.5,23.5,23.5h320
		c12.958,0,23.5-10.542,23.5-23.5v-40.411C415,376.901,401.833,356.893,381.454,348.116z M313.26,387.66l13.562,20.343L306.396,448
		h-26.914c0.781-11.57,2.722-25.701,7.27-37.876c0.107-0.286,0.189-0.574,0.26-0.864c0.062-0.123,0.123-0.245,0.186-0.369
		l11.644-23.273c7.012-14.026,15.429-30.869,21.06-42.14c0.991-1.983,1.675-4.047,2.068-6.138l30.04,10.013
		c0.039,0.535,0.13,1.062,0.279,1.573l-6.63,20.304l-27.977,6.994c-2.366,0.591-4.297,2.296-5.177,4.571
		C311.625,383.07,311.907,385.631,313.26,387.66z M156.604,448l-20.426-39.997l13.562-20.343c1.353-2.029,1.635-4.59,0.755-6.865
		c-0.88-2.275-2.811-3.98-5.177-4.571l-27.977-6.994l-6.635-20.319c0.146-0.505,0.235-1.026,0.273-1.554l30.05-10.017
		c0.393,2.09,1.077,4.155,2.068,6.138c5.631,11.271,14.048,28.114,21.06,42.14l11.644,23.273c0.252,0.502,0.498,0.991,0.752,1.462
		c4.543,12.276,6.433,26.535,7.188,37.647H156.604z M192.106,409.488c9.76-9.929,16.603-18.256,21.275-24.629L224,416.717V448
		h-25.228C198.069,436.918,196.305,422.651,192.106,409.488z M238.615,413.128l-16-48c-0.187-0.561-0.44-1.081-0.738-1.564
		c-0.037-0.059-0.075-0.117-0.113-0.176c-0.165-0.252-0.341-0.493-0.533-0.72c-0.014-0.016-0.023-0.034-0.037-0.05l-0.04-0.047
		c-0.012-0.014-0.023-0.028-0.036-0.042L175,308.726v-8.455C191.579,312.164,210.894,319,231.5,319s39.921-6.836,56.5-18.729v8.455
		l-46.194,53.893c-1.883,2.197-2.334,5.282-1.159,7.927c0.283,0.638,6.958,15.289,30.418,39.117
		c-4.1,12.912-5.888,26.903-6.61,38.337H239v-32.5C239,414.694,238.87,413.893,238.615,413.128z M135,183.5
		c0-47.931,38.728-77.924,54.951-86.893c15.732,15.648,37.417,28.415,64.848,38.134c27.752,9.833,54.785,14.032,69.215,15.263
		C326.661,161.138,328,172.381,328,183.5c0,0.175-0.005,0.35-0.005,0.525c-0.164-0.011-0.328-0.025-0.495-0.025h-25.734
		c-3.138-9.29-11.93-16-22.266-16h-16c-8.481,0-15.927,4.517-20.059,11.271c-3.502-2.075-7.583-3.271-11.941-3.271
		s-8.439,1.196-11.941,3.271C215.427,172.517,207.981,168,199.5,168h-16c-10.336,0-19.128,6.71-22.266,16H135.5
		c-0.167,0-0.33,0.014-0.495,0.025C135.005,183.85,135,183.675,135,183.5z M135.796,199H160v0.5c0,4.142,3.358,7.5,7.5,7.5
		s7.5-3.358,7.5-7.5v-8c0-4.687,3.813-8.5,8.5-8.5h0.5v8.5c0,4.142,3.358,7.5,7.5,7.5s7.5-3.358,7.5-7.5V183h0.5
		c4.687,0,8.5,3.813,8.5,8.5v8c0,4.142,3.358,7.5,7.5,7.5s7.5-3.358,7.5-7.5c0-4.687,3.813-8.5,8.5-8.5s8.5,3.813,8.5,8.5
		c0,4.142,3.358,7.5,7.5,7.5s7.5-3.358,7.5-7.5v-8c0-4.687,3.813-8.5,8.5-8.5h0.5v8.5c0,4.142,3.358,7.5,7.5,7.5s7.5-3.358,7.5-7.5
		V183h0.5c4.687,0,8.5,3.813,8.5,8.5v8c0,4.142,3.358,7.5,7.5,7.5s7.5-3.358,7.5-7.5V199h24.204c-6.11,59.15-46.699,105-95.704,105
		S141.906,258.15,135.796,199z M306.483,336.773c-13.609,27.237-23.56,47.144-28.974,57.964
		c-11.652-12.373-17.948-21.473-20.922-26.315l40.282-46.996l6.722,4.481C307.149,328.28,308.393,332.951,306.483,336.773z
		 M331.211,278.76c5.76,13.14,11.695,26.697,12.652,50.067l-25.141-8.38c-1.714-2.722-3.989-5.138-6.81-7.019L303,307.486V287.5
		c0-0.037-0.005-0.072-0.005-0.108c7.931-8.074,14.93-17.457,20.763-27.88C325.845,266.496,328.547,272.682,331.211,278.76z
		 M111,151.5c0-32.908,13.011-67.04,35.697-93.643C170.264,30.22,200.381,15,231.5,15s61.236,15.22,84.803,42.857
		C338.989,84.46,352,118.592,352,151.5c0,16.541-2.905,26.205-9.059,36.217c0.035-1.401,0.059-2.806,0.059-4.217
		c0-14.177-1.965-28.514-5.841-42.615c-0.867-3.153-3.677-5.381-6.944-5.507c-8.953-0.343-39.053-3.667-70.407-14.776
		c-48.981-17.355-69.184-42.35-77.506-60.262c-1.746-3.756-6.205-5.387-9.962-3.642c-3.757,1.746-5.387,6.206-3.642,9.962
		c3.015,6.489,6.742,12.647,11.176,18.473C159.264,97.511,120,130.705,120,183.5c0,1.358,0.021,2.71,0.054,4.058
		C114.024,177.544,111,167.591,111,151.5z M159.409,325.908l6.722-4.481l40.281,46.994c-2.982,4.857-9.275,13.951-20.92,26.317
		c-5.414-10.821-15.364-30.728-28.974-57.964C154.607,332.951,155.851,328.28,159.409,325.908z M63,439.5v-40.411
		c0-16.191,9.609-30.792,24.479-37.197l10.247-4.413l6.644,20.349c0.801,2.453,2.807,4.322,5.311,4.948l21.675,5.419L121.26,403.34
		c-1.506,2.258-1.674,5.154-0.439,7.571L139.761,448H119v-16.5c0-4.142-3.358-7.5-7.5-7.5s-7.5,3.358-7.5,7.5V448H71.5
		C66.813,448,63,444.187,63,439.5z M400,439.5c0,4.687-3.813,8.5-8.5,8.5H359v-16.5c0-4.142-3.358-7.5-7.5-7.5s-7.5,3.358-7.5,7.5
		V448h-20.761l18.94-37.089c1.235-2.417,1.067-5.313-0.439-7.571l-10.097-15.145l21.675-5.419c2.504-0.625,4.51-2.495,5.311-4.948
		l6.644-20.349l10.247,4.413C390.391,368.297,400,382.898,400,399.089V439.5z"/>
	<path d="M195.281,261.481C204.17,267.53,217.372,271,231.5,271s27.33-3.47,36.219-9.519c3.425-2.331,4.312-6.996,1.981-10.42
		c-2.331-3.425-6.996-4.31-10.42-1.981c-6.368,4.333-16.753,6.92-27.781,6.92s-21.413-2.587-27.781-6.92
		c-3.425-2.33-8.089-1.443-10.42,1.981C190.969,254.485,191.856,259.15,195.281,261.481z"/>
</g>
<g>
</g>
<g>
</g>
<g>
</g>
<g>
</g>
<g>
</g>
<g>
</g>
<g>
</g>
<g>
</g>
<g>
</g>
<g>
</g>
<g>
</g>
<g>
</g>
<g>
</g>
<g>
</g>
<g>
</g>
</svg>
