<?xml version="1.0" encoding="iso-8859-1"?>
<!-- Generator: Adobe Illustrator 19.0.0, SVG Export Plug-In . SVG Version: 6.00 Build 0)  -->
<svg version="1.1" id="Capa_1" xmlns="http://www.w3.org/2000/svg" xmlns:xlink="http://www.w3.org/1999/xlink" x="0px" y="0px"
	 viewBox="0 0 463 463" style="enable-background:new 0 0 463 463;" xml:space="preserve">
<g>
	<path d="M439.5,392h-25.647l-30.699-184.2c-7.707-46.239-47.324-79.8-94.201-79.8H174.047c-46.877,0-86.494,33.561-94.201,79.8
		L49.147,392H23.5C10.542,392,0,402.542,0,415.5v16C0,444.458,10.542,455,23.5,455h416c12.958,0,23.5-10.542,23.5-23.5v-16
		C463,402.542,452.458,392,439.5,392z M94.642,210.266C101.139,171.289,134.533,143,174.047,143h114.906
		c39.514,0,72.908,28.29,79.404,67.266L398.646,392H239v-73.598c22.64-3.607,40-23.263,40-46.902c0-26.191-21.309-47.5-47.5-47.5
		S184,245.308,184,271.5c0,23.639,17.36,43.295,40,46.902V392H64.354L94.642,210.266z M231.5,304c-17.921,0-32.5-14.58-32.5-32.5
		s14.579-32.5,32.5-32.5s32.5,14.58,32.5,32.5S249.421,304,231.5,304z M448,431.5c0,4.687-3.813,8.5-8.5,8.5h-416
		c-4.687,0-8.5-3.813-8.5-8.5v-16c0-4.687,3.813-8.5,8.5-8.5h416c4.687,0,8.5,3.813,8.5,8.5V431.5z"/>
	<path d="M7.5,279h40c4.143,0,7.5-3.358,7.5-7.5s-3.357-7.5-7.5-7.5h-40c-4.143,0-7.5,3.358-7.5,7.5S3.357,279,7.5,279z"/>
	<path d="M408.004,271.5c0,4.142,3.357,7.5,7.5,7.5H455.5c4.143,0,7.5-3.358,7.5-7.5s-3.357-7.5-7.5-7.5h-39.996
		C411.361,264,408.004,267.357,408.004,271.5z"/>
	<path d="M231.5,111c4.143,0,7.5-3.358,7.5-7.5V15.5c0-4.142-3.357-7.5-7.5-7.5s-7.5,3.358-7.5,7.5V103.5
		C224,107.642,227.357,111,231.5,111z"/>
	<path d="M90.196,140.803C91.661,142.267,93.581,143,95.5,143s3.839-0.732,5.304-2.197c2.929-2.929,2.929-7.678,0-10.606l-32-32
		c-2.93-2.929-7.678-2.929-10.607,0c-2.929,2.929-2.929,7.678,0,10.606L90.196,140.803z"/>
	<path d="M367.5,143c1.919,0,3.839-0.732,5.304-2.197l32-32c2.929-2.929,2.929-7.678,0-10.606c-2.93-2.929-7.678-2.929-10.607,0
		l-32,32c-2.929,2.929-2.929,7.678,0,10.606C363.661,142.267,365.581,143,367.5,143z"/>
	<path d="M397.424,202.772c1.196,2.888,3.988,4.632,6.932,4.632c0.956,0,1.929-0.184,2.867-0.573l19.314-8
		c3.827-1.585,5.645-5.972,4.059-9.799c-1.585-3.826-5.973-5.645-9.799-4.059l-19.314,8
		C397.655,194.558,395.838,198.945,397.424,202.772z"/>
	<path d="M155.802,108.345c1.196,2.888,3.988,4.632,6.932,4.632c0.956,0,1.929-0.184,2.867-0.573
		c3.827-1.585,5.645-5.972,4.059-9.799l-10.828-26.142c-1.585-3.826-5.972-5.645-9.799-4.059c-3.827,1.585-5.645,5.973-4.059,9.799
		L155.802,108.345z"/>
	<path d="M297.399,112.404c0.938,0.389,1.91,0.573,2.867,0.573c2.943,0,5.735-1.744,6.932-4.632l10.828-26.142
		c1.586-3.827-0.231-8.214-4.059-9.799c-3.823-1.583-8.214,0.232-9.799,4.059l-10.828,26.142
		C291.755,106.432,293.572,110.819,297.399,112.404z"/>
	<path d="M36.398,198.987l18.937,7.844c0.938,0.389,1.91,0.573,2.867,0.573c2.943,0,5.735-1.744,6.932-4.632
		c1.586-3.827-0.231-8.214-4.059-9.799l-18.937-7.844c-3.824-1.584-8.214,0.232-9.799,4.059
		C30.754,193.015,32.571,197.402,36.398,198.987z"/>
</g>
<g>
</g>
<g>
</g>
<g>
</g>
<g>
</g>
<g>
</g>
<g>
</g>
<g>
</g>
<g>
</g>
<g>
</g>
<g>
</g>
<g>
</g>
<g>
</g>
<g>
</g>
<g>
</g>
<g>
</g>
</svg>
