<?xml version="1.0" encoding="iso-8859-1"?>
<!-- Generator: Adobe Illustrator 19.0.0, SVG Export Plug-In . SVG Version: 6.00 Build 0)  -->
<svg version="1.1" id="Capa_1" xmlns="http://www.w3.org/2000/svg" xmlns:xlink="http://www.w3.org/1999/xlink" x="0px" y="0px"
	 viewBox="0 0 463 463" style="enable-background:new 0 0 463 463;" xml:space="preserve">
<g>
	<path d="M407,193.234V23.5C407,10.542,396.458,0,383.5,0h-304C66.542,0,56,10.542,56,23.5v169.734c-9.29,3.138-16,11.93-16,22.266
		v224c0,12.958,10.542,23.5,23.5,23.5h336c12.958,0,23.5-10.542,23.5-23.5v-224C423,205.164,416.29,196.372,407,193.234z
		 M360.326,192l-95.303-72.612l126.936-96.713C391.984,22.947,392,23.221,392,23.5V192H360.326z M71,23.5
		c0-0.278,0.015-0.553,0.042-0.825l126.929,96.708L102.66,192H71V23.5z M246.349,114.758c-8.743,6.661-20.954,6.661-29.697,0
		L85.718,15h291.563L246.349,114.758z M210.482,128.708c6.402,4.021,13.71,6.036,21.018,6.036c7.306,0,14.611-2.013,21.011-6.031
		L335.576,192H127.411L210.482,128.708z M408,439.5c0,4.687-3.813,8.5-8.5,8.5h-336c-4.687,0-8.5-3.813-8.5-8.5v-224
		c0-4.687,3.813-8.5,8.5-8.5h336c4.687,0,8.5,3.813,8.5,8.5V439.5z"/>
	<path d="M103.5,232C90.542,232,80,242.542,80,255.5S90.542,279,103.5,279s23.5-10.542,23.5-23.5S116.458,232,103.5,232z M103.5,264
		c-4.687,0-8.5-3.813-8.5-8.5s3.813-8.5,8.5-8.5s8.5,3.813,8.5,8.5S108.187,264,103.5,264z"/>
	<path d="M375.5,408h-64c-4.143,0-7.5,3.358-7.5,7.5s3.357,7.5,7.5,7.5h64c4.143,0,7.5-3.358,7.5-7.5S379.643,408,375.5,408z"/>
	<path d="M375.5,376h-136c-4.143,0-7.5,3.358-7.5,7.5s3.357,7.5,7.5,7.5h136c4.143,0,7.5-3.358,7.5-7.5S379.643,376,375.5,376z"/>
	<path d="M375.5,344h-136c-4.143,0-7.5,3.358-7.5,7.5s3.357,7.5,7.5,7.5h136c4.143,0,7.5-3.358,7.5-7.5S379.643,344,375.5,344z"/>
</g>
<g>
</g>
<g>
</g>
<g>
</g>
<g>
</g>
<g>
</g>
<g>
</g>
<g>
</g>
<g>
</g>
<g>
</g>
<g>
</g>
<g>
</g>
<g>
</g>
<g>
</g>
<g>
</g>
<g>
</g>
</svg>
