<svg height="460pt" viewBox="0 -12 460.00792 460" width="460pt" xmlns="http://www.w3.org/2000/svg"><path d="m7.5625 83.191406h61.824219l2.042969 260.3125c.15625 27.484375 22.480468 49.683594 49.964843 49.6875h46.613281v35.269532c-.117187 2.859374 1.359376 5.546874 3.835938 6.980468s5.542969 1.375 7.964844-.152344l32.261718-19.707031 32.292969 19.707031c1.25.765626 2.6875 1.171876 4.152344 1.171876 1.289063-.003907 2.558594-.355469 3.664063-1.023438 2.457031-1.449219 3.929687-4.125 3.828124-6.976562v-35.269532h152.457032c13.746094-.0625 26.902344-5.589844 36.570312-15.363281 9.671875-9.773437 15.054688-22.988281 14.972656-36.734375v-13.453125c0-4.417969-3.140624-8.449219-7.558593-8.449219h-80.441407v-252.125c.027344-17.746094-7.007812-34.773437-19.558593-47.324218-12.550781-12.546876-29.582031-19.582032-47.328125-19.550782h-.199219c-1.363281 0-2.910156-.2109372-3.910156-.128906v.128906h-237.003907v-.18749975c-35.875 1.54296875-64.128906 31.14062475-63.9999995 67.05078175v8.4375c-.0898437 2.042968.6718755 4.03125 2.1054685 5.492187 1.433594 1.460937 3.40625 2.257813 5.449219 2.207031zm232.445312 331.019532-24.082031-14.832032c-2.421875-1.558594-5.535156-1.558594-7.960937 0l-23.957032 14.832032v-58.953126l10.09375-.570312 13.625 9.066406c1.285157.859375 2.796876 1.320313 4.339844 1.320313 1.558594 0 3.078125-.460938 4.375-1.320313l13.488282-9.066406 10.078124.570312zm12.042969-90.75c-1.527343.769531-2.765625 2.007812-3.535156 3.535156l-6.230469 12.335937-13.886718-.765625c-1.710938-.097656-3.410157.363282-4.84375 1.308594l-11.546876 7.617188-11.550781-7.613282c-1.304687-.859375-2.835937-1.320312-4.398437-1.320312-.148438 0-.292969 0-.441406.011718l-13.882813.761719-6.238281-12.339843c-.769532-1.523438-2.007813-2.761719-3.53125-3.53125l-12.335938-6.234376.761719-13.882812c.097656-1.714844-.363281-3.414062-1.308594-4.84375l-7.613281-11.550781 7.613281-11.546875c.945313-1.433594 1.40625-3.132813 1.308594-4.84375l-.761719-13.886719 12.335938-6.230469c1.523437-.769531 2.761718-2.007812 3.53125-3.535156l6.234375-12.335938 13.882812.765626c1.714844.09375 3.414063-.367188 4.84375-1.308594l11.550781-7.613282 11.546876 7.613282c1.433593.945312 3.132812 1.40625 4.84375 1.3125l13.886718-.765625 6.230469 12.335937c.769531 1.523438 2.007813 2.761719 3.535156 3.53125l12.335938 6.234375-.765625 13.882813c-.09375 1.714844.363281 3.414062 1.308594 4.84375l7.617187 11.550781-7.617187 11.546875c-.945313 1.433594-1.402344 3.132812-1.308594 4.84375l.765625 13.886719zm119.957031 11.730468h72v5.871094c.097657 9.554688-3.632812 18.75-10.363281 25.53125-6.632812 6.765625-15.707031 10.585938-25.183593 10.597656h-.207032c-19.980468-.101562-36.152344-16.277344-36.246094-36.257812zm-67.082031-319h.1875c13.507813-.035156 26.472657 5.3125 36.027344 14.863282 9.550781 9.550781 14.902344 22.515624 14.867187 36.023437v273.839844c0 13.558593 5.441407 26.273437 14.808594 36.273437h-114.808594v-30.507812l5.359376-10.125 14.777343-7.402344c2.851563-1.425781 4.59375-4.394531 4.445313-7.578125l-.878906-16.472656 9.078124-13.746094c1.765626-2.667969 1.769532-6.132813.011719-8.808594l-9.0625-13.746093.910157-16.46875c.171874-3.171876-1.546876-6.148438-4.382813-7.578126l-14.65625-7.402343-7.402344-14.664063c-1.429687-2.835937-4.40625-4.558594-7.582031-4.378906l-16.46875.90625-13.75-9.066406c-2.671875-1.761719-6.136719-1.761719-8.808594 0l-13.746094 9.0625-16.46875-.90625c-3.171874-.171875-6.148437 1.546875-7.574218 4.382812l-7.402344 14.660156-14.65625 7.398438c-2.835938 1.433594-4.554688 4.40625-4.378906 7.578125l.90625 16.472656-9.070313 13.746094c-1.761719 2.671875-1.761719 6.136719 0 8.808594l9.0625 13.746093-.90625 16.472657c-.171875 3.171875 1.546875 6.144531 4.382813 7.578125l14.898437 7.402344 5.363281 10.128906v30.507812h-46.613281c-18.675781 0-33.847656-15.074218-33.964843-33.75l-2.039063-260.25h160.386719c2.113281.078125 4.167968-.691406 5.714844-2.136718 1.542968-1.445313 2.449218-3.449219 2.515624-5.5625v-8.300782c-.058593-13.527344 5.285157-26.519531 14.84375-36.09375 9.5625-9.574218 22.546876-14.941406 36.074219-14.90625zm-288.917969 50.894532c-.066406-13.496094 5.257813-26.460938 14.789063-36.015626 9.53125-9.554687 22.484375-14.910156 35.980469-14.878906h194.699218c-1.414062 1.09375-2.734374 2.296875-3.953124 3.601563-12.585938 12.554687-19.617188 29.628906-19.515626 47.40625v-.007813h-222zm0 0"/><path d="m212.007812 243.394531c-24.058593 0-43.558593 19.5-43.558593 43.554688 0 24.058593 19.503906 43.558593 43.558593 43.558593 24.054688 0 43.558594-19.503906 43.554688-43.558593-.027344-24.042969-19.511719-43.527344-43.554688-43.554688zm0 71.113281c-15.21875 0-27.558593-12.339843-27.558593-27.558593s12.339843-27.558594 27.558593-27.558594 27.554688 12.339844 27.554688 27.558594c-.015625 15.214843-12.34375 27.542969-27.554688 27.558593zm0 0"/><path d="m124.007812 128.191406h96c4.417969 0 8-3.582031 8-8 0-4.417968-3.582031-8-8-8h-96c-4.417968 0-8 3.582032-8 8 0 4.417969 3.582032 8 8 8zm0 0"/><path d="m116.007812 150.191406c0 4.417969 3.582032 8 8 8h186c4.417969 0 8-3.582031 8-8 0-4.417968-3.582031-8-8-8h-186c-4.417968 0-8 3.582032-8 8zm0 0"/><path d="m310.007812 172.191406h-186c-4.417968 0-8 3.582032-8 8 0 4.417969 3.582032 8 8 8h186c4.417969 0 8-3.582031 8-8 0-4.417968-3.582031-8-8-8zm0 0"/></svg>