<svg height="496pt" viewBox="0 0 496 496" width="496pt" xmlns="http://www.w3.org/2000/svg"><path d="m56 416h176c4.425781 0 8-3.574219 8-8v-88c0-4.425781-3.574219-8-8-8h-176c-4.425781 0-8 3.574219-8 8v88c0 4.425781 3.574219 8 8 8zm8-88h160v72h-160zm0 0"/><path d="m264 416h176c4.425781 0 8-3.574219 8-8v-88c0-4.425781-3.574219-8-8-8h-176c-4.425781 0-8 3.574219-8 8v88c0 4.425781 3.574219 8 8 8zm8-88h160v72h-160zm0 0"/><path d="m443.449219 116.953125c7.6875-7.296875 12.550781-17.539063 12.550781-28.953125v-64c0-4.414062-3.574219-8-8-8h-48c-13.230469 0-24 10.769531-24 24v48c0 11.414062 4.863281 21.65625 12.558594 28.953125-30.613282 11.230469-52.558594 40.589844-52.558594 75.046875v40h-8v-40c0-10.015625-1.929688-19.558594-5.304688-28.398438l3.417969-1.707031c15.964844-7.992187 25.886719-24.046875 25.886719-41.894531 0-4.414062-3.574219-8-8-8-13.230469 0-24-10.769531-24-24v-16c0-39.695312-32.296875-72-72-72s-72 32.304688-72 72v16c0 13.230469-10.769531 24-24 24-4.425781 0-8 3.585938-8 8 0 17.847656 9.921875 33.902344 25.886719 41.886719l3.417969 1.707031c-3.375 8.847656-5.304688 18.390625-5.304688 28.40625v40h-8v-40c0-34.464844-21.945312-63.816406-52.550781-75.046875 7.6875-7.296875 12.550781-17.539063 12.550781-28.953125v-64c0-4.414062-3.574219-8-8-8h-48c-13.230469 0-24 10.769531-24 24v48c0 11.414062 4.863281 21.65625 12.558594 28.953125-30.613282 11.230469-52.558594 40.589844-52.558594 75.046875v96c0 4.425781 3.574219 8 8 8h8v136h-8c-4.425781 0-8 3.574219-8 8v48c0 4.425781 3.574219 8 8 8h480c4.425781 0 8-3.574219 8-8v-48c0-4.425781-3.574219-8-8-8h-8v-136h8c4.425781 0 8-3.574219 8-8v-96c0-34.464844-21.945312-63.816406-52.550781-75.046875zm36.550781 75.046875v40h-41.425781l38.1875-60c2.070312 6.304688 3.238281 13.015625 3.238281 20zm-80-160h40v16h-48v-8c0-4.40625 3.585938-8 8-8zm-8 56v-24h48v24c0 13.230469-10.769531 24-24 24s-24-10.769531-24-24zm50.832031 45.976562-26.832031 42.925782-26.832031-42.925782c8.167969-3.792968 17.238281-5.976562 26.832031-5.976562s18.664062 2.183594 26.832031 5.976562zm-90.832031 58.023438c0-19.976562 9.207031-37.824219 23.585938-49.566406l33.628906 53.804687c1.464844 2.335938 4.023437 3.761719 6.785156 3.761719s5.320312-1.425781 6.785156-3.761719l33.628906-53.804687c4.5625 3.726562 8.585938 8.085937 11.976563 12.917968l-48.78125 76.648438h-67.609375zm-40 0v40h-41.425781l38.1875-60c2.070312 6.304688 3.238281 13.015625 3.238281 20zm-134.953125-44.425781c-8.367187-4.175781-14.207031-11.726563-16.246094-20.550781 17.832031-4.015626 31.199219-19.992188 31.199219-39.023438v-16c0-30.878906 25.128906-56 56-56s56 25.121094 56 56v16c0 19.03125 13.367188 35.007812 31.199219 39.023438-2.039063 8.832031-7.878907 16.375-16.246094 20.550781l-3.425781 1.714843c-9.375-14.769531-23.421875-26.226562-40.078125-32.335937 7.6875-7.296875 12.550781-17.539063 12.550781-28.953125v-32c0-4.414062-3.574219-8-8-8h-8c-8.824219 0-16-7.175781-16-16 0-4.414062-3.574219-8-8-8s-8 3.585938-8 8c0 8.824219-7.175781 16-16 16h-8c-4.425781 0-8 3.585938-8 8v32c0 11.414062 4.863281 21.65625 12.558594 28.953125-16.65625 6.109375-30.710938 17.566406-40.078125 32.335937zm46.953125-59.574219v-24c9.542969 0 18.136719-4.199219 24-10.855469 5.863281 6.65625 14.457031 10.855469 24 10.855469v24c0 13.230469-10.769531 24-24 24s-24-10.769531-24-24zm50.832031 45.976562-26.832031 42.925782-26.832031-42.925782c8.167969-3.792968 17.238281-5.976562 26.832031-5.976562s18.664062 2.183594 26.832031 5.976562zm-90.832031 58.023438c0-19.976562 9.207031-37.824219 23.585938-49.566406l33.628906 53.804687c1.464844 2.335938 4.023437 3.761719 6.785156 3.761719s5.320312-1.425781 6.785156-3.761719l33.628906-53.804687c4.5625 3.726562 8.585938 8.085937 11.976563 12.917968l-48.78125 76.648438h-67.609375zm-40 0v40h-41.425781l38.1875-60c2.070312 6.304688 3.238281 13.015625 3.238281 20zm-80-160h40v16h-48v-8c0-4.40625 3.585938-8 8-8zm-8 56v-24h48v24c0 13.230469-10.769531 24-24 24s-24-10.769531-24-24zm50.832031 45.976562-26.832031 42.925782-26.832031-42.925782c8.167969-3.792968 17.238281-5.976562 26.832031-5.976562s18.664062 2.183594 26.832031 5.976562zm-90.832031 58.023438c0-19.976562 9.207031-37.824219 23.585938-49.566406l33.628906 53.804687c1.464844 2.335938 4.023437 3.761719 6.785156 3.761719s5.320312-1.425781 6.785156-3.761719l33.628906-53.804687c4.5625 3.726562 8.585938 8.085937 11.976563 12.917968l-48.78125 76.648438h-67.609375zm464 288h-464v-32h464zm-16-48h-432v-136h432zm16-152h-464v-32h464zm0 0"/></svg>