<svg height="466pt" viewBox="-57 0 466 466.00697" width="466pt" xmlns="http://www.w3.org/2000/svg"><path d="m148.828125 205.484375c-4.421875 0-8 3.582031-8 8 .03125 3.140625-1.625 6.054687-4.339844 7.636719-2.710937 1.578125-6.066406 1.578125-8.78125 0-2.714843-1.582032-4.371093-4.496094-4.335937-7.636719 0-4.417969-3.582032-8-8-8-4.417969 0-8 3.582031-8 8-.054688 8.871094 4.644531 17.09375 12.320312 21.546875 7.671875 4.449219 17.144532 4.449219 24.816406 0 7.675782-4.453125 12.375-12.675781 12.320313-21.546875 0-4.417969-3.582031-8-8-8zm0 0"/><path d="m215.738281 238.210938c13.648438-.015626 24.710938-11.078126 24.726563-24.726563 0-4.417969-3.582032-8-8-8-4.417969 0-8 3.582031-8 8 0 4.820313-3.90625 8.726563-8.726563 8.726563-4.820312 0-8.730469-3.90625-8.730469-8.726563 0-4.417969-3.582031-8-8-8-4.417968 0-8 3.582031-8 8 .015626 13.648437 11.078126 24.710937 24.730469 24.726563zm0 0"/><path d="m8.394531 466.007812h335.226563c4.417968 0 8.386718-3.117187 8.386718-7.539062v-59.183594c0-41.324218-34.007812-75.277344-75.332031-75.277344h-40.667969v-22.683593c4.652344-3.222657 8.933594-6.945313 12.773438-11.097657 16.515625-16.816406 27.101562-38.554687 30.167969-61.921874 10.492187-2.75 18.519531-11.21875 20.707031-21.84375 2.183594-10.628907-1.851562-21.578126-10.410156-28.246094 24.238281 3.832031 47.90625-9.582032 57.070312-32.347656 9.160156-22.761719 1.382813-48.832032-18.746094-62.859376-20.144531-14.035156-47.960937-11.324218-66.0625 4.816407-26.148437-38.464844-74.335937-55.363281-118.78125-41.664063-44.449218 13.703125-74.757812 54.796875-74.71875 101.308594v25.738281c-12.371093 3.4375-20.953124 14.671875-21.023437 27.511719 0 12.925781 9.40625 24.167969 21.835937 27.519531 2.9375 23.367188 13.429688 45.136719 29.878907 61.992188 5.109375 5.246093 11.308593 9.894531 16.308593 13.914062v19.863281h-39.664062c-41.328125 0-75.3359375 33.953126-75.3359375 75.277344v59.183594c0 4.421875 3.9687495 7.539062 8.3867185 7.539062zm59.613281-255.738281c-3.035156-2.253906-4.867187-5.777343-4.972656-9.554687.011719-3.917969 1.851563-7.609375 4.972656-9.976563zm208.667969 129.738281c32.5 0 59.332031 26.777344 59.332031 59.277344v50.722656h-153v-79.769531l47.636719-30.230469zm-102.328125 16.300782-43.339844-28.300782v-14.851562c14 6 27.691407 9.152344 42.542969 9.152344 16.140625.050781 32.0625-3.730469 46.457031-11.03125v16.617187zm105.660156-146.121094v-18.949219c2.765626 2.375 4.355469 5.832031 4.355469 9.476563 0 3.640625-1.589843 7.101562-4.355469 9.472656zm50.394532-100.109375c5.046875 10.332031 4.960937 22.433594-.238282 32.691406-5.199218 10.257813-14.90625 17.484375-26.222656 19.527344-8.1875 1.507813-16.644531.128906-23.933594-3.902344v-10.789062zm-11.980469-13.941406c.664063.464843 1.300781.949219 1.925781 1.449219l-42.050781 31.289062c-1.644531-9.257812-4.527344-18.257812-8.566406-26.75 12.523437-13.480469 33.695312-16.441406 48.691406-5.988281zm-144.5-38.679688c9.863281-.007812 19.664063 1.613281 29 4.800781-18.4375 27.199219-43.230469 43.277344-73.8125 47.824219-12.246094 1.773438-24.695313 1.660157-36.90625-.339843 14.734375-31.851563 46.621094-52.253907 81.714844-52.285157zm-89.914063 90.011719c-.019531-7.566406.914063-15.101562 2.78125-22.433594 8.246094 1.546875 16.617188 2.316406 25.007813 2.308594 6.347656.003906 12.683594-.441406 18.96875-1.335938 25.363281-3.625 60.511719-16.601562 87.007813-57.148437 28.511718 15.894531 46.199218 45.964844 46.234374 78.609375v3.824219c-12.164062-9.628907-21.164062-22.683594-25.832031-37.480469-.800781-3.160156-3.433593-5.527344-6.664062-5.980469s-6.414063 1.09375-8.050781 3.914063c-17.613282 30.425781-47.132813 47.542968-87.832032 50.886718-17.265625 1.269532-34.625.242188-51.621094-3.054687zm26.402344 131.59375c-16.9375-17.265625-26.417968-40.492188-26.402344-64.679688v-38.5c12.285157 2.230469 24.742188 3.34375 37.226563 3.328126 4.867187 0 9.941406-.175782 15.183594-.59375 39.800781-3.160157 71.378906-18.925782 92.214843-45.855469 7.816407 15.800781 20.125 28.945312 35.375 37.789062v43.832031c-.007812 24.195313-9.515624 47.421876-26.476562 64.679688-17.109375 17.570312-39.707031 27.246094-63.59375 27.246094s-46.421875-9.675782-63.527344-27.246094zm-94.402344 120.222656c0-32.5 26.832032-59.277344 59.335938-59.277344h45.671875l45.992187 30.117188v79.882812h-151zm0 0"/><path d="m8.007812 73.269531c4.417969 0 8-3.582031 8-8v-49.261719h49.308594c4.417969 0 8-3.582031 8-8 0-4.417968-3.582031-7.9999995-8-7.9999995h-57.726562c-2.027344-.0898437-4.003906.6757815-5.441406 2.1054685-1.441407 1.433594-2.2148442 3.402344-2.1406255 5.429688v57.726562c0 4.417969 3.5820315 8 7.9999995 8zm0 0"/><path d="m286.710938 16.007812h49.296874v49.261719c0 4.417969 3.582032 8 8 8 4.417969 0 8-3.582031 8-8v-57.726562c.078126-2.027344-.695312-3.996094-2.136718-5.429688-1.441406-1.429687-3.414063-2.1953122-5.441406-2.1054685h-57.71875c-4.417969 0-8 3.5820315-8 7.9999995 0 4.417969 3.582031 8 8 8zm0 0"/><path d="m344.007812 246.605469c-4.417968 0-8 3.582031-8 8v49.402343h-49.296874c-4.417969 0-8 3.582032-8 8 0 4.417969 3.582031 8 8 8h57.71875c2.042968.054688 4.019531-.738281 5.457031-2.195312 1.4375-1.453125 2.207031-3.441406 2.121093-5.484375v-57.722656c0-4.417969-3.582031-8-8-8zm0 0"/><path d="m7.589844 320.007812h57.726562c4.417969 0 8-3.582031 8-8 0-4.417968-3.582031-8-8-8h-49.308594v-49.402343c0-4.417969-3.582031-8-8-8-4.417968 0-7.9999995 3.582031-7.9999995 8v57.726562c-.0820313 2.042969.6874995 4.027344 2.1249995 5.484375 1.4375 1.453125 3.414063 2.246094 5.457032 2.191406zm0 0"/></svg>