<svg height="496pt" viewBox="0 0 496.00672 496" width="496pt" xmlns="http://www.w3.org/2000/svg"><path d="m488.003906 448.003906h-72v-192h8c4.421875 0 8-3.578125 8-8v-32c0-4.425781-3.578125-8-8-8h-8v-64h72c3.03125 0 5.800782-1.710937 7.160156-4.425781 1.351563-2.710937 1.0625-5.949219-.761718-8.375l-20.398438-27.199219 20.398438-27.199218c1.824218-2.425782 2.113281-5.664063.761718-8.378907-1.359374-2.710937-4.128906-4.421875-7.160156-4.421875h-72v-16h-16v160h-16v-200c0-4.425781-3.578125-7.99999975-8-7.99999975h-256c-4.425781 0-8 3.57421875-8 7.99999975v200h-16v-160h-16v16h-72c-3.03125 0-5.800781 1.710938-7.160156 4.421875-1.34375 2.714844-1.054688 5.953125.757812 8.378907l20.402344 27.199218-20.402344 27.199219c-1.820312 2.425781-2.109374 5.664063-.757812 8.375 1.359375 2.714844 4.128906 4.425781 7.160156 4.425781h72v64h-8c-4.425781 0-8 3.574219-8 8v32c0 4.421875 3.574219 8 8 8h8v192h-72c-4.425781 0-7.99999975 3.574219-7.99999975 8v32c0 4.421875 3.57421875 8 7.99999975 8h480c4.421875 0 8-3.578125 8-8v-32c0-4.425781-3.578125-8-8-8zm-16-368-14.402344 19.199219c-2.132812 2.839844-2.132812 6.753906 0 9.59375l14.402344 19.207031h-56v-48zm-448 48 14.398438-19.199218c2.136718-2.839844 2.136718-6.753907 0-9.59375l-14.398438-19.207032h56v48zm104-112h240v192h-240zm-48 208h336v16h-336zm16 32h304v192h-96v-152c0-4.425781-3.578125-8-8-8h-96c-4.425781 0-8 3.574219-8 8v152h-96zm192 192h-80v-144h80zm192 32h-464v-16h464zm0 0"/><path d="m168.003906 368.003906h-48c-4.425781 0-8 3.574219-8 8v48c0 4.421875 3.574219 8 8 8h48c4.421875 0 8-3.578125 8-8v-48c0-4.425781-3.578125-8-8-8zm-8 48h-32v-32h32zm0 0"/><path d="m328.003906 432.003906h48c4.421875 0 8-3.578125 8-8v-48c0-4.425781-3.578125-8-8-8h-48c-4.425781 0-8 3.574219-8 8v48c0 4.421875 3.574219 8 8 8zm8-48h32v32h-32zm0 0"/><path d="m168.003906 288.003906h-48c-4.425781 0-8 3.574219-8 8v48c0 4.421875 3.574219 8 8 8h48c4.421875 0 8-3.578125 8-8v-48c0-4.425781-3.578125-8-8-8zm-8 48h-32v-32h32zm0 0"/><path d="m328.003906 352.003906h48c4.421875 0 8-3.578125 8-8v-48c0-4.425781-3.578125-8-8-8h-48c-4.425781 0-8 3.574219-8 8v48c0 4.421875 3.574219 8 8 8zm8-48h32v32h-32zm0 0"/><path d="m329.140625 88.082031-51.847656-7.40625-22.128907-44.25c-2.71875-5.421875-11.59375-5.421875-14.3125 0l-22.128906 44.25-51.847656 7.40625c-3.160156.457031-5.742188 2.738281-6.582031 5.816407-.832031 3.082031.222656 6.367187 2.71875 8.359374l36.441406 29.144532-7.363281 51.480468c-.46875 3.28125 1.136718 6.503907 4.027344 8.121094 2.878906 1.609375 6.46875 1.28125 9.023437-.832031l42.863281-35.753906 42.871094 35.738281c1.480469 1.222656 3.296875 1.847656 5.128906 1.847656 1.335938 0 2.679688-.335937 3.894532-1.015625 2.890624-1.609375 4.496093-4.832031 4.023437-8.121093l-7.359375-51.480469 36.441406-29.144531c2.496094-1.992188 3.550782-5.277344 2.71875-8.359376-.847656-3.0625-3.429687-5.351562-6.582031-5.800781zm-46.136719 33.671875c-2.207031 1.777344-3.320312 4.578125-2.921875 7.386719l5.066407 35.398437-32.015626-26.679687c-1.488281-1.238281-3.304687-1.855469-5.128906-1.855469-1.824218 0-3.640625.617188-5.128906 1.847656l-32.015625 26.679688 5.0625-35.398438c.402344-2.808593-.710937-5.609374-2.917969-7.386718l-25.558594-20.445313 37.695313-5.386719c2.589844-.375 4.847656-2 6.023437-4.34375l16.839844-33.679687 16.839844 33.6875c1.167969 2.34375 3.429688 3.96875 6.023438 4.34375l37.695312 5.386719zm0 0"/></svg>