<?xml version="1.0" encoding="iso-8859-1"?>
<!-- Generator: Adobe Illustrator 19.0.0, SVG Export Plug-In . SVG Version: 6.00 Build 0)  -->
<svg version="1.1" id="Capa_1" xmlns="http://www.w3.org/2000/svg" xmlns:xlink="http://www.w3.org/1999/xlink" x="0px" y="0px"
	 viewBox="0 0 463 463" style="enable-background:new 0 0 463 463;" xml:space="preserve">
<g>
	<path d="M394.392,94.706C350.794,62.008,292.945,44,231.5,44S112.206,62.008,68.608,94.706C24.365,127.888,0,172.207,0,219.5
		c0,49.995,27.896,97.287,76.774,130.568c-11.869,29.727-27.619,57.418-27.787,57.712c-1.537,2.691-1.26,6.052,0.697,8.455
		c1.45,1.781,3.601,2.765,5.816,2.765c0.775,0,1.558-0.12,2.321-0.368c1.963-0.64,47.21-15.501,82.431-37.813
		C169.188,390.23,199.865,395,231.5,395c61.444,0,119.294-18.008,162.892-50.706C438.635,311.111,463,266.792,463,219.5
		C463,172.207,438.635,127.888,394.392,94.706z M231.5,380c-31.253,0-61.493-4.89-89.88-14.533c-2.188-0.742-4.6-0.437-6.533,0.835
		c-20.764,13.653-46.652,24.808-63.702,31.436c6.341-12.375,14.763-29.904,21.587-47.934c1.254-3.313,0.019-7.052-2.963-8.966
		C42.34,310.236,15,266.011,15,219.5C15,131,112.121,59,231.5,59S448,131,448,219.5S350.879,380,231.5,380z"/>
	<path d="M231.5,292c-12.958,0-23.5,10.542-23.5,23.5s10.542,23.5,23.5,23.5s23.5-10.542,23.5-23.5S244.458,292,231.5,292z
		 M231.5,324c-4.687,0-8.5-3.813-8.5-8.5s3.813-8.5,8.5-8.5s8.5,3.813,8.5,8.5S236.187,324,231.5,324z"/>
	<path d="M231.468,275h0.064c8.979,0,16.342-7.026,16.762-15.996l6.307-134.78c0.196-4.211-1.36-8.376-4.271-11.425
		c-2.911-3.05-6.998-4.799-11.213-4.799h-15.234c-4.215,0-8.302,1.749-11.213,4.799c-2.91,3.049-4.467,7.214-4.271,11.426
		l6.307,134.779C215.126,267.974,222.488,275,231.468,275z M223.521,123.154c0.147-0.154,0.303-0.154,0.361-0.154h15.234
		c0.059,0,0.214,0,0.361,0.154c0.148,0.155,0.141,0.312,0.138,0.369l-6.307,134.779c-0.044,0.952-0.825,1.697-1.777,1.697h-0.064
		c-0.952,0-1.733-0.745-1.777-1.697l-6.307-134.778C223.381,123.466,223.373,123.31,223.521,123.154z"/>
</g>
<g>
</g>
<g>
</g>
<g>
</g>
<g>
</g>
<g>
</g>
<g>
</g>
<g>
</g>
<g>
</g>
<g>
</g>
<g>
</g>
<g>
</g>
<g>
</g>
<g>
</g>
<g>
</g>
<g>
</g>
</svg>
