<?xml version="1.0" encoding="iso-8859-1"?>
<!-- Generator: Adobe Illustrator 19.0.0, SVG Export Plug-In . SVG Version: 6.00 Build 0)  -->
<svg version="1.1" id="Capa_1" xmlns="http://www.w3.org/2000/svg" xmlns:xlink="http://www.w3.org/1999/xlink" x="0px" y="0px"
	 viewBox="0 0 463 463" style="enable-background:new 0 0 463 463;" xml:space="preserve">
<path d="M299.5,320H203v-8.5c0-4.687,3.813-8.5,8.5-8.5c4.142,0,7.5-3.357,7.5-7.5s-3.358-7.5-7.5-7.5H203V23.5
	C203,10.542,192.458,0,179.5,0S156,10.542,156,23.5V288h-8.5c-4.142,0-7.5,3.357-7.5,7.5s3.358,7.5,7.5,7.5
	c4.687,0,8.5,3.813,8.5,8.5v128c0,4.687-3.813,8.5-8.5,8.5c-4.142,0-7.5,3.357-7.5,7.5s3.358,7.5,7.5,7.5h64
	c4.142,0,7.5-3.357,7.5-7.5s-3.358-7.5-7.5-7.5c-4.687,0-8.5-3.813-8.5-8.5V367h96.5c12.958,0,23.5-10.542,23.5-23.5
	S312.458,320,299.5,320z M171,23.5c0-4.687,3.813-8.5,8.5-8.5s8.5,3.813,8.5,8.5V288h-17V23.5z M169.41,448
	c1.027-2.637,1.59-5.504,1.59-8.5v-128c0-2.996-0.563-5.863-1.59-8.5h20.181c-1.027,2.637-1.59,5.504-1.59,8.5v128
	c0,2.996,0.563,5.863,1.59,8.5H169.41z M299.5,352H203v-17h96.5c4.687,0,8.5,3.813,8.5,8.5S304.187,352,299.5,352z"/>
<g>
</g>
<g>
</g>
<g>
</g>
<g>
</g>
<g>
</g>
<g>
</g>
<g>
</g>
<g>
</g>
<g>
</g>
<g>
</g>
<g>
</g>
<g>
</g>
<g>
</g>
<g>
</g>
<g>
</g>
</svg>
