<svg height="468pt" viewBox="-18 0 468 468.64644" width="468pt" xmlns="http://www.w3.org/2000/svg"><path d="m229.136719 164.015625c-4.417969 0-8 3.582031-8 8 .035156 3.140625-1.621094 6.054687-4.335938 7.636719-2.714843 1.578125-6.066406 1.578125-8.78125 0-2.714843-1.582032-4.371093-4.496094-4.335937-7.636719 0-4.417969-3.582032-8-8-8-4.421875 0-8 3.582031-8 8-.058594 8.871094 4.640625 17.09375 12.316406 21.546875 7.671875 4.449219 17.144531 4.449219 24.820312 0 7.671876-4.453125 12.371094-12.675781 12.316407-21.546875 0-4.417969-3.582031-8-8-8zm0 0"/><path d="m296.046875 196.742188c13.652344-.015626 24.714844-11.078126 24.726563-24.730469 0-4.417969-3.582032-8-8-8-4.417969 0-8 3.582031-8 8 .035156 3.140625-1.621094 6.058593-4.335938 7.636719-2.714844 1.582031-6.066406 1.582031-8.78125 0-2.714844-1.578126-4.371094-4.496094-4.335938-7.636719 0-4.417969-3.582031-8-8-8-4.417968 0-8 3.582031-8 8 .015626 13.652343 11.078126 24.714843 24.726563 24.730469zm0 0"/><path d="m45.554688 406.222656c2.875 2.890625 6.789062 4.511719 10.867187 4.5 4.144531.015625 8.121094-1.601562 11.082031-4.5l13.621094-13.414062v24.195312c0 4.417969 3.164062 8.238282 7.582031 8.238282h73.476563l34.675781 34.554687c10.398437 10.441406 26.828125 11.808594 38.8125 3.230469 11.980469-8.582032 15.980469-24.578125 9.445313-37.785156h178.816406c4.5-.097657 8.121094-3.738282 8.191406-8.238282v-59.183594c0-41.328124-33.8125-74.578124-75.140625-74.578124h-39.859375v-23.386719c4.3125-3.480469 8.441406-7.1875 12.371094-11.097657 16.453125-16.832031 26.972656-38.570312 29.960937-61.917968 10.480469-2.78125 18.472657-11.265625 20.625-21.890625 2.152344-10.628907-1.90625-21.554688-10.472656-28.195313 24.226563 3.804688 47.871094-9.617187 57.019531-32.371094 9.148438-22.753906 1.375-48.808593-18.746094-62.832031-11.652343-8.058593-26.097656-10.996093-39.972656-8.132812-9.710937 1.867187-18.730468 6.332031-26.101562 12.925781-26.191406-38.453125-74.390625-55.339844-118.855469-41.644531-44.464844 13.695312-74.808594 54.777343-74.828125 101.300781v25.734375c-12.347656 3.449219-20.898438 14.6875-20.925781 27.507813 0 12.925781 9.453125 24.167968 21.878906 27.519531 3.101563 23.40625 13.742187 45.167969 30.308594 61.992187 5.082031 5.210938 10.691406 9.875 16.738281 13.921875v20.566407h-6.960938c2.601563-5.859376 1.339844-12.714844-3.171874-17.269532l-40.734376-40.828125c-2.871093-2.898437-6.773437-4.535156-10.855468-4.546875-4.078125-.011718-7.996094 1.597656-10.882813 4.480469l-16.0625 16.050781c-5.835937 5.851563-6 15.273438-.367187 21.324219l-22.558594 29.707031c-3.609375 4.753906-7.847656 8.992188-12.601562 12.601563l-29.714844 22.558593c-6.046875-5.648437-15.484375-5.488281-21.332032.371094l-16.058593 16.0625c-6 6-6 15.734375 0 21.734375zm102.570312-237.421875c-3.035156-2.253906-4.871094-5.777343-4.972656-9.558593.011718-3.917969 1.851562-7.605469 4.972656-9.972657zm-51 240.441407v-56.25l1.472656-2.210938 30.449219 30.558594c-2.726563 3.203125-2.566406 7.957031.371094 10.96875l16.765625 16.933594zm11.054688-71.300782c2.84375-3.496094 6.035156-6.691406 9.53125-9.535156l32.054687 32.058594-9.53125 9.53125zm78.699218 89.121094-40.542968-40.539062 19.957031-19.957032 40.542969 40.542969zm41.246094 21.300781c-5.511719 5.507813-14.445312 5.507813-19.957031 0l-9.980469-9.980469 19.957031-19.957031 9.980469 9.976563c5.503906 5.515625 5.503906 14.445312 0 19.960937zm128.859375-149.121093c32.5 0 59.140625 26.074218 59.140625 58.578124v51.421876h-153v-80.472657l47.828125-29.527343zm-101.519531 15.597656-43.339844-28.296875v-14.855469c13.359375 6.074219 27.867188 9.195312 42.539062 9.152344 16.332032 0 31.460938-3.816406 46.460938-11.027344v16.617188zm104.660156-146.117188v-18.953125c2.761719 2.375 4.351562 5.835938 4.351562 9.476563s-1.589843 7.101562-4.351562 9.476562zm50.460938-100.113281c7.050781 14.335937 4 31.585937-7.539063 42.632813-11.539063 11.050781-28.902344 13.351562-42.921875 5.6875v-10.789063zm-39.605469-19.5c9.621093-2.019531 19.648437-.007813 27.75 5.558594.667969.460937 1.300781.949219 1.925781 1.449219l-42.046875 31.289062c-1.648437-9.253906-4.527344-18.25-8.5625-26.742188 5.597656-5.941406 12.917969-9.984374 20.933594-11.554687zm-116.753907-33.121094c9.863282-.007812 19.664063 1.613281 29 4.800781-18.441406 27.199219-43.230468 43.28125-73.8125 47.824219-12.246093 1.773438-24.691406 1.660157-36.898437-.335937 14.734375-31.851563 46.617187-52.253906 81.710937-52.289063zm-90.101562 90.011719c.011719-7.566406.976562-15.105469 2.875-22.433594 8.261719 1.546875 16.652344 2.316406 25.058594 2.308594 6.355468.003906 12.703125-.441406 18.992187-1.335938 25.363281-3.625 60.425781-16.601562 86.921875-57.144531 28.492188 15.902344 46.152344 45.976563 46.152344 78.605469v3.824219c-12.15625-9.617188-21.128906-22.683594-25.738281-37.484375-.777344-3.15625-3.398438-5.527344-6.621094-5.980469s-6.398437 1.09375-8.019531 3.914063c-17.613282 30.425781-47.21875 47.546874-87.921875 50.886718-17.289063 1.273438-34.675781.246094-51.699219-3.050781zm26.472656 131.59375c-16.960937-17.257812-26.464844-40.484375-26.472656-64.683594v-38.5c12.320312 2.179688 24.808594 3.296875 37.320312 3.332032 4.871094 0 9.992188-.175782 15.234376-.59375 39.800781-3.15625 71.304687-18.925782 92.140624-45.855469 5.800782 11.425781 16.304688 26.9375 35.304688 37.792969v43.828124c.027344 24.183594-9.449219 47.414063-26.378906 64.683594-17.109375 17.566406-39.660156 27.246094-63.546875 27.246094-23.890625 0-46.496094-9.679688-63.601563-27.25zm10.726563 61.648438 45.800781 29.414062v80.585938h-15.769531l-59.402344-59.523438c-2.933594-2.964844-7.65625-3.175781-10.84375-.484375l-30.554687-30.585937 18.625-14.171876c2.765624 2.332032 6.269531 3.609376 9.886718 3.605469 4.050782.078125 7.96875-1.476562 10.867188-4.308593l4.710937-4.53125zm-66.9375-62.429688 39.84375 39.84375-15.171875 15.175781-39.84375-39.847656zm-52.785157 80.695312c5.910157-4.488281 11.183594-9.761718 15.671876-15.671874l21.214843-27.949219 19.214844 19.214843-27.949219 21.214844c-5.910156 4.488282-11.183594 9.761719-15.671875 15.671875l-21.214843 27.945313-19.210938-19.210938zm-49.851562 21.941407 39.847656 39.84375-15.171875 15.171875-39.847656-39.84375zm0 0"/></svg>