<svg height="496pt" viewBox="0 0 496 496" width="496pt" xmlns="http://www.w3.org/2000/svg"><path d="m152 192c-83.816406 0-152 68.183594-152 152s68.183594 152 152 152 152-68.183594 152-152-68.183594-152-152-152zm-56 152c0-18.800781 1.601562-36.089844 4.3125-51.6875 13.34375-2.320312 27.976562-3.761719 43.6875-4.136719v24.960938c-13.761719 3.574219-24 15.992187-24 30.863281s10.238281 27.289062 24 30.863281v24.960938c-15.710938-.375-30.34375-1.816407-43.6875-4.136719-2.710938-15.597656-4.3125-32.886719-4.3125-51.6875zm-12.375 48.246094c-42.097656-10.421875-67.625-29.773438-67.625-48.246094s25.527344-37.824219 67.625-48.246094c-2.328125 15.117188-3.625 31.285156-3.625 48.246094s1.296875 33.128906 3.625 48.246094zm68.375-32.246094c-8.824219 0-16-7.175781-16-16s7.175781-16 16-16 16 7.175781 16 16-7.175781 16-16 16zm8-150.296875c15.855469 6.128906 31.328125 29.882813 40.246094 65.914063-12.703125-1.953126-26.199219-3.105469-40.246094-3.433594zm-16 0v62.480469c-14.046875.335937-27.542969 1.480468-40.246094 3.433594 8.917969-36.03125 24.390625-59.785157 40.246094-65.914063zm0 206.113281v62.480469c-15.855469-6.128906-31.328125-29.882813-40.246094-65.914063 12.703125 1.945313 26.199219 3.097657 40.246094 3.433594zm16 62.480469v-62.480469c14.046875-.335937 27.542969-1.480468 40.246094-3.433594-8.917969 36.03125-24.390625 59.785157-40.246094 65.914063zm0-78.472656v-24.960938c13.761719-3.574219 24-15.992187 24-30.863281s-10.238281-27.289062-24-30.863281v-24.960938c15.710938.375 30.34375 1.816407 43.6875 4.136719 2.710938 15.597656 4.3125 32.886719 4.3125 51.6875s-1.601562 36.089844-4.3125 51.6875c-13.34375 2.320312-27.976562 3.761719-43.6875 4.136719zm60.375-104.070313c42.097656 10.421875 67.625 29.773438 67.625 48.246094s-25.527344 37.824219-67.625 48.246094c2.328125-15.117188 3.625-31.285156 3.625-48.246094s-1.296875-33.128906-3.625-48.246094zm62.351562 11.140625c-15.300781-12.253906-38.03125-22.039062-65.527343-28.09375-6.046875-27.503906-15.832031-50.234375-28.09375-65.527343 45.175781 12.847656 80.773437 48.445312 93.621093 93.621093zm-167.832031-93.621093c-12.253906 15.300781-22.039062 38.03125-28.09375 65.527343-27.503906 6.046875-50.234375 15.832031-65.527343 28.09375 12.847656-45.175781 48.445312-80.773437 93.621093-93.621093zm-93.621093 167.832031c15.300781 12.253906 38.03125 22.039062 65.527343 28.09375 6.046875 27.503906 15.832031 50.234375 28.09375 65.527343-45.175781-12.847656-80.773437-48.445312-93.621093-93.621093zm167.832031 93.621093c12.253906-15.300781 22.039062-38.03125 28.09375-65.527343 27.503906-6.046875 50.234375-15.832031 65.527343-28.09375-12.847656 45.175781-48.445312 80.773437-93.621093 93.621093zm0 0"/><path d="m496 16h-48c-.824219 0-1.640625.128906-2.425781.375l-65.589844 20.871094c2.527344-3.796875 4.015625-8.351563 4.015625-13.246094 0-13.230469-10.769531-24-24-24s-24 10.769531-24 24c0 10.191406 6.414062 18.871094 15.398438 22.335938l-80.636719 25.664062h-46.761719v16h34.40625l-33.398438 60.113281.105469.054688c-.648437 1.160156-1.113281 2.417969-1.113281 3.832031 0 22.054688 17.945312 40 40 40h16c22.054688 0 40-17.945312 40-40 0-1.414062-.464844-2.671875-1.113281-3.832031l.105469-.054688-35.25-63.457031 68.257812-21.710938v113.054688h-8c-4.414062 0-8 3.585938-8 8v24h-32c-13.230469 0-24 10.769531-24 24v16c0 4.414062 3.585938 8 8 8h144c4.414062 0 8-3.585938 8-8v-16c0-13.230469-10.769531-24-24-24h-32v-24c0-4.414062-3.585938-8-8-8h-8v-118.152344l63.214844-20.113281-30.207032 54.378906.105469.054688c-.648437 1.160156-1.113281 2.417969-1.113281 3.832031 0 22.054688 17.945312 40 40 40h16c22.054688 0 40-17.945312 40-40 0-1.414062-.464844-2.671875-1.113281-3.832031l.105469-.054688-33.398438-60.113281h34.40625zm-72 216v8h-128v-8c0-4.40625 3.59375-8 8-8h112c4.40625 0 8 3.59375 8 8zm-72-24v-16h16v16zm8-192c4.40625 0 8 3.59375 8 8s-3.59375 8-8 8-8-3.59375-8-8 3.59375-8 8-8zm-61.59375 128h-52.804688l26.398438-47.527344zm-18.40625 32h-16c-10.433594 0-19.328125-6.6875-22.632812-16h61.257812c-3.296875 9.3125-12.191406 16-22.625 16zm168-135.527344 26.40625 47.527344h-52.804688zm8 79.527344h-16c-10.433594 0-19.328125-6.6875-22.632812-16h61.257812c-3.296875 9.3125-12.191406 16-22.625 16zm0 0"/><path d="m301.191406 390.441406 5.609375 14.984375c5.742188-2.152343 11.390625-4.625 16.808594-7.363281l-7.21875-14.277344c-4.886719 2.460938-10 4.710938-15.199219 6.65625zm0 0"/><path d="m331.59375 374.96875 8.8125 13.359375c6.539062-4.3125 12.839844-9.144531 18.722656-14.328125l-10.59375-12c-5.320312 4.703125-11.023437 9.070312-16.941406 12.96875zm0 0"/><path d="m363.511719 346.800781 12.160156 10.40625c4.585937-5.359375 8.839844-11.007812 12.65625-16.808593l-13.359375-8.796876c-3.457031 5.230469-7.304688 10.34375-11.457031 15.199219zm0 0"/><path d="m383.785156 316.398438 14.277344 7.203124c2.769531-5.480468 5.242188-11.136718 7.363281-16.808593l-14.992187-5.59375c-1.914063 5.128906-4.152344 10.242187-6.648438 15.199219zm0 0"/><path d="m395.207031 286.007812 15.503907 3.984376c1.417968-5.527344 2.570312-11.183594 3.410156-16.808594l-15.824219-2.375c-.761719 5.078125-1.800781 10.199218-3.089844 15.199218zm0 0"/><path d="m210 100.785156-3.992188-15.496094c-5.695312 1.472657-11.351562 3.246094-16.808593 5.285157l5.609375 14.984375c4.917968-1.839844 10.03125-3.445313 15.191406-4.773438zm0 0"/><path d="m179.609375 112.214844-7.210937-14.277344c-5.765626 2.902344-11.414063 6.183594-16.804688 9.742188l8.8125 13.351562c4.867188-3.214844 9.984375-6.183594 15.203125-8.816406zm0 0"/><path d="m149.199219 132.488281-10.40625-12.152343c-5.960938 5.105468-11.609375 10.664062-16.792969 16.535156l11.992188 10.59375c4.695312-5.3125 9.816406-10.351563 15.207031-14.976563zm0 0"/><path d="m121.023438 164.40625-13.351563-8.8125c-3.542969 5.375-6.824219 11.023438-9.734375 16.796875l14.277344 7.210937c2.640625-5.226562 5.609375-10.335937 8.808594-15.195312zm0 0"/></svg>