<svg width="48" height="48" viewBox="0 0 48 48" fill="none" xmlns="http://www.w3.org/2000/svg">
<g clip-path="url(#clip0)">
<path d="M30.1272 5.98077C24.8474 3.31283 18.4873 4.33292 14.3012 8.51906C9.43604 13.3841 8.9491 21.1416 13.1686 26.5635C13.3178 26.7552 13.5407 26.8555 13.7661 26.8555C13.9285 26.8555 14.0921 26.8034 14.2301 26.6959C14.5599 26.4393 14.6191 25.9641 14.3626 25.6344C10.6108 20.8135 11.0444 13.9154 15.3711 9.58875C19.0939 5.86574 24.7497 4.95842 29.4451 7.33096C29.8178 7.51959 30.2729 7.36977 30.4613 6.99693C30.6497 6.62408 30.5002 6.16912 30.1272 5.98077Z" fill="#C9B38C"/>
<path d="M36.1676 12.0222C35.9792 11.6494 35.5244 11.4998 35.1513 11.688C34.7784 11.8764 34.6287 12.3312 34.817 12.7043C37.1879 17.3989 36.2801 23.0539 32.5581 26.7758C28.2314 31.1024 21.3333 31.5359 16.5125 27.7843C16.1827 27.5278 15.7076 27.587 15.451 27.9167C15.1944 28.2464 15.2537 28.7216 15.5834 28.9782C18.0532 30.9003 21.0074 31.8456 23.9521 31.8456C27.4722 31.8456 30.9789 30.4946 33.628 27.8455C37.8131 23.6605 38.8337 17.3016 36.1676 12.0222Z" fill="#C9B38C"/>
<path d="M34.2132 9.14131C34.0258 8.92925 33.8289 8.71981 33.628 8.51899C33.4271 8.31809 33.2177 8.12121 33.0057 7.93381C32.6926 7.65705 32.2145 7.68668 31.938 7.99971C31.6612 8.31265 31.6906 8.79068 32.0037 9.06734C32.1926 9.23422 32.3791 9.40972 32.5582 9.58868C32.7371 9.76775 32.9126 9.95422 33.0795 10.1431C33.229 10.3122 33.4373 10.3986 33.6466 10.3986C33.8247 10.3986 34.0034 10.3361 34.1473 10.2089C34.4604 9.93237 34.4898 9.45434 34.2132 9.14131Z" fill="#C9B38C"/>
<path d="M41.8188 19.5382C42.3231 18.7107 42.3231 17.6828 41.8186 16.8555L40.8234 15.2236C40.6923 15.0085 40.6416 14.7531 40.6808 14.5045L40.9774 12.6199C41.1287 11.6594 40.7341 10.7075 39.9479 10.1356L38.4056 9.01375C38.2017 8.86535 38.0567 8.64888 37.9974 8.40382L37.5483 6.54766C37.3202 5.60481 36.5928 4.8775 35.6501 4.64931L33.7938 4.20006C33.5488 4.14071 33.3321 3.99578 33.1839 3.79187L32.0619 2.24921C31.49 1.46302 30.5381 1.06824 29.5779 1.21955L27.6926 1.51618C27.4439 1.55527 27.1885 1.50465 26.9736 1.37358L25.3414 0.378143C24.514 -0.12642 23.4861 -0.126326 22.6587 0.378143L21.0267 1.3733C20.8118 1.50446 20.5565 1.5549 20.3076 1.5159L18.4228 1.21927C17.4626 1.06814 16.5106 1.46274 15.9387 2.24893L14.8169 3.79121C14.6685 3.99512 14.452 4.14006 14.2068 4.1994L12.3506 4.64856C11.408 4.87656 10.6805 5.60397 10.4523 6.54672L10.003 8.40297C9.94369 8.64804 9.79885 8.86469 9.59485 9.01291L8.05219 10.1349C7.266 10.7067 6.8715 11.6584 7.02253 12.6189L7.31916 14.5043C7.35825 14.753 7.30763 15.0084 7.17656 15.2233L6.18122 16.8556C5.67684 17.683 5.67684 18.7109 6.18131 19.5382L7.17647 21.1702C7.30753 21.3853 7.35825 21.6407 7.31906 21.8893L7.02244 23.7741C6.87122 24.7344 7.26581 25.6864 8.052 26.2583L9.59429 27.3801C9.79819 27.5283 9.94313 27.7449 10.0025 27.99L10.4516 29.8462C10.6796 30.789 11.407 31.5163 12.3498 31.7445L13.1249 31.9321L7.87922 43.6334C7.76775 43.8822 7.7986 44.1715 7.96013 44.391C8.12157 44.6106 8.38847 44.7264 8.65922 44.694L12.88 44.1893L15.3115 47.676C15.4539 47.8799 15.6861 47.9997 15.9318 47.9997C15.9553 47.9997 15.9791 47.9986 16.0028 47.9964C16.2741 47.9709 16.5108 47.8013 16.6223 47.5528L21.9796 35.6016L22.6585 36.0155C23.0722 36.2678 23.536 36.3939 23.9998 36.3939C24.4637 36.3939 24.9275 36.2677 25.3412 36.0155L26.0445 35.5867L31.4086 47.5528C31.5201 47.8015 31.7567 47.9709 32.0281 47.9964C32.0519 47.9986 32.0756 47.9998 32.0991 47.9998C32.3448 47.9998 32.5771 47.88 32.7194 47.676L35.1509 44.1894L39.3717 44.694C39.6423 44.7262 39.9093 44.6107 40.0708 44.3911C40.2322 44.1716 40.2633 43.8823 40.1517 43.6335L34.9033 31.9257L35.6492 31.7453C36.5919 31.5173 37.3194 30.7899 37.5476 29.8471L37.9968 27.9909C38.0562 27.7458 38.2011 27.5291 38.405 27.3809L39.9477 26.2589C40.7339 25.6871 41.1284 24.7354 40.9773 23.7749L40.6807 21.8895C40.6416 21.6408 40.6923 21.3854 40.8233 21.1705L41.8188 19.5382ZM15.7883 45.7149L13.8613 42.9517C13.7016 42.7226 13.4284 42.5999 13.1511 42.6333L9.80616 43.0333L14.5855 32.3717C14.6728 32.4359 14.7512 32.5129 14.8158 32.6019L15.9378 34.1445C16.0444 34.2911 16.1642 34.4239 16.2948 34.5422L13.7792 40.1538C13.6084 40.5351 13.7788 40.9826 14.16 41.1535C14.2605 41.1986 14.3656 41.2198 14.4689 41.2198C14.7579 41.2198 15.0339 41.0533 15.1596 40.7727L17.6663 35.181C17.9129 35.2149 18.1669 35.2143 18.4218 35.1742L20.3071 34.8776C20.42 34.8598 20.5341 34.8614 20.6452 34.8798L15.7883 45.7149ZM38.2249 43.0331L34.8799 42.6333C34.6023 42.6 34.3294 42.7226 34.1697 42.9517L32.2427 45.7149L27.3838 34.8756C27.4857 34.8617 27.5896 34.8617 27.6925 34.8778L29.5771 35.1745C29.8424 35.2162 30.1066 35.2149 30.3627 35.1767L32.8712 40.7728C32.9971 41.0536 33.273 41.22 33.5619 41.22C33.6653 41.22 33.7704 41.1988 33.8708 41.1537C34.252 40.9828 34.4225 40.5352 34.2516 40.154L31.7265 34.521C31.8482 34.408 31.9608 34.2828 32.0612 34.1448L33.1831 32.6025C33.2537 32.5053 33.3404 32.422 33.4377 32.3545L38.2249 43.0331ZM40.527 18.7506L39.5316 20.3828C39.2143 20.9035 39.0915 21.5221 39.1863 22.1245L39.4829 24.0098C39.5452 24.4063 39.3823 24.7992 39.0578 25.0353L37.5151 26.1574C37.0213 26.5166 36.6701 27.0414 36.5265 27.6349L36.0772 29.4911C35.983 29.8803 35.6828 30.1806 35.2936 30.2748L33.4373 30.724C32.8437 30.8676 32.3189 31.2188 31.9596 31.7126L30.8378 33.2549C30.6017 33.5796 30.2089 33.7423 29.8123 33.6799L27.9275 33.3833C27.325 33.2885 26.7063 33.4111 26.1855 33.7286L24.5536 34.7238C24.2121 34.9319 23.7876 34.9319 23.4463 34.7238L21.814 33.7286C21.408 33.481 20.9427 33.352 20.4717 33.352C20.3386 33.352 20.2048 33.3623 20.0722 33.3832L18.1868 33.6798C17.7902 33.7422 17.3974 33.5792 17.1613 33.2547L16.0392 31.7121C15.68 31.2183 15.1553 30.8671 14.5617 30.7235L12.7055 30.2742C12.3163 30.18 12.016 29.8798 11.9218 29.4906L11.4727 27.6344C11.329 27.0408 10.9779 26.5159 10.484 26.1566L8.94179 25.0347C8.61722 24.7987 8.45438 24.4057 8.51682 24.0092L8.81344 22.1244C8.90822 21.5219 8.7856 20.9033 8.46807 20.3826L7.47291 18.7505C7.26469 18.4089 7.26469 17.9845 7.47291 17.6431L8.46825 16.0108C8.78569 15.4901 8.90841 14.8715 8.81363 14.2691L8.517 12.3838C8.45466 11.9873 8.6176 11.5944 8.94207 11.3584L10.4848 10.2363C10.9786 9.87701 11.3298 9.35229 11.4734 8.75875L11.9227 6.9025C12.0169 6.51334 12.3171 6.21306 12.7063 6.11884L14.5626 5.66969C15.1562 5.52606 15.681 5.17487 16.0402 4.681L17.162 3.13871C17.3981 2.81415 17.7909 2.65112 18.1875 2.71365L20.0723 3.01027C20.6749 3.10524 21.2936 2.98243 21.8142 2.6649L23.4462 1.66974C23.7877 1.46161 24.2122 1.46161 24.5535 1.66974L26.1858 2.66499C26.7065 2.98262 27.3253 3.10534 27.9276 3.01046L29.813 2.71384C30.2094 2.65168 30.6024 2.81443 30.8385 3.1389L31.9605 4.68156C32.3198 5.17534 32.8445 5.52653 33.4381 5.67015L35.2943 6.1194C35.6835 6.21362 35.9837 6.51381 36.078 6.90306L36.5271 8.75922C36.6707 9.35285 37.0218 9.87776 37.5158 10.237L39.0581 11.3588C39.3827 11.5949 39.5455 11.9879 39.4831 12.3844L39.1864 14.2691C39.0917 14.8716 39.2143 15.4902 39.5318 16.011L40.527 17.6431C40.7353 17.9846 40.7353 18.409 40.527 18.7506Z" fill="#C9B38C"/>
<path d="M32.8516 15.8435C32.6849 15.3303 32.2485 14.972 31.7126 14.9085L27.1609 14.3687L25.2411 10.2067C25.0151 9.71676 24.5395 9.41235 23.9999 9.41235C23.4603 9.41235 22.9847 9.71676 22.7586 10.2067L20.8388 14.3688L16.2871 14.9086C15.7513 14.9721 15.3148 15.3304 15.1482 15.8436C14.9815 16.3565 15.124 16.903 15.52 17.2693L18.8851 20.3813L17.9919 24.877C17.8868 25.4063 18.0927 25.9321 18.5293 26.2491C18.7701 26.4241 19.0496 26.5127 19.3308 26.5127C19.5595 26.5127 19.7892 26.4542 20.0002 26.336L23.9998 24.0974L27.9994 26.336C28.4703 26.5997 29.0338 26.5664 29.4704 26.2492C29.907 25.9321 30.1129 25.4062 30.0077 24.877L29.1144 20.3814L32.4796 17.2694C32.8758 16.9031 33.0183 16.3567 32.8516 15.8435ZM27.7765 19.5582C27.5834 19.7368 27.497 20.0029 27.5481 20.2609L28.4622 24.8614L24.3693 22.5704C24.2545 22.5062 24.1272 22.474 23.9998 22.474C23.8724 22.474 23.7452 22.5061 23.6303 22.5704L19.5374 24.8614L20.4514 20.2609C20.5028 20.0028 20.4163 19.7368 20.2231 19.5582L16.7794 16.3735L21.4375 15.8212C21.6987 15.7903 21.9251 15.6257 22.0353 15.387L23.9999 11.1278L25.9644 15.387C26.0747 15.6257 26.301 15.7903 26.5623 15.8212L31.2201 16.3735L27.7765 19.5582Z" fill="#C9B38C"/>
</g>
<defs>
<clipPath id="clip0">
<rect width="48" height="48" fill="white"/>
</clipPath>
</defs>
</svg>
