<?xml version="1.0" encoding="iso-8859-1"?>
<!-- Generator: Adobe Illustrator 19.0.0, SVG Export Plug-In . SVG Version: 6.00 Build 0)  -->
<svg version="1.1" id="Capa_1" xmlns="http://www.w3.org/2000/svg" xmlns:xlink="http://www.w3.org/1999/xlink" x="0px" y="0px"
	 viewBox="0 0 463 463" style="enable-background:new 0 0 463 463;" xml:space="preserve">
<g>
	<path d="M387.021,344.649l-60.076-15.019C350.381,289.66,375,240.118,375,159.5c0-35.825-16.191-75.978-43.312-107.409
		C303.124,18.986,266.607,0,231.5,0s-71.624,18.986-100.188,52.091C104.191,83.522,88,123.675,88,159.5
		c0,37.203,5.282,70.825,16.149,102.789c9.063,26.658,20.642,48.132,31.906,67.341l-60.076,15.019
		C54.796,349.945,40,368.895,40,390.731V439.5c0,12.958,10.542,23.5,23.5,23.5h336c12.958,0,23.5-10.542,23.5-23.5v-48.769
		C423,368.895,408.204,349.945,387.021,344.649z M143.037,343.346c7.045,14.155,21.046,33.341,31.579,46.974
		c4.014,5.195,9.821,8.396,16.354,9.013c0.732,0.069,1.464,0.104,2.195,0.104c5.75,0,11.386-2.118,15.736-5.969
		c6.016-5.325,11.085-9.32,15.099-12.251V399.5c0,4.142,3.357,7.5,7.5,7.5s7.5-3.358,7.5-7.5v-18.282
		c4.015,2.931,9.083,6.926,15.098,12.25c4.352,3.852,9.987,5.969,15.737,5.969c0.731,0,1.464-0.034,2.195-0.104
		c6.532-0.617,12.34-3.818,16.354-9.013c10.533-13.634,24.534-32.82,31.579-46.975l6.441,1.61
		c-3.933,21.499-15.147,41.15-31.809,55.561C277.088,415.661,254.68,424,231.5,424s-45.588-8.339-63.095-23.482
		c-16.662-14.412-27.876-34.062-31.809-55.561L143.037,343.346z M135,183.5V159h40.5c3.124,0,5.933-1.967,7.031-4.892
		c0.049-0.129,5.037-13.108,19.461-26.782c18.203-17.256,42.555-27.913,72.446-31.717c5.463,14.261,21.866,51.162,52.906,75.126
		c0.44,4.592,0.655,8.793,0.655,12.765c0,0.175-0.005,0.35-0.005,0.525c-0.164-0.011-0.328-0.025-0.495-0.025H303v-8.5
		c0-4.142-3.357-7.5-7.5-7.5h-48c-4.143,0-7.5,3.358-7.5,7.5v2.097c-2.638-1.027-5.503-1.597-8.5-1.597s-5.862,0.57-8.5,1.597V175.5
		c0-4.142-3.357-7.5-7.5-7.5h-48c-4.143,0-7.5,3.358-7.5,7.5v8.5h-24.5c-0.167,0-0.33,0.014-0.495,0.025
		C135.005,183.85,135,183.675,135,183.5z M160,199v0.5c0,4.142,3.357,7.5,7.5,7.5s7.5-3.358,7.5-7.5V183h9v8.5
		c0,4.142,3.357,7.5,7.5,7.5s7.5-3.358,7.5-7.5V183h9v16.5c0,4.142,3.357,7.5,7.5,7.5s7.5-3.358,7.5-7.5c0-4.687,3.813-8.5,8.5-8.5
		s8.5,3.813,8.5,8.5c0,4.142,3.357,7.5,7.5,7.5s7.5-3.358,7.5-7.5V183h9v8.5c0,4.142,3.357,7.5,7.5,7.5s7.5-3.358,7.5-7.5V183h9
		v16.5c0,4.142,3.357,7.5,7.5,7.5s7.5-3.358,7.5-7.5V199h24.204c-6.11,59.15-46.699,105-95.704,105s-89.594-45.85-95.704-105H160z
		 M231.5,357.534L175,308.097v-7.826C191.579,312.164,210.894,319,231.5,319s39.921-6.836,56.5-18.729v7.826L231.5,357.534z
		 M296.117,320.926l7.474,4.982c3.545,2.363,4.847,6.916,3.029,10.59c-5.046,10.196-15.738,26.054-30.107,44.653
		c-1.447,1.874-3.54,3.027-5.894,3.25c-2.401,0.226-4.744-0.541-6.579-2.164c-8.304-7.351-15.037-12.426-19.946-15.791
		L296.117,320.926z M166.883,320.926l52.023,45.52c-4.91,3.365-11.643,8.44-19.947,15.791c-1.834,1.624-4.171,2.39-6.578,2.164
		c-2.354-0.223-4.446-1.376-5.894-3.25c-14.369-18.599-25.062-34.457-30.107-44.653c-1.817-3.674-0.516-8.226,3.029-10.589
		L166.883,320.926z M103,159.5c0-32.333,14.829-68.822,39.669-97.61C168.381,32.091,200.759,15,231.5,15s63.119,17.091,88.831,46.89
		C345.171,90.678,360,127.167,360,159.5c0,73.894-21.772,120.563-43.39,158.061c-1.351-1.548-2.918-2.947-4.699-4.134L303,307.486
		V287.5c0-0.037-0.005-0.072-0.005-0.108C327.431,262.516,343,225.178,343,183.5c0-5.445-0.355-11.218-1.086-17.648
		c-0.237-2.089-1.341-3.982-3.04-5.218c-34.396-25.022-50.437-70.127-52.085-74.985c-2.046-10.924-0.071-19.6,5.592-24.454
		c3.146-2.696,3.509-7.43,0.813-10.575c-2.695-3.144-7.429-3.51-10.575-0.813c-5.068,4.343-12.632,13.82-11.533,31.125
		c-40.727,5.548-65.919,22.497-80.104,36.169c-11.11,10.709-17.329,21.04-20.301,26.9H127.5c-4.143,0-7.5,3.358-7.5,7.5v32
		c0,41.678,15.569,79.016,40.005,103.892c-0.001,0.036-0.005,0.072-0.005,0.108v19.986l-8.911,5.941
		c-1.781,1.187-3.348,2.586-4.699,4.134C124.772,280.063,103,233.394,103,159.5z M408,439.5c0,4.687-3.813,8.5-8.5,8.5H359v-16.5
		c0-4.142-3.357-7.5-7.5-7.5s-7.5,3.358-7.5,7.5V448H119v-16.5c0-4.142-3.357-7.5-7.5-7.5s-7.5,3.358-7.5,7.5V448H63.5
		c-4.687,0-8.5-3.813-8.5-8.5v-48.769c0-14.94,10.123-27.906,24.618-31.53l42.395-10.599c4.701,24.483,17.578,46.826,36.579,63.26
		C178.824,429.363,204.717,439,231.5,439s52.676-9.637,72.908-27.137c19.001-16.435,31.878-38.777,36.579-63.26l42.395,10.599
		c14.495,3.624,24.618,16.589,24.618,31.53V439.5z"/>
	<path d="M215.5,263h32c4.143,0,7.5-3.358,7.5-7.5s-3.357-7.5-7.5-7.5h-32c-4.143,0-7.5,3.358-7.5,7.5S211.357,263,215.5,263z"/>
</g>
<g>
</g>
<g>
</g>
<g>
</g>
<g>
</g>
<g>
</g>
<g>
</g>
<g>
</g>
<g>
</g>
<g>
</g>
<g>
</g>
<g>
</g>
<g>
</g>
<g>
</g>
<g>
</g>
<g>
</g>
</svg>
