<?xml version="1.0" standalone="no"?>
<!DOCTYPE svg PUBLIC "-//W3C//DTD SVG 20010904//EN"
 "http://www.w3.org/TR/2001/REC-SVG-20010904/DTD/svg10.dtd">
<svg version="1.0" xmlns="http://www.w3.org/2000/svg"
 width="292.000000pt" height="292.000000pt" viewBox="0 0 292.000000 292.000000"
 preserveAspectRatio="xMidYMid meet">
<metadata>
Created by potrace 1.11, written by Peter Selinger 2001-2013
</metadata>
<g transform="translate(0.000000,292.000000) scale(0.100000,-0.100000)"
fill="#000000" stroke="none">
<path d="M1260 2595 c0 -18 -5 -25 -20 -25 -13 0 -20 -7 -20 -20 0 -13 -7 -20
-20 -20 -15 0 -20 -7 -20 -25 0 -20 -5 -25 -25 -25 -18 0 -25 -5 -25 -20 0
-13 -7 -20 -20 -20 -17 0 -20 -7 -20 -45 0 -41 -2 -45 -25 -45 l-25 0 0 -235
0 -235 -235 0 -235 0 0 -25 c0 -23 -4 -25 -45 -25 -38 0 -45 -3 -45 -20 0 -13
-7 -20 -20 -20 -15 0 -20 -7 -20 -25 0 -20 -5 -25 -25 -25 -18 0 -25 -5 -25
-20 0 -13 -7 -20 -20 -20 -17 0 -20 -7 -20 -45 0 -41 -2 -45 -25 -45 l-25 0 0
-170 0 -170 25 0 c23 0 25 -4 25 -45 0 -38 3 -45 20 -45 13 0 20 -7 20 -20 0
-15 7 -20 25 -20 20 0 25 -5 25 -25 0 -22 4 -25 40 -25 33 0 40 -3 40 -20 0
-19 7 -20 240 -20 l240 0 0 -25 c0 -18 5 -25 20 -25 19 0 20 -7 20 -215 l0
-215 25 0 c23 0 25 -4 25 -45 0 -38 3 -45 20 -45 17 0 20 -7 20 -40 0 -36 3
-40 25 -40 20 0 25 -5 25 -25 0 -22 4 -25 40 -25 33 0 40 -3 40 -20 0 -17 7
-20 45 -20 41 0 45 -2 45 -25 l0 -25 130 0 130 0 0 25 c0 23 4 25 45 25 38 0
45 3 45 20 0 13 7 20 20 20 15 0 20 7 20 25 0 18 5 25 20 25 13 0 20 7 20 20
0 15 7 20 25 20 18 0 25 5 25 20 0 13 7 20 20 20 18 0 20 7 20 65 0 63 1 65
25 65 l25 0 0 195 0 195 65 0 c63 0 65 1 65 26 0 18 5 25 18 23 9 -1 97 -1
195 0 170 1 177 2 177 21 0 13 7 20 20 20 15 0 20 7 20 25 0 18 5 25 20 25 13
0 20 7 20 20 0 15 7 20 25 20 18 0 25 5 25 20 0 13 7 20 20 20 17 0 20 7 20
45 0 41 2 45 25 45 l25 0 0 130 0 130 -25 0 c-24 0 -25 2 -25 65 0 58 -2 65
-20 65 -13 0 -20 7 -20 20 0 15 -7 20 -25 20 -20 0 -25 5 -25 25 0 18 -5 25
-20 25 -13 0 -20 7 -20 20 0 17 -7 20 -45 20 -41 0 -45 2 -45 25 l0 25 -235 0
-235 0 0 195 0 195 -25 0 c-24 0 -25 2 -25 65 0 58 -2 65 -20 65 -17 0 -20 7
-20 40 0 36 -2 40 -25 40 -20 0 -25 5 -25 25 0 18 -5 25 -20 25 -13 0 -20 7
-20 20 0 17 -7 20 -45 20 -41 0 -45 2 -45 25 l0 25 -195 0 -195 0 0 -25z m310
-175 c0 -17 7 -20 40 -20 l40 0 0 -45 c0 -41 2 -45 25 -45 l25 0 0 -215 0
-215 -220 0 c-213 0 -220 1 -220 20 0 13 -7 20 -20 20 -19 0 -20 7 -20 150 0
143 1 150 20 150 18 0 20 7 20 65 0 63 1 65 25 65 20 0 25 5 25 25 0 23 4 25
40 25 33 0 40 3 40 20 0 19 7 20 90 20 83 0 90 -1 90 -20z m-630 -732 c0 -9 4
-8 11 2 8 12 9 11 7 -5 -2 -14 3 -21 20 -23 15 -2 22 2 22 12 0 9 2 16 4 16 2
0 11 3 20 6 13 5 15 -24 16 -235 l1 -241 -216 0 -215 0 0 25 c0 18 -5 25 -20
25 -13 0 -20 7 -20 20 0 15 -7 20 -25 20 -23 0 -25 4 -25 45 0 38 -3 45 -20
45 -18 0 -20 7 -20 65 0 58 2 65 20 65 17 0 20 7 20 40 0 36 3 40 25 40 20 0
25 5 25 25 0 24 2 25 65 25 58 0 65 2 65 20 0 19 7 20 120 20 89 0 120 -3 120
-12z m715 -7 c-2 -14 1 -21 11 -21 10 0 12 5 8 13 -5 8 -2 8 9 -2 15 -12 17
-39 17 -232 l0 -219 -220 0 -220 0 0 90 c0 83 -1 90 -20 90 -19 0 -20 7 -20
130 l0 130 45 0 c37 0 45 3 45 19 0 17 12 18 175 20 171 2 174 2 170 -18z
m605 -1 c0 -17 7 -20 45 -20 41 0 45 -2 45 -25 0 -18 5 -25 20 -25 13 0 20 -7
20 -20 0 -15 7 -20 25 -20 23 0 25 -4 25 -45 0 -38 3 -45 20 -45 13 0 20 -7
20 -20 0 -13 -7 -20 -20 -20 -18 0 -20 -7 -20 -65 0 -63 -1 -65 -25 -65 -18 0
-25 -5 -25 -20 0 -17 -7 -20 -40 -20 -36 0 -40 -2 -40 -25 l0 -25 -195 0 -195
0 0 240 0 240 170 0 c163 0 170 -1 170 -20z m-740 -655 c0 -25 1 -25 90 -25
l90 0 0 -195 0 -195 -25 0 c-22 0 -25 -4 -25 -40 0 -33 -3 -40 -20 -40 -15 0
-20 -7 -20 -25 l0 -25 -130 0 -130 0 0 25 c0 18 -5 25 -20 25 -13 0 -20 7 -20
20 0 15 -7 20 -25 20 -23 0 -25 4 -25 45 0 38 -3 45 -20 45 -19 0 -20 7 -20
105 0 98 1 105 20 105 19 0 20 7 20 90 l0 90 130 0 130 0 0 -25z"/>
<path d="M1327 1669 c7 -7 15 -10 18 -7 3 3 -2 9 -12 12 -14 6 -15 5 -6 -5z"/>
</g>
</svg>
