<svg height="460pt" viewBox="0 -37 460 460" width="460pt" xmlns="http://www.w3.org/2000/svg"><path d="m452.441406 302h-61.824218l-2.039063-252.3125c-.15625-27.484375-22.480469-49.68359375-49.964844-49.6875h-287.066406c-28.625 0-51.546875 23.730469-51.546875 52.363281v13.453125c0 4.417969 3.140625 8.183594 7.558594 8.183594h80.441406v244.390625c0 37.039063 29.863281 67.609375 66.886719 67.609375h.199219c1.011718 0 2.015624-.03125 3.015624-.078125.347657.050781.699219.074219 1.046876.078125h237.167968c.515625-.078125 1.019532-.222656 1.5-.425781 34.792969-2.472657 62.183594-31.765625 62.183594-67.191407v-8.414062c0-4.417969-3.140625-7.96875-7.558594-7.96875zm-364.441406-244h-72v-5.601562c0-19.828126 15.726562-36.398438 35.558594-36.398438h.195312c19.847656 1 36.246094 16.671875 36.246094 36.527344zm67.082031 312h-.1875c-28.214843 0-50.894531-23.398438-50.894531-51.617188v-265.84375c0-13.988281-5.839844-26.539062-14.84375-36.539062h249.457031c18.675781 0 33.847657 15.078125 33.964844 33.753906l2.039063 252.246094h-160.386719c-4.457031-.03125-8.117188 3.511719-8.230469 7.96875v8.300781c.089844 13.640625-5.25 26.757813-14.847656 36.457031-9.496094 9.710938-22.488282 15.214844-36.070313 15.273438zm288.917969-51.625c0 28.222656-22.777344 51.390625-50.992188 51.390625-.019531 0 .179688.234375.160157.234375h-194.640625c1.398437-2 2.644531-2.65625 3.953125-3.96875 12.597656-12.695312 19.621093-29.886719 19.519531-47.769531v-.261719h222zm0 0"/><path d="m137 206h206c4.417969 0 8-3.582031 8-8s-3.582031-8-8-8h-206c-4.417969 0-8 3.582031-8 8s3.582031 8 8 8zm0 0"/><path d="m137 240h206c4.417969 0 8-3.582031 8-8s-3.582031-8-8-8h-206c-4.417969 0-8 3.582031-8 8s3.582031 8 8 8zm0 0"/><path d="m281 266c0-4.417969-3.582031-8-8-8h-136c-4.417969 0-8 3.582031-8 8s3.582031 8 8 8h136c4.417969 0 8-3.582031 8-8zm0 0"/><path d="m156.328125 123.015625-5.214844 30.5c-.511719 3.003906.726563 6.039063 3.191407 7.824219 2.464843 1.789062 5.734374 2.019531 8.429687.601562l27.265625-14.382812 27.265625 14.386718c2.695313 1.417969 5.964844 1.1875 8.429687-.601562 2.464844-1.785156 3.703126-4.820312 3.191407-7.824219l-5.214844-30.5 22.082031-21.597656c2.175782-2.128906 2.953125-5.304687 2.011719-8.199219-.941406-2.890625-3.441406-5-6.453125-5.4375l-30.492188-4.445312-13.640624-27.738282c-1.347657-2.738281-4.128907-4.472656-7.179688-4.472656s-5.832031 1.734375-7.179688 4.472656l-13.640624 27.734376-30.492188 4.445312c-3.011719.441406-5.511719 2.546875-6.453125 5.441406-.941406 2.894532-.164063 6.070313 2.011719 8.195313zm19.328125-24.453125c2.605469-.378906 4.859375-2.019531 6.023438-4.386719l8.320312-16.917969 8.320312 16.917969c1.164063 2.367188 3.417969 4.007813 6.023438 4.386719l18.664062 2.722656-13.523437 13.226563c-1.875 1.835937-2.734375 4.476562-2.289063 7.066406l3.183594 18.644531-16.644531-8.785156c-2.335937-1.230469-5.132813-1.230469-7.46875 0l-16.644531 8.785156 3.183594-18.644531c.445312-2.589844-.414063-5.230469-2.289063-7.066406l-13.523437-13.226563zm0 0"/></svg>