<svg width="52" height="57" viewBox="0 0 52 57" fill="none" xmlns="http://www.w3.org/2000/svg">
<path d="M0.406003 0.612009C10.576 0.600009 20.74 0.582009 30.904 0.618009C35.146 4.83001 39.376 9.04801 43.576 13.296C43.63 17.988 43.588 22.686 43.6 27.378C42.802 26.586 41.998 25.812 41.224 24.996C41.158 21.666 41.23 18.336 41.194 15.006C37.198 14.982 33.202 15.018 29.206 14.994C29.182 10.998 29.218 7.00201 29.188 3.00601C20.398 2.99401 11.602 2.99401 2.806 3.00601C2.794 19.002 2.794 34.998 2.812 50.994C14.344 51.078 25.918 50.862 37.432 51.102C38.116 51.864 38.8 52.62 39.466 53.394C26.446 53.4 13.426 53.406 0.406003 53.394C0.394003 35.796 0.394003 18.204 0.406003 0.612009ZM31.6 4.70401C31.606 7.33201 31.588 9.96001 31.606 12.594C34.234 12.606 36.868 12.6 39.496 12.594C36.874 9.95401 34.246 7.32001 31.6 4.70401Z" fill="#556080"/>
<path d="M27.064 20.58C27.856 18.504 30.88 17.928 32.374 19.578C35.794 22.986 39.226 26.388 42.616 29.826C44.146 31.224 43.792 33.99 41.962 34.956C40.654 35.79 39.058 35.31 37.894 34.47C37.21 35.13 36.538 35.814 35.884 36.51C40.09 40.296 44.314 44.064 48.532 47.838C49.81 49.038 51.418 50.046 52 51.798V53.532C51.586 55.206 50.278 56.454 48.676 57H46.87C46.144 56.7 45.382 56.4 44.866 55.776C40.39 50.832 35.992 45.822 31.504 40.884C30.82 41.55 30.142 42.222 29.464 42.9C30.064 43.86 30.664 44.976 30.286 46.146C29.83 48.342 26.842 49.392 25.144 47.892C21.574 44.454 18.118 40.89 14.602 37.392C13.174 36.096 13.324 33.57 14.902 32.46C16.246 31.374 18.124 31.794 19.366 32.814C22.186 30.006 24.982 27.186 27.814 24.39C27.058 23.286 26.416 21.912 27.064 20.58ZM29.428 21.192C29.362 21.42 29.224 21.87 29.158 22.098C32.602 25.692 36.184 29.166 39.7 32.694C40.36 33.708 41.908 32.184 40.906 31.512C37.414 27.996 33.934 24.462 30.37 21.018C30.136 21.06 29.662 21.15 29.428 21.192ZM21.004 34.59C23.218 36.828 25.462 39.036 27.688 41.268C30.574 38.43 33.43 35.562 36.268 32.676C34.048 30.45 31.828 28.224 29.602 26.004C26.722 28.854 23.848 31.71 21.004 34.59ZM16.21 34.392C16.15 34.626 16.03 35.088 15.964 35.316C19.414 38.892 22.972 42.36 26.476 45.87C27.142 46.938 28.738 45.36 27.682 44.682C24.178 41.166 20.698 37.62 17.122 34.176C16.894 34.23 16.438 34.338 16.21 34.392ZM33.226 39.192C37.756 44.196 42.196 49.29 46.762 54.258C48.142 55.626 50.602 53.178 49.276 51.78C44.326 47.202 39.208 42.792 34.24 38.238C33.856 38.508 33.52 38.826 33.226 39.192Z" fill="#556080"/>
</svg>
