<?xml version="1.0" encoding="utf-8"?>
<!-- Generator: Adobe Illustrator 16.0.2, SVG Export Plug-In . SVG Version: 6.00 Build 0)  -->
<!DOCTYPE svg PUBLIC "-//W3C//DTD SVG 1.1//EN" "http://www.w3.org/Graphics/SVG/1.1/DTD/svg11.dtd">
<svg version="1.1" id="РЎР»РѕР№_1" xmlns="http://www.w3.org/2000/svg" xmlns:xlink="http://www.w3.org/1999/xlink" x="0px" y="0px"
	 width="566px" height="267.334px" viewBox="0 0 566 267.334" enable-background="new 0 0 566 267.334" xml:space="preserve">
<g>
	<g>
		<path fill="#4D4C4C" d="M295.323,113.993h-7.04v-46.42c0-2.052-0.293-3.757-0.88-5.115c-0.588-1.356-1.412-2.437-2.475-3.245
			c-1.063-0.806-2.329-1.375-3.795-1.705c-1.468-0.33-3.118-0.495-4.95-0.495h-3.63c-3.888,0-6.913,0.753-9.075,2.255
			c-2.164,1.504-3.245,4.273-3.245,8.305v46.42h-7.04v-48.18c0-2.786,0.421-5.17,1.265-7.15c0.842-1.98,2.035-3.592,3.575-4.84
			c1.54-1.246,3.392-2.162,5.556-2.75c2.162-0.586,4.564-0.88,7.205-0.88h6.38c3.666,0,6.727,0.605,9.185,1.815
			c2.456,1.21,4.235,2.915,5.335,5.115c1.173-2.2,2.951-3.905,5.335-5.115c2.383-1.21,5.335-1.815,8.855-1.815h6.49
			c2.64,0,5.041,0.294,7.205,0.88c2.162,0.588,4.015,1.504,5.555,2.75c1.54,1.248,2.731,2.86,3.575,4.84
			c0.842,1.98,1.265,4.364,1.265,7.15v48.18h-7.15v-46.42c0-4.032-1.082-6.801-3.244-8.305c-2.164-1.502-5.115-2.255-8.855-2.255
			h-3.63c-3.814,0-6.729,0.753-8.745,2.255c-2.018,1.504-3.025,4.235-3.025,8.195V113.993z"/>
		<path fill="#4D4C4C" d="M394.543,113.993h-36.63c-5.208,0-9.424-1.246-12.65-3.74c-3.228-2.492-4.84-6.562-4.84-12.21v-32.23
			c0-2.786,0.421-5.17,1.265-7.15c0.843-1.98,2.035-3.592,3.575-4.84c1.54-1.246,3.392-2.162,5.555-2.75
			c2.163-0.586,4.565-0.88,7.205-0.88h19.69c2.64,0,5.022,0.294,7.15,0.88c2.126,0.588,3.96,1.523,5.5,2.805
			c1.54,1.284,2.73,2.915,3.574,4.895c0.843,1.98,1.266,4.364,1.266,7.15v8.14l-47.63,18.92c0,2.86,0.182,5.208,0.55,7.04
			c0.366,1.834,1.026,3.283,1.979,4.345c0.952,1.064,2.236,1.815,3.851,2.255c1.612,0.44,3.702,0.66,6.27,0.66h34.32V113.993z
			 M347.463,85.943l40.59-16.17v-2.86c0-3.886-1.027-6.507-3.08-7.865c-2.054-1.356-5.208-2.035-9.46-2.035h-15.51
			c-4.18,0-7.315,0.808-9.405,2.42c-2.09,1.614-3.135,4.438-3.135,8.47V85.943z"/>
		<path fill="#4D4C4C" d="M452.843,50.193v-22h7.04v69.96c0,5.647-1.614,9.699-4.84,12.155c-3.229,2.458-7.444,3.685-12.65,3.685
			h-19.69c-5.207,0-9.442-1.227-12.705-3.685c-3.264-2.456-4.895-6.507-4.895-12.155v-32.34c0-2.786,0.421-5.17,1.265-7.15
			c0.843-1.98,2.035-3.592,3.575-4.84c1.54-1.246,3.392-2.162,5.555-2.75c2.163-0.586,4.565-0.88,7.205-0.88H452.843z
			 M452.843,57.013h-28.05c-1.908,0-3.631,0.148-5.171,0.44c-1.539,0.294-2.859,0.844-3.96,1.65c-1.1,0.808-1.962,1.889-2.585,3.245
			c-0.623,1.358-0.935,3.099-0.935,5.225v29.04c0,2.128,0.312,3.869,0.935,5.225c0.623,1.357,1.485,2.438,2.585,3.245
			c1.101,0.808,2.421,1.375,3.96,1.705c1.54,0.33,3.263,0.495,5.171,0.495h15.729c3.886,0,6.911-0.751,9.075-2.255
			c2.162-1.502,3.245-4.307,3.245-8.415V57.013z"/>
		<path fill="#4D4C4C" d="M472.532,41.283c0-1.172,0.402-2.162,1.21-2.97c0.807-0.806,1.797-1.21,2.971-1.21
			c1.172,0,2.162,0.404,2.97,1.21c0.806,0.808,1.21,1.798,1.21,2.97c0,1.174-0.404,2.164-1.21,2.97
			c-0.808,0.808-1.798,1.21-2.97,1.21c-1.174,0-2.164-0.402-2.971-1.21C472.935,43.447,472.532,42.457,472.532,41.283z
			 M480.232,113.993h-7.04v-63.8h7.04V113.993z"/>
		<path fill="#4D4C4C" d="M510.592,113.993c-5.207,0-9.442-1.227-12.705-3.685c-3.264-2.456-4.895-6.507-4.895-12.155v-32.34
			c0-2.786,0.421-5.17,1.265-7.15c0.843-1.98,2.035-3.592,3.575-4.84c1.54-1.246,3.392-2.162,5.555-2.75
			c2.163-0.586,4.565-0.88,7.205-0.88h26.4v6.82h-24.86c-3.739,0-6.692,0.753-8.854,2.255c-2.164,1.504-3.245,4.273-3.245,8.305
			v29.04c0,4.108,1.081,6.913,3.245,8.415c2.162,1.504,5.115,2.255,8.854,2.255h24.86v6.71H510.592z"/>
	</g>
	<g>
		<path fill="#4D4C4C" d="M270.244,218.992c-5.208,0-9.443-1.227-12.706-3.684c-3.264-2.457-4.895-6.508-4.895-12.156v-10.67
			c0-2.786,0.421-5.17,1.265-7.15c0.842-1.979,2.035-3.592,3.575-4.84c1.54-1.246,3.391-2.162,5.555-2.75
			c2.162-0.586,4.564-0.88,7.205-0.88h30.25v-4.29c0-4.106-1.083-6.911-3.245-8.415c-2.164-1.502-5.115-2.255-8.855-2.255h-35.2
			v-6.71h36.74c2.64,0,5.041,0.294,7.205,0.88c2.162,0.588,4.015,1.504,5.555,2.75c1.54,1.248,2.731,2.86,3.575,4.84
			c0.843,1.98,1.265,4.364,1.265,7.15v32.34c0,5.647-1.633,9.699-4.895,12.156c-3.264,2.457-7.499,3.684-12.705,3.684H270.244z
			 M288.394,212.283c2.42,0,4.4-0.238,5.94-0.715s2.767-1.283,3.685-2.42c0.916-1.137,1.558-2.657,1.925-4.565
			c0.366-1.906,0.551-4.29,0.551-7.149v-13.75h-28.711c-3.594,0-6.509,0.697-8.744,2.09c-2.238,1.394-3.355,4.033-3.355,7.92v7.26
			c0,4.328,0.952,7.298,2.86,8.91c1.906,1.614,4.985,2.42,9.239,2.42H288.394z"/>
		<path fill="#4D4C4C" d="M326.122,218.992h-7.04v-47.959c0-2.786,0.421-5.187,1.266-7.205c0.842-2.016,2.034-3.666,3.574-4.95
			c1.54-1.282,3.392-2.217,5.556-2.805c2.162-0.586,4.564-0.88,7.205-0.88h6.489v6.82h-4.729c-3.888,0-6.913,0.753-9.075,2.255
			c-2.164,1.504-3.245,4.273-3.245,8.305V218.992z"/>
		<path fill="#4D4C4C" d="M356.811,133.193v22h17.601v6.71h-17.601v57.089h-7.04v-85.799H356.811z"/>
	</g>
	<path fill="#4D4C4C" d="M381.009,158.453H537.53H381.009z"/>
	
		<line fill="none" stroke="#4D4C4C" stroke-width="7.5" stroke-miterlimit="10" x1="381.009" y1="158.453" x2="537.529" y2="158.453"/>
	<g>
		<defs>
			<path id="SVGID_5_" d="M40.886,130.854c0-9.902,8.058-17.959,17.961-17.959h124.564c9.903,0,17.96,8.057,17.96,17.959
				s-8.057,17.96-17.96,17.96H58.847C48.943,148.813,40.886,140.756,40.886,130.854 M58.847,94.475
				c-20.06,0-36.379,16.32-36.379,36.379c0,20.061,16.319,36.38,36.379,36.38h124.564c20.059,0,36.379-16.319,36.379-36.38
				c0-20.059-16.32-36.379-36.379-36.379H58.847z"/>
		</defs>
		<clipPath id="SVGID_2_">
			<use xlink:href="#SVGID_5_"  overflow="visible"/>
		</clipPath>
		
			<linearGradient id="SVGID_4_" gradientUnits="userSpaceOnUse" x1="1053.5576" y1="594.0723" x2="1054.5576" y2="594.0723" gradientTransform="matrix(-116.0399 142.9777 142.9777 116.0399 37488.4883 -219504.0938)">
			<stop  offset="0" style="stop-color:#1DB9A0"/>
			<stop  offset="1" style="stop-color:#4D94C4"/>
		</linearGradient>
		<polygon clip-path="url(#SVGID_2_)" fill="url(#SVGID_4_)" points="255.392,123.367 141.431,263.783 -13.134,138.34 
			100.827,-2.076 		"/>
	</g>
	<g>
		<defs>
			<path id="SVGID_8_" d="M103.169,193.137V68.571c0-9.903,8.057-17.96,17.961-17.96c9.901,0,17.959,8.057,17.959,17.96v124.565
				c0,9.902-8.058,17.959-17.959,17.959C111.226,211.096,103.169,203.039,103.169,193.137 M84.749,68.571v124.565
				c0,20.059,16.32,36.379,36.381,36.379c20.059,0,36.379-16.32,36.379-36.379V68.571c0-20.06-16.32-36.379-36.379-36.379
				C101.069,32.192,84.749,48.512,84.749,68.571"/>
		</defs>
		<clipPath id="SVGID_6_">
			<use xlink:href="#SVGID_8_"  overflow="visible"/>
		</clipPath>
		
			<linearGradient id="SVGID_7_" gradientUnits="userSpaceOnUse" x1="1053.5576" y1="594.0713" x2="1054.5576" y2="594.0713" gradientTransform="matrix(-116.0395 142.9772 142.9772 116.0395 37488.3555 -219503.2969)">
			<stop  offset="0" style="stop-color:#1DB9A0"/>
			<stop  offset="1" style="stop-color:#4D94C4"/>
		</linearGradient>
		<polygon clip-path="url(#SVGID_6_)" fill="url(#SVGID_7_)" points="254.058,110.552 128.614,265.117 -11.801,151.156 
			113.643,-3.408 		"/>
	</g>
	<g>
		<defs>
			<rect id="SVGID_11_" x="139.089" y="76.055" width="18.418" height="18.42"/>
		</defs>
		<clipPath id="SVGID_9_">
			<use xlink:href="#SVGID_11_"  overflow="visible"/>
		</clipPath>
		<defs>
			<filter id="Adobe_OpacityMaskFilter" filterUnits="userSpaceOnUse" x="139.089" y="76.055" width="18.418" height="18.42">
				<feColorMatrix  type="matrix" values="1 0 0 0 0  0 1 0 0 0  0 0 1 0 0  0 0 0 1 0"/>
			</filter>
		</defs>
		<mask maskUnits="userSpaceOnUse" x="139.089" y="76.055" width="18.418" height="18.42" id="SVGID_10_">
			<g filter="url(#Adobe_OpacityMaskFilter)">
				
					<linearGradient id="SVGID_12_" gradientUnits="userSpaceOnUse" x1="1050.4741" y1="655.9902" x2="1051.4741" y2="655.9902" gradientTransform="matrix(0 -24.5833 -24.5833 0 16274.6895 25929.2305)">
					<stop  offset="0" style="stop-color:#FFFFFF"/>
					<stop  offset="0.1434" style="stop-color:#D4D4D4"/>
					<stop  offset="0.46" style="stop-color:#7A7A7A"/>
					<stop  offset="0.718" style="stop-color:#383838"/>
					<stop  offset="0.9042" style="stop-color:#101010"/>
					<stop  offset="1" style="stop-color:#000000"/>
				</linearGradient>
				<rect x="139.089" y="76.055" clip-path="url(#SVGID_9_)" fill="url(#SVGID_12_)" width="18.418" height="18.42"/>
			</g>
		</mask>
		
			<linearGradient id="SVGID_13_" gradientUnits="userSpaceOnUse" x1="1050.4741" y1="655.9902" x2="1051.4741" y2="655.9902" gradientTransform="matrix(0 -24.5833 -24.5833 0 16274.6895 25929.2305)">
			<stop  offset="0" style="stop-color:#000000"/>
			<stop  offset="1" style="stop-color:#000000"/>
		</linearGradient>
		
			<rect x="139.089" y="76.055" clip-path="url(#SVGID_9_)" mask="url(#SVGID_10_)" fill="url(#SVGID_13_)" width="18.418" height="18.42"/>
	</g>
	<g>
		<defs>
			<rect id="SVGID_16_" x="139.089" y="112.895" width="18.418" height="18.42"/>
		</defs>
		<clipPath id="SVGID_14_">
			<use xlink:href="#SVGID_16_"  overflow="visible"/>
		</clipPath>
		<defs>
			<filter id="Adobe_OpacityMaskFilter_1_" filterUnits="userSpaceOnUse" x="139.089" y="112.895" width="18.418" height="18.42">
				<feColorMatrix  type="matrix" values="1 0 0 0 0  0 1 0 0 0  0 0 1 0 0  0 0 0 1 0"/>
			</filter>
		</defs>
		<mask maskUnits="userSpaceOnUse" x="139.089" y="112.895" width="18.418" height="18.42" id="SVGID_15_">
			<g filter="url(#Adobe_OpacityMaskFilter_1_)">
				
					<linearGradient id="SVGID_17_" gradientUnits="userSpaceOnUse" x1="1047.4624" y1="541.6367" x2="1048.463" y2="541.6367" gradientTransform="matrix(0 23.5836 23.5836 0 -12625.4502 -24599.5195)">
					<stop  offset="0" style="stop-color:#FFFFFF"/>
					<stop  offset="0.1434" style="stop-color:#D4D4D4"/>
					<stop  offset="0.46" style="stop-color:#7A7A7A"/>
					<stop  offset="0.718" style="stop-color:#383838"/>
					<stop  offset="0.9042" style="stop-color:#101010"/>
					<stop  offset="1" style="stop-color:#000000"/>
				</linearGradient>
				<rect x="139.089" y="112.895" clip-path="url(#SVGID_14_)" fill="url(#SVGID_17_)" width="18.418" height="18.42"/>
			</g>
		</mask>
		
			<linearGradient id="SVGID_18_" gradientUnits="userSpaceOnUse" x1="1047.4624" y1="541.6367" x2="1048.463" y2="541.6367" gradientTransform="matrix(0 23.5836 23.5836 0 -12625.4502 -24599.5195)">
			<stop  offset="0" style="stop-color:#000000"/>
			<stop  offset="1" style="stop-color:#000000"/>
		</linearGradient>
		
			<rect x="139.089" y="112.895" clip-path="url(#SVGID_14_)" mask="url(#SVGID_15_)" fill="url(#SVGID_18_)" width="18.418" height="18.42"/>
	</g>
	<g>
		<defs>
			<rect id="SVGID_21_" x="66.328" y="94.475" width="18.42" height="18.42"/>
		</defs>
		<clipPath id="SVGID_19_">
			<use xlink:href="#SVGID_21_"  overflow="visible"/>
		</clipPath>
		<defs>
			<filter id="Adobe_OpacityMaskFilter_2_" filterUnits="userSpaceOnUse" x="66.328" y="94.475" width="18.42" height="18.42">
				<feColorMatrix  type="matrix" values="1 0 0 0 0  0 1 0 0 0  0 0 1 0 0  0 0 0 1 0"/>
			</filter>
		</defs>
		<mask maskUnits="userSpaceOnUse" x="66.328" y="94.475" width="18.42" height="18.42" id="SVGID_20_">
			<g filter="url(#Adobe_OpacityMaskFilter_2_)">
				
					<linearGradient id="SVGID_22_" gradientUnits="userSpaceOnUse" x1="1103.002" y1="598.5781" x2="1104.002" y2="598.5781" gradientTransform="matrix(-25.4884 0 0 25.4884 28208.7695 -15153.1309)">
					<stop  offset="0" style="stop-color:#FFFFFF"/>
					<stop  offset="0.1434" style="stop-color:#D4D4D4"/>
					<stop  offset="0.46" style="stop-color:#7A7A7A"/>
					<stop  offset="0.718" style="stop-color:#383838"/>
					<stop  offset="0.9042" style="stop-color:#101010"/>
					<stop  offset="1" style="stop-color:#000000"/>
				</linearGradient>
				<rect x="66.328" y="94.475" clip-path="url(#SVGID_19_)" fill="url(#SVGID_22_)" width="18.42" height="18.419"/>
			</g>
		</mask>
		
			<linearGradient id="SVGID_23_" gradientUnits="userSpaceOnUse" x1="1103.002" y1="598.5781" x2="1104.002" y2="598.5781" gradientTransform="matrix(-25.4884 0 0 25.4884 28208.7734 -15153.1318)">
			<stop  offset="0" style="stop-color:#000000"/>
			<stop  offset="1" style="stop-color:#000000"/>
		</linearGradient>
		
			<rect x="66.328" y="94.475" clip-path="url(#SVGID_19_)" mask="url(#SVGID_20_)" fill="url(#SVGID_23_)" width="18.42" height="18.42"/>
	</g>
	<g>
		<defs>
			<rect id="SVGID_26_" x="103.169" y="94.475" width="18.42" height="18.42"/>
		</defs>
		<clipPath id="SVGID_24_">
			<use xlink:href="#SVGID_26_"  overflow="visible"/>
		</clipPath>
		<defs>
			<filter id="Adobe_OpacityMaskFilter_3_" filterUnits="userSpaceOnUse" x="103.169" y="94.475" width="18.42" height="18.42">
				<feColorMatrix  type="matrix" values="1 0 0 0 0  0 1 0 0 0  0 0 1 0 0  0 0 0 1 0"/>
			</filter>
		</defs>
		<mask maskUnits="userSpaceOnUse" x="103.169" y="94.475" width="18.42" height="18.42" id="SVGID_25_">
			<g filter="url(#Adobe_OpacityMaskFilter_3_)">
				
					<linearGradient id="SVGID_27_" gradientUnits="userSpaceOnUse" x1="992.6045" y1="601.4863" x2="993.6052" y2="601.4863" gradientTransform="matrix(24.407 0 0 -24.407 -24133.0566 14784.125)">
					<stop  offset="0" style="stop-color:#FFFFFF"/>
					<stop  offset="0.1434" style="stop-color:#D4D4D4"/>
					<stop  offset="0.46" style="stop-color:#7A7A7A"/>
					<stop  offset="0.718" style="stop-color:#383838"/>
					<stop  offset="0.9042" style="stop-color:#101010"/>
					<stop  offset="1" style="stop-color:#000000"/>
				</linearGradient>
				<rect x="103.169" y="94.475" clip-path="url(#SVGID_24_)" fill="url(#SVGID_27_)" width="18.42" height="18.42"/>
			</g>
		</mask>
		
			<linearGradient id="SVGID_28_" gradientUnits="userSpaceOnUse" x1="992.6045" y1="601.4863" x2="993.6052" y2="601.4863" gradientTransform="matrix(24.407 0 0 -24.407 -24133.0508 14784.124)">
			<stop  offset="0" style="stop-color:#000000"/>
			<stop  offset="1" style="stop-color:#000000"/>
		</linearGradient>
		
			<rect x="103.169" y="94.475" clip-path="url(#SVGID_24_)" mask="url(#SVGID_25_)" fill="url(#SVGID_28_)" width="18.42" height="18.42"/>
	</g>
	<g>
		<defs>
			<rect id="SVGID_31_" x="84.749" y="130.395" width="18.42" height="18.419"/>
		</defs>
		<clipPath id="SVGID_29_">
			<use xlink:href="#SVGID_31_"  overflow="visible"/>
		</clipPath>
		<defs>
			<filter id="Adobe_OpacityMaskFilter_4_" filterUnits="userSpaceOnUse" x="84.749" y="130.395" width="18.42" height="18.419">
				<feColorMatrix  type="matrix" values="1 0 0 0 0  0 1 0 0 0  0 0 1 0 0  0 0 0 1 0"/>
			</filter>
		</defs>
		<mask maskUnits="userSpaceOnUse" x="84.749" y="130.395" width="18.42" height="18.419" id="SVGID_30_">
			<g filter="url(#Adobe_OpacityMaskFilter_4_)">
				
					<linearGradient id="SVGID_32_" gradientUnits="userSpaceOnUse" x1="1050.5635" y1="659.3828" x2="1051.5635" y2="659.3828" gradientTransform="matrix(0 -23.1784 -23.1784 0 15377.4121 24508.4531)">
					<stop  offset="0" style="stop-color:#FFFFFF"/>
					<stop  offset="0.1434" style="stop-color:#D4D4D4"/>
					<stop  offset="0.46" style="stop-color:#7A7A7A"/>
					<stop  offset="0.718" style="stop-color:#383838"/>
					<stop  offset="0.9042" style="stop-color:#101010"/>
					<stop  offset="1" style="stop-color:#000000"/>
				</linearGradient>
				<rect x="84.749" y="130.395" clip-path="url(#SVGID_29_)" fill="url(#SVGID_32_)" width="18.42" height="18.419"/>
			</g>
		</mask>
		
			<linearGradient id="SVGID_33_" gradientUnits="userSpaceOnUse" x1="1050.5635" y1="659.3828" x2="1051.5635" y2="659.3828" gradientTransform="matrix(0 -23.1784 -23.1784 0 15377.4121 24508.4531)">
			<stop  offset="0" style="stop-color:#000000"/>
			<stop  offset="1" style="stop-color:#000000"/>
		</linearGradient>
		
			<rect x="84.749" y="130.395" clip-path="url(#SVGID_29_)" mask="url(#SVGID_30_)" fill="url(#SVGID_33_)" width="18.42" height="18.419"/>
	</g>
	<g>
		<defs>
			<rect id="SVGID_36_" x="84.749" y="167.234" width="18.42" height="18.42"/>
		</defs>
		<clipPath id="SVGID_34_">
			<use xlink:href="#SVGID_36_"  overflow="visible"/>
		</clipPath>
		<defs>
			<filter id="Adobe_OpacityMaskFilter_5_" filterUnits="userSpaceOnUse" x="84.749" y="167.234" width="18.42" height="18.42">
				<feColorMatrix  type="matrix" values="1 0 0 0 0  0 1 0 0 0  0 0 1 0 0  0 0 0 1 0"/>
			</filter>
		</defs>
		<mask maskUnits="userSpaceOnUse" x="84.749" y="167.234" width="18.42" height="18.42" id="SVGID_35_">
			<g filter="url(#Adobe_OpacityMaskFilter_5_)">
				
					<linearGradient id="SVGID_37_" gradientUnits="userSpaceOnUse" x1="1047.5239" y1="543.9727" x2="1048.5245" y2="543.9727" gradientTransform="matrix(0 24.5671 24.5671 0 -13269.8926 -25578.1016)">
					<stop  offset="0" style="stop-color:#FFFFFF"/>
					<stop  offset="0.1434" style="stop-color:#D4D4D4"/>
					<stop  offset="0.46" style="stop-color:#7A7A7A"/>
					<stop  offset="0.718" style="stop-color:#383838"/>
					<stop  offset="0.9042" style="stop-color:#101010"/>
					<stop  offset="1" style="stop-color:#000000"/>
				</linearGradient>
				<rect x="84.749" y="167.234" clip-path="url(#SVGID_34_)" fill="url(#SVGID_37_)" width="18.42" height="18.42"/>
			</g>
		</mask>
		
			<linearGradient id="SVGID_38_" gradientUnits="userSpaceOnUse" x1="1047.5239" y1="543.9727" x2="1048.5245" y2="543.9727" gradientTransform="matrix(0 24.5671 24.5671 0 -13269.8916 -25578.0957)">
			<stop  offset="0" style="stop-color:#000000"/>
			<stop  offset="1" style="stop-color:#000000"/>
		</linearGradient>
		
			<rect x="84.749" y="167.234" clip-path="url(#SVGID_34_)" mask="url(#SVGID_35_)" fill="url(#SVGID_38_)" width="18.42" height="18.42"/>
	</g>
	<g>
		<defs>
			<rect id="SVGID_41_" x="157.509" y="148.813" width="18.42" height="18.42"/>
		</defs>
		<clipPath id="SVGID_39_">
			<use xlink:href="#SVGID_41_"  overflow="visible"/>
		</clipPath>
		<defs>
			<filter id="Adobe_OpacityMaskFilter_6_" filterUnits="userSpaceOnUse" x="157.509" y="148.813" width="18.42" height="18.42">
				<feColorMatrix  type="matrix" values="1 0 0 0 0  0 1 0 0 0  0 0 1 0 0  0 0 0 1 0"/>
			</filter>
		</defs>
		<mask maskUnits="userSpaceOnUse" x="157.509" y="148.813" width="18.42" height="18.42" id="SVGID_40_">
			<g filter="url(#Adobe_OpacityMaskFilter_6_)">
				
					<linearGradient id="SVGID_42_" gradientUnits="userSpaceOnUse" x1="995.8618" y1="601.3984" x2="996.8625" y2="601.3984" gradientTransform="matrix(25.9031 0 0 -25.9031 -25648.8457 15736.0947)">
					<stop  offset="0" style="stop-color:#FFFFFF"/>
					<stop  offset="0.1434" style="stop-color:#D4D4D4"/>
					<stop  offset="0.46" style="stop-color:#7A7A7A"/>
					<stop  offset="0.718" style="stop-color:#383838"/>
					<stop  offset="0.9042" style="stop-color:#101010"/>
					<stop  offset="1" style="stop-color:#000000"/>
				</linearGradient>
				<rect x="157.509" y="148.813" clip-path="url(#SVGID_39_)" fill="url(#SVGID_42_)" width="18.42" height="18.42"/>
			</g>
		</mask>
		
			<linearGradient id="SVGID_43_" gradientUnits="userSpaceOnUse" x1="995.8618" y1="601.3984" x2="996.8625" y2="601.3984" gradientTransform="matrix(25.9031 0 0 -25.9031 -25648.8457 15736.0947)">
			<stop  offset="0" style="stop-color:#000000"/>
			<stop  offset="1" style="stop-color:#000000"/>
		</linearGradient>
		
			<rect x="157.509" y="148.813" clip-path="url(#SVGID_39_)" mask="url(#SVGID_40_)" fill="url(#SVGID_43_)" width="18.42" height="18.42"/>
	</g>
	<g>
		<defs>
			<rect id="SVGID_46_" x="120.668" y="148.813" width="18.421" height="18.42"/>
		</defs>
		<clipPath id="SVGID_44_">
			<use xlink:href="#SVGID_46_"  overflow="visible"/>
		</clipPath>
		<defs>
			<filter id="Adobe_OpacityMaskFilter_7_" filterUnits="userSpaceOnUse" x="120.668" y="148.813" width="18.421" height="18.42">
				<feColorMatrix  type="matrix" values="1 0 0 0 0  0 1 0 0 0  0 0 1 0 0  0 0 0 1 0"/>
			</filter>
		</defs>
		<mask maskUnits="userSpaceOnUse" x="120.668" y="148.813" width="18.421" height="18.42" id="SVGID_45_">
			<g filter="url(#Adobe_OpacityMaskFilter_7_)">
				
					<linearGradient id="SVGID_47_" gradientUnits="userSpaceOnUse" x1="1105.3916" y1="598.5156" x2="1106.3916" y2="598.5156" gradientTransform="matrix(-24.4083 0 0 24.4083 27130.2031 -14450.707)">
					<stop  offset="0" style="stop-color:#FFFFFF"/>
					<stop  offset="0.1434" style="stop-color:#D4D4D4"/>
					<stop  offset="0.46" style="stop-color:#7A7A7A"/>
					<stop  offset="0.718" style="stop-color:#383838"/>
					<stop  offset="0.9042" style="stop-color:#101010"/>
					<stop  offset="1" style="stop-color:#000000"/>
				</linearGradient>
				<rect x="120.668" y="148.813" clip-path="url(#SVGID_44_)" fill="url(#SVGID_47_)" width="18.421" height="18.42"/>
			</g>
		</mask>
		
			<linearGradient id="SVGID_48_" gradientUnits="userSpaceOnUse" x1="1105.3916" y1="598.5156" x2="1106.3916" y2="598.5156" gradientTransform="matrix(-24.4083 0 0 24.4083 27130.2031 -14450.707)">
			<stop  offset="0" style="stop-color:#000000"/>
			<stop  offset="1" style="stop-color:#000000"/>
		</linearGradient>
		
			<rect x="120.668" y="148.813" clip-path="url(#SVGID_44_)" mask="url(#SVGID_45_)" fill="url(#SVGID_48_)" width="18.421" height="18.42"/>
	</g>
</g>
</svg>
