<svg width="48" height="34" viewBox="0 0 48 34" fill="none" xmlns="http://www.w3.org/2000/svg">
<path d="M37.972 12.6693C37.8753 11.6242 37.9492 8.78311 40.6709 4.83241C40.8768 4.53428 40.8394 4.13221 40.5838 3.87661C39.4741 2.76698 38.7871 2.06678 38.3053 1.57681C37.6717 0.930758 37.3824 0.636383 36.959 0.252534C36.6763 -0.00156669 36.2486 -0.00599134 35.9629 0.243084C31.219 4.37101 25.95 12.9008 26.7124 23.351C27.1592 29.4872 31.6351 33.941 37.3546 33.941C43.2241 33.941 47.9995 29.1664 47.9995 23.2967C47.9995 17.6344 43.5553 12.9908 37.972 12.6693ZM37.3546 32.441C32.4429 32.441 28.597 28.5724 28.2081 23.2426C28.2081 23.2426 28.2081 23.2426 28.2081 23.2418C27.3504 11.4887 34.3369 3.85463 36.4478 1.83316C36.6536 2.03603 36.8887 2.27476 37.2352 2.62778C37.6526 3.05258 38.224 3.63413 39.0882 4.50136C35.7842 9.59168 36.4075 13.2186 36.6807 13.7387C36.8104 13.9855 37.0762 14.1518 37.3546 14.1518C42.3973 14.1518 46.4995 18.254 46.4995 23.2967C46.4995 28.3388 42.3973 32.441 37.3546 32.441Z" fill="#C9B38C"/>
<path d="M11.3352 12.6696C11.2378 11.6274 11.3096 8.78851 14.0342 4.83271C14.2393 4.53458 14.2026 4.13251 13.947 3.87691C12.8396 2.76946 12.1533 2.07001 11.6721 1.58003C11.0364 0.932559 10.7463 0.63736 10.323 0.252835C10.0403 -0.00126561 9.61257 -0.00494064 9.32697 0.242634C4.58307 4.37056 -0.686728 12.8989 0.074222 23.3513V23.352C0.522497 29.4875 4.99902 33.9413 10.7185 33.9413C16.5882 33.9413 21.3636 29.1667 21.3636 23.297C21.3636 17.634 16.9192 12.9897 11.3352 12.6696ZM10.7185 32.4413C5.80767 32.4413 1.9595 28.5727 1.56987 23.2421V23.2429C0.714422 11.4868 7.70097 3.85418 9.81177 1.83346C10.0183 2.03633 10.2542 2.27656 10.6014 2.63033C11.0181 3.05513 11.5887 3.63593 12.4515 4.50166C9.1475 9.59273 9.77082 13.2189 10.044 13.7382C10.1736 13.985 10.4402 14.1521 10.7185 14.1521C15.7613 14.1521 19.8636 18.2543 19.8636 23.297C19.8636 28.3391 15.7613 32.4413 10.7185 32.4413Z" fill="#C9B38C"/>
</svg>
