<svg height="496pt" viewBox="-80 0 496 496" width="496pt" xmlns="http://www.w3.org/2000/svg"><path d="m328 432c4.414062 0 8-3.585938 8-8v-416c0-4.414062-3.585938-8-8-8h-320c-4.414062 0-8 3.585938-8 8v448c0 22.054688 17.945312 40 40 40h296v-16h-16v-48zm-312-416h304v400h-280c-9 0-17.3125 2.992188-24 8.015625zm288 464h-264c-13.230469 0-24-10.769531-24-24s10.769531-24 24-24h264zm0 0"/><path d="m72 288h16c22.054688 0 40-17.945312 40-40 0-1.414062-.464844-2.671875-1.113281-3.832031l.105469-.054688-35.25-63.457031 68.257812-21.710938v113.054688h-8c-4.414062 0-8 3.585938-8 8v24h-32c-13.230469 0-24 10.769531-24 24v16c0 4.414062 3.585938 8 8 8h144c4.414062 0 8-3.585938 8-8v-16c0-13.230469-10.769531-24-24-24h-32v-24c0-4.414062-3.585938-8-8-8h-8v-118.152344l63.214844-20.113281-30.207032 54.378906.105469.054688c-.648437 1.160156-1.113281 2.417969-1.113281 3.832031 0 22.054688 17.945312 40 40 40h16c22.054688 0 40-17.945312 40-40 0-1.414062-.464844-2.671875-1.113281-3.832031l.105469-.054688-33.398438-60.113281h34.40625v-16h-48c-.824219 0-1.640625.128906-2.425781.375l-65.589844 20.871094c2.527344-3.796875 4.015625-8.351563 4.015625-13.246094 0-10.414062-6.710938-19.214844-16-22.527344v-17.472656h-16v17.472656c-9.289062 3.3125-16 12.113282-16 22.527344 0 10.191406 6.414062 18.871094 15.398438 22.335938l-80.636719 25.664062h-46.761719v16h34.40625l-33.398438 60.113281.105469.054688c-.648437 1.160156-1.113281 2.417969-1.113281 3.832031 0 22.054688 17.945312 40 40 40zm160 40v8h-128v-8c0-4.40625 3.59375-8 8-8h112c4.40625 0 8 3.59375 8 8zm-72-24v-16h16v16zm-72-32h-16c-10.433594 0-19.328125-6.6875-22.632812-16h61.257812c-3.296875 9.3125-12.191406 16-22.625 16zm-34.40625-32 26.40625-47.527344 26.40625 47.527344zm202.40625-103.527344 26.40625 47.527344h-52.804688zm8 79.527344h-16c-10.433594 0-19.328125-6.6875-22.632812-16h61.257812c-3.296875 9.3125-12.191406 16-22.625 16zm-96-104c4.40625 0 8 3.59375 8 8s-3.59375 8-8 8-8-3.59375-8-8 3.59375-8 8-8zm0 0"/><path d="m288 384h16v16h-16zm0 0"/><path d="m256 384h16v16h-16zm0 0"/><path d="m224 384h16v16h-16zm0 0"/><path d="m192 384h16v16h-16zm0 0"/><path d="m160 384h16v16h-16zm0 0"/><path d="m128 384h16v16h-16zm0 0"/><path d="m96 384h16v16h-16zm0 0"/><path d="m64 384h16v16h-16zm0 0"/><path d="m32 384h16v16h-16zm0 0"/><path d="m288 32h16v16h-16zm0 0"/><path d="m256 32h16v16h-16zm0 0"/><path d="m224 32h16v16h-16zm0 0"/><path d="m192 32h16v16h-16zm0 0"/><path d="m160 32h16v16h-16zm0 0"/><path d="m128 32h16v16h-16zm0 0"/><path d="m96 32h16v16h-16zm0 0"/><path d="m64 32h16v16h-16zm0 0"/><path d="m32 32h16v16h-16zm0 0"/></svg>