<svg height="421.144pt" viewBox="0 0 421.144 421.144" width="421.144pt" xmlns="http://www.w3.org/2000/svg"><path d="m210.570312 421.144531c116.113282 0 210.574219-94.460937 210.574219-210.574219 0-116.109374-94.460937-210.570312-210.574219-210.570312-116.109374 0-210.570312 94.460938-210.570312 210.570312 0 116.113282 94.460938 210.574219 210.570312 210.574219zm0-405.144531c107.289063 0 194.574219 87.285156 194.574219 194.570312 0 107.289063-87.285156 194.574219-194.574219 194.574219-107.285156 0-194.570312-87.285156-194.570312-194.574219 0-107.285156 87.285156-194.570312 194.570312-194.570312zm0 0"/><path d="m202.570312 241.40625v77.164062c0 4.421876 3.582032 8 8 8 4.421876 0 8-3.578124 8-8v-77.164062c22.253907-4.132812 37.691407-24.539062 35.617188-47.078125s-20.980469-39.785156-43.617188-39.785156c-22.632812 0-41.539062 17.246093-43.613281 39.785156-2.078125 22.539063 13.363281 42.945313 35.613281 47.078125zm8-70.855469c15.355469 0 27.800782 12.445313 27.800782 27.796875 0 15.355469-12.445313 27.800782-27.800782 27.800782-15.351562 0-27.796874-12.445313-27.796874-27.800782.015624-15.34375 12.453124-27.78125 27.796874-27.796875zm0 0"/></svg>