<svg height="495pt" viewBox="0 0 495.98295 495" width="495pt" xmlns="http://www.w3.org/2000/svg"><path d="m495.28125 309 .023438-.007812-61.058594-137.367188c12.847656-6.664062 21.746094-19.945312 21.746094-35.382812 0-22.058594-17.945313-40-40-40h-91.058594l-13.789063-27.578126c-1.351562-2.710937-4.121093-4.421874-7.152343-4.421874h-11.570313l-37.644531-60.242188c-2.921875-4.679688-10.640625-4.679688-13.5625 0l-37.65625 60.242188h-11.566406c-3.03125 0-5.800782 1.710937-7.160157 4.421874l-13.785156 27.578126h-91.054687c-22.058594 0-40 17.941406-40 40 0 15.4375 8.894531 28.71875 21.742187 35.382812l-61.054687 137.367188.023437.007812c-.8007812 1.808594-.945313 3.859375-.296875 5.769531l16 48c1.089844 3.273438 4.136719 5.472657 7.585938 5.472657h112c3.449218 0 6.496093-2.199219 7.582031-5.472657l16-48c.640625-1.910156.503906-3.960937-.292969-5.769531l.023438-.007812-61.023438-137.3125c10.574219-5.476563 18.460938-15.445313 20.910156-27.4375h88.800782v24c0 2.121093.839843 4.160156 2.34375 5.65625l13.65625 13.65625v196.6875h-32c-3.03125 0-5.800782 1.710937-7.160157 4.421874l-16 32c-1.242187 2.480469-1.113281 5.425782.351563 7.785157 1.464844 2.351562 4.03125 3.792969 6.808594 3.792969h8v16h-104c-3.03125 0-5.800782 1.710937-7.160157 4.421874l-16 32c-1.242187 2.480469-1.113281 5.425782.351563 7.785157 1.464844 2.351562 4.03125 3.792969 6.808594 3.792969h368c2.773437 0 5.34375-1.441407 6.808593-3.792969 1.460938-2.359375 1.589844-5.304688.351563-7.785157l-16-32c-1.359375-2.710937-4.128906-4.421874-7.160156-4.421874h-104v-16h8c2.773437 0 5.34375-1.441407 6.808593-3.792969 1.460938-2.359375 1.589844-5.304688.351563-7.785157l-16-32c-1.359375-2.710937-4.128906-4.421874-7.160156-4.421874h-32v-196.6875l13.65625-13.65625c1.503906-1.496094 2.34375-3.535157 2.34375-5.65625v-24h88.808593c2.445313 12 10.335938 21.960937 20.910157 27.4375l-61.023438 137.304687.023438.007813c-.800782 1.808593-.945313 3.855468-.296876 5.769531l16 48c1.082032 3.28125 4.128907 5.480469 7.578126 5.480469h112c3.449218 0 6.496093-2.199219 7.582031-5.472657l16-48c.648437-1.910156.503906-3.960937-.292969-5.769531zm-87.289062-4.757812h-51.6875l51.6875-116.296876zm16-116.296876 51.6875 116.296876h-51.6875zm-176-164.609374 25.566406 40.90625h-51.136719zm-51.058594 56.90625h102.113281l8 16h-118.113281zm-124.941406 224h-51.6875l51.6875-116.296876zm16-116.296876 51.6875 116.296876h-51.6875zm42.230468 164.296876h-100.464844l-10.664062-32h121.800781zm288.824219 128h-342.113281l8-16h326.113281zm-123.054687-32h-96v-16h96zm11.054687-32h-118.113281l8-16h102.113281zm-35.054687-251.3125-13.65625 13.65625c-1.503907 1.496093-2.34375 3.535156-2.34375 5.65625v200h-16v-200c0-2.121094-.839844-4.160157-2.34375-5.65625l-13.65625-13.65625v-20.6875h48zm112-36.6875h-272c-4.425782 0-8 3.582031-8 8 0 13.230468-10.769532 24-24 24-13.234376 0-24-10.769532-24-24 0-13.234376 10.765624-24 24-24h336c13.230468 0 24 10.765624 24 24 0 13.230468-10.769532 24-24 24-13.234376 0-24-10.769532-24-24 0-4.417969-3.578126-8-8-8zm82.230468 224h-100.464844l-10.664062-32h121.800781zm0 0"/></svg>