<svg height="500pt" viewBox="0 -7 500 499" width="500pt" xmlns="http://www.w3.org/2000/svg"><path d="m482.617188 333.828125-41.566407-54.058594 18.171875-84.148437c.644532-2.988282-.46875-6.078125-2.867187-7.96875-2.398438-1.894532-5.664063-2.253906-8.417969-.933594l-55.40625 26.59375c-5.140625 2.484375-11.132812 2.484375-16.269531 0l-55.40625-26.59375c-2.742188-1.316406-5.996094-.964844-8.394531.90625-2.398438 1.875-3.523438 4.945312-2.90625 7.925781l17.417968 84.214844-35.722656 46.933594c-.902344-.027344-1.792969-.199219-2.738281-.199219h-42.511719v-22.640625c5.691406-3.808594 10.925781-8.257813 15.601562-13.257813 20.71875-21.058593 32.351563-49.402343 32.398438-78.941406v-57.160156c4.417969 0 8-3.582031 8-8v-35c0-3.152344-1.851562-6.011719-4.726562-7.300781-.144532-2.375-.359376-4.652344-.648438-7-6.78125-55.175781-54.359375-96.699219-110.671875-96.699219h-5c-28.972656-.09375-56.847656 11.078125-77.738281 31.152344-19.859375 18.859375-31.875 44.515625-33.648438 71.847656h-5.566406c-4.417969 0-8 3.582031-8 8v35c0 4.417969 3.582031 8 8 8h9v57.160156c0 .574219.046875 1.148438.054688 1.722656-.121094.90625-.085938 1.824219.097656 2.714844 1.003906 27.9375 12.382812 54.5 31.914062 74.503906 4.664063 4.703126 9.652344 9.070313 14.933594 13.066407v22.832031h-41.699219c-42.957031 0-78.300781 35.269531-78.300781 78.222656v51.796875c0 4.417969 3.976562 7.980469 8.398438 7.980469h283.125c13.449218 12.984375 31.460937 20.167969 50.152343 20h85.441407c26.125.019531 50.238281-14.023438 63.117187-36.753906.011719-.019532.222656.007812.234375-.011719 6.171875-10.832031 9.457031-23.066406 9.53125-35.535156v-22.109375c-.054688-19.832032-5.90625-39.21875-16.832031-55.769532-.109375-.167968-.425781-.332031-.550781-.492187zm-113.28125-106.089844c9.515624 4.59375 20.605468 4.59375 30.121093 0l40.675781-19.523437-13.992187 64.796875-84.28125-.289063-13.359375-64.585937zm-255.042969-184.539062c17.914062-17.207031 41.816406-26.78125 66.660156-26.699219h5c48.242187 0 89 35.480469 94.792969 82.65625.179687 1.472656.316406 2.859375.429687 4.34375h-195.574219c1.761719-22.960938 11.984376-44.449219 28.691407-60.300781zm-42.292969 95.300781v-19h214v19zm17 16h189v52h-62.601562l-28.234376-15.058594c-2.351562-1.253906-5.175781-1.253906-7.527343 0l-28.238281 15.058594h-62.398438zm27.769531 124.941406c-15.128906-15.425781-24.664062-35.46875-27.09375-56.941406h63.722657c1.3125 0 2.605468-.324219 3.765624-.941406l26.234376-13.992188 26.238281 13.992188c1.15625.617187 2.449219.941406 3.761719.941406h63.730468c-2.425781 21.472656-11.964844 41.515625-27.09375 56.941406-17.929687 18.414063-41.59375 28.558594-66.636718 28.558594-25.039063 0-48.699219-10.144531-66.628907-28.558594zm113.230469 33.902344v17.035156l-13.328125 8.320313c-21.230469 13.105469-48.105469 12.8125-69.042969-.75l-11.628906-7.453125v-17.28125c14.710938 7.0625 30.816406 10.746094 47.136719 10.78125 16.230469.066406 32.257812-3.578125 46.863281-10.652344zm-214 135.15625v-34h253.226562c.328126 11.667969 3.511719 23.078125 9.269532 33.230469.011718.011719.019531.023437.027344.039062.140624.25.289062.730469.429687.730469zm253-58.765625v8.765625h-252.292969c3.125-31 29.554688-56 61.589844-56h47.792969l13.039062 8.679688c26.089844 16.925781 59.609375 17.261718 86.027344.859374l15.191406-9.539062h40.308594c-7.515625 15-11.65625 30.820312-11.65625 47.234375zm215 22.464844c-.074219 9.710937-2.636719 19.238281-7.441406 27.675781-.011719.019531-.121094-.058594-.128906-.039062-10.074219 17.738281-28.914063 28.6875-49.3125 28.664062h-85.441407c-20.359375.023438-39.152343-10.914062-49.191406-28.625-.007813-.015625-.109375.019531-.117187 0-4.792969-8.4375-7.328126-17.96875-7.367188-27.675781v-22.464844c.023438-16.402344 4.753906-32.453125 13.628906-46.25l41.589844-54.761719 87.742188.300782 41.972656 54.308593c9.117187 13.894531 14.003906 30.140625 14.066406 46.757813zm0 0"/><path d="m422.972656 333.019531c-3.363281-2.867187-8.410156-2.460937-11.277344.898438l-27.300781 32.023437-27.296875-32.023437c-2.875-3.339844-7.90625-3.730469-11.257812-.871094-3.351563 2.859375-3.761719 7.890625-.917969 11.253906l31.453125 36.890625-.042969 7.308594h-18.332031c-4.417969 0-8 3.582031-8 8s3.582031 8 8 8h18.242188l-.035157 6h-18.207031c-4.417969 0-8 3.582031-8 8s3.582031 8 8 8h18.113281l-.03125 6c-.015625 2.117188.816407 4.15625 2.308594 5.65625 1.496094 1.503906 3.527344 2.347656 5.644531 2.34375h.046875c4.40625-.015625 7.976563-3.578125 8-7.988281l.035157-6.011719h17.882812c4.417969 0 8-3.582031 8-8s-3.582031-8-8-8h-17.792969l.035157-6h17.757812c4.417969 0 8-3.582031 8-8s-3.582031-8-8-8h-17.664062l.039062-7.261719 31.5-36.941406c2.867188-3.363281 2.460938-8.414063-.902344-11.277344zm0 0"/><path d="m164.785156 180.0625c0-12.335938-11.976562-22-27.273437-22-15.292969 0-27.273438 9.660156-27.273438 22 0 12.335938 11.980469 22 27.273438 22 15.296875 0 27.273437-9.660156 27.273437-22zm-27.273437 6c-6.878907 0-11.273438-3.554688-11.273438-6 0-2.449219 4.394531-6 11.273438-6 6.882812 0 11.273437 3.550781 11.273437 6 0 2.445312-4.386718 5.996094-11.273437 5.996094zm0 0"/><path d="m229.292969 202.058594c15.296875 0 27.273437-9.664063 27.273437-22 0-12.339844-11.976562-22-27.273437-22-15.292969 0-27.273438 9.660156-27.273438 22 0 12.335937 11.980469 22 27.273438 22zm0-27.996094c6.882812 0 11.273437 3.554688 11.273437 6 0 2.449219-4.390625 6-11.273437 6-6.882813 0-11.273438-3.550781-11.273438-6 0-2.445312 4.394531-6 11.273438-6zm0 0"/></svg>