<?xml version="1.0" encoding="iso-8859-1"?>
<!-- Generator: Adobe Illustrator 19.0.0, SVG Export Plug-In . SVG Version: 6.00 Build 0)  -->
<svg version="1.1" id="Capa_1" xmlns="http://www.w3.org/2000/svg" xmlns:xlink="http://www.w3.org/1999/xlink" x="0px" y="0px"
	 viewBox="0 0 463 463" style="enable-background:new 0 0 463 463;" xml:space="preserve">
<g>
	<path d="M399.5,0h-336C59.358,0,56,3.357,56,7.5v416c0,21.78,17.72,39.5,39.5,39.5h272c21.78,0,39.5-17.72,39.5-39.5V7.5
		C407,3.357,403.642,0,399.5,0z M392,423.5c0,13.51-10.991,24.5-24.5,24.5h-272C81.991,448,71,437.01,71,423.5V15h321V423.5z"/>
	<path d="M127.98,163.274L200,180.979v46.614c-22.761,16.365-32.663,34.361-36.906,53.851c-0.535,0.389-1.028,0.843-1.45,1.37
		l-32,40c-1.064,1.33-1.644,2.982-1.644,4.686v80c0,8.547,6.953,15.5,15.5,15.5h48c8.547,0,15.5-6.953,15.5-15.5v-80
		c0-1.703-0.58-3.355-1.644-4.686l-28.223-35.279c2.761-14.979,8.998-28.293,22.867-40.752v0.716c0,17.369,14.131,31.5,31.5,31.5
		H264v104.5c0,12.958,10.542,23.5,23.5,23.5h0.5v8.5c0,8.547,6.953,15.5,15.5,15.5h24c8.547,0,15.5-6.953,15.5-15.5v-14.358
		c4.899-4.31,8-10.619,8-17.642v-280c0-2.995-1.782-5.703-4.533-6.889L288.99,71.858C282.823,68.694,279,62.445,279,55.5
		c0-4.143-3.358-7.5-7.5-7.5s-7.5,3.357-7.5,7.5v16.032c0,5.414-2.447,10.43-6.714,13.762c-4.268,3.332-9.726,4.49-14.98,3.176
		L123.26,58.709c-4.661-1.163-9.509-0.138-13.298,2.819C106.173,64.486,104,68.939,104,73.746v58.939
		C104,147.226,113.861,159.805,127.98,163.274z M192,330.131V407.5c0,0.275-0.224,0.5-0.5,0.5h-48c-0.276,0-0.5-0.225-0.5-0.5
		v-77.369l17.143-21.428c-0.104,3.558-0.143,7.156-0.143,10.798c0,4.143,3.358,7.5,7.5,7.5s7.5-3.357,7.5-7.5
		c0-3.576,0.034-7.056,0.13-10.456L192,330.131z M231.5,264c-9.098,0-16.5-7.402-16.5-16.5v-15.995c0-0.008,0-0.017,0-0.025v-46.813
		l43.176,10.614c-19.226,7.275-31.884,22.73-32.515,23.511c-2.6,3.225-2.094,7.946,1.13,10.546c1.387,1.119,3.05,1.662,4.704,1.662
		c2.19,0,4.361-0.954,5.843-2.792c0.126-0.156,10.971-13.407,26.662-19.104V264H231.5z M328,415.5c0,0.275-0.224,0.5-0.5,0.5h-24
		c-0.276,0-0.5-0.225-0.5-0.5V407h24.5c0.168,0,0.333-0.009,0.5-0.013V415.5z M282.458,85.363c0.127,0.064,0.256,0.124,0.387,0.181
		L336,108.436v12.34l-37.533-16.164c-3.804-1.637-8.217,0.118-9.855,3.922c-1.639,3.805,0.117,8.217,3.921,9.855L336,137.108v15.667
		l-37.533-16.164c-3.804-1.637-8.217,0.117-9.855,3.922c-1.639,3.805,0.117,8.217,3.921,9.855L336,169.108v15.667l-37.533-16.164
		c-3.804-1.636-8.217,0.118-9.855,3.922c-1.639,3.805,0.117,8.217,3.921,9.855L336,201.108v15.667l-37.533-16.164
		c-3.804-1.637-8.217,0.118-9.855,3.922c-1.639,3.805,0.117,8.217,3.921,9.855L336,233.108V383.5c0,4.687-3.813,8.5-8.5,8.5h-40
		c-4.687,0-8.5-3.813-8.5-8.5V83.375C280.102,84.099,281.256,84.763,282.458,85.363z M119,73.746c0-0.073,0-0.244,0.192-0.394
		c0.192-0.15,0.357-0.11,0.429-0.091l119.046,29.761c8.762,2.191,17.83,0.672,25.333-4.136v82.38l-132.439-32.558
		c-7.396-1.817-12.561-8.406-12.561-16.022V73.746z"/>
</g>
<g>
</g>
<g>
</g>
<g>
</g>
<g>
</g>
<g>
</g>
<g>
</g>
<g>
</g>
<g>
</g>
<g>
</g>
<g>
</g>
<g>
</g>
<g>
</g>
<g>
</g>
<g>
</g>
<g>
</g>
</svg>
