<svg height="466pt" viewBox="-12 0 466 466.001" width="466pt" xmlns="http://www.w3.org/2000/svg"><path d="m228.003906 252.9375c-24.058594 0-43.558594 19.5-43.558594 43.554688 0 24.058593 19.5 43.558593 43.558594 43.558593 24.054688 0 43.554688-19.5 43.554688-43.558593-.027344-24.042969-19.511719-43.527344-43.554688-43.554688zm0 71.113281c-15.222656 0-27.558594-12.339843-27.558594-27.558593s12.339844-27.554688 27.558594-27.554688 27.554688 12.335938 27.554688 27.554688c-.015625 15.214843-12.34375 27.539062-27.554688 27.558593zm0 0"/><path d="m187.839844 464.976562c2.480468 1.414063 5.535156 1.359376 7.960937-.144531l32.261719-19.710937 32.292969 19.710937c1.25.765625 2.6875 1.167969 4.152343 1.167969 1.292969 0 2.558594-.355469 3.664063-1.023438 2.460937-1.445312 3.929687-4.125 3.832031-6.976562v-36h117.292969c29.0625 0 52.707031-24.253906 52.707031-54.425781v-359.574219c0-4.417969-3.582031-8-8-8h-325.414062c-4.417969 0-7.585938 3.578125-7.585938 8v243h-93c-4.480468.152344-8.0273435 3.839844-7.99999975 8.320312v102.414063c-.11718725 15.859375 5.94140575 31.140625 16.88671875 42.613281 10.777344 11.34375 25.761719 17.730469 41.40625 17.652344h125.707031v36c-.101562 2.855469 1.375 5.53125 3.835938 6.976562zm68.164062-21.222656-24.082031-14.832031c-2.425781-1.558594-5.539063-1.558594-7.960937 0l-23.957032 14.832031v-78.953125l10.09375-.570312 13.625 9.066406c1.28125.859375 2.792969 1.320313 4.339844 1.320313 1.554688 0 3.078125-.460938 4.375-1.320313l13.488281-9.066406 10.078125.570312zm12.042969-110.753906c-1.527344.769531-2.765625 2.007812-3.535156 3.535156l-6.230469 12.335938-13.886719-.765625c-1.714843-.097657-3.410156.363281-4.84375 1.308593l-11.546875 7.617188-11.550781-7.613281c-1.304687-.863281-2.835937-1.320313-4.398437-1.320313-.148438 0-.292969 0-.441407.011719l-13.886719.761719-6.230468-12.335938c-.769532-1.523437-2.011719-2.765625-3.535156-3.535156l-12.335938-6.230469.761719-13.886719c.09375-1.714843-.363281-3.410156-1.308594-4.84375l-7.613281-11.546874 7.613281-11.550782c.945313-1.429687 1.402344-3.128906 1.308594-4.84375l-.761719-13.882812 12.335938-6.234375c1.523437-.769531 2.761718-2.007813 3.53125-3.53125l6.230468-12.335938 13.886719.761719c1.714844.097656 3.410156-.363281 4.84375-1.308594l11.550781-7.609375 11.546875 7.613281c1.433594.945313 3.128907 1.402344 4.84375 1.308594l13.886719-.765625 6.230469 12.335938c.769531 1.527343 2.007812 2.765625 3.535156 3.535156l12.335937 6.230469-.765624 13.886718c-.09375 1.714844.363281 3.410157 1.308593 4.84375l7.613281 11.546876-7.613281 11.550781c-.945312 1.429687-1.402343 3.128906-1.308593 4.84375l.765624 13.882812zm-209.644531 73.292969c-11.324219.007812-22.15625-4.644531-29.949219-12.859375-8.09375-8.558594-12.558594-19.917969-12.449219-31.699219v-94.734375h85v94.734375c.03125 11.804687-4.503906 23.164063-12.65625 31.699219-7.792968 8.21875-18.621094 12.867187-29.945312 12.859375zm39.492187-.292969c.609375 0 1.421875-1.035156 2.011719-1.652344 11.007812-11.453125 17.136719-26.730468 17.097656-42.613281v-345.734375h309v351.574219c0 21.351562-16.46875 38.425781-36.707031 38.425781h-117.292969v-49.777344l5.359375-10.125 14.777344-7.398437c2.851563-1.425781 4.59375-4.398438 4.441406-7.582031l-.875-16.46875 9.078125-13.746094c1.765625-2.671875 1.769532-6.136719.007813-8.808594l-9.058594-13.746094.90625-16.46875c.175781-3.175781-1.542969-6.148437-4.378906-7.582031l-14.65625-7.398437-7.398438-14.660157c-1.433593-2.835937-4.40625-4.554687-7.578125-4.378906l-16.472656.90625-13.753906-9.070313c-2.671875-1.761718-6.136719-1.761718-8.808594 0l-13.746094 9.0625-16.46875-.90625c-3.175781-.175781-6.148437 1.542969-7.582031 4.378907l-7.398437 14.660156-14.660157 7.398437c-2.835937 1.433594-4.554687 4.40625-4.378906 7.578126l.90625 16.472656-9.0625 13.75c-1.761719 2.671875-1.761719 6.136718 0 8.808594l9.0625 13.746093-.90625 16.46875c-.175781 3.171875 1.542969 6.148438 4.378906 7.582031l14.902344 7.398438 5.363281 10.128906v49.777344zm0 0"/><path d="m156.003906 110h220c4.417969 0 8-3.582031 8-8s-3.582031-8-8-8h-220c-4.421875 0-8 3.582031-8 8s3.578125 8 8 8zm0 0"/><path d="m156.003906 146h220c4.417969 0 8-3.582031 8-8s-3.582031-8-8-8h-220c-4.421875 0-8 3.582031-8 8s3.578125 8 8 8zm0 0"/><path d="m156.003906 183h146c4.417969 0 8-3.582031 8-8s-3.582031-8-8-8h-146c-4.421875 0-8 3.582031-8 8s3.578125 8 8 8zm0 0"/></svg>