<svg id="Layer_5" enable-background="new 0 0 64 64" height="512" viewBox="0 0 64 64" width="512" xmlns="http://www.w3.org/2000/svg"><g><path d="m60 43h-10.026c-.914-1.207-2.348-2-3.974-2s-3.061.793-3.974 2h-6.25c-2.476-4.196-6.755-7.073-11.599-7.719l-1.177-.157v-2.124h3c2.757 0 5-2.243 5-5v-2.382l.216-.107c1.1-.552 1.784-1.657 1.784-2.888 0-.605-.177-1.192-.513-1.696l-1.487-2.23v-1.697c0-.712-.2-1.39-.548-1.992.959-1.063 1.548-2.466 1.548-4.008 0-3.309-2.691-6-6-6h-3.333c-3.115 0-6.012.924-8.454 2.498-.938-.356-1.919-.547-2.931-.547-4.567-.001-8.282 3.714-8.282 8.28v8.204c0 .792-.232 1.561-.672 2.22l-.323.485c-.657.985-1.005 2.132-1.005 3.319 0 1.873.895 3.662 2.393 4.785l.807.606c.501.376.8.974.8 1.6s-.299 1.224-.798 1.599l-1.251.938c-1.222.916-1.951 2.375-1.951 3.964 0 1.508.699 2.945 1.869 3.888-.561 1.739-.869 3.587-.869 5.503v10.658h35.469.531 16.531c2.472 0 4.6-1.846 4.95-4.293l1.408-9.857c1.218-.381 2.111-1.507 2.111-2.85 0-1.654-1.346-3-3-3zm-9.364 4.849 4.164 5.552c.163.217.228.473.19.74-.039.269-.174.496-.389.658-.432.322-1.082.228-1.402-.201l-3.748-4.997c.512-.489.918-1.084 1.185-1.752zm-4.636-4.849c1.654 0 3 1.346 3 3s-1.346 3-3 3-3-1.346-3-3 1.346-3 3-3zm-14 4c-.551 0-1-.448-1-1s.449-1 1-1h9.001l-1.5 2zm9.364.848c.267.668.673 1.263 1.184 1.753l-3.748 4.999c-.319.426-.974.521-1.399.201-.217-.163-.353-.391-.391-.659s.027-.523.19-.741zm-7.946-4.848h-1.418c-1.654 0-3 1.346-3 3 0 1.343.893 2.469 2.112 2.85l1.408 9.857c.123.859.474 1.636.973 2.293h-13.493v-7.699c3.234-4.628 5.225-10.027 5.759-15.65 3.083.851 5.799 2.741 7.659 5.349zm-25.418 3v7h-4v-.658c0-5.968 3.282-11.235 8.337-13.916.637 5.348 2.573 10.474 5.663 14.891v7.683h-8v-15zm11 5.195c-1.637-2.541-2.89-5.302-3.717-8.195h7.434c-.827 2.893-2.08 5.655-3.717 8.195zm12-28.572c0 .468-.26.889-.679 1.099l-1.321.66v3.618c0 1.654-1.346 3-3 3h-5v5.876l2.791.371-.009.094c-.112 1.234-.308 2.454-.567 3.658h-8.432c-.242-1.126-.423-2.267-.537-3.419.641-.238 1.296-.45 1.978-.607l.776-.177v-9.296l-3.066-2.3c-.585-.438-.934-1.137-.934-1.867 0-1.286 1.047-2.333 2.333-2.333h1.667v-4c0-1.103.897-2 2-2h.56c.694 1.19 1.967 2 3.437 2h3.003c1.035 0 2.01-.264 2.86-.727.09.229.14.474.14.727v2.303l1.823 2.733c.115.174.177.377.177.587zm-5-15.623c2.206 0 4 1.794 4 4s-1.794 4-4 4h-3.003c-1.101 0-1.997-.903-1.997-2.09 0-1.054.857-1.91 1.911-1.91h.089l-.089-2c-2.157 0-3.911 1.754-3.911 3.985 0 .005.001.01.001.015h-.001c-2.206 0-4 1.794-4 4v2.013c-2.234.171-4 2.043-4 4.32 0 1.356.648 2.652 1.733 3.467l2.267 1.7v3.5l-.533-.4c-3.424-2.568-5.467-6.655-5.467-10.933 0-7.536 6.131-13.667 13.667-13.667zm-23 35.89c0-.901.431-1.763 1.15-2.303l1.251-.938c1.001-.752 1.599-1.948 1.599-3.199 0-1.253-.598-2.449-1.6-3.2l-.807-.605c-.997-.749-1.593-1.939-1.593-3.186 0-.79.231-1.554.669-2.21l.323-.484c.659-.99 1.008-2.141 1.008-3.329v-8.204c0-3.464 2.818-6.281 6.281-6.281.316 0 .627.032.935.078-3.193 2.869-5.216 7.017-5.216 11.638 0 4.904 2.343 9.59 6.267 12.533l1.733 1.3v.723c-5.136 1.424-9.196 4.991-11.336 9.597-.421-.53-.664-1.201-.664-1.93zm1 12.11h4v6h-4zm53.501 3.424c-.187 1.311-1.226 2.328-2.501 2.533v-1.957h-2v2h-2v-4h-2v4h-2v-8h-2v8h-2v-4h-2v4h-2v-2h-2v1.957c-1.275-.205-2.314-1.222-2.501-2.533l-1.346-9.424h4.848l-2.4 3.2c-.482.641-.685 1.431-.571 2.225.113.793.529 1.494 1.171 1.977.524.391 1.145.598 1.798.598.941 0 1.839-.449 2.402-1.202l3.848-5.131c.547.206 1.133.333 1.751.333s1.204-.127 1.751-.333l3.847 5.13c.564.754 1.462 1.203 2.403 1.203.652 0 1.274-.207 1.799-.6.641-.481 1.056-1.183 1.169-1.976.114-.794-.089-1.584-.57-2.224l-2.401-3.2h4.849zm2.499-11.424h-7.502l-1.5-2h9.002c.551 0 1 .448 1 1s-.449 1-1 1z"/><path d="m48 18.855v2.145h2v-2.145c1.155-.366 2-1.435 2-2.709 0-1.087-.604-2.065-1.578-2.553l-1.95-.975c-.291-.145-.472-.438-.472-.764 0-.47.383-.854.854-.854h.292c.471 0 .854.384.854.854v1.146h2v-1.146c0-1.275-.845-2.344-2-2.709v-2.145h-2v2.145c-1.155.366-2 1.435-2 2.709 0 1.087.604 2.065 1.578 2.553l1.95.975c.291.145.472.438.472.764 0 .47-.383.854-.854.854h-.292c-.471 0-.854-.384-.854-.854v-1.146h-2v1.146c0 1.274.845 2.343 2 2.709z"/><path d="m36.444 21.053c.377 3.39 3.233 5.947 6.644 5.947h1.912v1.586c0 1.331 1.083 2.414 2.414 2.414.635 0 1.257-.258 1.707-.707l3.293-3.293h2.498c3.411 0 6.268-2.557 6.644-5.947l1.404-12.631c.026-.244.04-.491.04-.736 0-3.687-2.999-6.686-6.685-6.686h-14.63c-3.686 0-6.685 2.999-6.685 6.686 0 .245.014.492.041.737zm5.241-18.053h14.63c2.583 0 4.685 2.102 4.685 4.686 0 .173-.01.346-.028.517l-1.403 12.63c-.265 2.375-2.267 4.167-4.657 4.167h-3.326l-3.878 3.878c-.242.243-.708.046-.708-.292v-3.586h-3.912c-2.391 0-4.393-1.792-4.657-4.168l-1.402-12.629c-.019-.172-.029-.345-.029-.517 0-2.584 2.102-4.686 4.685-4.686z"/><path d="m41 36c0 1.654 1.346 3 3 3s3-1.346 3-3-1.346-3-3-3-3 1.346-3 3zm4 0c0 .552-.449 1-1 1s-1-.448-1-1 .449-1 1-1 1 .448 1 1z"/><path d="m52 33c-1.654 0-3 1.346-3 3s1.346 3 3 3 3-1.346 3-3-1.346-3-3-3zm0 4c-.551 0-1-.448-1-1s.449-1 1-1 1 .448 1 1-.449 1-1 1z"/><path d="m60 33c-1.654 0-3 1.346-3 3s1.346 3 3 3 3-1.346 3-3-1.346-3-3-3zm0 4c-.551 0-1-.448-1-1s.449-1 1-1 1 .448 1 1-.449 1-1 1z"/></g></svg>