<svg height="491pt" viewBox="-32 0 491 491.58975" width="491pt" xmlns="http://www.w3.org/2000/svg"><path d="m315.765625 145.953125c0 28.859375 22.140625 49.015625 53.835937 49.015625 31.890626 0 54.164063-20.15625 54.164063-49.015625 0-3.234375-1.945313-6.152344-4.933594-7.390625l-41.402343-110.988281c-.027344-.078125-.0625-.144531-.097657-.222657-.058593-.140624-.117187-.28125-.183593-.421874-.054688-.113282-.113282-.21875-.171876-.328126-.058593-.113281-.125-.238281-.199218-.351562-.074219-.117188-.140625-.226562-.214844-.335938-.074219-.113281-.140625-.210937-.21875-.3125-.074219-.101562-.160156-.207031-.246094-.3125-.082031-.101562-.164062-.199218-.253906-.296874-.085938-.101563-.167969-.179688-.253906-.269532-.085938-.085937-.199219-.199218-.300782-.289062-.085937-.078125-.171874-.148438-.257812-.222656-.113281-.09375-.230469-.1875-.351562-.277344-.085938-.0625-.175782-.125-.265626-.183594-.125-.085938-.25-.167969-.382812-.246094-.097656-.058594-.199219-.113281-.300781-.167968-.125-.066407-.253907-.132813-.382813-.199219-.117187-.054688-.238281-.097657-.359375-.152344-.089843-.039063-.171875-.082031-.265625-.117187-.03125-.011719-.066406-.019532-.097656-.03125-.128906-.046876-.261719-.082032-.390625-.121094-.128906-.039063-.25-.078125-.375-.109375-.125-.035157-.238281-.050781-.355469-.078125-.140625-.027344-.277344-.058594-.417968-.078125-.109376-.015625-.21875-.023438-.328126-.035157-.152343-.015624-.300781-.035156-.449218-.039062-.105469-.007812-.214844 0-.320313 0-.152343 0-.308593-.007812-.460937 0-.105469.003906-.210938.019531-.316406.027344-.15625.015625-.308594.027344-.460938.050781-.101562.015625-.207031.039063-.308594.058594-.128906.023437-.257812.042969-.382812.074219h-82.414063c-2.273437-13.058594-13.609375-22.585938-26.863281-22.585938s-24.585938 9.527344-26.863281 22.585938h-82.414063c-.101562-.023438-.203125-.039063-.308594-.058594-.132812-.027344-.265624-.058594-.398437-.078125-.113281-.015625-.226563-.023438-.34375-.035157-.144531-.015624-.289063-.035156-.4375-.039062-.105469-.007812-.210937 0-.320313 0-.152343 0-.304687-.007812-.457031 0-.101562.003906-.207031.019531-.308593.027344-.160157.015625-.316407.027344-.472657.050781-.101562.011719-.195312.035156-.292969.054687-.160156.03125-.324218.0625-.484374.101563-.09375.023437-.183594.054687-.277344.082031-.164063.046875-.324219.09375-.480469.148438-.027344.011718-.054687.019531-.082031.027344-.074219.027343-.140625.0625-.214844.09375-.144531.058593-.289062.117187-.429688.183593-.109374.054688-.214843.109375-.320312.167969-.125.0625-.246094.128906-.363281.199219-.117188.070312-.21875.136719-.328125.210937-.105469.070313-.214844.144532-.316406.222656-.101563.074219-.207032.160157-.308594.242188-.101563.082031-.199219.164062-.300782.253906-.101562.085938-.179687.171875-.269531.257813-.089843.089843-.191406.203125-.285156.300781-.09375.101562-.15625.179688-.230469.269531-.089844.109375-.179687.222657-.265625.335938-.070312.09375-.136719.191406-.199219.289062-.078124.117188-.15625.234375-.230468.355469-.070313.121094-.125.222656-.1875.335938-.058594.113281-.121094.226562-.175782.34375-.0625.136718-.121093.273437-.179687.417968-.03125.074219-.066406.144532-.097656.21875l-41.402344 110.992188c-2.988281 1.238281-4.9375 4.15625-4.9375 7.390625 0 28.859375 22.140625 49.011719 53.835937 49.011719 31.890626 0 54.164063-20.152344 54.164063-49.011719 0-3.382813-2.132813-6.398438-5.316406-7.53125l-37.242188-99.828125h74.730469c3.183594 6.957031 9.089844 12.300781 16.332031 14.769531v137.230469h-8.566406c-12.859375.101562-24.117187 8.644531-27.671875 21h-.078125c-2.042969-.082032-4.03125.6875-5.488281 2.125-1.453125 1.4375-2.25 3.414062-2.195313 5.460937v24.28125c-.074219 2.101563.695313 4.144531 2.140625 5.675781 1.445313 1.527344 3.441406 2.414063 5.542969 2.457032h89.59375c2.109375-.042969 4.109375-.925782 5.5625-2.453125 1.449219-1.527344 2.230469-3.574219 2.160156-5.679688v-24.28125c.046875-2.050781-.753906-4.027343-2.21875-5.464843-1.460937-1.4375-3.453125-2.203126-5.503906-2.121094h-.074219c-3.558594-12.355469-14.816406-20.898438-27.675781-21h-9.527344v-137.230469c7.660157-2.132813 13.988281-7.535156 17.292969-14.769531h74.734375l-37.242187 99.832031c-3.1875 1.136719-5.316407 4.148437-5.320313 7.53125zm-168.132813 32.652344c-15.390624 0-33.054687-6.015625-37.019531-25.015625h74.316407c-3.941407 18-20.6875 25.015625-37.296876 25.015625zm31.59375-41.015625h-63.1875l31.597657-84.699219zm116.074219 98h-73v-8h73zm-19.46875-29c3.921875.039062 7.605469 1.882812 9.988281 5h-54.078124c2.382812-3.117188 6.070312-4.960938 9.992187-5zm-6.5-175.367188c-2.050781 5.445313-7.914062 8.433594-13.527343 6.882813-5.609376-1.546875-9.113282-7.113281-8.082032-12.84375 1.035156-5.726563 6.261719-9.722657 12.058594-9.210938 5.796875.507813 10.25 5.351563 10.269531 11.171875-.492187 1.054688-.75 2.203125-.75 3.367188 0 .214844.015625.421875.035157.632812zm100.601563 21.667969 31.597656 84.699219h-63.1875zm36.96875 100.699219c-3.941406 18-20.6875 25.015625-37.300782 25.015625-15.386718 0-33.054687-6.015625-37.015624-25.015625zm0 0"/><path d="m7.894531 491.589844h66.132813c4.550781-.171875 8.179687-3.863282 8.273437-8.417969v-32.613281l37.164063-7.375c11.742187-1.878906 19.058594-2.621094 31.476562-2.054688l98.835938 4.960938c35.441406 1.628906 69.96875-10.929688 97.222656-35.34375l68.417969-61.300782c.058593-.054687.109375-.105468.167969-.160156 13.09375-12.429687 14.863281-32.671875 4.125-47.183594l-.1875-.296874c-.136719-.222657-.28125-.433594-.433594-.636719-5.449219-7.269531-13.667969-11.949219-22.699219-12.925781-8.730469-.894532-17.429687 1.925781-23.972656 7.773437-17.65625 15.484375-43.753907 38.246094-62.578125 54.648437-12.082032 10.605469-27.441406 16.730469-43.5 17.359376l-46.976563 1.566406h-.085937c-2.285156.058594-4.410156-1.179688-5.484375-3.199219-.027344-.050781-.054688-.03125-.078125-.078125l-5.273438-9.601562c-1.285156-2.371094-1.371094-5.210938-.230468-7.65625.816406-1.925782 2.5-3.347657 4.539062-3.824219l48.546875-9.902344c16.441406-3.234375 27.894531-19.78125 26.074219-37.664063-1.800782-17.644531-16.765625-31.101562-33.570313-30.246093l-65.042969-2.875c-25.875-1-47.839843 4.347656-73.726562 17.867187l-32.730469 17.167969v-9.011719c-.128906-4.464844-3.804687-8.007812-8.273437-7.976562h-66.132813c-2.078125.011718-4.058593.867187-5.492187 2.375-1.433594 1.503906-2.191406 3.527344-2.101563 5.601562v192.605469c0 4.417969 3.175781 8.417969 7.59375 8.417969zm74.40625-173.960938 40.136719-21.03125c23.246094-12.140625 42.875-16.941406 65.730469-16.066406l65.375 2.894531c.292969.011719.585937.007813.878906-.011719 8.476563-.554687 16.089844 6.546876 17.039063 15.875.992187 9.753907-4.828126 18.691407-13.300782 20.359376l-48.601562 9.910156c-7.027344 1.46875-12.925782 6.21875-15.855469 12.773437-3.269531 7.058594-3.007813 15.25.707031 22.089844l5.238282 9.570313c3.902343 7.449218 11.691406 12.042968 20.101562 11.851562h.121094l47.082031-1.707031c19.746094-.816407 38.609375-8.390625 53.441406-21.445313 18.792969-16.378906 44.898438-39.152344 62.59375-54.667968 3.214844-2.890626 7.496094-4.292969 11.800781-3.863282 4.488282.480469 8.582032 2.789063 11.320313 6.378906l.160156.257813c.132813.21875.277344.429687.429688.632813 6.054687 7.988281 5.164062 19.246093-2.066407 26.183593l-68.328124 61.21875c-24.113282 21.601563-54.601563 32.707031-85.800782 31.28125l-98.867187-4.960937c-13.835938-.632813-22.300781.222656-34.992188 2.257812-.097656.015625-.050781.035156-.148437.050782l-34.199219 6.792968zm-66-19.039062h50v177h-50zm0 0"/></svg>