<?xml version="1.0" encoding="iso-8859-1"?>
<!-- Generator: Adobe Illustrator 19.0.0, SVG Export Plug-In . SVG Version: 6.00 Build 0)  -->
<svg version="1.1" id="Capa_1" xmlns="http://www.w3.org/2000/svg" xmlns:xlink="http://www.w3.org/1999/xlink" x="0px" y="0px"
	 viewBox="0 0 463 463" style="enable-background:new 0 0 463 463;" xml:space="preserve">
<g>
	<path d="M319.5,0h-176C130.542,0,120,10.542,120,23.5v416c0,12.958,10.542,23.5,23.5,23.5h176c12.958,0,23.5-10.542,23.5-23.5v-416
		C343,10.542,332.458,0,319.5,0z M328,439.5c0,4.687-3.813,8.5-8.5,8.5h-176c-4.687,0-8.5-3.813-8.5-8.5v-416
		c0-4.687,3.813-8.5,8.5-8.5h176c4.687,0,8.5,3.813,8.5,8.5V439.5z"/>
	<path d="M287.5,159c8.547,0,15.5-6.953,15.5-15.5v-56c0-8.547-6.953-15.5-15.5-15.5h-112c-8.547,0-15.5,6.953-15.5,15.5v56
		c0,8.547,6.953,15.5,15.5,15.5H287.5z M224,144h-17V87h17V144z M239,87h17v57h-17V87z M288,87.5v56c0,0.275-0.224,0.5-0.5,0.5H271
		V87h16.5C287.776,87,288,87.225,288,87.5z M175,143.5v-56c0-0.275,0.224-0.5,0.5-0.5H192v57h-16.5
		C175.224,144,175,143.775,175,143.5z"/>
	<path d="M167.5,55c4.142,0,7.5-3.357,7.5-7.5v-8c0-4.143-3.358-7.5-7.5-7.5s-7.5,3.357-7.5,7.5v8C160,51.643,163.358,55,167.5,55z"
		/>
	<path d="M199.5,55c4.142,0,7.5-3.357,7.5-7.5v-8c0-4.143-3.358-7.5-7.5-7.5s-7.5,3.357-7.5,7.5v8C192,51.643,195.358,55,199.5,55z"
		/>
	<path d="M231.5,55c4.142,0,7.5-3.357,7.5-7.5v-8c0-4.143-3.358-7.5-7.5-7.5s-7.5,3.357-7.5,7.5v8C224,51.643,227.358,55,231.5,55z"
		/>
	<path d="M263.5,55c4.142,0,7.5-3.357,7.5-7.5v-8c0-4.143-3.358-7.5-7.5-7.5s-7.5,3.357-7.5,7.5v8C256,51.643,259.358,55,263.5,55z"
		/>
	<path d="M295.5,55c4.142,0,7.5-3.357,7.5-7.5v-8c0-4.143-3.358-7.5-7.5-7.5s-7.5,3.357-7.5,7.5v8C288,51.643,291.358,55,295.5,55z"
		/>
	<path d="M167.5,408c-4.142,0-7.5,3.357-7.5,7.5v8c0,4.143,3.358,7.5,7.5,7.5s7.5-3.357,7.5-7.5v-8
		C175,411.357,171.642,408,167.5,408z"/>
	<path d="M199.5,408c-4.142,0-7.5,3.357-7.5,7.5v8c0,4.143,3.358,7.5,7.5,7.5s7.5-3.357,7.5-7.5v-8
		C207,411.357,203.642,408,199.5,408z"/>
	<path d="M231.5,408c-4.142,0-7.5,3.357-7.5,7.5v8c0,4.143,3.358,7.5,7.5,7.5s7.5-3.357,7.5-7.5v-8
		C239,411.357,235.642,408,231.5,408z"/>
	<path d="M263.5,408c-4.142,0-7.5,3.357-7.5,7.5v8c0,4.143,3.358,7.5,7.5,7.5s7.5-3.357,7.5-7.5v-8
		C271,411.357,267.642,408,263.5,408z"/>
	<path d="M295.5,408c-4.142,0-7.5,3.357-7.5,7.5v8c0,4.143,3.358,7.5,7.5,7.5s7.5-3.357,7.5-7.5v-8
		C303,411.357,299.642,408,295.5,408z"/>
	<path d="M287.5,216c-10.336,0-19.128,6.71-22.266,16H231.5c-4.142,0-7.5,3.357-7.5,7.5s3.358,7.5,7.5,7.5h33.734
		c3.138,9.29,11.93,16,22.266,16c12.958,0,23.5-10.542,23.5-23.5S300.458,216,287.5,216z M287.5,248c-4.687,0-8.5-3.813-8.5-8.5
		s3.813-8.5,8.5-8.5s8.5,3.813,8.5,8.5S292.187,248,287.5,248z"/>
	<path d="M295,303.5v-16c0-4.143-3.358-7.5-7.5-7.5s-7.5,3.357-7.5,7.5v16c0,4.143,3.358,7.5,7.5,7.5S295,307.643,295,303.5z"/>
</g>
<g>
</g>
<g>
</g>
<g>
</g>
<g>
</g>
<g>
</g>
<g>
</g>
<g>
</g>
<g>
</g>
<g>
</g>
<g>
</g>
<g>
</g>
<g>
</g>
<g>
</g>
<g>
</g>
<g>
</g>
</svg>
