<svg height="494pt" viewBox="-27 0 494 494.32362" width="494pt" xmlns="http://www.w3.org/2000/svg"><path d="m104.160156 123.003906h-60c-4.417968 0-8 3.582032-8 8v63c0 4.417969 3.582032 8 8 8h60c4.421875 0 8-3.582031 8-8v-63c0-4.417968-3.578125-8-8-8zm-8 63h-44v-47h44zm0 0"/><path d="m224.160156 202.003906h60c4.421875 0 8-3.582031 8-8v-63c0-4.417968-3.578125-8-8-8h-60c-4.417968 0-8 3.582032-8 8v63c0 4.417969 3.582032 8 8 8zm8-63h44v47h-44zm0 0"/><path d="m134.160156 202.003906h60c4.421875 0 8-3.582031 8-8v-63c0-4.417968-3.578125-8-8-8h-60c-4.417968 0-8 3.582032-8 8v63c0 4.417969 3.582032 8 8 8zm8-63h44v47h-44zm0 0"/><path d="m104.160156 218.003906h-60c-4.417968 0-8 3.582032-8 8v63c0 4.417969 3.582032 8 8 8h60c4.421875 0 8-3.582031 8-8v-63c0-4.417968-3.578125-8-8-8zm-8 63h-44v-47h44zm0 0"/><path d="m328.160156 235.046875v-164.34375c.015625-2.078125-.820312-4.074219-2.308594-5.527344-1.488281-1.453125-3.503906-2.238281-5.582031-2.171875h-34.109375v-55.359375c0-4.421875-4.039062-7.64062475-8.457031-7.64062475h-227.011719c-2.035156-.06250005-4.003906.72265575-5.433594 2.17578175-1.429687 1.449218-2.1875 3.429687-2.097656 5.464843v55.359375h-35.035156c-2.085938-.066406-4.109375.714844-5.609375 2.164063-1.5 1.453125-2.351563 3.449219-2.355469 5.535156v358.382813c-.003906 2.109374.835938 4.132812 2.332032 5.621093 1.496093 1.488281 3.523437 2.3125 5.632812 2.296875h193.894531c24.082031 35.972656 64.578125 57.492188 107.867188 57.320313 71.851562 0 130.257812-58.4375 130.257812-130.289063 0-65.613281-48.984375-120.03125-111.984375-128.988281zm-269-219.042969h211v47h-211zm32 315.867188v89.132812h-75v-342h296v154.773438c-1-.015625-1.4375-.03125-2.230468-.03125-5.945313.007812-11.882813.417968-17.769532 1.238281v-9.171875c-.101562-4.417969-3.769531-7.914062-8.1875-7.808594h-59.90625c-2.089844-.039062-4.109375.765625-5.597656 2.238282-1.488281 1.46875-2.320312 3.476562-2.308594 5.570312v47.90625c-5.226562 5.570312-10.039062 11.511719-14.40625 17.777344.28125-.847656.417969-1.734375.40625-2.625v-63.058594c-.007812-2.101562-.863281-4.113281-2.367187-5.582031-1.507813-1.46875-3.539063-2.269531-5.644531-2.226563h-59.898438c-2.109375-.046875-4.152344.75-5.671875 2.21875-1.519531 1.464844-2.390625 3.476563-2.417969 5.589844v63.058594c.03125 4.460937 3.625 8.078125 8.085938 8.132812h59.902344c2.035156 0 3.992187-.777344 5.46875-2.171875-5.691407 9.152344-10.289063 18.945313-13.691407 29.171875h-86.738281c-2.109375-.03125-4.144531.78125-5.652344 2.261719-1.507812 1.476563-2.363281 3.496094-2.375 5.605469zm185-97.867188v4.226563c-15.875 4.300781-30.800781 11.546875-44 21.367187v-25.59375zm-90 0v47h-44v-47zm-79 187v-81h74.675782c-1.496094 7.9375-2.25 15.996094-2.257813 24.074219-.046875 19.734375 4.457031 39.214844 13.164063 56.925781zm202.726563 57.359375c-63-.183593-113.972657-51.308593-113.972657-114.308593s50.972657-114.121094 113.972657-114.308594c3.214843 0 6.402343.140625 9.546875.398437h.042968c61.046876 5.140625 107.1875 57.496094 104.617188 118.703125-2.574219 61.210938-52.941406 109.511719-114.207031 109.511719zm0 0"/><path d="m377.953125 314.675781c-.058594-.140625-.113281-.28125-.179687-.421875-.054688-.113281-.113282-.222656-.171876-.332031-.0625-.109375-.125-.234375-.195312-.347656-.066406-.113281-.144531-.230469-.21875-.339844-.078125-.113281-.140625-.203125-.210938-.308594-.074218-.101562-.167968-.210937-.253906-.316406-.085937-.105469-.160156-.195313-.246094-.289063-.085937-.09375-.175781-.1875-.265624-.277343-.089844-.089844-.191407-.1875-.292969-.28125-.097657-.089844-.179688-.15625-.269531-.230469-.109376-.089844-.222657-.179688-.335938-.265625-.09375-.070313-.191406-.132813-.285156-.199219-.121094-.078125-.238282-.160156-.363282-.234375-.105468-.0625-.214843-.121093-.320312-.179687-.109375-.058594-.238281-.125-.359375-.183594-.125-.058594-.257813-.113281-.390625-.167969-.082031-.035156-.160156-.074219-.242188-.105469-.03125-.011718-.0625-.019531-.09375-.027343-.136718-.050781-.28125-.09375-.421874-.136719-.113282-.03125-.226563-.070312-.34375-.097656-.113282-.03125-.261719-.058594-.390626-.085938-.132812-.023437-.253906-.050781-.382812-.070312-.128906-.019532-.238281-.027344-.359375-.039063-.140625-.015625-.28125-.03125-.421875-.039062-.109375-.003907-.222656 0-.332031 0-.152344 0-.300781 0-.449219 0-.109375.007812-.214844.019531-.324219.03125-.152343.015625-.304687.027343-.453125.046875-.101562.015625-.207031.042968-.308594.058594-.15625.03125-.3125.0625-.46875.101562-.097656.023438-.191406.058594-.289062.085938-.160156.046874-.316406.09375-.472656.148437-.027344.011719-.054688.015625-.082032.027344-.074218.027343-.144531.0625-.214843.09375-.144531.058593-.289063.117187-.425781.183593-.113282.054688-.222657.109376-.328126.167969-.109374.058594-.238281.128907-.355468.199219-.089844.054688-.175782.109375-.261719.164062h-38.46875c-2.238281-7.988281-9.519531-13.511718-17.816406-13.511718s-15.578125 5.523437-17.8125 13.511718h-38.472657c-.085937-.058593-.179687-.113281-.269531-.167968-.09375-.054688-.214843-.121094-.324219-.179688-.109374-.0625-.234374-.128906-.359374-.1875-.121094-.058594-.257813-.113281-.386719-.167968-.082031-.03125-.160157-.074219-.246094-.105469-.027344-.011719-.058594-.015625-.089844-.027344-.140625-.050781-.28125-.09375-.421875-.132813-.113281-.035156-.226562-.074218-.34375-.101562-.128906-.03125-.261718-.058594-.398437-.082031-.136719-.027344-.253907-.054688-.382813-.074219s-.238281-.023438-.355468-.039062c-.144532-.011719-.285157-.03125-.425782-.035157-.109375-.007812-.222656 0-.332031 0-.148437 0-.300781 0-.445313 0-.109374.003907-.21875.019531-.324218.027344-.152344.015625-.304688.027344-.457032.050781-.097656.015625-.207031.039063-.308593.058594-.15625.027344-.3125.058594-.464844.097656-.101563.027344-.195313.058594-.292969.085938-.15625.046875-.316406.09375-.472656.148437-.023438.011719-.050781.019531-.078125.027344-.074219.027344-.144531.066406-.21875.09375-.144531.058594-.285156.117187-.425781.183594-.113282.054687-.21875.113281-.328125.167969-.105469.058593-.238281.128906-.355469.199218-.117188.074219-.222656.144532-.332031.21875-.109375.070313-.210938.140625-.3125.214844-.101563.074219-.210938.164062-.3125.25-.105469.082031-.199219.160156-.292969.25-.09375.085938-.183594.171875-.273438.261719-.089843.089843-.191406.191406-.28125.292969-.09375.101562-.160156.179687-.234374.273437-.089844.109375-.179688.21875-.261719.332031-.070313.101563-.136719.195313-.199219.292969-.078125.113281-.15625.230469-.230469.351563-.070312.121093-.125.226562-.1875.339843s-.121093.222657-.175781.339844c-.066406.136719-.121094.277344-.179688.417969-.03125.074218-.066406.144531-.101562.222656l-22.140625 59.359375c-2.121094 1.496094-3.378906 3.929687-3.378906 6.523437 0 17.890626 13.574219 30.386719 33.015625 30.386719 19.234375 0 33.199218-12.78125 33.199218-30.386719.003907-2.699218-1.359374-5.21875-3.621093-6.691406l-17.558594-47.09375h33.785156c1.835938 2.492188 4.300781 4.453125 7.140625 5.683594v82.316406h-8.199218c-4.417969 0-8 3.582032-8 8 0 4.417969 3.582031 8 8 8h31.851562c4.417969 0 8-3.582031 8-8 0-4.417968-3.582031-8-8-8h-7.652344v-82.316406c2.503906-1.511719 4.734375-3.433594 6.601563-5.683594h33.785156l-17.5625 47.082032c-2.261719 1.476562-3.621094 3.992187-3.621094 6.691406 0 17.894531 13.574219 30.386718 33.015625 30.386718 19.234375 0 33.199219-12.777343 33.199219-30.386718 0-2.59375-1.257813-5.023438-3.375-6.519532l-22.144531-59.359374c-.039063-.078126-.074219-.148438-.105469-.222657zm-128.730469 26.128907 12.007813 32.199218h-24.019531zm14.839844 48.199218c-3.261719 4-9.367188 6.386719-14.835938 6.386719-5.671874 0-11.613281-2.386719-14.753906-6.386719zm45.828125-70.476562c-1.390625.003906-2.523437-1.125-2.523437-2.515625-.003907-1.390625 1.125-2.523438 2.515624-2.523438 1.394532-.003906 2.523438 1.121094 2.527344 2.515625 0 1.394532-1.128906 2.523438-2.523437 2.523438zm60.488281 76.863281c-5.671875 0-11.609375-2.386719-14.753906-6.386719h29.589844c-3.265625 4-9.367188 6.386719-14.839844 6.386719zm-11.835937-22.386719 12.011719-32.199218 12.007812 32.199218zm0 0"/></svg>