<svg height="484pt" viewBox="-131 0 484 484" width="484pt" xmlns="http://www.w3.org/2000/svg"><path d="m11 326.664062v119.335938c0 20.953125 17.453125 38 38.398438 38h123.203124c20.953126 0 38.398438-17.046875 38.398438-38v-119.335938l10.605469-31.878906c.269531-.816406.402343-1.667968.394531-2.527344v-115.601562c0-17.644531-14.722656-31.65625-32.367188-31.65625h-77.632812v-17c0-4.417969-3.082031-8-7.5-8h-20.5v-112c0-4.417969-3.582031-8-8-8s-8 3.582031-8 8v112h-20.5c-4.417969 0-8.5 3.582031-8.5 8v17h-6.628906c-17.648438 0-32.371094 14.011719-32.371094 31.65625v115.601562c-.00390625.859376.125 1.710938.394531 2.527344zm44-190.664062h41v9h-41zm-39 40.65625c0-8.820312 7.546875-15.65625 16.371094-15.65625h157.261718c8.820313 0 16.367188 6.835938 16.367188 15.65625v114.300781l-10.605469 31.875c-.269531.816407-.398437 1.671875-.394531 2.53125v120.636719c0 12.132812-10.273438 22-22.398438 22h-123.203124c-12.128907 0-22.398438-9.867188-22.398438-22v-120.636719c.007812-.859375-.125-1.710937-.394531-2.527343l-10.605469-31.875zm0 0"/><path d="m41 267h139c4.417969 0 8-3.582031 8-8v-70c0-4.417969-3.582031-8-8-8h-139c-4.417969 0-8 3.582031-8 8v70c0 4.417969 3.582031 8 8 8zm8-70h124v54h-124zm0 0"/><path d="m119 315h-17c-4.417969 0-8 3.582031-8 8s3.582031 8 8 8h17c4.417969 0 8-3.582031 8-8s-3.582031-8-8-8zm0 0"/><path d="m75 315h-17c-4.417969 0-8 3.582031-8 8s3.582031 8 8 8h17c4.417969 0 8-3.582031 8-8s-3.582031-8-8-8zm0 0"/><path d="m163 315h-17c-4.417969 0-8 3.582031-8 8s3.582031 8 8 8h17c4.417969 0 8-3.582031 8-8s-3.582031-8-8-8zm0 0"/><path d="m119 348h-17c-4.417969 0-8 3.582031-8 8s3.582031 8 8 8h17c4.417969 0 8-3.582031 8-8s-3.582031-8-8-8zm0 0"/><path d="m75 348h-17c-4.417969 0-8 3.582031-8 8s3.582031 8 8 8h17c4.417969 0 8-3.582031 8-8s-3.582031-8-8-8zm0 0"/><path d="m163 348h-17c-4.417969 0-8 3.582031-8 8s3.582031 8 8 8h17c4.417969 0 8-3.582031 8-8s-3.582031-8-8-8zm0 0"/><path d="m119 381h-17c-4.417969 0-8 3.582031-8 8s3.582031 8 8 8h17c4.417969 0 8-3.582031 8-8s-3.582031-8-8-8zm0 0"/><path d="m75 381h-17c-4.417969 0-8 3.582031-8 8s3.582031 8 8 8h17c4.417969 0 8-3.582031 8-8s-3.582031-8-8-8zm0 0"/><path d="m163 381h-17c-4.417969 0-8 3.582031-8 8s3.582031 8 8 8h17c4.417969 0 8-3.582031 8-8s-3.582031-8-8-8zm0 0"/><path d="m119 414h-17c-4.417969 0-8 3.582031-8 8s3.582031 8 8 8h17c4.417969 0 8-3.582031 8-8s-3.582031-8-8-8zm0 0"/><path d="m75 414h-17c-4.417969 0-8 3.582031-8 8s3.582031 8 8 8h17c4.417969 0 8-3.582031 8-8s-3.582031-8-8-8zm0 0"/><path d="m163 414h-17c-4.417969 0-8 3.582031-8 8s3.582031 8 8 8h17c4.417969 0 8-3.582031 8-8s-3.582031-8-8-8zm0 0"/></svg>