<?xml version="1.0" encoding="iso-8859-1"?>
<!-- Generator: Adobe Illustrator 19.0.0, SVG Export Plug-In . SVG Version: 6.00 Build 0)  -->
<svg version="1.1" id="Capa_1" xmlns="http://www.w3.org/2000/svg" xmlns:xlink="http://www.w3.org/1999/xlink" x="0px" y="0px"
	 viewBox="0 0 463 463" style="enable-background:new 0 0 463 463;" xml:space="preserve">
<g>
	<path d="M343,417.234V229.766c9.29-3.138,16-11.93,16-22.266s-6.71-19.128-16-22.266v-59.107c0-6.277-2.444-12.179-6.883-16.617
		l-11.313-11.313c-2.93-2.929-7.678-2.929-10.607,0c-2.929,2.929-2.929,7.678,0,10.606l11.313,11.313
		c1.606,1.605,2.49,3.74,2.49,6.011V184h-17v-31.202c0-11.667-6.399-22.16-16.369-27.612c-0.551-1.889-7.637-27.078-7.637-69.687
		c0-30.599-24.891-55.493-55.488-55.499c-0.002,0-0.004,0-0.006,0c-0.001,0-0.002,0-0.003,0s-0.002,0-0.003,0
		c-0.002,0-0.004,0-0.006,0C200.891,0.007,176,24.901,176,55.5c0,42.68-7.111,67.886-7.637,69.69
		C158.397,130.643,152,141.134,152,152.798V184h-24.5c-12.958,0-23.5,10.542-23.5,23.5c0,10.336,6.71,19.128,16,22.266v187.469
		c-9.29,3.138-16,11.93-16,22.266c0,12.958,10.542,23.5,23.5,23.5h208c12.958,0,23.5-10.542,23.5-23.5
		C359,429.164,352.29,420.372,343,417.234z M135,416V231h193v185H135z M231.5,104c-17.921,0-32.5-18.168-32.5-40.5v-4.826
		c14.666,4.808,31.193,6.158,45.062,6.158c7.735,0,14.638-0.417,19.929-0.881C263.795,86.075,249.299,104,231.5,104z M189.5,89.383
		c2.682,5.916,6.25,11.199,10.5,15.609v2.976c0,3.665-2.336,6.905-5.813,8.064l-8.935,2.978
		C186.649,112.2,188.32,102.242,189.5,89.383z M213.908,115.038c5.445,2.547,11.378,3.962,17.592,3.962s12.147-1.416,17.592-3.962
		c1.704,5.413,5.326,10.048,10.215,13.012c-5.449,8.317-18.033,20.758-27.807,29.497c-9.776-8.741-22.362-21.183-27.808-29.497
		C208.582,125.086,212.204,120.451,213.908,115.038z M268.813,116.032c-3.477-1.159-5.813-4.4-5.813-8.064v-2.976
		c4.247-4.407,7.814-9.686,10.495-15.598c1.18,12.853,2.849,22.806,4.246,29.615L268.813,116.032z M231.497,15
		c19.786,0.001,36.292,14.269,39.799,33.053c-7.31,0.991-51.122,6.172-77.353-7.683C199.95,25.514,214.514,15.001,231.497,15z
		 M167,152.798c0-7.113,4.534-13.404,11.282-15.653l11.15-3.717c8.64,15.303,34.159,37.198,37.216,39.791
		c1.399,1.188,3.125,1.781,4.852,1.781c1.726,0,3.452-0.594,4.852-1.781c3.057-2.593,28.568-24.481,37.216-39.791l11.151,3.717
		c6.748,2.249,11.282,8.54,11.282,15.653V184h-17v-8.5c0-4.142-3.357-7.5-7.5-7.5s-7.5,3.358-7.5,7.5v8.5h-65v-8.5
		c0-4.142-3.357-7.5-7.5-7.5s-7.5,3.358-7.5,7.5v8.5h-17V152.798z M127.5,199h208c4.687,0,8.5,3.813,8.5,8.5s-3.813,8.5-8.5,8.5
		h-208c-4.687,0-8.5-3.813-8.5-8.5S122.813,199,127.5,199z M335.5,448h-208c-4.687,0-8.5-3.813-8.5-8.5s3.813-8.5,8.5-8.5h208
		c4.687,0,8.5,3.813,8.5,8.5S340.187,448,335.5,448z"/>
	<path d="M302.5,248h-142c-4.687,0-8.5,3.813-8.5,8.5v134c0,4.687,3.813,8.5,8.5,8.5h142c4.687,0,8.5-3.813,8.5-8.5v-134
		C311,251.813,307.187,248,302.5,248z M296,384H167V263h129V384z"/>
</g>
<g>
</g>
<g>
</g>
<g>
</g>
<g>
</g>
<g>
</g>
<g>
</g>
<g>
</g>
<g>
</g>
<g>
</g>
<g>
</g>
<g>
</g>
<g>
</g>
<g>
</g>
<g>
</g>
<g>
</g>
</svg>
