<svg height="496pt" viewBox="0 0 496 496" width="496pt" xmlns="http://www.w3.org/2000/svg"><path d="m192 192c-52.9375 0-96 43.0625-96 96s43.0625 96 96 96 96-43.0625 96-96-43.0625-96-96-96zm-63.449219 104h-16.152343c-.253907-2.632812-.398438-5.296875-.398438-8s.144531-5.367188.40625-8h16.152344c-.335938 2.625-.558594 5.289062-.558594 8s.222656 5.375.550781 8zm63.449219 72c-35.753906 0-66.089844-23.574219-76.3125-56h17.023438c9.519531 23.425781 32.488281 40 59.289062 40 35.289062 0 64-28.710938 64-64s-28.710938-64-64-64c-26.800781 0-49.769531 16.574219-59.289062 40h-17.023438c10.214844-32.425781 40.558594-56 76.3125-56 44.113281 0 80 35.886719 80 80s-35.886719 80-80 80zm39.078125-52.230469-27.765625-27.769531 27.765625-27.769531c5.59375 7.847656 8.921875 17.417969 8.921875 27.769531s-3.328125 19.921875-8.921875 27.769531zm-11.308594 11.308594c-7.847656 5.59375-17.417969 8.921875-27.769531 8.921875s-19.921875-3.328125-27.769531-8.921875l27.769531-27.765625zm-27.769531-50.390625-27.769531-27.765625c7.847656-5.59375 17.417969-8.921875 27.769531-8.921875s19.921875 3.328125 27.769531 8.921875zm-39.078125-16.457031 27.765625 27.769531-27.765625 27.769531c-5.59375-7.847656-8.921875-17.417969-8.921875-27.769531s3.328125-19.921875 8.921875-27.769531zm0 0"/><path d="m152 96h16v16h-16zm0 0"/><path d="m184 96h16v16h-16zm0 0"/><path d="m216 96h16v16h-16zm0 0"/><path d="m152 128h16v16h-16zm0 0"/><path d="m184 128h16v16h-16zm0 0"/><path d="m216 128h16v16h-16zm0 0"/><path d="m152 160h16v16h-16zm0 0"/><path d="m184 160h16v16h-16zm0 0"/><path d="m216 160h16v16h-16zm0 0"/><path d="m488 32h-16.710938c-23.519531 0-46.601562-8.097656-64.96875-22.792969l-9.320312-7.453125c-2.921875-2.339844-7.078125-2.339844-10 0l-9.320312 7.453125c-18.367188 14.695313-41.449219 22.792969-64.96875 22.792969h-304.710938c-4.425781 0-8 3.585938-8 8v400c0 4.414062 3.574219 8 8 8h24v40c0 4.414062 3.574219 8 8 8h48c4.425781 0 8-3.585938 8-8v-40h160v40c0 4.414062 3.574219 8 8 8h48c4.425781 0 8-3.585938 8-8v-40h24c4.425781 0 8-3.585938 8-8v-214.921875l34.871094 29.066406c1.488281 1.238281 3.304687 1.855469 5.128906 1.855469s3.640625-.617188 5.128906-1.855469l49.941406-41.625c31.097657-25.910156 48.929688-64 48.929688-104.480469v-68.039062c0-4.414062-3.574219-8-8-8zm-184 139.703125v228.296875h-240v-192h24c4.425781 0 8-3.585938 8-8v-32c0-4.414062-3.574219-8-8-8h-24v-16h24c4.425781 0 8-3.585938 8-8v-32c0-4.414062-3.574219-8-8-8h-24v-16h224v28.046875c0 22.5625 5.710938 44.28125 16 63.65625zm-224 4.296875v16h-32v-16zm0-64v16h-32v-16zm0 368h-32v-32h32zm224 0h-32v-32h32zm-288-48v-384h272v16h-232c-4.425781 0-8 3.585938-8 8v24h-8c-4.425781 0-8 3.585938-8 8v32c0 4.414062 3.574219 8 8 8h8v16h-8c-4.425781 0-8 3.585938-8 8v32c0 4.414062 3.574219 8 8 8h8v200c0 4.414062 3.574219 8 8 8h256c4.425781 0 8-3.585938 8-8v-212.59375c4.863281 5.785156 10.136719 11.273438 16 16.25v220.34375zm464-323.953125c0 35.722656-15.734375 69.320313-43.175781 92.183594l-44.824219 37.355469-44.824219-37.355469c-27.441406-22.863281-43.175781-56.460938-43.175781-92.183594v-60.046875h8.710938c27.152343 0 53.769531-9.335938 74.96875-26.296875l4.320312-3.457031 4.320312 3.457031c21.199219 16.960937 47.824219 26.296875 74.96875 26.296875h8.710938zm0 0"/><path d="m432 104h-8v-16c0-17.648438-14.351562-32-32-32s-32 14.351562-32 32v16h-8c-4.425781 0-8 3.585938-8 8v64c0 4.414062 3.574219 8 8 8h80c4.425781 0 8-3.585938 8-8v-64c0-4.414062-3.574219-8-8-8zm-56-16c0-8.824219 7.175781-16 16-16s16 7.175781 16 16v16h-32zm48 80h-64v-48h64zm0 0"/><path d="m384 136h16v16h-16zm0 0"/></svg>