<svg height="492pt" viewBox="-34 0 492 492.64764" width="492pt" xmlns="http://www.w3.org/2000/svg"><path d="m212.257812 0c-116.859374 0-211.933593 91.050781-211.933593 202.964844 0 35.921875 11.074219 73.539062 32.914062 111.808594 17.261719 30.246093 41.273438 61 71.367188 91.402343 51.023437 51.546875 101.230469 83.863281 103.34375 85.210938 2.628906 1.679687 5.992187 1.679687 8.617187 0 2.113282-1.347657 52.324219-33.664063 103.34375-85.210938 30.09375-30.402343 54.101563-61.152343 71.367188-91.402343 21.839844-38.269532 32.917968-75.886719 32.917968-111.808594 0-111.914063-95.074218-202.964844-211.9375-202.964844zm165.199219 306.699219c-16.53125 29-39.644531 58.609375-68.699219 87.996093-29.609374 29.710938-61.914062 56.609376-96.5 80.347657-34.582031-23.738281-66.886718-50.636719-96.5-80.347657-29.054687-29.382812-52.167968-58.992187-68.699218-87.992187-20.398438-35.78125-30.734375-70.679687-30.734375-103.738281 0-103.09375 87.898437-186.964844 195.933593-186.964844 108.035157 0 195.9375 83.871094 195.9375 186.964844 0 33.058594-10.335937 67.957031-30.738281 103.738281zm0 0"/><path d="m212.257812 51.445312c-86.511718 0-156.890624 70.378907-156.890624 156.890626 0 86.511718 70.378906 156.894531 156.890624 156.894531 86.511719 0 156.894532-70.382813 156.894532-156.894531 0-86.511719-70.382813-156.890626-156.894532-156.890626zm0 297.785157c-77.6875 0-140.890624-63.199219-140.890624-140.894531 0-77.691407 63.203124-140.890626 140.890624-140.890626s140.894532 63.203126 140.894532 140.890626-63.207032 140.894531-140.894532 140.894531zm0 0"/><path d="m299.902344 133.367188c-.054688-.132813-.109375-.265626-.171875-.398438s-.117188-.234375-.179688-.351562c-.0625-.113282-.121093-.222657-.1875-.335938-.066406-.109375-.144531-.230469-.222656-.347656-.074219-.113282-.136719-.199219-.207031-.296875-.074219-.101563-.167969-.214844-.253906-.320313-.085938-.105468-.160157-.199218-.246094-.289062-.085938-.089844-.175782-.183594-.265625-.273438-.085938-.089844-.191407-.195312-.296875-.285156-.085938-.078125-.175782-.152344-.265625-.226562-.113281-.09375-.226563-.183594-.34375-.273438-.089844-.066406-.179688-.125-.273438-.1875-.121093-.085938-.246093-.167969-.375-.246094-.101562-.054687-.203125-.109375-.300781-.164062-.125-.070313-.253906-.136719-.382812-.199219-.132813-.066406-.238282-.101563-.359376-.15625-.085937-.035156-.171874-.082031-.265624-.113281-.035157-.015625-.066407-.019532-.101563-.035156-.113281-.039063-.230469-.074219-.347656-.109376-.835938-.289062-1.714844-.433593-2.597657-.433593h-58.878906c-2.628906-9.496094-11.269531-16.070313-21.121094-16.070313-9.851562 0-18.488281 6.574219-21.117187 16.070313h-58.882813c-.878906 0-1.753906.148437-2.589843.4375-.121094.035156-.242188.070312-.363281.113281-.03125.011719-.0625.019531-.09375.03125-.085938.03125-.167969.074219-.25.109375-.128907.050781-.257813.097656-.378907.164063-.125.0625-.246093.121093-.367187.1875-.117188.0625-.214844.113281-.316406.175781-.125.074219-.246094.152343-.363282.234375-.101562.066406-.191406.128906-.285156.199218-.113281.085938-.226562.171876-.335938.261719-.089843.078125-.183593.15625-.273437.238281-.089844.078126-.195313.179688-.289063.277344-.09375.09375-.183593.183594-.269531.277344-.089843.097656-.164062.1875-.242187.285156-.078125.09375-.171875.214844-.257813.324219-.082031.113281-.136719.199219-.203125.296875-.078125.113281-.15625.230469-.226562.351562-.074219.117188-.125.21875-.183594.332032-.0625.113281-.125.230468-.183594.351562-.054687.117188-.117187.261719-.171875.398438-.03125.082031-.070312.15625-.097656.238281l-29.589844 79.324219c-2.480469 1.425781-4.007812 4.066406-4.007812 6.925781 0 22.148437 16.898437 37.613281 41.09375 37.613281 24.335937 0 41.332031-15.464844 41.332031-37.613281-.003906-2.980469-1.664062-5.714844-4.308594-7.09375l-25.535156-68.441406h49.34375c2.453125 4.671875 6.503906 8.308593 11.414062 10.25v112.75h-13.066406c-4.417968 0-8 3.582031-8 8s3.582032 8 8 8h42.132813c4.417969 0 8-3.582031 8-8s-3.582031-8-8-8h-13.066407v-112.75c4.910157-1.941407 8.960938-5.578125 11.417969-10.25h49.34375l-25.53125 68.4375c-2.648437 1.375-4.308593 4.109375-4.308593 7.09375 0 22.144531 16.898437 37.613281 41.09375 37.613281 24.335937 0 41.332031-15.46875 41.332031-37.613281-.003907-2.859375-1.53125-5.5-4.007813-6.925781l-29.589844-79.324219c-.03125-.082031-.070312-.160157-.105468-.238281zm-167.898438 108.570312c-13.746094 0-20.910156-6.613281-23.691406-13.613281h47.539062c-2.855468 7-10.082031 13.613281-23.84375 13.613281zm19.609375-29.613281h-39.214843l19.609374-52.566407zm60.644531-72.230469c-3.265624 0-5.917968-2.652344-5.917968-5.917969 0-3.269531 2.652344-5.917969 5.917968-5.917969 3.269532 0 5.917969 2.648438 5.917969 5.917969-.003906 3.265625-2.648437 5.914063-5.917969 5.917969zm80.015626 101.84375c-13.746094 0-20.917969-6.613281-23.699219-13.613281h47.539062c-2.855469 7-10.078125 13.613281-23.839843 13.613281zm-19.371094-29.613281 19.609375-52.566407 19.605469 52.566407zm0 0"/></svg>