<svg height="496pt" viewBox="0 0 496 496" width="496pt" xmlns="http://www.w3.org/2000/svg"><path d="m488 336h-8v-74.390625c0-5.441406-1.863281-10.761719-5.257812-14.992187l-27.253907-34.066407-21.175781-112.964843c-2.128906-11.355469-12.046875-19.585938-23.59375-19.585938h-34.71875v-16h8c13.230469 0 24-10.769531 24-24v-16c0-13.230469-10.769531-24-24-24h-256c-13.230469 0-24 10.769531-24 24v16c0 13.230469 10.769531 24 24 24h8v16h-34.71875c-11.546875 0-21.472656 8.230469-23.585938 19.574219l-21.183593 112.976562-27.246094 34.066407c-3.402344 4.230468-5.265625 9.550781-5.265625 14.992187v74.390625h-8c-4.425781 0-8 3.574219-8 8v48c0 28.152344 20.910156 51.457031 48 55.359375v24.640625c0 13.230469 10.769531 24 24 24h48c13.230469 0 24-10.769531 24-24v-24h208v24c0 13.230469 10.769531 24 24 24h48c13.230469 0 24-10.769531 24-24v-24.640625c27.089844-3.902344 48-27.207031 48-55.359375v-48c0-4.425781-3.574219-8-8-8zm-136-256h-16v-16h16zm-32-16v16h-144v-16zm-112-16v-32h80v32zm176-24v16c0 4.40625-3.585938 8-8 8h-72v-32h72c4.414062 0 8 3.59375 8 8zm-272 16v-16c0-4.40625 3.585938-8 8-8h72v32h-72c-4.414062 0-8-3.59375-8-8zm32 24h16v16h-16zm-58.574219 38.519531c.703125-3.777343 4.007813-6.519531 7.855469-6.519531h309.4375c3.847656 0 7.160156 2.742188 7.867188 6.519531l19.78125 105.480469h-15.582032l-14.890625-89.320312c-.648437-3.847657-3.984375-6.679688-7.894531-6.679688h-288c-3.910156 0-7.246094 2.832031-7.886719 6.679688l-14.890625 89.320312h-15.582031zm313.132813 105.480469h-301.117188l13.328125-80h274.453125zm-366.558594 53.609375c0-1.816406.625-3.578125 1.761719-4.992187l26.078125-32.617188h376.320312l26.097656 32.617188c1.117188 1.414062 1.742188 3.183593 1.742188 4.992187v74.390625h-432zm96 210.390625c0 4.414062-3.585938 8-8 8h-48c-4.414062 0-8-3.585938-8-8v-24h64zm304 0c0 4.414062-3.585938 8-8 8h-48c-4.414062 0-8-3.585938-8-8v-24h64zm48-80c0 22.054688-17.945312 40-40 40h-384c-22.054688 0-40-17.945312-40-40v-40h464zm0 0"/><path d="m56 416c13.230469 0 24-10.769531 24-24s-10.769531-24-24-24-24 10.769531-24 24 10.769531 24 24 24zm0-32c4.414062 0 8 3.585938 8 8s-3.585938 8-8 8-8-3.585938-8-8 3.585938-8 8-8zm0 0"/><path d="m440 416c13.230469 0 24-10.769531 24-24s-10.769531-24-24-24-24 10.769531-24 24 10.769531 24 24 24zm0-32c4.414062 0 8 3.585938 8 8s-3.585938 8-8 8-8-3.585938-8-8 3.585938-8 8-8zm0 0"/><path d="m160 416h176c4.425781 0 8-3.574219 8-8v-32c0-4.425781-3.574219-8-8-8h-176c-4.425781 0-8 3.574219-8 8v32c0 4.425781 3.574219 8 8 8zm8-32h160v16h-160zm0 0"/><path d="m96 240c-22.054688 0-40 17.945312-40 40s17.945312 40 40 40 40-17.945312 40-40-17.945312-40-40-40zm0 64c-13.230469 0-24-10.769531-24-24s10.769531-24 24-24 24 10.769531 24 24-10.769531 24-24 24zm0 0"/><path d="m408 240c-22.054688 0-40 17.945312-40 40s17.945312 40 40 40 40-17.945312 40-40-17.945312-40-40-40zm0 64c-13.230469 0-24-10.769531-24-24s10.769531-24 24-24 24 10.769531 24 24-10.769531 24-24 24zm0 0"/><path d="m152 304h200v16h-200zm0 0"/><path d="m152 272h200v16h-200zm0 0"/><path d="m152 240h200v16h-200zm0 0"/></svg>