<svg height="496pt" viewBox="0 0 496 496.002" width="496pt" xmlns="http://www.w3.org/2000/svg"><path d="m488 160.003906c4.417969 0 8-3.578125 8-8v-32c0-4.425781-3.582031-8-8-8h-88v-16h32c3.792969 0 7.066406-2.65625 7.832031-6.371094.777344-3.710937-1.167969-7.460937-4.640625-8.96875l-184-80c-2.039062-.886718-4.34375-.886718-6.382812 0l-184 80c-3.472656 1.507813-5.414063 5.257813-4.640625 8.96875.769531 3.714844 4.042969 6.371094 7.832031 6.371094h32v16h-88c-4.414062 0-8 3.574219-8 8v32c0 4.421875 3.585938 8 8 8h8v288h-8c-4.414062 0-8 3.574219-8 8v32c0 4.421875 3.585938 8 8 8h480c4.417969 0 8-3.578125 8-8v-32c0-4.425781-3.582031-8-8-8h-8v-288zm-240-143.273437 145.535156 63.273437h-291.070312zm-136 79.273437h272v16h-272zm-96 32h464v16h-464zm384 320v-24c0-4.425781-3.582031-8-8-8h-8v-64h48v96zm-112 0v-136c0-4.425781-3.582031-8-8-8h-64c-4.414062 0-8 3.574219-8 8v136h-16v-24c0-4.425781-3.582031-8-8-8h-8v-224h8c4.417969 0 8-3.578125 8-8v-24h112v24c0 4.421875 3.585938 8 8 8h8v224h-8c-4.414062 0-8 3.574219-8 8v24zm-16-112h-48v-16h48zm-48 16h48v96h-48zm-160 96v-96h48v64h-8c-4.414062 0-8 3.574219-8 8v24zm104-272h-56v-16h64v16zm-8 16v224h-32v-224zm-48 144h-48v-16h48zm0 96h64v16h-64zm208 0h64v16h-64zm112-96h-48v-16h48zm-64 80h-32v-224h32zm8-240h-56v-16h64v16zm-344-16h64v24c0 4.421875 3.585938 8 8 8h8v112h-56c-4.414062 0-8 3.574219-8 8v136h-16zm448 320h-464v-16h464zm-16-32h-16v-136c0-4.425781-3.582031-8-8-8h-56v-112h8c4.417969 0 8-3.578125 8-8v-24h64zm0 0"/><path d="m232 208.003906h-32c-4.414062 0-8 3.574219-8 8v48c0 4.421875 3.585938 8 8 8h32c4.417969 0 8-3.578125 8-8v-48c0-4.425781-3.582031-8-8-8zm-8 48h-16v-32h16zm0 0"/><path d="m304 216.003906c0-4.425781-3.582031-8-8-8h-32c-4.414062 0-8 3.574219-8 8v48c0 4.421875 3.585938 8 8 8h32c4.417969 0 8-3.578125 8-8zm-16 40h-16v-32h16zm0 0"/><path d="m400 216.003906v48c0 4.421875 3.585938 8 8 8h32c4.417969 0 8-3.578125 8-8v-48c0-4.425781-3.582031-8-8-8h-32c-4.414062 0-8 3.574219-8 8zm16 8h16v32h-16zm0 0"/><path d="m56 272.003906h32c4.417969 0 8-3.578125 8-8v-48c0-4.425781-3.582031-8-8-8h-32c-4.414062 0-8 3.574219-8 8v48c0 4.421875 3.585938 8 8 8zm8-48h16v32h-16zm0 0"/></svg>