<svg height="496pt" viewBox="0 0 496 496" width="496pt" xmlns="http://www.w3.org/2000/svg"><path d="m144 168v16h24c22.054688 0 40 17.945312 40 40v16h16v-16c0-30.878906-25.128906-56-56-56zm0 0"/><path d="m224 336v-80h-16v80c0 4.40625-3.585938 8-8 8h-32v16h32c13.230469 0 24-10.769531 24-24zm0 0"/><path d="m144 264h16v72h-16zm0 0"/><path d="m144 232h16v16h-16zm0 0"/><path d="m192 376h-24c-22.054688 0-40-17.945312-40-40v-24h-16v24c0 30.878906 25.128906 56 56 56h24zm0 0"/><path d="m192 328v-104c0-13.230469-10.769531-24-24-24h-32c-13.230469 0-24 10.769531-24 24v72h16v-72c0-4.40625 3.585938-8 8-8h32c4.414062 0 8 3.59375 8 8v104zm0 0"/><path d="m256 336v-112c0-41.6875-29.609375-77.960938-70.40625-86.238281l-3.1875 15.679687c33.378906 6.773438 57.59375 36.445313 57.59375 70.558594v112c0 10.015625-2.015625 19.703125-5.984375 28.800781l14.65625 6.40625c4.863281-11.128906 7.328125-22.976562 7.328125-35.207031zm0 0"/><path d="m80 224v64h16v-64c0-39.695312 32.296875-72 72-72v-16c-48.519531 0-88 39.480469-88 88zm0 0"/><path d="m80 304h16v16h-16zm0 0"/><path d="m168 424c5.921875 0 11.832031-.59375 17.59375-1.761719l-3.1875-15.679687c-4.703125.953125-9.558594 1.441406-14.40625 1.441406-39.703125 0-72-32.304688-72-72h-16c0 48.519531 39.480469 88 88 88zm0 0"/><path d="m238.40625 388.808594-12.796875-9.609375c-7.480469 9.960937-17.449219 17.847656-28.816406 22.816406l6.40625 14.664063c13.898437-6.070313 26.066406-15.710938 35.207031-27.871094zm0 0"/><path d="m64 336v-112c0-21.398438 6.449219-41.945312 18.640625-59.425781l-13.128906-9.160157c-14.070313 20.1875-21.511719 43.898438-21.511719 68.585938v112c0 21.097656 5.550781 41.847656 16.0625 60.007812l13.839844-8.015624c-9.085938-15.726563-13.902344-33.703126-13.902344-51.992188zm0 0"/><path d="m86.28125 400.335938-12.5625 9.902343c7.335938 9.304688 15.984375 17.464844 25.707031 24.25l9.160157-13.128906c-8.433594-5.878906-15.9375-12.953125-22.304688-21.023437zm0 0"/><path d="m272 336c0 57.34375-46.65625 104-104 104-15.601562 0-30.59375-3.367188-44.566406-10l-6.859375 14.457031c16.128906 7.65625 33.433593 11.542969 51.425781 11.542969 66.167969 0 120-53.832031 120-120v-56h-16zm0 0"/><path d="m168 104c-17.992188 0-35.296875 3.886719-51.433594 11.550781l6.859375 14.457031c13.980469-6.640624 28.972657-10.007812 44.574219-10.007812 57.34375 0 104 46.65625 104 104v40h16v-40c0-66.167969-53.832031-120-120-120zm0 0"/><path d="m108.574219 138.640625-9.160157-13.128906c-5.46875 3.816406-10.644531 8.113281-15.40625 12.777343l11.199219 11.421876c4.136719-4.046876 8.625-7.765626 13.367188-11.070313zm0 0"/><path d="m488 0h-480c-4.425781 0-8 3.585938-8 8v480c0 4.414062 3.574219 8 8 8h480c4.425781 0 8-3.585938 8-8v-480c0-4.414062-3.574219-8-8-8zm-8 16v48h-464v-48zm-464 464v-400h464v400zm0 0"/><path d="m32 32h16v16h-16zm0 0"/><path d="m64 32h16v16h-16zm0 0"/><path d="m96 32h16v16h-16zm0 0"/><path d="m128 32h16v16h-16zm0 0"/><path d="m160 32h16v16h-16zm0 0"/><path d="m304 96h160v16h-160zm0 0"/><path d="m304 128h160v16h-160zm0 0"/><path d="m304 160h160v16h-160zm0 0"/><path d="m304 384h160v16h-160zm0 0"/><path d="m304 416h160v16h-160zm0 0"/><path d="m304 448h160v16h-160zm0 0"/></svg>