<?xml version="1.0" encoding="iso-8859-1"?>
<!-- Generator: Adobe Illustrator 19.0.0, SVG Export Plug-In . SVG Version: 6.00 Build 0)  -->
<svg version="1.1" id="Capa_1" xmlns="http://www.w3.org/2000/svg" xmlns:xlink="http://www.w3.org/1999/xlink" x="0px" y="0px"
	 viewBox="0 0 463 463" style="enable-background:new 0 0 463 463;" xml:space="preserve">
<g>
	<path d="M375.5,0h-224c-0.086,0-0.17,0.01-0.256,0.013c-0.083,0.003-0.166,0.007-0.249,0.012c-0.321,0.021-0.638,0.057-0.946,0.118
		c-0.005,0.001-0.01,0.001-0.014,0.002c-0.334,0.066-0.657,0.159-0.973,0.268c-0.056,0.019-0.111,0.041-0.167,0.061
		c-0.299,0.111-0.59,0.236-0.87,0.383c-0.017,0.009-0.035,0.016-0.052,0.025c-0.293,0.156-0.57,0.335-0.838,0.527
		c-0.06,0.043-0.118,0.088-0.177,0.133c-0.265,0.203-0.522,0.416-0.757,0.651c-0.001,0.001-0.003,0.002-0.004,0.003l-80,80
		c-0.001,0.001-0.002,0.002-0.003,0.003c-0.235,0.236-0.449,0.492-0.651,0.757c-0.045,0.06-0.09,0.119-0.134,0.179
		c-0.192,0.267-0.37,0.544-0.526,0.835c-0.01,0.02-0.019,0.04-0.029,0.06c-0.144,0.276-0.268,0.563-0.378,0.858
		c-0.022,0.059-0.044,0.117-0.065,0.177c-0.108,0.313-0.2,0.633-0.266,0.964c-0.002,0.012-0.003,0.025-0.006,0.037
		c-0.058,0.301-0.093,0.609-0.115,0.921c-0.006,0.088-0.01,0.175-0.013,0.263C64.01,87.334,64,87.416,64,87.5v352
		c0,12.958,10.542,23.5,23.5,23.5h288c12.958,0,23.5-10.542,23.5-23.5v-416C399,10.542,388.458,0,375.5,0z M144,25.606V71.5
		c0,4.687-3.813,8.5-8.5,8.5H89.606L144,25.606z M384,439.5c0,4.687-3.813,8.5-8.5,8.5h-288c-4.687,0-8.5-3.813-8.5-8.5V95h56.5
		c12.958,0,23.5-10.542,23.5-23.5V15h216.5c4.687,0,8.5,3.813,8.5,8.5V439.5z"/>
	<path d="M135.5,215h192c4.142,0,7.5-3.357,7.5-7.5s-3.358-7.5-7.5-7.5h-192c-4.142,0-7.5,3.357-7.5,7.5S131.358,215,135.5,215z"/>
	<path d="M135.5,255h192c4.142,0,7.5-3.357,7.5-7.5s-3.358-7.5-7.5-7.5h-192c-4.142,0-7.5,3.357-7.5,7.5S131.358,255,135.5,255z"/>
	<path d="M135.5,295h96c4.142,0,7.5-3.357,7.5-7.5s-3.358-7.5-7.5-7.5h-96c-4.142,0-7.5,3.357-7.5,7.5S131.358,295,135.5,295z"/>
	<path d="M239,327.5c0-4.143-3.358-7.5-7.5-7.5h-96c-4.142,0-7.5,3.357-7.5,7.5s3.358,7.5,7.5,7.5h96
		C235.642,335,239,331.643,239,327.5z"/>
	<path d="M271,129.5c0-4.143-3.358-7.5-7.5-7.5s-7.5,3.357-7.5,7.5c0,14.621,13.558,26.435,32,28.983v1.017
		c0,4.143,3.358,7.5,7.5,7.5s7.5-3.357,7.5-7.5v-1.017c18.442-2.549,32-14.363,32-28.983s-13.558-26.435-32-28.983V71.791
		c9.034,1.885,17,6.998,17,13.709c0,4.143,3.358,7.5,7.5,7.5s7.5-3.357,7.5-7.5c0-14.621-13.558-26.435-32-28.983V55.5
		c0-4.143-3.358-7.5-7.5-7.5s-7.5,3.357-7.5,7.5v1.017c-18.442,2.549-32,14.363-32,28.983s13.558,26.435,32,28.983v28.726
		C278.966,141.324,271,136.212,271,129.5z M320,129.5c0,6.712-7.966,11.824-17,13.709v-27.418
		C312.034,117.676,320,122.788,320,129.5z M271,85.5c0-6.712,7.966-11.824,17-13.709v27.418C278.966,97.324,271,92.212,271,85.5z"/>
	<path d="M342.26,320.488c-3.607-2.037-8.182-0.766-10.219,2.841l-15.422,27.297L314.506,349c-1.781-1.371-4.083-1.873-6.271-1.363
		c-2.189,0.508-4.035,1.97-5.03,3.984l-7.791,15.775l-2.504-2.871c-3.674-4.212-9.139-6.096-14.63-5.028
		c-5.487,1.063-9.858,4.851-11.692,10.13l-8.605,24.766l-20.474-25.861c-1.273-1.608-3.149-2.625-5.192-2.813
		c-2.038-0.181-4.072,0.468-5.618,1.816l-21.738,18.96c-3.122,2.723-3.445,7.461-0.723,10.582c2.724,3.122,7.46,3.443,10.582,0.723
		l15.81-13.79l19.55,24.694c2.203,2.781,5.536,4.361,9.014,4.361c0.638,0,1.281-0.054,1.922-0.162
		c4.139-0.701,7.566-3.6,8.943-7.564l10.697-30.787c0.038-0.109,0.095-0.272,0.378-0.328c0.28-0.055,0.396,0.075,0.471,0.162
		l9.898,11.35c1.648,1.89,4.134,2.832,6.619,2.508c2.487-0.323,4.648-1.868,5.758-4.116l8.722-17.659l1.715,1.32
		c1.723,1.327,3.936,1.836,6.067,1.408c2.131-0.433,3.969-1.769,5.039-3.661l19.676-34.826
		C347.138,327.102,345.866,322.526,342.26,320.488z"/>
</g>
<g>
</g>
<g>
</g>
<g>
</g>
<g>
</g>
<g>
</g>
<g>
</g>
<g>
</g>
<g>
</g>
<g>
</g>
<g>
</g>
<g>
</g>
<g>
</g>
<g>
</g>
<g>
</g>
<g>
</g>
</svg>
