<svg height="496pt" viewBox="0 -40 496 496" width="496pt" xmlns="http://www.w3.org/2000/svg"><path d="m464 80h-16v-8c0-4.414062-3.574219-8-8-8h-32c-4.425781 0-8 3.585938-8 8v8h-192v-8c0-4.414062-3.574219-8-8-8h-32c-4.425781 0-8 3.585938-8 8v8h-32v-32h24c4.425781 0 8-3.585938 8-8v-16c0-13.230469-10.769531-24-24-24h-112c-13.230469 0-24 10.769531-24 24v16c0 4.414062 3.574219 8 8 8h24v128h-24c-4.425781 0-8 3.585938-8 8v16c0 13.230469 10.769531 24 24 24h112c13.230469 0 24-10.769531 24-24v-16c0-4.414062-3.574219-8-8-8h-24v-32h32v8c0 4.414062 3.574219 8 8 8h32c4.425781 0 8-3.585938 8-8v-8h192v8c0 4.414062 3.574219 8 8 8h32c4.425781 0 8-3.585938 8-8v-8h16c17.648438 0 32-14.351562 32-32s-14.351562-32-32-32zm-448-56c0-4.40625 3.585938-8 8-8h112c4.414062 0 8 3.59375 8 8v8h-128zm128 176c0 4.40625-3.585938 8-8 8h-112c-4.414062 0-8-3.59375-8-8v-8h128zm-96-24v-16h32v-16h-32v-96h64v16h-48v16h48v96zm80-48v-32h32v32zm64 16h-16v-64h16zm16-16v-32h192v32zm224 16h-16v-64h16zm32-16h-16v-32h16c8.824219 0 16 7.175781 16 16s-7.175781 16-16 16zm0 0"/><path d="m232 368h-40v-48h24c4.425781 0 8-3.585938 8-8v-32c0-4.414062-3.574219-8-8-8h-192c-4.425781 0-8 3.585938-8 8v32c0 4.414062 3.574219 8 8 8h24v48h-40c-4.425781 0-8 3.585938-8 8v32c0 4.414062 3.574219 8 8 8h224c4.425781 0 8-3.585938 8-8v-32c0-4.414062-3.574219-8-8-8zm-200-80h176v16h-176zm32 32h112v48h-112zm160 80h-208v-16h208zm0 0"/><path d="m240 256h80v16h-80zm0 0"/><path d="m227.75 233.226562 63.992188-40.007812 8.488281 13.570312-63.996094 40.007813zm0 0"/></svg>