<svg height="474pt" viewBox="-9 0 473 474" width="474pt" xmlns="http://www.w3.org/2000/svg"><path d="m446.5 0h-438c-4.417969 0-8 3.582031-8 8v458c0 4.417969 3.582031 8 8 8h438c4.417969 0 8-3.582031 8-8v-458c0-4.417969-3.582031-8-8-8zm-8 458h-422v-442h422zm0 0"/><path d="m40.5 442h374c4.417969 0 8-3.582031 8-8v-394c0-4.417969-3.582031-8-8-8h-374c-4.417969 0-8 3.582031-8 8v394c0 4.417969 3.582031 8 8 8zm59-52h-1v-12.054688c.007812-3.1875.34375-6.363281 1-9.480468zm60-138.890625c-2.683594-7.808594-4.035156-16.011719-4-24.265625v-27.84375h4zm0-68.109375h-16v-19h16zm0-35h-6.601562c.855468-8.050781 3.089843-15.894531 6.601562-23.1875zm60 183.464844c-6.726562-1.054688-13.152344-3.523438-18.855469-7.242188l-8.144531-5.316406v-9.875c8.570312 3.769531 17.683594 6.164062 27 7.085938zm60-16.464844h-1v-15.132812c0-.296876.601562-.582032 1-.886719zm76 53.464844c.65625 3.117187.992188 6.292968 1 9.480468v12.054688h-1zm0 37.535156h8.96875c4.417969 0 8.03125-3.101562 8.03125-7.519531v-20.535157c-.003906-15.921874-6.082031-31.242187-17-42.832031v-287.113281h51v378h-51zm-60-281.292969c3.339844 6.949219 5.519531 14.398438 6.457031 22.050781.050781.414063.089844.828126.132813 1.242188h-6.589844zm0 39.292969h12v19h-12zm0 35h4v27.84375c.035156 8.253906-1.316406 16.457031-4 24.265625zm0 84.488281c12.988281-16.015625 20.050781-36.023437 20-56.644531v-27.84375c4.34375-.171875 7.828125-3.65625 8-8v-35c-.003906-3.375-2.125-6.382812-5.300781-7.519531-.097657-1.230469-.214844-2.457031-.367188-3.671875-2.21875-18.035156-10.03125-34.917969-22.332031-48.289063v-48.519531h44v274.753906c-9.113281-5.019531-19.335938-7.6875-29.738281-7.753906h-14.261719zm0 47.511719h14.261719c10.886719.074219 21.40625 3.949219 29.738281 10.957031v48.042969h-44zm0 75h44v20h-44zm-60-358h44v34.742188c-13.085938-8.796876-28.265625-13.96875-44-15zm0 35.777344c16.417969 1.316406 31.914062 8.117187 44 19.304687v44.917969h-44zm0 80.222656h44v19h-44zm0 35h44v6.8125c-2.234375-2.417969-5.722656-3.222656-8.785156-2.023438-3.066406 1.199219-5.085938 4.160157-5.082032 7.449219.027344 2.046875-1.046874 3.945313-2.8125 4.976563-1.765624 1.027344-3.945312 1.027344-5.710937 0-1.765625-1.03125-2.839844-2.929688-2.8125-4.976563 0-4.417969-3.582031-8-8-8-4.421875 0-8 3.582031-8 8 0 10.113281 7 18.878907 16.859375 21.121094 9.859375 2.246094 19.960938-2.628906 24.339844-11.746094v56.886719c-.367188.394531-.722656.792969-1.101563 1.179688-11.390625 11.871093-26.554687 19.417968-42.894531 21.351562zm0 117.117188c9.304688-.921876 18.414062-3.277344 27-6.984376v9.660157l-9.746094 6c-5.28125 3.257812-11.136718 5.476562-17.253906 6.535156zm0 31.390624c9.09375-1.222656 17.824219-4.378906 25.601562-9.25l11.460938-7.257812h6.9375v59h-44zm0 58.492188h44v20h-44zm-60-358h44v19.746094c-15.742188 1.039062-30.929688 6.242187-44 15.074218zm0 55.195312c12.0625-11.242187 27.566406-18.082031 44-19.410156v64.214844h-44zm0 60.804688h44v19h-44zm0 61.707031c5.992188 6.683594 15.488281 8.980469 23.871094 5.769531 8.386718-3.207031 13.921875-11.257812 13.914062-20.238281 0-4.417969-3.578125-8-8-8-4.417968 0-8 3.582031-8 8 .027344 2.046875-1.046875 3.945313-2.8125 4.976563-1.765625 1.027344-3.945312 1.027344-5.710937 0-1.765625-1.03125-2.839844-2.929688-2.8125-4.976563 0-2.554687-1.222657-4.957031-3.289063-6.460937-2.066406-1.507813-4.726562-1.933594-7.160156-1.152344v-4.625h44v101.03125c-16.34375-1.929688-31.507812-9.476562-42.898438-21.351562-.378906-.386719-.730468-.789063-1.101562-1.179688zm0 73.273438c.332031.253906 1 .488281 1 .734375v15.285156h-1zm0 32.019531h6.628906l9.769532 6.5c8.296874 5.453125 17.746093 8.910156 27.601562 10.105469v42.394531h-44zm0 75h44v20h-44zm-60-358h44v48.621094c-13.039062 14.140625-21.011719 32.214844-22.671875 51.378906h-1.328125c-4.417969 0-8 3.582031-8 8v35c0 4.417969 3.582031 8 8 8h4v27.84375c-.050781 20.621094 7.011719 40.628906 20 56.644531v31.511719h-14.261719c-10.402343.066406-20.625 2.734375-29.738281 7.753906zm0 293.957031c8.332031-7.007812 18.851562-10.882812 29.738281-10.957031h14.261719v59h-44zm0 64.042969h44v20h-44zm-67-358h51v287.113281c-10.917969 11.589844-16.996094 26.910157-17 42.832031v20.535157c0 4.417969 3.613281 7.519531 8.03125 7.519531h8.96875v20h-51zm0 0"/></svg>