<svg height="496pt" viewBox="0 0 496.00242 496" width="496pt" xmlns="http://www.w3.org/2000/svg"><path d="m240 238.527344c9.289062-3.308594 16-12.109375 16-22.527344v-24h144c4.414062 0 8-3.582031 8-8v-8h16v8c0 4.417969 3.585938 8 8 8h32c4.414062 0 8-3.582031 8-8v-96c0-4.414062-3.585938-8-8-8h-32c-4.414062 0-8 3.585938-8 8v8h-16v-32h48c2.671875 0 5.167969-1.335938 6.65625-3.558594l32-48c1.640625-2.457031 1.792969-5.609375.398438-8.207031-1.390626-2.609375-4.101563-4.234375-7.054688-4.234375h-416c-13.230469 0-24 10.769531-24 24v64c0 4.417969 3.585938 8 8 8h8v72c0 13.234375 10.769531 24 24 24h72v24c0 10.417969 6.710938 19.21875 16 22.527344v57.472656c0 13.234375-10.769531 24-24 24h-72v-40c0-13.230469-10.769531-24-24-24h-48c-4.414062 0-8 3.585938-8 8v176c0 4.417969 3.585938 8 8 8h48c13.230469 0 24-10.765625 24-24v-40h72c48.519531 0 88-39.480469 88-88zm200-142.527344h16v80h-16zm-16 16v48h-16v-48zm-352-96h401.046875l-21.335937 32h-107.710938c-2.121094 0-4.160156.839844-5.65625 2.34375l-29.65625 29.65625h-244.6875v-16h112v-16h-112v-24c0-4.40625 3.59375-8 8-8zm240 80c2.121094 0 4.160156-.839844 5.65625-2.34375l29.65625-29.65625h44.6875v80h-312v-48zm-232 72v-8h312v16h-304c-4.40625 0-8-3.589844-8-8zm160 24v24c0 4.410156-3.59375 8-8 8h-48c-4.40625 0-8-3.589844-8-8v-24zm-176 232c0 4.410156-3.59375 8-8 8h-40v-160h40c4.40625 0 8 3.59375 8 8zm88-56h-72v-32h72c22.054688 0 40-17.941406 40-40v-56h32v56c0 39.695312-32.304688 72-72 72zm0 0"/><path d="m494.808594 350.441406-15.847656 2.167969c.6875 5.070313 1.039062 10.246094 1.039062 15.390625 0 61.761719-50.238281 112-112 112v16c70.574219 0 128-57.421875 128-128 0-5.863281-.398438-11.773438-1.191406-17.558594zm0 0"/><path d="m488.679688 325.25c-2.0625-5.839844-4.589844-11.59375-7.503907-17.082031l-14.144531 7.488281c2.542969 4.808594 4.753906 9.832031 6.5625 14.945312zm0 0"/><path d="m444.144531 285.863281c4.902344 4.554688 9.441407 9.578125 13.464844 14.9375l12.796875-9.609375c-4.597656-6.125-9.773438-11.863281-15.382812-17.0625zm0 0"/><path d="m412.777344 265.304688c5.183594 2.265624 10.269531 4.96875 15.117187 8.03125l8.5625-13.511719c-5.527343-3.503907-11.34375-6.589844-17.28125-9.183594zm0 0"/><path d="m382.679688 256.953125c5.082031.664063 10.160156 1.6875 15.089843 3.046875l4.238281-15.429688c-5.640624-1.554687-11.441406-2.722656-17.246093-3.488281zm0 0"/><path d="m256.246094 375.480469c-.15625-2.472657-.246094-4.96875-.246094-7.480469 0-61.757812 50.238281-112 112-112v-16c-70.574219 0-128 57.425781-128 128 0 2.863281.097656 5.707031.28125 8.519531l7.984375-.519531-7.984375.519531c.367188 5.5625 1.101562 11.144531 2.183594 16.59375l15.695312-3.128906c-.953125-4.757813-1.601562-9.640625-1.914062-14.503906zm0 0"/><path d="m262.246094 404.992188-15.101563 5.28125c2.113281 6.023437 4.6875 11.9375 7.671875 17.566406l14.136719-7.503906c-2.601563-4.910157-4.855469-10.070313-6.707031-15.34375zm0 0"/><path d="m265.601562 444.808594c4.734376 6.3125 10.101563 12.226562 15.941407 17.578125l10.816406-11.800781c-5.113281-4.6875-9.816406-9.863282-13.96875-15.394532zm0 0"/><path d="m299.902344 476.410156c5.167968 3.246094 10.59375 6.144532 16.136718 8.605469l6.496094-14.621094c-4.839844-2.152343-9.589844-4.679687-14.109375-7.53125zm0 0"/><path d="m333.273438 491.234375c5.605468 1.574219 11.390624 2.78125 17.199218 3.574219l2.167969-15.847656c-5.082031-.695313-10.136719-1.742188-15.03125-3.128907zm0 0"/><path d="m464 368c0-2.886719-1.558594-5.550781-4.078125-6.976562l-128-72c-2.480469-1.390626-5.515625-1.367188-7.960937.066406-2.457032 1.4375-3.960938 4.070312-3.960938 6.910156v144c0 2.839844 1.503906 5.472656 3.960938 6.90625 1.246093.734375 2.648437 1.09375 4.039062 1.09375 1.351562 0 2.703125-.34375 3.921875-1.023438l128-72c2.519531-1.421874 4.078125-4.085937 4.078125-6.976562zm-128 58.320312v-116.640624l103.679688 58.320312zm0 0"/></svg>