<?xml version="1.0" encoding="iso-8859-1"?>
<!-- Generator: Adobe Illustrator 19.0.0, SVG Export Plug-In . SVG Version: 6.00 Build 0)  -->
<svg version="1.1" id="Capa_1" xmlns="http://www.w3.org/2000/svg" xmlns:xlink="http://www.w3.org/1999/xlink" x="0px" y="0px"
	 viewBox="0 0 463 463" style="enable-background:new 0 0 463 463;" xml:space="preserve">
<path d="M351.5,416H351V253.766c9.29-3.138,16-11.93,16-22.266s-6.71-19.128-16-22.266V47h0.5c12.958,0,23.5-10.542,23.5-23.5
	S364.458,0,351.5,0h-240C98.542,0,88,10.542,88,23.5S98.542,47,111.5,47h0.5v162.234c-9.29,3.138-16,11.93-16,22.266
	s6.71,19.128,16,22.266V416h-0.5C98.542,416,88,426.542,88,439.5S98.542,463,111.5,463h240c12.958,0,23.5-10.542,23.5-23.5
	S364.458,416,351.5,416z M343.5,240c-4.687,0-8.5-3.813-8.5-8.5s3.813-8.5,8.5-8.5s8.5,3.813,8.5,8.5S348.187,240,343.5,240z
	 M336,209.234c-9.29,3.138-16,11.93-16,22.266s6.71,19.128,16,22.266V416h-23.361C322.08,402.199,327,385.71,327,367.5
	c0-32.227-15.871-67.093-45.897-100.83c-14.373-16.149-28.62-28.349-37.2-35.17c8.58-6.821,22.827-19.021,37.2-35.17
	C311.129,162.593,327,127.727,327,95.5c0-18.21-4.92-34.699-14.361-48.5H336V209.234z M169.649,416
	C157.443,403.26,151,386.561,151,367.5c0-20.03,6.992-39.259,16.957-56.5H207.5c9.607,0,18.218-4.328,24-11.131
	c5.782,6.803,14.393,11.131,24,11.131h39.574C305.022,328.231,312,347.456,312,367.5c0,19.061-6.443,35.76-18.649,48.5H169.649z
	 M169.649,47h123.702C305.557,59.74,312,76.439,312,95.5c0,20.03-6.992,39.259-16.957,56.5H167.926
	C157.978,134.769,151,115.544,151,95.5C151,76.439,157.443,59.74,169.649,47z M285.343,167
	c-19.449,27.201-44.049,47.559-53.847,55.136c-9.81-7.574-34.427-27.92-53.877-55.136H285.343z M255.5,296
	c-9.098,0-16.5-7.402-16.5-16.5v-32.611c11.947,9.955,30.816,27.331,46.381,49.111H255.5z M224,279.5c0,9.098-7.402,16.5-16.5,16.5
	h-29.843c15.558-21.759,34.406-39.135,46.343-49.096V279.5z M103,23.5c0-4.687,3.813-8.5,8.5-8.5h240c4.687,0,8.5,3.813,8.5,8.5
	s-3.813,8.5-8.5,8.5h-240C106.813,32,103,28.187,103,23.5z M119.5,223c4.687,0,8.5,3.813,8.5,8.5s-3.813,8.5-8.5,8.5
	s-8.5-3.813-8.5-8.5S114.813,223,119.5,223z M127,253.766c9.29-3.138,16-11.93,16-22.266s-6.71-19.128-16-22.266V47h23.361
	C140.92,60.801,136,77.29,136,95.5c0,32.227,15.871,67.093,45.897,100.83c14.373,16.149,28.62,28.349,37.2,35.17
	c-8.58,6.821-22.827,19.021-37.2,35.17C151.871,300.407,136,335.273,136,367.5c0,18.21,4.92,34.699,14.361,48.5H127V253.766z
	 M351.5,448h-240c-4.687,0-8.5-3.813-8.5-8.5s3.813-8.5,8.5-8.5h240c4.687,0,8.5,3.813,8.5,8.5S356.187,448,351.5,448z"/>
<g>
</g>
<g>
</g>
<g>
</g>
<g>
</g>
<g>
</g>
<g>
</g>
<g>
</g>
<g>
</g>
<g>
</g>
<g>
</g>
<g>
</g>
<g>
</g>
<g>
</g>
<g>
</g>
<g>
</g>
</svg>
