<svg width="56" height="56" viewBox="0 0 56 56" fill="none" xmlns="http://www.w3.org/2000/svg">
<path d="M30.292 1.462C31.714 -0.0740009 34.45 0.129999 35.662 1.828C36.538 2.896 36.322 4.336 36.136 5.596C40.864 10.378 45.61 15.148 50.404 19.864C53.488 18.436 56.98 22.102 55.084 25.006C52.354 28.264 49.084 31.03 46.18 34.138C44.956 35.476 43.264 36.958 41.302 36.214C39.154 35.626 38.44 33.136 39.064 31.186C37.45 29.5 35.77 27.874 34.126 26.212C30.334 30.262 26.584 34.342 22.786 38.386C22.12 39.034 22.024 40 21.634 40.804C19.42 41.38 18.262 43.432 16.738 44.932C13.828 48.01 11.002 51.178 8.056 54.22C6.448 55.99 3.412 56.014 1.756 54.31C-0.0259996 52.666 -0.0259996 49.564 1.78 47.938C4.834 45.01 7.996 42.19 11.068 39.274C12.568 37.75 14.614 36.586 15.208 34.384C17.446 33.928 18.772 32.002 20.404 30.598C23.56 27.724 26.656 24.784 29.788 21.886C28.126 20.236 26.5 18.556 24.814 16.936C23.536 17.122 22.054 17.338 20.986 16.426C19.306 15.196 19.138 12.466 20.686 11.062C23.86 7.834 27.052 4.618 30.292 1.462ZM32.308 2.932C28.954 5.968 25.876 9.31 22.642 12.478C21.88 13.012 21.73 14.308 22.708 14.698C23.674 15.118 24.322 14.08 24.958 13.558C27.808 10.618 30.796 7.81 33.616 4.834C34.612 4.006 33.46 2.26 32.308 2.932ZM26.59 15.304C27.466 16.168 28.342 17.026 29.206 17.902C31.84 15.262 34.474 12.628 37.108 10C36.238 9.136 35.374 8.266 34.51 7.396C31.876 10.036 29.218 12.658 26.59 15.304ZM30.904 19.606C32.734 21.436 34.564 23.272 36.4 25.102C39.034 22.468 41.668 19.834 44.302 17.2C42.472 15.364 40.636 13.528 38.8 11.698C36.16 14.332 33.532 16.966 30.904 19.606ZM38.11 26.8C38.98 27.664 39.844 28.534 40.708 29.398C43.348 26.776 45.976 24.136 48.604 21.502C47.734 20.632 46.87 19.768 46.006 18.898C43.366 21.52 40.732 24.154 38.11 26.8ZM51.526 22.108C48.178 25.156 45.094 28.486 41.86 31.654C41.068 32.206 40.948 33.46 41.896 33.934C42.886 34.246 43.528 33.322 44.164 32.758C47.02 29.806 50.02 26.998 52.834 24.004C53.8 23.158 52.678 21.532 51.526 22.108ZM18.316 35.824C18.946 36.43 19.57 37.054 20.176 37.684C23.956 33.616 27.748 29.554 31.522 25.48C32.392 24.892 32.17 24.238 31.444 23.632C27.07 27.7 22.69 31.756 18.316 35.824ZM4.342 48.772C3.772 49.396 2.962 49.948 2.83 50.842C2.548 52.318 4.294 53.71 5.668 53.026C6.844 52.24 7.714 51.106 8.674 50.086C11.962 46.528 15.28 42.994 18.556 39.43C17.878 38.788 17.212 38.128 16.57 37.444C12.484 41.212 8.452 45.034 4.342 48.772Z" fill="#556080"/>
</svg>
