<svg id="Capa_1" enable-background="new 0 0 512.008 512.008" height="512" viewBox="0 0 512.008 512.008" width="512" xmlns="http://www.w3.org/2000/svg"><g><path d="m263.607 490.655c-11.555 4.134-23.831 6.229-36.487 6.229h-102.853c-39.349 0-74.303-20.505-93.504-54.851-19.201-34.347-18.359-74.863 2.25-108.383l92.964-151.192c.336.013 98.912.005 99.416-.026l92.979 151.217c4.17 6.782 7.592 13.967 10.172 21.354 1.08 3.093 3.98 5.029 7.081 5.029.82 0 1.654-.136 2.473-.421 3.911-1.366 5.974-5.644 4.608-9.554-2.934-8.402-6.822-16.566-11.556-24.266l-91.587-148.952c5.487-4.531 8.99-11.383 8.99-19.038 0-6.775-2.745-12.919-7.179-17.383.095-.097.188-.196.281-.295l66.726 71.488c1.477 1.583 3.478 2.383 5.484 2.383 1.833 0 3.67-.668 5.116-2.018 3.028-2.826 3.191-7.572.365-10.6l-70.929-75.991c.089-.862.135-1.736.135-2.621 0-10.221-6.082-19.042-14.813-23.051l9.71-26.718 178.213 180.289c1.408 1.425 3.328 2.227 5.331 2.228h.003c2.002 0 3.921-.801 5.33-2.224l18.22-18.406c.096-.097.387-.394.927-.263.538.13.663.527.704.658l36.26 115.132c.048.153.176.561-.235.979-.412.421-.82.3-.976.255l-112.448-32.9c-.149-.044-.546-.159-.678-.713s.169-.837.282-.943l22.779-21.384c3.014-2.829 3.17-7.563.35-10.585l-56.35-60.37c-2.827-3.029-7.572-3.191-10.601-.365-3.028 2.826-3.191 7.572-.365 10.6l51.247 54.903-17.327 16.266c-4.233 3.975-5.954 9.719-4.605 15.366 1.35 5.646 5.482 9.991 11.055 11.622l112.448 32.9c1.485.435 2.999.646 4.5.646 4.229 0 8.35-1.684 11.403-4.8 4.136-4.222 5.603-10.347 3.828-15.983l-36.259-115.132c-1.698-5.39-5.989-9.4-11.48-10.73-5.492-1.334-11.143.272-15.118 4.288l-12.886 13.018-179.771-181.862c-.596-3.317-2.124-6.461-4.522-9.042-4.607-4.959-11.518-6.897-18.033-5.057l-28.172 7.957-9.702-7.192c-6.8-5.042-15.939-5.043-22.74-.001l-9.702 7.193-28.172-7.957c-1.684-.476-3.394-.695-5.084-.679l-23.91-37.143c-2.242-3.483-6.882-4.486-10.366-2.247-3.483 2.242-4.489 6.884-2.247 10.366l22.886 35.552c-4.054 4.899-5.228 11.531-3.035 17.563l12.69 34.918c-5.282 2.425-9.591 6.61-12.173 11.802l-91.737-107.757c-2.686-3.153-7.419-3.533-10.573-.848-3.154 2.686-3.534 7.419-.849 10.572 0 0 106.088 125.277 107.699 126.936-4.435 4.464-7.18 10.609-7.18 17.384 0 7.816 3.656 14.79 9.344 19.315l-91.416 148.674c-23.496 38.214-24.455 84.404-2.566 123.56 21.89 39.155 61.739 62.531 106.597 62.531h102.853c14.383 0 28.359-2.391 41.54-7.106 3.9-1.396 5.931-5.688 4.535-9.588s-5.687-5.934-9.588-4.536zm-135.943-378.243h95.534c5.71 0 10.355 4.646 10.355 10.355 0 5.71-4.646 10.355-10.355 10.355h-95.534c-5.71 0-10.355-4.646-10.355-10.355-.001-5.71 4.645-10.355 10.355-10.355zm96.208 35.711c5.338 0 9.681 4.343 9.681 9.682 0 5.338-4.343 9.681-9.681 9.681h-96.882c-5.338 0-9.682-4.343-9.682-9.682 0-5.338 4.343-9.681 9.682-9.681zm-70.044-83.343c2.236.632 4.639.19 6.505-1.193l12.662-9.387c1.457-1.08 3.414-1.081 4.873.001l12.662 9.387c1.866 1.384 4.269 1.825 6.505 1.192l31.718-8.958c1.509-.428 2.507.338 2.967.832.459.494 1.149 1.544.613 3.021l-13.714 37.736h-86.374l-13.714-37.736c-.537-1.478.153-2.527.613-3.021s1.457-1.26 2.968-.832z"/><path d="m162.453 459.488h21.633c6.442 0 11.684-5.241 11.684-11.684v-8.953h31.283c12.407 0 22.5-10.094 22.5-22.5v-59.544c0-12.406-10.093-22.5-22.5-22.5h-78.086v-14.544h87.083c5.722 0 10.377-4.655 10.377-10.377v-24.246c0-5.722-4.655-10.377-10.377-10.377h-40.28v-7.537c0-7.224-5.876-13.1-13.099-13.1h-18.802c-7.223 0-13.099 5.876-13.099 13.1v7.537h-24.303c-12.407 0-22.5 10.094-22.5 22.5v59.544c0 12.406 10.093 22.5 22.5 22.5h78.086v14.544h-38.697c-4.142 0-7.5 3.357-7.5 7.5s3.358 7.5 7.5 7.5h46.197c4.142 0 7.5-3.357 7.5-7.5v-29.544c0-4.143-3.358-7.5-7.5-7.5h-85.586c-4.136 0-7.5-3.364-7.5-7.5v-59.544c0-4.136 3.364-7.5 7.5-7.5h31.803c4.142 0 7.5-3.357 7.5-7.5v-13.137h15v13.137c0 4.143 3.358 7.5 7.5 7.5h43.157v15h-89.96c-4.142 0-7.5 3.357-7.5 7.5v29.544c0 4.143 3.358 7.5 7.5 7.5h85.586c4.136 0 7.5 3.364 7.5 7.5v59.544c0 4.136-3.364 7.5-7.5 7.5h-38.783c-4.142 0-7.5 3.357-7.5 7.5v13.137h-15v-13.137c0-4.143-3.358-7.5-7.5-7.5h-37.559v-15h13.183c4.142 0 7.5-3.357 7.5-7.5s-3.358-7.5-7.5-7.5h-14.96c-7.291 0-13.223 5.932-13.223 13.223v18.555c0 7.291 5.932 13.223 13.223 13.223h31.836v8.953c0 6.442 5.241 11.683 11.683 11.683z"/><path d="m512.008 399.404c0-13.438-10.934-24.372-24.373-24.372h-37.606c-4.142 0-7.5 3.357-7.5 7.5s3.358 7.5 7.5 7.5h37.606c5.168 0 9.373 4.204 9.373 9.372v27.182c0 5.164-4.198 9.365-9.36 9.373-.004 0-.008 0-.013 0h-175.762c-.004 0-.008 0-.013 0-5.162-.007-9.36-4.209-9.36-9.373v-27.182c0-5.168 4.204-9.372 9.372-9.372h106.194c4.142 0 7.5-3.357 7.5-7.5s-3.358-7.5-7.5-7.5h-106.193c-13.439 0-24.372 10.934-24.372 24.372v27.182c0 6.544 2.597 12.49 6.809 16.873-4.212 4.383-6.809 10.328-6.809 16.873v27.181c0 13.439 10.933 24.373 24.372 24.373h175.763c13.439 0 24.372-10.934 24.372-24.373v-27.181c0-6.544-2.597-12.49-6.809-16.873 4.212-4.383 6.81-10.328 6.81-16.873v-27.182zm-15 88.107c0 5.168-4.204 9.373-9.372 9.373h-175.763c-5.168 0-9.372-4.205-9.372-9.373v-27.181c0-5.164 4.197-9.365 9.359-9.373h.013 175.762.013c5.162.007 9.359 4.209 9.359 9.373v27.181z"/></g></svg>