<svg height="504pt" viewBox="-17 0 504 504.23109" width="504pt" xmlns="http://www.w3.org/2000/svg"><path d="m469.710938 7.148438c-.03125-.304688-.082032-.605469-.148438-.90625-.019531-.074219-.039062-.144532-.058594-.21875-.058594-.234376-.128906-.46875-.210937-.699219-.03125-.082031-.058594-.164063-.089844-.246094-.101563-.253906-.214844-.507813-.339844-.75-.015625-.035156-.03125-.070313-.046875-.101563-.152344-.285156-.324218-.558593-.507812-.824218-.03125-.046875-.070313-.089844-.101563-.136719-.152343-.207031-.320312-.410156-.5-.609375-.058593-.066406-.121093-.132812-.183593-.199219-.175782-.179687-.359376-.351562-.550782-.519531-.042968-.035156-.078125-.078125-.125-.113281-.011718-.015625-.03125-.023438-.046875-.035157-.015625-.015624-.042969-.042968-.066406-.0625-.230469-.179687-.46875-.347656-.71875-.503906-.042969-.027344-.089844-.050781-.132813-.078125-.234374-.140625-.472656-.265625-.714843-.382812-.078125-.035157-.15625-.070313-.234375-.105469-.230469-.097656-.464844-.1875-.699219-.265625-.066406-.019531-.136719-.046875-.199219-.066406-.304687-.089844-.609375-.164063-.921875-.21875-.039062-.003907-.078125-.0078128-.117187-.011719-.265625-.0429688-.535156-.0703125-.800782-.0859375-.101562-.00390625-.199218-.00390625-.308593-.0078125-.21875 0-.441407 0-.660157.015625-.101562.0078125-.191406.0117188-.289062.0195312-.300781.03125-.601562.0781248-.898438.1445318-.070312.015624-.136718.035156-.203124.050781-.246094.0625-.492188.136719-.734376.21875-.042968.015625-.085937.023437-.128906.039062l-63.921875 23.699219c-.058593.023438-.121093.046875-.179687.070312-3.949219 1.582032-7.101563 4.679688-8.75 8.601563l-16.34375 36.117187-11.03125-19.5c-1.109375-1.96875-3.003906-3.375-5.210938-3.871093-2.207031-.492188-4.519531-.03125-6.367187 1.273437-55.835938 39.441406-84.066407 111.214844-72.328125 183.371094l-34.757813 43.722656c-1.816406 2.234375-2.292969 5.273438-1.25 7.953125 1.046875 2.683594 3.453125 4.597657 6.304688 5.011719 2.847656.414062 5.703125-.734375 7.46875-3.007812l35.878906-45.128907c40.289063-3.214843 78.460937-19.386719 108.800781-46.09375 31.503906-27.894531 52.550782-65.703125 59.664063-107.175781l12.6875-76.144531v-.019531l.011719-.066407c.007812-.03125.007812-.0625.011718-.097656.039063-.273437.066406-.546875.082032-.824219 0-.101562.007812-.191406.007812-.285156 0-.242188-.007812-.484375-.023438-.730469-.003906-.0625-.003906-.140625-.015624-.214843zm-120.402344 58.132812 14.300781 25.28125c1.484375 2.625 4.3125 4.191406 7.324219 4.054688 3.007812-.136719 5.6875-1.949219 6.929687-4.691407l22.898438-50.59375c.035156-.078125.066406-.15625.097656-.234375l36.792969-13.636718-148.832032 187.210937c-4.652343-57.78125 18.023438-113.472656 60.488282-147.390625zm91.867187 17.597656c-6.5 37.863282-25.71875 72.378906-54.484375 97.839844-23.738281 20.90625-52.808594 34.816406-83.980468 40.1875l146.078124-183.742188zm0 0"/><path d="m194.023438 504.230469c8.761718.019531 17.175781-3.445313 23.382812-9.632813s9.699219-14.589844 9.703125-23.351562v-114.574219c0-22.050781-12-42.328125-31-52.117187v-10.542969c3.472656-1.042969 5.886719-4.1875 6-7.808594v-61.058594c-.003906-3.746093-1.519531-7.332031-4.199219-9.949219-2.679687-2.617187-6.300781-4.046874-10.046875-3.964843h-148.042969c-7.890624 0-14.710937 6.027343-14.710937 13.914062v61.058594c0 3.824219 3 7.015625 7 7.808594v10.566406c0 .085937-.484375.175781-.648437.265625-.269532.140625-.621094.289062-.890626.4375-.34375.191406-.726562.386719-1.066406.585938-.261718.152343-.546875.308593-.808594.464843-.335937.199219-.679687.414063-1.011718.625-.253906.160157-.515625.320313-.765625.488281-.335938.21875-.671875.449219-1.003907.675782-.238281.164062-.480468.328125-.714843.496094-.34375.246093-.6875.5-1.027344.75-.214844.160156-.429687.316406-.644531.480468-.378906.292969-.75.589844-1.121094.890625-.164062.132813-.335938.265625-.5.398438-.53125.4375-1.050781.886719-1.566406 1.339843-.097656.09375-.199219.1875-.300782.28125-.410156.367188-.816406.738282-1.214843 1.121094-.183594.175782-.359375.355469-.542969.53125-.3125.304688-.621094.609375-.925781.921875-.199219.199219-.394531.410157-.589844.617188-.277344.292969-.554687.589843-.828125.886719-.199219.222656-.398438.445312-.601562.671874-.257813.292969-.515626.585938-.765626.882813-.203124.234375-.394531.46875-.585937.699219-.246094.296875-.488281.597656-.726563.902344-.191406.238281-.378906.480468-.5625.726562-.234374.304688-.464843.613281-.695312.925781-.179688.246094-.359375.492188-.539062.742188-.222657.316406-.445313.636719-.664063.957031-.167969.25-.339844.5-.507813.753906-.214843.328125-.425781.660156-.636718.992188-.160156.253906-.320313.5-.472656.757812-.214844.34375-.417969.699219-.621094 1.046875-.144532.246094-.292969.492188-.429688.738281-.214844.378907-.417968.761719-.625 1.144532-.121094.226562-.246094.449218-.363281.679687-.25.476563-.488281.964844-.722656 1.449219-.066407.136719-.136719.269531-.203125.40625-.296875.625-.582032 1.253906-.855469 1.890625-.078125.179687-.152344.363281-.230469.542969-.191406.457031-.382812.914062-.5625 1.378906-.101562.246094-.191406.5-.285156.746094-.148438.402344-.296875.800781-.445312 1.207031-.097657.273437-.183594.546875-.277344.820313-.132813.386718-.261719.773437-.382813 1.164062-.089843.285156-.175781.574219-.261719.863281-.113281.382813-.222656.761719-.328124 1.144531-.082032.300782-.160157.59375-.238282.890626-.097656.382812-.195312.765624-.285156 1.148437-.070312.300781-.140625.601563-.207031.902344-.085938.386719-.167969.773437-.246094 1.164062-.058594.300781-.117187.597657-.175781.90625-.070313.394531-.136719.789063-.199219 1.183594-.046875.296875-.097656.597656-.140625.898437-.0625.398438-.113281.808594-.164062 1.21875-.039063.296876-.074219.589844-.109376.886719-.046874.421875-.082031.847657-.121093 1.273438-.023438.28125-.054688.5625-.074219.84375-.035156.46875-.058594.941406-.082031 1.414062-.011719.238281-.199219.476563-.210938.71875-.027343.710938-.214843 1.425781-.214843 2.140625v114.601563c-.007813 18.261719 15.292968 32.96875 33.566406 32.96875zm-152.914063-277h145v51h-145zm-25 244.015625v-114.574219c.101563-17.347656 10.605469-32.941406 26.640625-39.558594 3.109375-1.179687 5.21875-4.097656 5.359375-7.421875v-15.460937h132v15.460937c-.066406 3.257813 1.882813 6.21875 4.902344 7.441406 15.703125 6.203126 26.097656 22.09375 26.097656 39.539063v114.550781c.003906 4.527344-1.800781 8.871094-5.011719 12.066406-3.214844 3.191407-7.570312 4.972657-12.097656 4.941407h-160.289062c-9.484376 0-17.601563-7.527344-17.601563-16.984375zm0 0"/><path d="m58.109375 461.230469h112c4.417969 0 8-3.582031 8-8v-95c0-4.417969-3.582031-8-8-8h-112c-4.417969 0-8 3.582031-8 8v95c0 4.417969 3.582031 8 8 8zm8-95h96v79h-96zm0 0"/></svg>