<svg height="446pt" viewBox="0 -11 446 446" width="446pt" xmlns="http://www.w3.org/2000/svg"><path d="m395.640625 37.851562h-39.640625v-29.851562c0-4.417969-3.582031-8-8-8s-8 3.582031-8 8v29.851562h-230v-29.851562c0-4.417969-3.582031-8-8-8s-8 3.582031-8 8v29.851562h-43.640625c-27.734375-.042968-50.265625 22.378907-50.359375 50.113282v285.484375c.0703125 27.792969 22.570312 50.308593 50.359375 50.402343h345.28125c27.789063-.09375 50.289063-22.609374 50.359375-50.402343v-285.484375c-.09375-27.734375-22.625-50.15625-50.359375-50.113282zm34.359375 335.597657c-.0625 18.960937-15.402344 34.320312-34.359375 34.402343h-345.28125c-18.957031-.082031-34.296875-15.441406-34.359375-34.402343v-236.597657h414zm0-252.597657h-414v-32.886718c.085938-18.902344 15.457031-34.164063 34.359375-34.113282h43.640625v29.578126c0 4.417968 3.582031 8 8 8s8-3.582032 8-8v-29.578126h230v29.578126c0 4.417968 3.582031 8 8 8s8-3.582032 8-8v-29.578126h39.640625c18.902344-.050781 34.273437 15.210938 34.359375 34.113282zm0 0"/><path d="m130.652344 330.730469c27.292968 0 46.355468-17.300781 46.355468-42.078125-.003906-3.144532-1.847656-5.996094-4.714843-7.289063l-30.03125-80.511719h59.296875c2.796875 5.527344 7.609375 9.765626 13.441406 11.84375v111.15625h-6.164062c-10.945313 0-20.691407 8.589844-24 19.542969-3.980469.617188-6.894532 4.070313-6.835938 8.097657v20.171874c-.054688 2.121094.734375 4.171876 2.191406 5.707032 1.460938 1.535156 3.472656 2.429687 5.589844 2.480468h74.4375c2.121094-.054687 4.128906-.945312 5.589844-2.480468 1.457031-1.539063 2.246094-3.589844 2.191406-5.710938v-20.171875c.058594-4.027343-2.855469-7.480469-6.835938-8.097656-3.308593-10.953125-13.054687-19.542969-24-19.542969h-6.164062v-111.152344c5.835938-2.078124 10.648438-6.316406 13.441406-11.84375h59.300782l-30.035157 80.511719c-2.867187 1.292969-4.710937 4.144531-4.714843 7.289063 0 24.773437 18.949218 42.078125 46.082031 42.078125 27.292969 0 46.359375-17.300781 46.359375-42.078125-.003906-3.011719-1.695313-5.765625-4.378906-7.128906l-34.207032-91.699219c-.03125-.078125-.066406-.148438-.101562-.222657-.058594-.140624-.113282-.28125-.179688-.417968-.054687-.113282-.117187-.226563-.175781-.339844-.058594-.109375-.121094-.226562-.191406-.339844-.066407-.109375-.144531-.234375-.222657-.347656-.066406-.101562-.132812-.203125-.207031-.296875-.082031-.113281-.167969-.21875-.257812-.328125-.089844-.109375-.15625-.1875-.238281-.277344-.082032-.089844-.179688-.195312-.277344-.289062-.09375-.09375-.183594-.179688-.28125-.269532-.09375-.085937-.1875-.164062-.28125-.242187s-.214844-.171875-.324219-.253906c-.113281-.082031-.203125-.140625-.300781-.207031-.101563-.066407-.230469-.152344-.347656-.226563-.121094-.070313-.226563-.125-.339844-.1875-.109375-.058594-.226563-.121094-.34375-.179687-.121094-.054688-.265625-.117188-.402344-.171876-.078125-.03125-.152344-.070312-.234375-.097656-.027344-.011718-.058594-.019531-.085937-.03125-.144532-.050781-.289063-.09375-.4375-.136718-.109376-.03125-.21875-.066407-.328126-.097657-.136718-.035156-.269531-.058593-.40625-.085937-.136718-.027344-.246093-.050782-.371093-.070313s-.246094-.027343-.367188-.039062c-.125-.015625-.277343-.03125-.414062-.039063-.113281 0-.226563 0-.34375 0-.144531 0-.292969-.003906-.4375 0-.109375 0-.21875.019532-.328125.03125-.148438.011719-.300782.023438-.453125.046875-.097657.015625-.203125.039063-.308594.058594-.140625.027344-.28125.050781-.421875.085937h-67c-2.4375-10.992187-12.183594-18.8125-23.441406-18.8125-11.257813 0-21 7.820313-23.441406 18.8125h-67c-.121094-.03125-.242188-.050781-.367188-.074218-.121094-.023438-.246094-.054688-.371094-.074219-.125-.015625-.246094-.023437-.367187-.039063-.136719-.011718-.277344-.027343-.414063-.035156-.113281 0-.226562 0-.34375 0-.144531 0-.292968-.007812-.4375 0-.109375 0-.21875.019532-.328125.027344-.152343.015625-.296875.027344-.453125.050781-.097656.015625-.199218.039063-.304687.058594-.15625.027344-.316407.058594-.472657.097656-.09375.023438-.1875.058594-.285156.085938-.15625.046875-.316406.09375-.476562.148437-.027344.011719-.050782.015625-.078125.027344-.074219.027344-.140625.0625-.210938.089844-.148437.058594-.292969.121094-.433593.1875-.109376.050781-.214844.109375-.320313.164062-.125.066406-.246094.132813-.363281.203125-.121094.066407-.21875.136719-.328125.210938-.109375.070312-.214844.140625-.316407.21875-.105468.078125-.207031.160156-.308593.242187-.101563.085938-.203125.167969-.300781.257813-.101563.085937-.179688.167969-.269532.257812-.089844.089844-.195312.195313-.285156.300781-.078125.085938-.15625.175782-.230469.265626-.089843.113281-.179687.222656-.265625.339843-.070312.09375-.136718.191407-.199218.285157-.078126.117187-.15625.234374-.230469.359374-.070313.121094-.125.21875-.1875.332032-.0625.113281-.121094.226562-.175781.34375-.066407.136718-.121094.277344-.179688.417968-.03125.074219-.066406.144532-.097656.222657l-34.207032 91.699219c-2.6875 1.363281-4.378906 4.117187-4.378906 7.128906.003906 24.773437 18.953125 42.078125 46.085938 42.078125zm184.421875-15.800781c-11.75 0-25.167969-5.078126-29-18.078126h58.21875c-3.8125 12-16.5625 18.078126-29.21875 18.078126zm.273437-99.222657 24.300782 65.144531h-48.597657zm-63.347656 148.144531h-58v-4h58zm-14.835938-24c2.199219 0 4.425782 2 6.144532 4h-40.617188c1.71875-2 3.941406-4 6.144532-4zm-14.164062-157.8125c4.425781 0 8.015625 3.589844 8.015625 8.015626 0 4.429687-3.589844 8.015624-8.015625 8.015624s-8.015625-3.585937-8.015625-8.015624c.003906-4.421876 3.589844-8.007813 8.015625-8.015626zm-92.347656 33.667969 24.300781 65.144531h-48.601563zm29.214844 81.144531c-3.808594 12-16.558594 18.078126-29.214844 18.078126-11.75 0-25.167969-5.078126-29-18.078126zm0 0"/></svg>