<?xml version="1.0" encoding="iso-8859-1"?>
<!-- Generator: Adobe Illustrator 19.0.0, SVG Export Plug-In . SVG Version: 6.00 Build 0)  -->
<svg version="1.1" id="Capa_1" xmlns="http://www.w3.org/2000/svg" xmlns:xlink="http://www.w3.org/1999/xlink" x="0px" y="0px"
	 viewBox="0 0 463 463" style="enable-background:new 0 0 463 463;" xml:space="preserve">
<g>
	<path d="M375.5,0h-288C70.131,0,56,14.131,56,31.5v368c0,17.369,14.131,31.5,31.5,31.5H88v16.5c0,8.547,6.953,15.5,15.5,15.5h16
		c8.547,0,15.5-6.953,15.5-15.5V431h193v16.5c0,8.547,6.953,15.5,15.5,15.5h16c8.547,0,15.5-6.953,15.5-15.5V431h0.5
		c17.369,0,31.5-14.131,31.5-31.5v-368C407,14.131,392.869,0,375.5,0z M120,447.5c0,0.275-0.225,0.5-0.5,0.5h-16
		c-0.275,0-0.5-0.225-0.5-0.5V431h17V447.5z M360,447.5c0,0.275-0.225,0.5-0.5,0.5h-16c-0.275,0-0.5-0.225-0.5-0.5V431h17V447.5z
		 M392,399.5c0,9.098-7.402,16.5-16.5,16.5h-288c-9.098,0-16.5-7.402-16.5-16.5v-368C71,22.402,78.402,15,87.5,15h288
		c9.098,0,16.5,7.402,16.5,16.5V399.5z"/>
	<path d="M359.5,40h-256c-4.143,0-7.5,3.357-7.5,7.5v25.734c-9.29,3.138-16,11.93-16,22.266v24c0,10.336,6.71,19.128,16,22.266
		v147.469c-9.29,3.138-16,11.93-16,22.266v24c0,10.336,6.71,19.128,16,22.266V383.5c0,4.143,3.357,7.5,7.5,7.5h256
		c4.143,0,7.5-3.357,7.5-7.5v-336C367,43.357,363.643,40,359.5,40z M352,256h-8.5c-4.687,0-8.5-3.813-8.5-8.5v-64
		c0-4.687,3.813-8.5,8.5-8.5h8.5V256z M95,95.5c0-4.687,3.813-8.5,8.5-8.5s8.5,3.813,8.5,8.5v24c0,4.687-3.813,8.5-8.5,8.5
		s-8.5-3.813-8.5-8.5V95.5z M95,311.5c0-4.687,3.813-8.5,8.5-8.5s8.5,3.813,8.5,8.5v24c0,4.687-3.813,8.5-8.5,8.5
		s-8.5-3.813-8.5-8.5V311.5z M111,376v-18.234c9.29-3.138,16-11.93,16-22.266v-24c0-10.336-6.71-19.128-16-22.266V141.766
		c9.29-3.138,16-11.93,16-22.266v-24c0-10.336-6.71-19.128-16-22.266V55h241v105h-8.5c-12.958,0-23.5,10.542-23.5,23.5v64
		c0,12.958,10.542,23.5,23.5,23.5h8.5v105H111z"/>
	<path d="M231.5,160c-30.603,0-55.5,24.897-55.5,55.5c0,28.058,20.934,51.305,48,54.979v9.021c0,4.143,3.357,7.5,7.5,7.5
		s7.5-3.357,7.5-7.5v-9.021c27.066-3.675,48-26.921,48-54.979C287,184.897,262.103,160,231.5,160z M231.5,256
		c-22.332,0-40.5-18.168-40.5-40.5s18.168-40.5,40.5-40.5s40.5,18.168,40.5,40.5S253.832,256,231.5,256z"/>
	<path d="M231.5,192c-12.958,0-23.5,10.542-23.5,23.5s10.542,23.5,23.5,23.5s23.5-10.542,23.5-23.5S244.458,192,231.5,192z
		 M231.5,224c-4.687,0-8.5-3.813-8.5-8.5s3.813-8.5,8.5-8.5s8.5,3.813,8.5,8.5S236.187,224,231.5,224z"/>
</g>
<g>
</g>
<g>
</g>
<g>
</g>
<g>
</g>
<g>
</g>
<g>
</g>
<g>
</g>
<g>
</g>
<g>
</g>
<g>
</g>
<g>
</g>
<g>
</g>
<g>
</g>
<g>
</g>
<g>
</g>
</svg>
