<svg height="464pt" viewBox="0 -42 464.27906 464" width="464pt" xmlns="http://www.w3.org/2000/svg"><path d="m457.527344 105.964844-62.335938-9.835938 12.351563-31.0625c.898437-2.261718.722656-4.804687-.480469-6.917968-1.207031-2.113282-3.304688-3.5625-5.707031-3.941407l-342.09375-53.96875c-4.367188-.691406-8.464844 2.289063-9.152344 6.65625l-21.925781 138.988281c-.6875 4.363282 2.289062 8.457032 6.65625 9.148438l102.8125 16.25-80.648438 80.460938v-20.578126c.082032-2.070312-.6875-4.082031-2.125-5.574218-1.4375-1.492188-3.421875-2.332032-5.492187-2.324219h-41.660157c-2.082031-.011719-4.078124.824219-5.535156 2.3125-1.457031 1.488281-2.2460935 3.503906-2.18749975 5.585937v141.226563c-.05859375 2.078125.73046875 4.09375 2.18749975 5.578125 1.457032 1.484375 3.457032 2.3125 5.535156 2.296875h41.660157c2.070312.011719 4.054687-.820313 5.492187-2.308594s2.207032-3.5 2.125-5.566406v-50.089844l141.597656-141.398437 146.855469 23.152344c.429688.066406.863281.097656 1.300781.097656 3.28125 0 6.230469-1.996094 7.449219-5.042969l5.949219-14.925781 82.957031 13.082031c4.367188.691406 8.46875-2.289063 9.15625-6.65625l11.914063-75.5c.683594-4.363281-2.296875-8.457031-6.65625-9.144531zm-416.523438 258.300781h-25v-125h25zm23.664063-346.976563 324.308593 51.164063-9.992187 25.117187-318.425781-50.238281zm-7.664063 282.382813v-25.304687l100.199219-100 21.761719 3.445312zm284.722656-112.421875-296.492187-46.777344 12.832031-81.335937 314.859375 49.675781zm95.988282-7.035156-71.488282-11.277344 22.902344-57.570312 58 9.152343zm0 0"/></svg>