<?xml version="1.0" encoding="iso-8859-1"?>
<!-- Generator: Adobe Illustrator 19.0.0, SVG Export Plug-In . SVG Version: 6.00 Build 0)  -->
<svg version="1.1" id="Capa_1" xmlns="http://www.w3.org/2000/svg" xmlns:xlink="http://www.w3.org/1999/xlink" x="0px" y="0px"
	 viewBox="0 0 463.001 463.001" style="enable-background:new 0 0 463.001 463.001;" xml:space="preserve">
<path d="M455.001,325.946v-66.445c0-15.383-11.086-28.217-25.687-30.953l-1.302-4.557c3.399,1.913,7.316,3.01,11.487,3.01
	c12.958,0,23.5-10.542,23.5-23.5v-16c0-12.958-10.542-23.5-23.5-23.5c-11.521,0-21.126,8.336-23.115,19.292l-28.7-100.447
	c-3.843-13.451-16.298-22.846-30.288-22.846h-87.544l-4.727-28.363c-1.896-11.379-11.645-19.637-23.18-19.637h-20.892
	c-11.536,0-21.284,8.258-23.18,19.636l-4.727,28.364h-87.543c-13.99,0-26.445,9.395-30.288,22.846L46.616,183.295
	c-1.989-10.957-11.594-19.294-23.116-19.294c-12.958,0-23.5,10.542-23.5,23.5v16c0,12.958,10.542,23.5,23.5,23.5
	c4.171,0,8.089-1.097,11.489-3.011l-1.302,4.558C19.086,231.284,8,244.118,8,259.501v66.445c-4.765,2.647-8,7.728-8,13.555v16
	c0,5.827,3.235,10.908,8,13.555v2.445c0,11.737,6.457,21.987,16,27.406v28.594c0,12.958,10.542,23.5,23.5,23.5h24
	c12.958,0,23.5-10.542,23.5-23.5v-24.5h273.001v24.5c0,12.958,10.542,23.5,23.5,23.5h24c12.958,0,23.5-10.542,23.5-23.5v-28.594
	c9.543-5.419,16-15.669,16-27.406v-2.445c4.765-2.647,8-7.728,8-13.555v-16C463.001,333.674,459.766,328.593,455.001,325.946z
	 M431,187.501c0-4.687,3.813-8.5,8.5-8.5s8.5,3.813,8.5,8.5v16c0,4.687-3.813,8.5-8.5,8.5s-8.5-3.813-8.5-8.5V187.501z M32,203.501
	c0,4.687-3.813,8.5-8.5,8.5s-8.5-3.813-8.5-8.5v-16c0-4.687,3.813-8.5,8.5-8.5s8.5,3.813,8.5,8.5V203.501z M374.092,356.001
	c-1.667-6.796-5.542-12.731-10.822-17h84.232c0.276,0,0.5,0.225,0.5,0.5v16c0,0.275-0.224,0.5-0.5,0.5H374.092z M15.5,356.001
	c-0.276,0-0.5-0.225-0.5-0.5v-16c0-0.275,0.224-0.5,0.5-0.5h84.232c-5.28,4.269-9.155,10.204-10.822,17H15.5z M55,299.501
	c0-13.51,10.991-24.5,24.5-24.5s24.5,10.99,24.5,24.5s-10.991,24.5-24.5,24.5S55,313.01,55,299.501z M288,275.001v17H175v-17H288z
	 M288,307.001v17H175v-17H288z M288,339.001v0.5c0,9.098-7.402,16.5-16.5,16.5h-80c-9.098,0-16.5-7.402-16.5-16.5v-0.5H288z
	 M359.001,299.501c0-13.51,10.991-24.5,24.5-24.5s24.5,10.99,24.5,24.5s-10.991,24.5-24.5,24.5S359.001,313.01,359.001,299.501z
	 M360.001,363.506c-0.003,9.095-7.403,16.495-16.5,16.495c-9.098,0-16.5-7.402-16.5-16.5s7.402-16.5,16.5-16.5
	c9.096,0,16.497,7.4,16.5,16.495c0,0.002,0,0.003,0,0.005S360.001,363.504,360.001,363.506z M312.911,356.001h-14.592
	c2.965-4.802,4.681-10.454,4.681-16.5v-0.5h20.733C318.453,343.269,314.578,349.204,312.911,356.001z M164.681,356.001h-14.591
	c-1.667-6.796-5.542-12.731-10.822-17H160v0.5C160,345.547,161.716,351.199,164.681,356.001z M136,363.501
	c0,9.098-7.402,16.5-16.5,16.5s-16.5-7.402-16.5-16.5s7.402-16.5,16.5-16.5S136,354.403,136,363.501z M150.091,371.001H191.5h80
	h41.411c1.667,6.796,5.542,12.731,10.822,17H139.268C144.548,383.732,148.424,377.797,150.091,371.001z M212.669,34.102
	c0.686-4.115,4.212-7.102,8.384-7.102h20.892c4.172,0,7.698,2.986,8.384,7.103l4.316,25.897H239v-8.5c0-4.143-3.358-7.5-7.5-7.5
	s-7.5,3.357-7.5,7.5v8.5h-15.646L212.669,34.102z M105.603,75.001H199.5h64h93.897c7.328,0,13.852,4.921,15.865,11.967l1.438,5.033
	H88.3l1.438-5.033C91.751,79.922,98.275,75.001,105.603,75.001z M84.014,107.001h294.972l34.573,121H49.443L84.014,107.001z
	 M39.486,243.001c0.006,0,0.012,0.001,0.018,0.001c0.008,0,0.016-0.002,0.024-0.002h383.796c0.002,0,0.004,0,0.006,0h0.172
	c9.098,0,16.5,7.402,16.5,16.5v64.5h-25.551c5.346-6.739,8.551-15.25,8.551-24.5c0-21.78-17.72-39.5-39.5-39.5
	s-39.5,17.72-39.5,39.5c0,9.25,3.205,17.761,8.551,24.5H303v-17h16.501c4.142,0,7.5-3.357,7.5-7.5s-3.358-7.5-7.5-7.5H303v-17h16.5
	c4.142,0,7.5-3.357,7.5-7.5s-3.358-7.5-7.5-7.5h-176c-4.142,0-7.5,3.357-7.5,7.5s3.358,7.5,7.5,7.5H160v17h-16.5
	c-4.142,0-7.5,3.357-7.5,7.5s3.358,7.5,7.5,7.5H160v17h-49.551c5.346-6.739,8.551-15.25,8.551-24.5c0-21.78-17.72-39.5-39.5-39.5
	S40,277.72,40,299.501c0,9.25,3.205,17.761,8.551,24.5H23v-64.5C23,250.408,30.394,243.009,39.486,243.001z M23,371.001h65.909
	c1.667,6.796,5.542,12.731,10.822,17H39.5c-9.098,0-16.5-7.402-16.5-16.5V371.001z M80,427.501c0,4.687-3.813,8.5-8.5,8.5h-24
	c-4.687,0-8.5-3.813-8.5-8.5v-24.513c0.167,0.003,0.332,0.013,0.5,0.013H80V427.501z M424.001,427.501c0,4.687-3.813,8.5-8.5,8.5
	h-24c-4.687,0-8.5-3.813-8.5-8.5v-24.5h40.5c0.168,0,0.333-0.01,0.5-0.013V427.501z M423.501,388.001H363.27
	c5.28-4.269,9.155-10.204,10.822-17h65.909v0.5C440.001,380.598,432.6,388.001,423.501,388.001z"/>
<g>
</g>
<g>
</g>
<g>
</g>
<g>
</g>
<g>
</g>
<g>
</g>
<g>
</g>
<g>
</g>
<g>
</g>
<g>
</g>
<g>
</g>
<g>
</g>
<g>
</g>
<g>
</g>
<g>
</g>
</svg>
