<svg width="56" height="56" viewBox="0 0 56 56" fill="none" xmlns="http://www.w3.org/2000/svg">
<path d="M25.212 1.02541C26.85 -0.732592 30.078 -0.132592 30.996 2.08141C31.59 3.83341 31.272 5.74141 31.326 7.55941C34.596 7.15141 38.082 6.79141 41.148 8.28541C43.8 9.55741 46.302 11.1234 48.96 12.3954C50.184 13.6494 48.138 14.9454 46.908 14.1894C49.842 21.0234 52.56 27.9534 55.458 34.7994C53.802 38.6574 50.184 42.0714 45.768 41.9634C41.322 42.1134 37.68 38.6874 36 34.8234C39.018 27.5874 41.976 20.3274 44.964 13.0854C42.93 11.9454 40.962 10.6254 38.706 9.95341C36.294 9.29941 33.774 9.74941 31.332 10.0014C31.332 23.0634 31.332 36.1194 31.332 49.1814C34.11 49.2654 36.906 48.9834 39.666 49.3434C42.324 49.8714 43.578 52.6854 43.404 55.1754C32.958 55.1814 22.506 55.1814 12.06 55.1754C11.94 52.8474 12.918 50.2254 15.33 49.4694C18.216 48.8634 21.204 49.3194 24.132 49.1814C24.138 35.5674 24.12 21.9534 24.138 8.33941C22.032 6.99541 19.938 5.44741 17.436 4.94941C15.204 4.58941 12.942 4.97941 10.722 5.22541C13.638 12.2874 16.512 19.3674 19.464 26.4114C17.79 30.2574 14.184 33.6714 9.762 33.5634C5.322 33.7134 1.68 30.2874 0 26.4234C2.916 19.4634 5.736 12.4674 8.646 5.50141C7.104 5.53141 5.334 4.46941 6.618 2.85541C10.284 3.20941 13.914 2.00341 17.562 2.54341C19.962 2.87941 22.086 4.13341 24.09 5.41741C24.174 3.91741 23.958 2.13541 25.212 1.02541ZM26.58 3.55141C26.466 18.7554 26.568 33.9714 26.532 49.1814C27.33 49.1814 28.134 49.1814 28.932 49.1814C28.896 33.9774 28.998 18.7734 28.884 3.57541C29.07 2.03941 26.424 2.01541 26.58 3.55141ZM3.126 25.1814C7.53 25.1814 11.934 25.1814 16.338 25.1814C14.136 19.8414 11.946 14.4894 9.732 9.15541C7.518 14.4894 5.322 19.8354 3.126 25.1814ZM39.132 33.5814C43.53 33.5814 47.934 33.5814 52.332 33.5814C50.136 28.2414 47.958 22.8894 45.732 17.5614C43.512 22.8894 41.328 28.2414 39.132 33.5814ZM3.336 27.6174C4.83 29.6394 7.08 31.2714 9.702 31.1694C12.342 31.2954 14.616 29.6514 16.128 27.6234C11.862 27.5574 7.602 27.5574 3.336 27.6174ZM39.336 36.0234C40.836 38.0514 43.11 39.6894 45.75 39.5694C48.372 39.6774 50.628 38.0394 52.128 36.0234C47.862 35.9574 43.596 35.9574 39.336 36.0234ZM14.862 52.7034C23.436 52.8354 32.022 52.8294 40.602 52.7034C39.822 52.1154 39.024 51.4194 37.968 51.5874C31.128 51.5754 24.294 51.5694 17.454 51.5874C16.41 51.4314 15.624 52.1214 14.862 52.7034Z" fill="#556080"/>
</svg>
